<svg width="15" height="15" viewBox="0 0 15 15" fill="none" xmlns="http://www.w3.org/2000/svg">
<g id="vuesax/bold/add-circle">
<g id="vuesax/bold/add-circle_2">
<g id="add-circle">
<path id="Vector" d="M1.35 7.5C1.35 4.11148 4.11148 1.35 7.5 1.35C10.8885 1.35 13.65 4.11148 13.65 7.5C13.65 10.8885 10.8885 13.65 7.5 13.65C4.11148 13.65 1.35 10.8885 1.35 7.5ZM8.06875 10V8.06875H10C10.3115 8.06875 10.5687 7.81148 10.5687 7.5C10.5687 7.18852 10.3115 6.93125 10 6.93125H8.06875V5C8.06875 4.68852 7.81148 4.43125 7.5 4.43125C7.18852 4.43125 6.93125 4.68852 6.93125 5V6.93125H5C4.68852 6.93125 4.43125 7.18852 4.43125 7.5C4.43125 7.81148 4.68852 8.06875 5 8.06875H6.93125V10C6.93125 10.3115 7.18852 10.5687 7.5 10.5687C7.81148 10.5687 8.06875 10.3115 8.06875 10Z" fill="#FBFFFD" stroke="#09D374" stroke-width="0.2"/>
</g>
</g>
</g>
</svg>
