<svg width="20" height="21" viewBox="0 0 20 21" fill="none" xmlns="http://www.w3.org/2000/svg">
<g id="ue900-&#216;&#168;&#217;&#130;&#216;&#167;&#216;&#185; &#217;&#133;&#216;&#170;&#216;&#168;&#216;&#177;&#218;&#169;&#217;&#135;--&#216;&#168;&#217;&#130;&#216;&#167;&#216;&#185;-&#217;&#133;&#216;&#170;&#216;&#168;&#216;&#177;&#218;&#169;&#217;&#135;">
<path id="Vector" d="M15.941 17.8887H3.97539C3.55703 17.8887 3.2125 18.1922 3.13867 18.5859H16.7777C16.7039 18.1922 16.3566 17.8887 15.941 17.8887ZM15.941 15.6082H3.97813C3.51055 15.6082 3.125 15.9883 3.125 16.4586C3.125 16.9316 3.50781 17.3117 3.97813 17.3117H15.941C16.4086 17.3117 16.7941 16.9316 16.7941 16.4586C16.7928 16.233 16.7025 16.017 16.5427 15.8577C16.3829 15.6985 16.1666 15.6088 15.941 15.6082ZM12.2031 7.25195C11.3281 6.88007 10.5898 6.56835 10.1168 6.20742C10.1168 6.20742 10 6.95898 10 6.125L10.1168 6.20742C9.96641 6.20742 10 6.125 10 6.125C10 6.71016 10 5.5 10 5.5C10 6.33398 10 6.125 10 6.125C9.52695 6.48594 8.58828 6.88007 7.71328 7.25195C5.66797 8.11874 3.125 9.19336 3.125 11.3891C3.125 13.4754 4.62891 14.7715 4.96797 15.0367H14.9484C15.2875 14.7715 16.7914 13.4754 16.7914 11.3891C16.7914 9.19336 14.2484 8.11874 12.2031 7.25195ZM11.5223 8.20625C11.4758 8.31562 11.3719 8.38125 11.2598 8.38125C11.2215 8.38125 11.1859 8.37304 11.1477 8.35937C10.6117 8.13242 10.1934 7.92734 9.81875 7.71953C9.68203 7.64296 9.63281 7.46796 9.70938 7.33125C9.78594 7.19453 9.96094 7.14531 10.0977 7.22187C10.4531 7.41875 10.8551 7.61289 11.3691 7.83437C11.5168 7.89179 11.5852 8.06132 11.5223 8.20625ZM14.7242 14.0961C14.6668 14.1508 14.5957 14.1781 14.5246 14.1781C14.4508 14.1781 14.377 14.1508 14.3195 14.0906C14.2102 13.9785 14.2102 13.798 14.325 13.6887C15.1125 12.923 15.684 11.7172 15.1891 10.7547C14.7516 9.90429 13.6551 9.43398 12.7773 9.05664L12.7445 9.04296C12.5996 8.98281 12.534 8.81328 12.5969 8.66836C12.6598 8.52343 12.8266 8.45781 12.9715 8.5207L13.0043 8.53164C13.9668 8.94726 15.1672 9.46132 15.6977 10.4949C16.3238 11.7144 15.6594 13.1855 14.7242 14.0961Z" fill="#429FF5"/>
</g>
</svg>
