<svg width="38" height="40" viewBox="0 0 38 40" fill="none" xmlns="http://www.w3.org/2000/svg">
<path d="M12.0558 1.85859C16.2826 -0.118403 21.2981 -0.620163 25.7511 0.849064C25.7631 1.04736 25.7898 1.44096 25.8047 1.63626C24.9237 1.58818 24.0456 1.50405 23.1794 1.35383C18.6936 0.632735 13.931 1.58518 10.1329 4.12102C5.62927 7.02642 2.46216 11.9719 1.7448 17.32C1.36082 20.0211 1.57216 22.8033 2.33417 25.4233C2.78364 27.0638 3.74806 28.509 4.13204 30.1735C3.92665 30.1615 3.51588 30.1404 3.30752 30.1284C2.01865 28.2776 1.34891 26.0693 0.890513 23.876C0.0481325 19.8378 0.598805 15.5503 2.25082 11.7916C4.20348 7.44706 7.71885 3.79052 12.0558 1.85859Z" fill="#22B945"/>
<path d="M16.5058 3.07552C17.878 2.71798 19.2949 2.6008 20.7088 2.71498C20.6939 3.00041 20.679 3.28885 20.6642 3.57728C19.2503 3.82065 17.8215 3.97388 16.3838 3.9829C16.4255 3.68244 16.4642 3.37898 16.5058 3.07552Z" fill="#22B945"/>
<path d="M3.05751 20.1651C3.03072 13.6242 6.8646 7.17645 12.7851 4.40625C12.922 4.68267 13.0559 4.95909 13.1929 5.23551C11.8921 6.18194 10.4603 6.96012 9.29648 8.08683C6.62051 10.6467 4.70953 14.12 4.35234 17.8576C4.27197 18.8041 4.11719 19.7415 3.8612 20.6549C3.5933 20.4896 3.32541 20.3274 3.05751 20.1651Z" fill="#22B945"/>
<path d="M31.5078 8.01821C31.6715 7.90404 31.996 7.6757 32.1597 7.56152C35.5471 10.4609 37.2586 14.9858 37.4938 19.3904C37.6069 23.729 36.1543 28.1487 33.2789 31.4087C32.9842 31.7872 32.499 31.8864 32.0734 32.0366C32.0287 30.976 32.88 30.2459 33.4188 29.4347C37.464 24.0445 37.4432 15.9713 33.4337 10.5661C32.7818 9.7248 32.1031 8.90456 31.5078 8.01821Z" fill="#22B945"/>
<path d="M35.4102 31.1559C35.8864 30.5069 36.2942 29.7798 36.9223 29.26C37.6962 29.0497 37.3598 30.1434 37.1425 30.5039C35.0053 34.0853 31.6656 36.9306 27.8198 38.487C22.1613 40.8666 15.2823 40.476 10.1179 37.0538C10.2191 36.7894 10.3233 36.528 10.4245 36.2666C11.9069 36.8165 13.2791 37.6397 14.8001 38.0904C19.4049 39.5146 24.5634 39.0729 28.8527 36.8525C31.4126 35.4734 33.7552 33.5866 35.4102 31.1559Z" fill="#22B945"/>
<path d="M27.3169 35.372C27.6652 34.1461 28.9481 33.7165 29.9899 33.2598C30.0881 33.5242 30.1893 33.7886 30.2876 34.053C29.463 34.7951 28.4807 35.4681 27.3169 35.372Z" fill="#22B945"/>
<path d="M19.7831 36.4625C20.9916 36.2703 22.206 36.0149 23.4354 36.081C23.8343 36.0389 23.9414 36.5076 24.1289 36.76C22.7597 37.391 21.2297 37.433 19.7593 37.2588C19.7682 36.9913 19.7771 36.7269 19.7831 36.4625Z" fill="#22B945"/>
<path d="M17.9316 5.40094C22.2715 4.64079 26.9507 6.00485 30.1714 9.05447C32.8027 11.383 34.4042 14.7481 34.8953 18.2183C35.4579 22.9655 33.6124 27.9711 30.0137 31.1018C26.6144 34.2236 21.6702 35.4885 17.1964 34.473C10.6419 33.178 5.44473 26.7753 5.65904 20.0061C5.42687 12.9724 11.0497 6.37141 17.9316 5.40094ZM18.8246 6.32333C14.5234 6.762 10.5109 9.43905 8.43324 13.2668C6.81099 16.2113 6.21567 19.7627 7.02233 23.0527C7.83196 26.6641 10.124 29.912 13.2911 31.7989C16.1873 33.6076 19.783 34.1605 23.1049 33.4815C26.8317 32.6672 30.1893 30.2456 32.1062 26.9105C34.0916 23.4583 34.4815 19.1317 33.1421 15.373C31.1745 9.51717 24.9088 5.55116 18.8246 6.32333Z" fill="#22B945"/>
<path d="M24.1795 15.2975C24.7034 14.7838 25.3553 14.27 26.1381 14.3751C27.6949 14.312 28.7694 16.4573 27.6889 17.6381C26.1411 19.4678 24.3194 21.0512 22.6733 22.7939C21.4321 23.9476 20.4111 25.3778 18.9615 26.2822C17.9257 26.844 16.863 26.0118 16.1546 25.2967C15.1425 24.227 13.9936 23.2716 13.1184 22.0818C12.1867 20.7147 13.4459 18.6446 15.083 18.912C16.4225 19.1914 17.1755 20.5345 18.3245 21.1955C20.3337 19.2876 22.2149 17.2505 24.1795 15.2975ZM25.4446 15.6431C22.974 17.8965 20.7653 20.4323 18.3186 22.7158C17.1398 22.0518 16.4403 20.8139 15.3271 20.0688C14.6871 19.6421 13.94 20.2791 13.7763 20.922C13.9787 21.6732 14.6186 22.1779 15.1217 22.7278C15.9909 23.554 16.7618 24.4945 17.7173 25.2216C18.3632 25.5641 18.9972 25.0984 19.4259 24.6297C21.6047 22.4243 23.7747 20.204 25.9804 18.0227C26.4209 17.5059 27.1323 16.9831 26.9745 16.2109C26.8971 15.5349 25.9208 15.0572 25.4446 15.6431Z" fill="#22B945"/>
<path d="M18.8246 6.32352C24.9088 5.55135 31.1746 9.51735 33.1421 15.3732C34.4816 19.1319 34.0917 23.4585 32.1063 26.9107C30.1893 30.2457 26.8317 32.6674 23.105 33.4816C19.7831 34.1607 16.1874 33.6078 13.2911 31.7991C10.124 29.9122 7.83202 26.6643 7.02238 23.0528C6.21572 19.7629 6.81104 16.2115 8.43329 13.267C10.511 9.43924 14.5234 6.76218 18.8246 6.32352ZM24.1796 15.2981C22.215 17.2511 20.3338 19.2881 18.3246 21.196C17.1756 20.535 16.4225 19.192 15.083 18.9126C13.4459 18.6452 12.1868 20.7153 13.1185 22.0824C13.9936 23.2722 15.1426 24.2276 16.1546 25.2972C16.863 26.0123 17.9257 26.8446 18.9616 26.2827C20.4112 25.3784 21.4321 23.9482 22.6734 22.7945C24.3195 21.0518 26.1411 19.4684 27.689 17.6386C28.7695 16.4579 27.6949 14.3126 26.1382 14.3757C25.3553 14.2706 24.7034 14.7843 24.1796 15.2981Z" fill="#22B945"/>
</svg>
