<svg width="56" height="56" viewBox="0 0 56 56" fill="none" xmlns="http://www.w3.org/2000/svg">
<g id="&#60;Group&#62;">
<path id="&#60;Path&#62;" d="M56 27.9918C56 35.5395 53.0082 42.3835 48.1508 47.4154C43.0647 52.6935 35.9195 55.9836 28 55.9836C20.0804 55.9836 12.9353 52.6935 7.84915 47.4154C2.99182 42.3835 0 35.5395 0 27.9918C0 12.5444 12.5305 0 28 0C43.4519 0 56 12.5444 56 27.9918Z" fill="#D0E7FD"/>
<g id="&#60;Group&#62;_2">
<g id="&#60;Group&#62;_3">
<path id="&#60;Path&#62;_2" d="M22.4561 12.5958C22.4561 11.329 23.4944 10.3086 24.7615 10.3086H30.6572C34.3354 10.3086 37.3272 13.2819 37.3272 16.9591V24.1198H23.2832L22.4561 12.5958Z" fill="#494949"/>
<path id="&#60;Path&#62;_3" d="M20.2562 24.9464H18.2852V15.3401C18.2852 13.1937 20.485 11.751 22.4561 12.5955C22.8961 14.9883 20.2562 24.9464 20.2562 24.9464Z" fill="#494949"/>
</g>
<g id="&#60;Group&#62;_4">
<path id="&#60;Path&#62;_4" d="M32.2763 32.549C31.6427 35.2761 29.9708 37.2114 27.9997 37.2114C26.0286 37.2114 24.3391 35.2585 23.7231 32.549L24.1983 30.7017L24.3391 30.1387H31.6427L32.1883 32.2499L32.2411 32.4435L32.2763 32.549Z" fill="#D2D4DA"/>
<g id="&#60;Group&#62;_5">
<g id="&#60;Group&#62;_6">
<path id="&#60;Path&#62;_5" d="M37.1865 22.2046C40.8295 18.1229 38.4009 28.0986 36.377 26.9198C32.8572 24.8789 37.1865 22.2046 37.1865 22.2046Z" fill="#F4F4F4"/>
<path id="&#60;Path&#62;_6" d="M48.1507 47.4168C46.25 49.3697 44.0853 51.0587 41.6919 52.3959C38.0137 54.4719 33.8251 55.7387 29.355 55.9498C28.9091 55.9733 28.4574 55.985 27.9998 55.985C25.7472 55.985 23.5473 55.7211 21.453 55.2109C18.514 54.5071 15.7685 53.3459 13.2871 51.8153C11.2808 50.5661 9.46811 49.1058 7.849 47.4168L8.32417 45.5167C9.06333 42.6665 11.2984 40.4496 14.167 39.7635L14.4838 39.6931L18.0036 38.8486L18.9716 38.6199C19.3705 38.526 19.7577 38.3912 20.1331 38.2152C20.4382 38.0627 20.7256 37.8868 20.9954 37.6874C21.3005 37.4763 21.5762 37.2417 21.8226 36.9837C22.4914 36.2623 22.9841 35.4002 23.2481 34.415L23.6177 32.9723L23.7233 32.5676V32.55L24.1985 30.7027L24.3393 30.1396H31.6428L32.1884 32.2509L32.2412 32.4444L32.2764 32.55V32.5676L32.382 32.9723L32.7516 34.415C33.1036 35.7521 33.8955 36.9133 35.0043 37.6874C35.6026 38.1273 36.289 38.4439 37.0281 38.6199L37.9081 38.831L41.8151 39.7635C44.6837 40.4496 46.9364 42.6665 47.6579 45.5167L48.1507 47.4168Z" fill="#F4F4F4"/>
<path id="&#60;Path&#62;_7" d="M32.2763 32.55C31.6427 35.2771 29.9708 37.2124 27.9997 37.2124C26.0286 37.2124 24.3391 35.2595 23.7231 32.55L24.1983 30.7027L24.3391 30.1396H31.6427L32.1883 32.2509L32.2411 32.4444L32.2763 32.55Z" fill="#D2D4DA"/>
<path id="&#60;Path&#62;_8" d="M18.8132 22.2046C15.1702 18.1229 17.5989 28.0986 19.6051 26.9198C23.1425 24.8789 18.8132 22.2046 18.8132 22.2046Z" fill="#F4F4F4"/>
<path id="&#60;Path&#62;_9" d="M36.4649 19.2663C36.4649 19.5713 36.4473 19.8763 36.4121 20.1812C36.3769 20.4451 36.2537 21.6239 36.0425 23.1194H36.0249C35.9193 23.9463 35.7609 24.8612 35.5673 25.7937C35.5673 25.8054 35.5673 25.8171 35.5673 25.8288C35.1274 28.0984 34.4938 30.3505 33.6667 31.1598C32.7339 32.0923 31.9948 32.9368 31.1324 33.5525C30.2877 34.1683 29.3373 34.5378 27.9998 34.5378C26.6623 34.5378 25.7119 34.1683 24.8496 33.5525C24.0048 32.9368 23.2481 32.0923 22.3329 31.1598C21.5058 30.3505 20.8722 28.0809 20.4146 25.8288C20.4146 25.8288 20.4146 25.823 20.4146 25.8113C20.3677 25.518 20.3149 25.2307 20.2562 24.9492C20.2328 24.8201 20.2093 24.697 20.1858 24.5797C20.0978 24.0695 20.0274 23.5768 19.957 23.1194C19.7107 21.3952 19.5875 20.1108 19.5875 20.1108C19.5523 19.8293 19.5347 19.5478 19.5347 19.2663C19.5347 19.1842 19.5347 19.108 19.5347 19.0376C19.5581 18.3691 19.652 17.724 19.8162 17.1023C19.828 17.0788 19.8339 17.0495 19.8339 17.0143C20.7842 13.5835 23.8288 11.0148 27.507 10.8213C27.6654 10.8037 27.8238 10.8037 27.9998 10.8037C30.3404 10.8037 32.4523 11.7538 33.9834 13.2844C35.3034 14.604 36.1833 16.3634 36.4121 18.3163C36.4473 18.633 36.4649 18.9497 36.4649 19.2663Z" fill="#F4F4F4"/>
<path id="&#60;Path&#62;_10" d="M29.3198 26.8674C29.3198 27.448 28.739 27.923 27.9999 27.923C27.2607 27.923 26.6624 27.448 26.6624 26.8674C26.6624 26.797 26.6741 26.7266 26.6976 26.6562C26.8207 27.1489 27.3487 27.5183 27.9999 27.5183C28.651 27.5183 29.179 27.1489 29.3022 26.6562C29.3257 26.7266 29.3315 26.797 29.3198 26.8674Z" fill="#DEDFE0"/>
</g>
</g>
</g>
<path id="&#60;Path&#62;_11" d="M36.7115 19.3349C36.7115 19.6516 36.6939 19.9624 36.6587 20.2674C36.6235 20.5489 36.0427 23.1176 36.0427 23.1176C23.8818 20.1618 22.8962 14.9892 22.8962 14.9892C22.949 19.9331 19.9572 23.1176 19.9572 23.1176C19.6932 21.3582 19.3237 20.197 19.3237 20.197C19.3002 19.9155 19.2885 19.6282 19.2885 19.3349C19.2885 19.2528 19.2885 19.1766 19.2885 19.1062C19.3119 18.4142 19.4058 17.7515 19.57 17.1181C19.5818 17.0829 19.5876 17.0536 19.5876 17.0301C20.5556 13.4762 23.7058 10.8371 27.4896 10.626C27.6656 10.626 27.824 10.626 28 10.626C30.411 10.626 32.5757 11.5936 34.1596 13.1771C35.5323 14.5318 36.4299 16.344 36.6587 18.3673C36.6939 18.684 36.7115 19.0065 36.7115 19.3349Z" fill="#494949"/>
<g id="&#60;Group&#62;_7">
<path id="&#60;Path&#62;_12" d="M48.1508 47.4311C43.0471 52.7093 35.9019 55.9993 28 55.9993C20.0804 55.9993 12.9352 52.7093 7.84912 47.4311L8.3243 45.531C9.06345 42.6808 11.2985 40.464 14.1672 39.7778L18.0213 38.8629L18.9717 38.6342C19.3941 38.5286 19.8164 38.3703 20.2036 38.1768C22.1571 40.2528 24.9201 41.5548 28 41.5548C31.0798 41.5548 33.8428 40.2528 35.7963 38.1768C36.1835 38.3703 36.5883 38.5286 37.0283 38.6342L37.8554 38.8277L41.8152 39.7778C44.6838 40.464 46.9365 42.6808 47.658 45.531L48.1508 47.4311Z" fill="#429FF5"/>
<path id="&#60;Path&#62;_13" d="M37.8554 38.8277C36.9931 39.8658 33.8428 43.1734 28 43.4021C21.2596 43.666 18.1974 39.1268 18.0214 38.8629L18.9717 38.6342C19.3941 38.5286 19.8165 38.3703 20.2036 38.1768C22.1571 40.2528 24.9202 41.5548 28 41.5548C31.0798 41.5548 33.8429 40.2528 35.7963 38.1768C36.1835 38.3703 36.5883 38.5286 37.0283 38.6342L37.8554 38.8277Z" fill="#494949"/>
</g>
</g>
</g>
</svg>
