<svg width="37" height="40" viewBox="0 0 37 40" fill="none" xmlns="http://www.w3.org/2000/svg">
<path d="M11.5558 1.85859C15.7826 -0.118403 20.7981 -0.620163 25.2511 0.849064C25.2631 1.04736 25.2898 1.44096 25.3047 1.63626C24.4237 1.58818 23.5456 1.50405 22.6794 1.35383C18.1936 0.632735 13.431 1.58518 9.63288 4.12102C5.12927 7.02642 1.96216 11.9719 1.2448 17.32C0.860817 20.0211 1.07216 22.8033 1.83417 25.4233C2.28364 27.0638 3.24806 28.509 3.63204 30.1735C3.42665 30.1615 3.01588 30.1404 2.80752 30.1284C1.51865 28.2776 0.848911 26.0693 0.390513 23.876C-0.451867 19.8378 0.098805 15.5503 1.75082 11.7916C3.70348 7.44706 7.21885 3.79052 11.5558 1.85859Z" fill="#DB2929"/>
<path d="M16.0058 3.07552C17.378 2.71798 18.7949 2.6008 20.2088 2.71498C20.1939 3.00041 20.179 3.28885 20.1642 3.57728C18.7503 3.82065 17.3215 3.97388 15.8838 3.9829C15.9255 3.68244 15.9642 3.37898 16.0058 3.07552Z" fill="#DB2929"/>
<path d="M2.55751 20.1651C2.53072 13.6242 6.3646 7.17645 12.2851 4.40625C12.422 4.68267 12.5559 4.95909 12.6929 5.23551C11.3921 6.18194 9.96034 6.96012 8.79648 8.08683C6.12051 10.6467 4.20953 14.12 3.85234 17.8576C3.77197 18.8041 3.61719 19.7415 3.3612 20.6549C3.0933 20.4896 2.82541 20.3274 2.55751 20.1651Z" fill="#DB2929"/>
<path d="M31.0078 8.01821C31.1715 7.90404 31.496 7.6757 31.6597 7.56152C35.0471 10.4609 36.7586 14.9858 36.9938 19.3904C37.1069 23.729 35.6543 28.1487 32.7789 31.4087C32.4842 31.7872 31.999 31.8864 31.5734 32.0366C31.5287 30.976 32.38 30.2459 32.9188 29.4347C36.964 24.0445 36.9432 15.9713 32.9337 10.5661C32.2818 9.7248 31.6031 8.90456 31.0078 8.01821Z" fill="#DB2929"/>
<path d="M34.9102 31.1559C35.3864 30.5069 35.7942 29.7798 36.4223 29.26C37.1962 29.0497 36.8598 30.1434 36.6425 30.5039C34.5053 34.0853 31.1656 36.9306 27.3198 38.487C21.6613 40.8666 14.7823 40.476 9.61792 37.0538C9.71912 36.7894 9.82331 36.528 9.92451 36.2666C11.4069 36.8165 12.7791 37.6397 14.3001 38.0904C18.9049 39.5146 24.0634 39.0729 28.3527 36.8525C30.9126 35.4734 33.2552 33.5866 34.9102 31.1559Z" fill="#DB2929"/>
<path d="M26.8169 35.372C27.1652 34.1461 28.4481 33.7165 29.4899 33.2598C29.5881 33.5242 29.6893 33.7886 29.7876 34.053C28.963 34.7951 27.9807 35.4681 26.8169 35.372Z" fill="#DB2929"/>
<path d="M19.2831 36.4625C20.4916 36.2703 21.706 36.0149 22.9354 36.081C23.3343 36.0389 23.4414 36.5076 23.6289 36.76C22.2597 37.391 20.7297 37.433 19.2593 37.2588C19.2682 36.9913 19.2771 36.7269 19.2831 36.4625Z" fill="#DB2929"/>
<circle cx="18.5" cy="20.5" r="13.5" fill="#DB2929"/>
<path d="M19.6375 20.5775L21.9375 18.2775C22.2275 17.9875 22.2275 17.5075 21.9375 17.2175C21.6475 16.9275 21.1675 16.9275 20.8775 17.2175L18.5775 19.5175L16.2775 17.2175C15.9875 16.9275 15.5075 16.9275 15.2175 17.2175C14.9275 17.5075 14.9275 17.9875 15.2175 18.2775L17.5175 20.5775L15.2175 22.8775C14.9275 23.1675 14.9275 23.6475 15.2175 23.9375C15.3675 24.0875 15.5575 24.1575 15.7475 24.1575C15.9375 24.1575 16.1275 24.0875 16.2775 23.9375L18.5775 21.6375L20.8775 23.9375C21.0275 24.0875 21.2175 24.1575 21.4075 24.1575C21.5975 24.1575 21.7875 24.0875 21.9375 23.9375C22.2275 23.6475 22.2275 23.1675 21.9375 22.8775L19.6375 20.5775Z" fill="#FDF2F2"/>
</svg>
