<svg width="96" height="90" viewBox="0 0 96 90" fill="none" xmlns="http://www.w3.org/2000/svg">
<g id="No Item">
<g id="#a2a8b9ff">
<path id="Vector" d="M44.7564 0C44.8658 0.00184973 45.0881 0.00184978 45.1974 0.00184978L45.2697 0.221968C46.4037 3.82895 47.5303 7.43778 48.6514 11.0485C48.7403 11.424 49.0498 11.8254 48.8182 12.2064C47.2283 11.5904 45.7274 10.7673 44.1542 10.1069C44.0152 12.1028 43.9207 14.1024 43.8133 16.1019C43.8058 16.3276 43.7632 16.5477 43.691 16.7604C43.2611 16.7197 42.8608 16.507 42.5273 16.2425C41.6842 13.5808 40.893 10.9005 40.0517 8.23687C39.8516 7.57466 39.6107 6.91986 39.5403 6.22806C41.1691 6.71269 42.5996 7.6875 44.2246 8.18507C44.4618 5.53626 44.5378 2.87449 44.7268 0.221968L44.7564 0Z" fill="#429FF5"/>
<path id="Vector_2" d="M41.0078 22.0936C43.4445 21.1909 46.1461 21.0652 48.6606 21.6996C48.5365 21.7829 48.4105 21.8643 48.2863 21.9475C48.5124 21.9882 48.7403 22.0326 48.9682 22.0807C48.7737 22.1306 48.581 22.1806 48.3901 22.2342C48.4216 22.3951 48.4179 22.5598 48.3957 22.7225C48.5791 22.7521 48.7625 22.7799 48.9478 22.8076C48.7273 23.0166 48.5087 23.2257 48.2882 23.4328C48.5198 23.468 48.7496 23.5087 48.9793 23.5531C48.8033 23.7103 48.5402 23.6659 48.3252 23.7177C48.3642 23.775 48.442 23.8879 48.4809 23.9452C48.4327 24.0247 48.3864 24.1061 48.3401 24.1894C48.5402 24.2227 48.7403 24.2578 48.9404 24.293C48.7348 24.4946 48.5272 24.6962 48.3215 24.8978C48.5476 24.9681 48.7755 25.0365 49.0034 25.105C48.7829 25.1309 48.5624 25.1568 48.3438 25.1827C48.3845 25.2474 48.4679 25.3787 48.5087 25.4435C48.3456 25.5637 48.1844 25.6877 48.0232 25.8097C47.0207 25.5064 45.9664 25.4342 44.925 25.4638C43.7799 25.4768 42.694 25.8837 41.6434 26.2981C41.5118 26.1871 41.3784 26.0779 41.2468 25.9688C41.4674 25.917 41.6879 25.8671 41.9102 25.8171C41.7157 25.7727 41.5211 25.7228 41.3265 25.6821C41.3543 25.597 41.3821 25.5119 41.4099 25.4287C41.3877 25.3676 41.3414 25.2437 41.3191 25.1827C41.5304 25.1438 41.7397 25.105 41.9528 25.068C41.7323 25.0199 41.5118 24.9737 41.2932 24.9274C41.3284 24.8738 41.3988 24.7646 41.434 24.7091C41.3951 24.6204 41.3562 24.5334 41.321 24.4446C41.5341 24.4132 41.749 24.3836 41.964 24.354C41.7564 24.3004 41.5489 24.2504 41.3451 24.1986C41.3599 24.0395 41.371 23.8823 41.3803 23.7232C41.5563 23.6714 41.7305 23.6123 41.9065 23.5623C41.7157 23.5235 41.5248 23.4846 41.3358 23.4458C41.4025 23.2996 41.4266 23.1498 41.3321 23.0074C41.5341 22.9426 41.736 22.8779 41.938 22.8132C41.7194 22.7854 41.5026 22.7577 41.2839 22.7299C41.3339 22.6652 41.4321 22.5357 41.4822 22.4691C41.3413 22.3637 41.2061 22.2508 41.0727 22.1399L41.0078 22.0936Z" fill="#429FF5"/>
<path id="Vector_3" d="M41.7083 41.9941C42.7238 42.4362 43.8022 42.7969 44.9233 42.8006C45.9535 42.8432 46.9875 42.7414 47.9881 42.4917C48.3124 42.5861 48.6311 42.7007 48.9498 42.8154C48.7478 42.8746 48.5495 42.9357 48.3494 42.993C48.5292 43.1262 48.4439 43.2797 48.3364 43.4221C48.5421 43.4517 48.7497 43.4832 48.9572 43.5146C48.7404 43.7236 48.5236 43.9327 48.3068 44.1435C48.5366 44.1935 48.7663 44.2434 48.9961 44.2934C48.7775 44.3415 48.5588 44.3895 48.342 44.4376C48.4365 44.593 48.5384 44.741 48.6348 44.8964C48.5588 44.9815 48.405 45.1535 48.329 45.2386C48.5532 45.2978 48.7775 45.3533 49.0035 45.4125C48.7886 45.455 48.5718 45.5012 48.3568 45.5456C48.3994 45.6326 48.4421 45.7232 48.4828 45.8138C48.4569 45.8656 48.405 45.9692 48.3791 46.021C48.431 46.0654 48.5384 46.1523 48.5903 46.1967C47.9455 47.5544 47.0894 48.7993 46.4297 50.1515C46.2889 50.4511 46.0517 50.6879 45.8275 50.9265C45.4736 50.9247 45.0456 50.9339 44.8306 50.5973C44.2339 49.7334 43.7651 48.7882 43.2278 47.8874C42.683 47.1142 42.4958 45.8878 41.4026 45.7121C41.536 45.6363 41.6676 45.5623 41.801 45.4846C41.6954 44.323 41.8436 43.1521 41.7083 41.9941Z" fill="#429FF5"/>
</g>
<g id="#d7dce7ff">
<path id="Vector_4" d="M29.1435 3.3018C34.0873 1.31703 39.4127 0.37182 44.7271 0.221991C44.5381 2.87451 44.4621 5.53628 44.2249 8.1851C42.5999 7.68752 41.1694 6.71271 39.5406 6.22808C39.611 6.91988 39.8519 7.57469 40.052 8.23689C40.8933 10.9005 41.6845 13.5808 42.5276 16.2425C42.8611 16.5071 43.2614 16.7198 43.6913 16.7605C43.7635 16.5477 43.8062 16.3276 43.8136 16.102C43.921 14.1024 44.0155 12.1028 44.1545 10.107C45.7277 10.7673 47.2286 11.5905 48.8185 12.2064C49.0501 11.8254 48.7407 11.424 48.6517 11.0485C47.5307 7.43781 46.404 3.82897 45.27 0.221991C53.6826 0.190546 62.0932 2.54156 69.2272 7.00127C73.1908 9.51691 76.8652 12.5449 79.8393 16.1889C83.3377 20.3157 86.0986 25.0732 87.8849 30.1784C89.3988 34.5716 90.3234 39.1848 90.4346 43.835C90.6329 50.6661 89.245 57.549 86.3784 63.7585C81.1604 75.3712 70.6855 84.4737 58.4707 88.0973C55.1983 89.0462 51.837 89.7732 48.4238 89.9064C43.6913 90.2079 38.918 89.7806 34.3189 88.6375C28.4727 87.1077 22.9027 84.47 18.1312 80.7557C15.122 78.4214 12.3295 75.7763 10.0244 72.739C9.13129 71.4682 8.15476 70.2529 7.3728 68.9082C4.81939 64.9313 2.99235 60.5122 1.83053 55.9379C1.52294 54.4303 1.06896 52.9468 0.961484 51.4041C0.598299 48.7183 0.446354 46.0011 0.516768 43.2912C0.689095 39.1645 1.45994 35.0691 2.73294 31.1403C6.78911 18.551 16.7637 8.01862 29.1435 3.3018ZM68.9789 8.84361C66.3273 11.7514 63.7183 14.6962 61.0537 17.5947C60.8721 17.8 60.6683 18.0072 60.6442 18.2976C62.399 18.3401 64.1575 18.2939 65.9122 18.3198C65.1711 20.4821 64.1779 22.5742 63.4737 24.7495C63.8981 24.8068 64.3279 24.8013 64.7541 24.7754C65.562 24.0429 66.1828 23.1347 66.9647 22.3763C68.5509 20.4858 70.2908 18.7304 71.8566 16.8215C71.7936 16.779 71.6676 16.692 71.6028 16.6495C69.9592 16.5219 68.2952 16.6994 66.6553 16.5496C67.6263 14.0543 68.5805 11.5535 69.5793 9.06927C69.6719 8.76406 69.8498 8.45516 69.7831 8.12591C69.4107 8.21654 69.2272 8.59019 68.9789 8.84361ZM18.802 9.97194L18.7038 10.1403C19.7971 13.098 21.0293 16.0113 22.1022 18.9783C21.487 18.9635 20.8718 18.9598 20.2566 18.9709C19.0874 18.9635 17.9163 18.9469 16.7489 18.9875C16.2115 19.2687 17.0268 19.7681 17.2251 20.0641C18.2405 21.1443 19.1652 22.3208 20.2232 23.3511C21.5222 24.8198 22.7933 26.3236 24.1534 27.7368C24.5833 27.759 25.0151 27.759 25.4468 27.7257C25.4449 27.6388 25.4431 27.463 25.4412 27.3761C24.6093 25.1749 23.6791 23.0107 22.8804 20.7966C24.726 20.7892 26.5808 20.8891 28.4208 20.767C28.6339 20.4858 28.2652 20.2713 28.1299 20.0678C25.2374 16.914 22.3894 13.7195 19.5173 10.5491C19.2949 10.3382 19.1318 10.0219 18.802 9.97194ZM41.0082 22.0933L41.073 22.1395C37.5597 23.3048 34.7988 26.2774 33.5777 29.7327C32.6401 32.4111 32.6605 35.4021 33.6185 38.0731C32.944 38.0454 32.7272 38.9499 32.0119 38.9147C32.0712 38.9684 32.1917 39.0738 32.251 39.1275C31.5635 39.1367 31.3059 39.8914 30.6667 40.0153C30.0663 40.3205 29.7995 41.1622 29.0119 41.1159C29.1064 41.1992 29.2009 41.2824 29.2973 41.3675C28.3949 41.3471 28.1781 42.4718 27.3405 42.5994C26.9014 42.8288 26.6401 43.3523 26.075 43.3504C26.1546 43.4299 26.2362 43.5095 26.3158 43.5909C25.4857 43.5576 25.2541 44.5657 24.5277 44.7654C23.8069 44.9745 23.5679 45.953 22.7377 45.94C22.8211 46.0214 22.9064 46.1028 22.9897 46.186C22.0725 46.1435 21.8539 47.3236 20.9848 47.4235C20.5605 47.9599 19.9638 48.3613 19.3449 48.6388C18.9169 49.042 18.5704 49.6081 17.9181 49.6469C18.0034 49.7283 18.0905 49.8097 18.1775 49.8929C17.9422 49.9373 17.6569 49.9077 17.4956 50.1241C17.2362 50.4552 16.8063 50.6106 16.5803 50.9658C16.0929 51.1267 15.5852 51.4485 15.4648 51.9813C15.8539 52.6083 16.4876 53.0467 16.9787 53.5942C17.3585 53.9198 17.6309 54.4322 18.1535 54.5469C18.5259 55.0629 18.9577 55.5346 19.4635 55.923C19.9879 56.3411 20.3326 57.007 21.0071 57.2179L20.9607 57.364C20.0732 57.8024 19.3357 58.5034 18.6167 59.1564C17.8625 59.6466 17.2066 60.2699 16.4487 60.7583C16.0411 61.0894 15.5185 61.3243 15.261 61.8015C14.0658 62.8965 14.0787 64.9609 15.2387 66.0799C15.7928 66.7126 16.6359 66.9234 17.3863 67.2305C18.5945 67.7188 19.8026 68.2108 21.0386 68.6215C21.083 69.3651 20.9478 70.0957 20.8773 70.8319C20.8885 72.1212 20.8273 73.4104 20.8885 74.6997L21.0293 74.7238C21.0497 75.9594 21.7723 77.0785 22.6395 77.9109C23.5271 78.7636 24.7316 79.1058 25.8526 79.5294C27.4647 80.1416 29.0916 80.7132 30.7074 81.3199C30.9075 81.3773 31.1114 81.4956 31.3282 81.4605C32.4085 81.9692 33.561 82.3003 34.6654 82.7479C38.0916 83.9632 41.4751 85.3042 44.9198 86.4677C46.1298 85.8961 47.2546 85.1526 48.4405 84.5292C51.7314 82.6425 55.0686 80.8371 58.3206 78.8875C58.3706 78.882 58.4688 78.8727 58.5188 78.8672C61.5614 77.1543 64.5837 75.4026 67.6392 73.7101C68.3193 73.3198 68.8233 72.7038 69.3347 72.1249C69.8443 71.5367 69.9999 70.7542 70.1593 70.0162L70.2593 70.0384C70.352 68.0444 70.276 66.0466 70.2445 64.0508C66.1624 66.4036 62.121 68.8324 58.0371 71.1797C57.987 71.2315 57.8888 71.3313 57.8388 71.3813C56.916 71.8437 56.0692 72.4412 55.1649 72.9388C54.5053 73.2884 53.8456 73.7249 53.0711 73.7323C53.0414 73.6639 52.984 73.5251 52.9562 73.4548C53.6659 73.4659 53.9568 72.7094 54.6109 72.5596C55.0593 72.2673 55.7579 72.1915 55.9765 71.6513C56.3972 71.4849 56.8011 71.2832 57.2162 71.1038C57.546 70.7931 57.8666 70.4694 58.3261 70.3565C58.8505 69.8571 59.5083 69.4243 60.2347 69.3244C60.1513 69.2319 60.0661 69.1394 59.9845 69.0488C60.7257 68.886 61.3354 68.3903 62.0543 68.1572C62.1303 67.8372 62.1933 67.3396 62.651 67.5394C62.5602 67.6485 62.4694 67.7595 62.3805 67.8705C62.6417 67.8594 62.9048 67.8464 63.1698 67.8316C63.2013 66.8328 64.3001 66.609 65.0562 66.3408C64.9617 66.2538 64.8672 66.1687 64.7745 66.0855C65.0636 66.0374 65.3489 65.9616 65.5954 65.7951C66.0086 65.5361 66.5701 65.4344 66.7906 64.9553C67.428 64.7074 68.0932 64.4633 68.5268 63.9065C68.9938 63.8177 69.3217 63.5033 69.6497 63.187C70.3575 62.9095 70.9746 62.4045 71.7343 62.275C71.6657 62.2232 71.5305 62.1215 71.4619 62.0716C71.8974 61.9051 72.3143 61.6924 72.7349 61.4945C73.1333 60.897 73.9449 60.8581 74.3859 60.2995C74.9344 60.0258 75.507 59.7169 75.8275 59.1638C75.9072 58.5885 75.8831 57.9689 75.557 57.4694C75.1809 56.8683 74.8251 56.1117 74.0987 55.8861C73.7281 55.1906 73.0796 54.6893 72.5367 54.1288C71.8585 53.3149 70.9913 52.6675 70.3816 51.7963C71.3322 50.9676 72.2958 50.1426 73.3019 49.3805C73.7485 49.1993 74.0728 48.8349 74.4526 48.5556C75.2216 47.947 76.0573 47.2681 76.339 46.2915C76.2778 45.8401 75.7293 45.94 75.4773 45.6792C75.1438 45.3315 74.7547 45.03 74.297 44.8672C74.2433 44.9171 74.1376 45.0189 74.0857 45.0688C74.0265 44.8635 73.9653 44.6563 73.9079 44.4528C73.7077 44.4214 73.5076 44.3899 73.3093 44.3585C73.3946 44.2697 73.4817 44.1828 73.5706 44.0958C73.2927 44.033 72.9832 43.9978 72.7998 43.7536C72.4273 43.2764 71.7677 43.2265 71.3971 42.74C70.6985 42.346 70.113 41.7874 69.3921 41.4285C69.0197 41.0956 68.6991 40.6923 68.1747 40.6017C67.8449 40.2669 67.5095 39.9117 67.0111 39.8655C67.0796 39.8119 67.2149 39.7046 67.2834 39.6509C66.609 39.5677 66.0586 39.1386 65.4193 38.9425C64.5596 38.6558 63.7276 38.2969 62.916 37.8955C62.1396 37.4941 61.2501 37.4054 60.4645 37.0299C59.6102 36.6414 58.6838 36.4083 57.887 35.9015C58.013 35.2856 58.0037 34.6567 58.0148 34.0333C58.1371 30.7167 56.727 27.4408 54.4349 25.0676C52.8246 23.4991 50.8586 22.2579 48.661 21.6993C46.1465 21.0648 43.4448 21.1906 41.0082 22.0933Z" fill="#F4F5F7"/>
<path id="Vector_5" d="M84.2567 6.008C85.1795 5.83412 86.0504 6.90512 85.6724 7.7708C85.4445 8.76965 83.9899 9.03416 83.3896 8.22028C82.6094 7.47854 83.2061 6.05794 84.2567 6.008Z" fill="#429FF5"/>
<path id="Vector_6" d="M87.5996 10.0647C89.1524 9.73919 90.5606 11.4983 89.9325 12.9429C89.4655 14.4264 87.2716 14.8093 86.308 13.6088C85.1685 12.4546 85.9838 10.2312 87.5996 10.0647Z" fill="#429FF5"/>
<path id="Vector_7" d="M85.5798 75.9314C87.1252 75.5892 88.5816 77.3723 87.9368 78.8207C87.4458 80.3615 85.1073 80.6944 84.2049 79.3608C83.2061 78.1733 84.0252 76.096 85.5798 75.9314Z" fill="#429FF5"/>
<path id="Vector_8" d="M4.21527 79.0648C5.12879 78.9058 6.02934 79.9638 5.62168 80.8295C5.38821 81.9578 3.63158 82.1021 3.15907 81.0792C2.66432 80.2709 3.26839 79.1148 4.21527 79.0648Z" fill="#429FF5"/>
<path id="Vector_9" d="M7.55623 83.1379C9.08865 82.8086 10.4839 84.5659 9.88914 85.992C9.47963 87.3461 7.61738 87.8159 6.53894 86.9595C5.53648 86.2473 5.4568 84.6029 6.34253 83.7705C6.65753 83.4265 7.10225 83.2267 7.55623 83.1379Z" fill="#429FF5"/>
</g>
<g id="#a3a8b9ff">
<path id="Vector_10" d="M68.9783 8.84367C69.2266 8.59026 69.41 8.21661 69.7825 8.12598C69.8492 8.45523 69.6713 8.76413 69.5786 9.06934C68.5799 11.5535 67.6256 14.0544 66.6546 16.5497C68.2945 16.6995 69.9585 16.5219 71.6021 16.6496C71.6669 16.6921 71.7929 16.779 71.856 16.8216C70.2902 18.7305 68.5502 20.4859 66.9641 22.3763C66.1821 23.1347 65.5614 24.0429 64.7535 24.7754C64.3273 24.8013 63.8974 24.8069 63.4731 24.7495C64.1772 22.5743 65.1704 20.4822 65.9116 18.3199C64.1568 18.294 62.3983 18.3402 60.6436 18.2977C60.6676 18.0073 60.8715 17.8001 61.0531 17.5948C63.7177 14.6962 66.3267 11.7515 68.9783 8.84367Z" fill="#429FF5"/>
</g>
<g id="#a2a8b8ff">
<path id="Vector_11" d="M18.8016 9.97168C19.1314 10.0216 19.2945 10.3379 19.5168 10.5488C22.389 13.7192 25.237 16.9137 28.1295 20.0675C28.2648 20.271 28.6335 20.4856 28.4204 20.7667C26.5804 20.8888 24.7256 20.7889 22.88 20.7963C23.6786 23.0105 24.6088 25.1746 25.4408 27.3758C25.4427 27.4628 25.4445 27.6385 25.4464 27.7254C25.0146 27.7587 24.5829 27.7587 24.153 27.7365C22.7929 26.3233 21.5218 24.8195 20.2228 23.3508C20.2914 23.2842 20.4266 23.1473 20.4952 23.0789C20.3988 22.4814 20.4822 21.8747 20.4563 21.2717C20.473 20.6058 20.4081 19.9325 20.4989 19.2703C20.4378 19.1945 20.3155 19.0446 20.2562 18.9706C20.8714 18.9595 21.4865 18.9632 22.1017 18.978C21.0289 16.0111 19.7966 13.0977 18.7034 10.14L18.8016 9.97168Z" fill="#429FF5"/>
</g>
<g id="#a7aebfff">
<path id="Vector_12" d="M17.2244 20.0638C17.0261 19.7679 16.2108 19.2685 16.7481 18.9873C17.9155 18.9466 19.0866 18.9632 20.2558 18.9706C20.3151 19.0446 20.4374 19.1945 20.4986 19.2703C20.4078 19.9325 20.4726 20.6058 20.456 21.2717C20.4819 21.8747 20.3985 22.4814 20.4949 23.0789C20.4263 23.1473 20.291 23.2842 20.2225 23.3508C19.1644 22.3205 18.2398 21.1441 17.2244 20.0638Z" fill="#429FF5"/>
</g>
<g id="#a9afc0ff">
<path id="Vector_13" d="M48.6605 21.6992C50.8582 22.2578 52.8242 23.499 54.4344 25.0676C56.7266 27.4408 58.1367 30.7167 58.0144 34.0332C58.0033 34.6566 58.0126 35.2855 57.8866 35.9015C57.7494 36.6173 57.5456 37.3202 57.3344 38.0194C56.6932 39.8488 55.6148 41.5228 54.2214 42.8731C53.4246 43.6704 52.4777 44.2919 51.5141 44.869C50.5969 45.435 49.4999 45.6163 48.5901 46.1971C48.5383 46.1527 48.4308 46.0658 48.3789 46.0214C48.4048 45.9696 48.4567 45.866 48.4827 45.8142C48.4419 45.7236 48.3993 45.6329 48.3567 45.546C48.5716 45.5016 48.7884 45.4554 49.0034 45.4128C48.7773 45.3536 48.5531 45.2981 48.3289 45.2389C48.4048 45.1539 48.5586 44.9818 48.6346 44.8967C48.5382 44.7414 48.4363 44.5934 48.3418 44.438C48.5586 44.3899 48.7773 44.3418 48.9959 44.2937C48.7662 44.2438 48.5364 44.1938 48.3066 44.1439C48.5234 43.933 48.7402 43.724 48.957 43.515C48.7495 43.4835 48.542 43.4521 48.3363 43.4225C48.4437 43.2801 48.529 43.1265 48.3492 42.9934C48.5494 42.936 48.7476 42.875 48.9496 42.8158C48.6309 42.7011 48.3122 42.5864 47.9879 42.4921C49.1368 42.0408 50.3153 41.545 51.2065 40.6627C53.0651 39.0738 54.1936 36.6691 54.1898 34.2238C54.2399 31.7192 53.104 29.2406 51.2084 27.6091C50.3208 26.7471 49.1738 26.2237 48.0231 25.8093C48.1843 25.6872 48.3455 25.5633 48.5086 25.4431C48.4678 25.3783 48.3845 25.247 48.3437 25.1823C48.5623 25.1564 48.7828 25.1305 49.0034 25.1046C48.7754 25.0361 48.5475 24.9677 48.3215 24.8974C48.5271 24.6958 48.7347 24.4942 48.9404 24.2925C48.7402 24.2574 48.5401 24.2223 48.34 24.189C48.3863 24.1057 48.4326 24.0243 48.4808 23.9448C48.4419 23.8875 48.3641 23.7746 48.3252 23.7173C48.5401 23.6655 48.8032 23.7099 48.9793 23.5527C48.7495 23.5083 48.5197 23.4676 48.2881 23.4324C48.5086 23.2252 48.7273 23.0162 48.9478 22.8072C48.7625 22.7795 48.579 22.7517 48.3956 22.7221C48.4178 22.5593 48.4215 22.3947 48.39 22.2338C48.5809 22.1801 48.7736 22.1302 48.9681 22.0803C48.7402 22.0322 48.5123 21.9878 48.2862 21.9471C48.4104 21.8638 48.5364 21.7825 48.6605 21.6992Z" fill="#429FF5"/>
</g>
<g id="#9ca2b2ff">
<path id="Vector_14" d="M33.5771 29.7328C34.7982 26.2775 37.5592 23.305 41.0724 22.1396C41.2059 22.2506 41.3411 22.3635 41.482 22.4689C41.4319 22.5355 41.3337 22.665 41.2837 22.7297C41.5023 22.7575 41.7191 22.7852 41.9378 22.813C41.7358 22.8777 41.5338 22.9424 41.3319 23.0072C41.4264 23.1496 41.4023 23.2994 41.3356 23.4456C41.5246 23.4844 41.7154 23.5233 41.9063 23.5621C41.7303 23.612 41.5561 23.6712 41.38 23.723C41.3708 23.8821 41.3597 24.0393 41.3448 24.1984C41.5487 24.2502 41.7562 24.3001 41.9637 24.3538C41.7488 24.3834 41.5338 24.413 41.3207 24.4444C41.3559 24.5332 41.3949 24.6201 41.4338 24.7089C41.3986 24.7644 41.3282 24.8736 41.2929 24.9272C41.5116 24.9734 41.7321 25.0197 41.9526 25.0678C41.7395 25.1048 41.5301 25.1436 41.3189 25.1825C41.3411 25.2435 41.3874 25.3674 41.4097 25.4285C41.3819 25.5117 41.3541 25.5968 41.3263 25.6819C41.5209 25.7226 41.7154 25.7725 41.91 25.8169C41.6876 25.8669 41.4671 25.9168 41.2466 25.9686C41.3782 26.0777 41.5116 26.1869 41.6432 26.2979C40.4258 26.8713 39.4641 27.8313 38.5857 28.8264C36.1769 31.8082 36.1713 36.464 38.582 39.4532C39.4085 40.526 40.4999 41.3861 41.708 41.9947C41.8433 43.1526 41.695 44.3235 41.8007 45.4851C41.6672 45.5628 41.5357 45.6368 41.4023 45.7127L41.3152 45.6849C39.0082 44.8599 36.8958 43.4005 35.4338 41.4231C34.6945 40.3836 33.9996 39.2996 33.6179 38.0733C32.6599 35.4022 32.6395 32.4112 33.5771 29.7328Z" fill="#429FF5"/>
</g>
<g id="#b9beceff">
<path id="Vector_15" d="M41.6432 26.2981C42.6938 25.8838 43.7796 25.4768 44.9248 25.4639C45.3769 25.7802 45.036 26.2204 45.136 26.6366C45.1416 27.4264 45.1231 28.2181 45.1379 29.008C44.3985 29.1892 43.863 29.9347 43.9409 30.6912C44.0687 32.0711 44.2892 33.4418 44.4449 34.818C44.4541 35.2157 44.7265 35.5024 45.0063 35.7521C45.1323 36.0647 45.2546 36.4161 45.0693 36.7343C45.1268 36.8027 45.1879 36.8693 45.2509 36.9359C44.1558 37.2189 44.1058 38.8337 45.1156 39.2629C45.1546 40.0268 45.0971 40.7908 45.1471 41.5547C45.0489 41.9894 45.3417 42.4555 44.9229 42.8014C43.8019 42.7977 42.7234 42.437 41.708 41.9949C40.4999 41.3864 39.4085 40.5263 38.582 39.4534C38.6469 39.3831 38.7803 39.2407 38.8452 39.1704C38.7896 38.9725 38.7025 38.7709 38.7729 38.5655C38.7599 35.7558 38.7673 32.8776 38.7673 30.0549C38.734 29.6369 38.8637 29.2022 38.5857 28.8267C39.4641 27.8315 40.4258 26.8715 41.6432 26.2981Z" fill="white"/>
</g>
<g id="#c9cedbff">
<path id="Vector_16" d="M44.9249 25.4631C45.9663 25.4335 47.0207 25.5057 48.0231 25.809C49.1738 26.2234 50.3208 26.7469 51.2084 27.6088C51.1621 27.9455 51.1324 28.2821 51.1324 28.6225C51.1584 31.9132 51.138 35.2038 51.1417 38.4945C51.1584 39.2178 51.0769 39.9466 51.2066 40.6624C50.3153 41.5447 49.1368 42.0405 47.9879 42.4918C46.9873 42.7415 45.9534 42.8432 44.9231 42.8007C45.3419 42.4548 45.0491 41.9887 45.1473 41.554C45.0973 40.79 45.1547 40.0261 45.1158 39.2622C45.5198 39.1956 45.9774 39.2215 46.3184 38.9588C46.6797 38.526 46.7501 37.8379 46.3851 37.3884C46.122 37.0314 45.6421 37.0295 45.2511 36.9352C45.1881 36.8686 45.1269 36.802 45.0695 36.7336C45.2548 36.4154 45.1325 36.064 45.0065 35.7514L45.2826 35.7477C45.5587 35.7144 45.87 35.7643 46.1183 35.6126C46.6167 35.0392 46.5241 34.2309 46.6575 33.5335C46.7705 32.4052 47.0781 31.2806 46.9762 30.143C46.8428 29.3605 45.9923 29.0405 45.2881 29.0202L45.138 29.0072C45.1232 28.2174 45.1417 27.4257 45.1362 26.6359C45.0361 26.2197 45.3771 25.7794 44.9249 25.4631Z" fill="white"/>
<path id="Vector_17" d="M55.6741 46.4248C58.1348 47.309 60.5882 48.2098 63.0378 49.1217C65.3818 50.0225 67.7555 50.8401 70.1032 51.7298C69.9624 52.0979 69.5455 52.2034 69.2435 52.3994C65.7265 54.4101 62.2577 56.5022 58.7241 58.4851C58.7611 58.2871 58.8204 58.0985 58.8927 57.9117C58.7148 57.9024 58.5388 57.895 58.3646 57.8876C58.422 57.6582 58.4684 57.4252 58.4906 57.1884C58.2794 57.1403 58.0718 57.0885 57.8643 57.0423C58.0848 57.0108 58.3072 56.9812 58.5295 56.9535C58.4999 56.8888 58.4406 56.763 58.4109 56.7001C58.4461 56.615 58.4795 56.5299 58.511 56.4448C58.3331 56.4319 58.1552 56.4189 57.9773 56.4078C58.0533 56.1785 58.107 55.9435 58.1367 55.7068C57.9273 55.6661 57.7179 55.6272 57.5085 55.5902C57.7198 55.5421 57.9292 55.4922 58.1422 55.446C58.1163 55.3886 58.0644 55.2739 58.0403 55.2166C58.0774 55.1334 58.1163 55.052 58.1534 54.9706C57.9792 54.9558 57.805 54.9447 57.6308 54.9317C57.6846 54.695 57.7235 54.4545 57.755 54.214C57.5789 54.2029 57.4048 54.1918 57.2287 54.1826C57.2658 54.1216 57.3362 53.9995 57.3714 53.9384C57.3232 53.8441 57.2788 53.7516 57.2361 53.6591C57.4548 53.6258 57.6753 53.5962 57.8958 53.5648C57.6846 53.5148 57.4733 53.4686 57.2658 53.4205C57.3103 53.1893 57.338 52.9525 57.4066 52.7268C57.225 52.7176 57.0453 52.7084 56.8655 52.701C56.9137 52.6085 56.9637 52.5178 57.0138 52.429C56.9693 52.3662 56.8822 52.2422 56.8396 52.1812C57.0601 52.1497 57.2806 52.1164 57.503 52.0831C57.1583 51.9722 56.7877 51.9759 56.4319 51.9352C56.645 51.8057 56.897 51.7428 57.1379 51.6706C56.8915 51.617 56.6487 51.5634 56.4041 51.506C56.645 51.4394 56.8859 51.3765 57.1268 51.3118C56.9267 51.2785 56.7266 51.2471 56.5264 51.2175C56.5672 50.99 56.6061 50.7624 56.6469 50.5349C56.4375 50.4887 56.23 50.4387 56.0224 50.3925C56.2374 50.3536 56.4542 50.3148 56.671 50.2778C56.5654 50.1243 56.5172 49.9633 56.6858 49.8265C56.5172 49.7895 56.3486 49.7599 56.1836 49.7247C56.204 49.5712 56.2077 49.4177 56.1688 49.2678C56.3708 49.2105 56.5691 49.1439 56.7673 49.0792C56.4375 49.044 56.1077 49.0237 55.7778 49.0089C55.8223 48.8406 55.8482 48.6685 55.8167 48.4947C56.0132 48.4447 56.2133 48.4022 56.4097 48.3541C56.2059 48.3189 56.002 48.2838 55.7982 48.2505C55.8334 48.0322 55.8631 47.814 55.889 47.5957C55.726 47.555 55.5666 47.5124 55.4054 47.4736C55.5462 47.3275 55.511 47.1795 55.3757 47.0482C55.5888 46.9982 55.8001 46.9483 56.0132 46.8983C55.789 46.8465 55.5666 46.7911 55.3442 46.7411C55.4536 46.6357 55.5647 46.5302 55.6741 46.4248Z" fill="#C9CEDB"/>
</g>
<g id="#d3d7e3ff">
<path id="Vector_18" d="M51.1326 28.623C51.1326 28.2827 51.1623 27.946 51.2086 27.6094C53.1042 29.2408 54.2401 31.7195 54.19 34.224C54.1938 36.6694 53.0653 39.074 51.2067 40.663C51.077 39.9471 51.1586 39.2183 51.1419 38.4951C51.1382 35.2044 51.1586 31.9137 51.1326 28.623Z" fill="white"/>
</g>
<g id="#aeb4c6ff">
<path id="Vector_19" d="M38.5819 39.4529C36.1711 36.4637 36.1767 31.8079 38.5856 28.8262C38.8635 29.2017 38.7338 29.6364 38.7672 30.0544C38.7672 32.8771 38.7598 35.7553 38.7727 38.565C38.7023 38.7703 38.7894 38.972 38.845 39.1699C38.7801 39.2402 38.6467 39.3826 38.5819 39.4529Z" fill="white"/>
</g>
<g id="#dee2ecff">
<path id="Vector_20" d="M43.9406 30.6911C43.8628 29.9345 44.3983 29.1891 45.1376 29.0078L45.2877 29.0208C45.3044 31.2626 45.297 33.5064 45.2822 35.7482L45.0061 35.7519C44.7263 35.5022 44.4539 35.2155 44.4446 34.8178C44.289 33.4416 44.0685 32.071 43.9406 30.6911Z" fill="#429FF5"/>
</g>
<g id="#e8ebf2ff">
<path id="Vector_21" d="M45.2885 29.0205C45.9927 29.0409 46.8432 29.3609 46.9766 30.1433C47.0785 31.2809 46.7709 32.4055 46.6579 33.5339C46.5245 34.2312 46.6171 35.0395 46.1187 35.613C45.8704 35.7646 45.5591 35.7147 45.283 35.748C45.2978 33.5061 45.3052 31.2624 45.2885 29.0205Z" fill="#429FF5"/>
</g>
<g id="#e0e4ecff">
<path id="Vector_22" d="M57.887 35.9014C58.6838 36.4082 59.6103 36.6413 60.4645 37.0297C61.2502 37.4052 62.1396 37.494 62.916 37.8954C63.7276 38.2968 64.5596 38.6556 65.4194 38.9423C66.0587 39.1384 66.609 39.5675 67.2835 39.6508C67.2149 39.7044 67.0797 39.8117 67.0111 39.8653C67.5096 39.9116 67.845 40.2667 68.1748 40.6015C68.6992 40.6922 69.0198 41.0954 69.3922 41.4284C70.113 41.7872 70.6986 42.3458 71.3971 42.7398C71.7677 43.2263 72.4274 43.2763 72.7998 43.7535C72.9833 43.9977 73.2927 44.0328 73.5707 44.0957C73.4817 44.1826 73.3946 44.2696 73.3094 44.3584C73.5077 44.3898 73.7078 44.4212 73.9079 44.4527C73.9654 44.6562 74.0265 44.8633 74.0858 45.0687C74.1377 45.0187 74.2433 44.917 74.297 44.867C74.7547 45.0298 75.1439 45.3313 75.4774 45.6791C75.7294 45.9399 76.2779 45.84 76.339 46.2913C76.0574 47.268 75.2217 47.9468 74.4527 48.5554C74.0728 48.8347 73.7486 49.1991 73.302 49.3804C73.2205 49.3249 73.0574 49.2158 72.9759 49.1621C73.0203 49.1029 73.1093 48.9845 73.1538 48.9253C72.7127 48.7533 72.2736 48.5813 71.8307 48.413C71.9104 48.3297 71.9901 48.2465 72.0698 48.1633C71.4824 48.1503 71.1748 47.5917 70.6782 47.3697C70.2687 47.1755 69.9722 46.8314 69.6164 46.5651C68.2156 45.6125 66.8073 44.6654 65.3861 43.7516C64.882 43.1153 64.1131 42.8379 63.496 42.3403C62.9197 42.0628 62.5065 41.5098 61.8561 41.384C61.9173 41.3007 61.9803 41.2194 62.0433 41.1361C61.5967 40.977 61.152 40.8143 60.7128 40.6422C60.7777 40.5886 60.9074 40.4776 60.9722 40.424C60.2514 40.3019 59.8401 39.6101 59.1508 39.4029C58.5837 38.8924 57.8648 38.5816 57.3348 38.0193C57.5461 37.3201 57.7499 36.6172 57.887 35.9014Z" fill="#E0E4EC"/>
</g>
<g id="#e5e8f0ff">
<path id="Vector_23" d="M45.116 39.2625C44.1061 38.8334 44.1561 37.2186 45.2512 36.9355C45.6422 37.0299 46.1221 37.0317 46.3853 37.3887C46.7503 37.8382 46.6799 38.5263 46.3185 38.9592C45.9776 39.2218 45.5199 39.1959 45.116 39.2625Z" fill="#429FF5"/>
</g>
<g id="#e1e4edff">
<path id="Vector_24" d="M32.0116 38.9145C32.7269 38.9497 32.9437 38.0451 33.6182 38.0729C33.9999 39.2993 34.6947 40.3832 35.4341 41.4228C34.8874 41.4246 34.3946 41.6688 33.9072 41.8833C33.9572 41.9666 34.0073 42.0498 34.0592 42.1349C33.872 42.1811 33.6812 42.2052 33.4959 42.2533C33.5514 42.3106 33.6645 42.4253 33.7219 42.4827C33.0437 42.5696 32.7065 43.2688 32.0357 43.3594C32.0987 43.4408 32.1636 43.5241 32.2303 43.6073C31.541 43.6628 31.2297 44.4027 30.5441 44.4693C30.6182 44.547 30.6904 44.6265 30.7646 44.7079C30.0752 44.7597 29.7602 45.4959 29.082 45.581C29.1488 45.6661 29.2155 45.753 29.2822 45.8418C29.0839 45.8658 28.8856 45.8917 28.6892 45.9176C28.7596 46.0046 28.83 46.0933 28.9023 46.1821C28.465 46.3505 28.0277 46.5132 27.5904 46.6797C27.6571 46.7666 27.7257 46.8517 27.7924 46.9387C27.4551 47.0164 27.0771 47.0848 26.9122 47.4307C26.6676 47.8654 26.197 48.0467 25.7356 48.1576C25.793 48.2409 25.8504 48.326 25.9097 48.4111C25.491 48.5794 25.0703 48.7348 24.646 48.8883C24.6794 48.953 24.7442 49.0844 24.7776 49.1491C24.5774 49.4562 24.2217 49.5523 23.8956 49.6707C23.9456 49.7281 24.0438 49.8409 24.0938 49.8982C23.6398 50.0481 23.1933 50.2127 22.7597 50.4125C22.8171 50.4735 22.9339 50.5956 22.9913 50.6566C22.8727 50.6733 22.6355 50.7103 22.5169 50.7269C22.0648 51.2042 21.5867 51.7147 20.9234 51.8738C20.9827 51.9459 21.0438 52.0199 21.105 52.0939C20.449 52.1993 20.1006 52.8504 19.4558 52.9799C19.5095 53.0668 19.5651 53.1556 19.6189 53.2444C19.4243 53.2685 19.2334 53.3166 19.0407 53.335C19.0945 53.3961 19.2057 53.5163 19.2594 53.5755C18.8351 53.7438 18.407 53.9048 17.9808 54.0675C18.0383 54.2266 18.0883 54.3894 18.1532 54.5466C17.6306 54.4319 17.3582 53.9196 16.9784 53.594C16.4873 53.0465 15.8536 52.6081 15.4645 51.981C15.5849 51.4483 16.0926 51.1265 16.58 50.9655C16.806 50.6104 17.2359 50.455 17.4953 50.1239C17.6566 49.9075 17.9419 49.9371 18.1772 49.8927C18.0902 49.8095 18.0031 49.7281 17.9178 49.6467C18.5701 49.6078 18.9166 49.0418 19.3446 48.6386C19.9635 48.3611 20.5602 47.9597 20.9845 47.4233C21.8536 47.3234 22.0722 46.1433 22.9894 46.1858C22.9061 46.1026 22.8208 46.0212 22.7374 45.9398C23.5676 45.9528 23.8066 44.9742 24.5274 44.7652C25.2538 44.5655 25.4854 43.5574 26.3155 43.5906C26.2359 43.5093 26.1543 43.4297 26.0747 43.3502C26.6398 43.352 26.9011 42.8286 27.3402 42.5992C28.1778 42.4716 28.3946 41.3469 29.297 41.3673C29.2006 41.2822 29.1061 41.1989 29.0116 41.1157C29.7992 41.1619 30.066 40.3203 30.6663 40.0151C31.3056 39.8912 31.5632 39.1365 32.2507 39.1272C32.1914 39.0736 32.0709 38.9682 32.0116 38.9145Z" fill="#E1E4ED"/>
</g>
<g id="#f0f2f6ff">
<path id="Vector_25" d="M57.3342 38.0195C57.8641 38.5819 58.5831 38.8926 59.1501 39.4031C59.8394 39.6103 60.2508 40.3021 60.9716 40.4242C60.9067 40.4778 60.777 40.5888 60.7122 40.6425C61.1513 40.8145 61.596 40.9773 62.0426 41.1363C61.9796 41.2196 61.9166 41.301 61.8554 41.3842C62.5058 41.51 62.9191 42.0631 63.4953 42.3405C64.1124 42.8381 64.8814 43.1156 65.3854 43.7519C66.8066 44.6656 68.2149 45.6127 69.6157 46.5653C69.9715 46.8317 70.268 47.1757 70.6775 47.3699C71.1741 47.5919 71.4817 48.1505 72.0691 48.1635C71.9894 48.2467 71.9097 48.33 71.8301 48.4132C72.2729 48.5815 72.7121 48.7535 73.1531 48.9256C73.1086 48.9848 73.0197 49.1031 72.9752 49.1623C73.0567 49.216 73.2198 49.3251 73.3013 49.3806C72.2952 50.1427 71.3316 50.9677 70.381 51.7964C70.9907 52.6676 71.8579 53.315 72.536 54.1289C71.8541 54.2787 71.1963 54.5858 70.6645 55.0389C70.205 55.5217 69.449 55.5495 69.0302 56.0877C67.7906 56.7204 66.7603 57.7063 65.4854 58.2741C64.1976 58.8216 63.1674 59.802 61.9444 60.4587C61.3162 61.1005 60.3267 61.1875 59.7282 61.8589C59.4633 62.092 59.1056 62.1586 58.7999 62.3195C57.5399 63.1815 56.3095 64.1304 54.8438 64.6243C54.8975 64.702 54.9531 64.7815 55.0087 64.8629C53.4114 65.3142 52.3571 66.7866 50.7468 67.2009C50.8061 67.2823 50.8654 67.3656 50.9266 67.4488C50.052 67.8095 49.1403 68.1591 48.4195 68.788C48.123 69.0396 47.7598 69.1765 47.3818 69.2412C46.6647 68.2682 45.7438 67.4747 44.9711 66.548L45.0934 66.45C49.5943 63.7271 54.1934 61.1616 58.7239 58.485C62.2575 56.5021 65.7263 54.41 69.2433 52.3994C69.5453 52.2033 69.9623 52.0979 70.1031 51.7298C67.7554 50.84 65.3817 50.0225 63.0377 49.1216C63.1785 49.0828 63.462 49.0014 63.6047 48.9626C63.1637 48.7369 62.7023 48.5538 62.2335 48.3965C62.3057 48.3152 62.378 48.2356 62.4521 48.1561C62.1779 48.0654 61.8944 48.0026 61.6405 47.8675C60.8585 47.0795 59.7894 46.6633 58.9852 45.9031C57.8956 45.1244 56.7764 44.3956 55.6646 43.652C55.244 43.2894 54.7363 43.0619 54.2212 42.8732C55.6146 41.5229 56.693 39.8489 57.3342 38.0195Z" fill="#F0F2F6"/>
</g>
<g id="#edeff4ff">
<path id="Vector_26" d="M33.9073 41.8834C34.3947 41.6689 34.8876 41.4247 35.4342 41.4229C36.8962 43.4002 39.0086 44.8597 41.3156 45.6846C39.4793 46.8481 37.5225 47.8174 35.6529 48.9291C33.4478 50.2294 31.1835 51.4262 28.9766 52.7229C26.3249 54.2304 23.6585 55.7102 21.0069 57.2177C20.3324 57.0069 19.9877 56.341 19.4633 55.9229C18.9575 55.5345 18.5257 55.0628 18.1533 54.5467C18.0884 54.3895 18.0384 54.2267 17.981 54.0676C18.4071 53.9049 18.8352 53.7439 19.2595 53.5756C19.2058 53.5164 19.0946 53.3962 19.0409 53.3351C19.2336 53.3166 19.4244 53.2686 19.619 53.2445C19.5653 53.1557 19.5097 53.0669 19.4559 52.98C20.1008 52.8505 20.4491 52.1994 21.1051 52.094C21.0439 52.02 20.9828 51.946 20.9235 51.8739C21.5869 51.7148 22.0649 51.2042 22.5171 50.727C22.6357 50.7104 22.8728 50.6734 22.9914 50.6567C22.934 50.5957 22.8172 50.4736 22.7598 50.4126C23.1934 50.2128 23.64 50.0482 24.0939 49.8983C24.0439 49.841 23.9457 49.7282 23.8957 49.6708C24.2218 49.5524 24.5776 49.4562 24.7777 49.1492C24.7443 49.0845 24.6795 48.9531 24.6461 48.8884C25.0705 48.7348 25.4911 48.5795 25.9099 48.4111C25.8506 48.3261 25.7931 48.241 25.7357 48.1577C26.1971 48.0468 26.6677 47.8655 26.9123 47.4308C27.0773 47.0849 27.4553 47.0165 27.7925 46.9388C27.7258 46.8518 27.6572 46.7667 27.5905 46.6798C28.0278 46.5133 28.4651 46.3505 28.9024 46.1822C28.8302 46.0934 28.7598 46.0046 28.6893 45.9177C28.8858 45.8918 29.084 45.8659 29.2823 45.8419C29.2156 45.7531 29.1489 45.6661 29.0822 45.5811C29.7604 45.496 30.0754 44.7598 30.7647 44.708C30.6906 44.6266 30.6183 44.5471 30.5442 44.4694C31.2298 44.4028 31.5411 43.6629 32.2304 43.6074C32.1637 43.5241 32.0988 43.4409 32.0358 43.3595C32.7066 43.2689 33.0439 42.5697 33.722 42.4827C33.6646 42.4254 33.5516 42.3107 33.496 42.2534C33.6813 42.2053 33.8721 42.1812 34.0593 42.135C34.0074 42.0499 33.9574 41.9667 33.9073 41.8834Z" fill="#EDEFF4"/>
</g>
<g id="#e9ebf2ff">
<path id="Vector_27" d="M95.2962 44.3955C95.3092 43.6759 95.248 42.9342 95.5 42.2461V47.0591C95.2128 46.2008 95.3036 45.2852 95.2962 44.3955Z" fill="#E9EBF2"/>
</g>
<g id="#f9f9fbff">
<path id="Vector_28" d="M51.5142 44.8689C52.4777 44.2918 53.4246 43.6703 54.2214 42.873C54.7365 43.0617 55.2442 43.2892 55.6648 43.6518C56.7766 44.3954 57.8958 45.1242 58.9854 45.9029C59.7896 46.6632 60.8588 47.0793 61.6407 47.8673C61.8946 48.0024 62.1781 48.0653 62.4523 48.1559C62.3782 48.2354 62.3059 48.315 62.2337 48.3964C62.7025 48.5536 63.1639 48.7367 63.6049 48.9624C63.4622 49.0012 63.1787 49.0826 63.0379 49.1215C60.5882 48.2095 58.1349 47.3087 55.6741 46.4245C54.2862 45.914 52.878 45.4423 51.5142 44.8689Z" fill="#F9F9FB"/>
</g>
<g id="#c0c6d4ff">
<path id="Vector_29" d="M48.5906 46.1972C49.5004 45.6164 50.5974 45.4352 51.5146 44.8691C52.8784 45.4426 54.2867 45.9142 55.6746 46.4248C55.5652 46.5302 55.4541 46.6356 55.3447 46.7411C55.5671 46.791 55.7894 46.8465 56.0137 46.8983C55.8006 46.9482 55.5893 46.9982 55.3762 47.0481C55.5115 47.1795 55.5467 47.3274 55.4059 47.4736C55.5671 47.5124 55.7264 47.555 55.8895 47.5956C55.8636 47.8139 55.8339 48.0322 55.7987 48.2505C56.0025 48.2838 56.2064 48.3189 56.4102 48.354C56.2138 48.4021 56.0137 48.4447 55.8172 48.4946C55.8487 48.6685 55.8228 48.8405 55.7783 49.0088C56.1082 49.0236 56.438 49.044 56.7678 49.0791C56.5696 49.1439 56.3713 49.2105 56.1693 49.2678C56.2082 49.4176 56.2045 49.5712 56.1841 49.7247C56.3491 49.7598 56.5177 49.7894 56.6863 49.8264C56.5177 49.9633 56.5659 50.1242 56.6715 50.2778C56.4547 50.3148 56.2379 50.3536 56.0229 50.3924C56.2305 50.4387 56.438 50.4886 56.6474 50.5349C56.6066 50.7624 56.5677 50.9899 56.5269 51.2174C56.7271 51.247 56.9272 51.2785 57.1273 51.3118C56.8864 51.3765 56.6455 51.4394 56.4046 51.506C56.6492 51.5633 56.892 51.617 57.1384 51.6706C56.8975 51.7428 56.6455 51.8056 56.4324 51.9351C56.7882 51.9758 57.1588 51.9721 57.5035 52.0831C57.2811 52.1164 57.0606 52.1497 56.8401 52.1811C56.8827 52.2422 56.9698 52.3661 57.0143 52.429C56.9642 52.5178 56.9142 52.6084 56.866 52.7009C57.0458 52.7083 57.2255 52.7176 57.4071 52.7268C57.3385 52.9525 57.3107 53.1892 57.2663 53.4205C57.4738 53.4686 57.6851 53.5148 57.8963 53.5647C57.6758 53.5962 57.4553 53.6258 57.2366 53.6591C57.2792 53.7516 57.3237 53.8441 57.3719 53.9384C57.3367 53.9994 57.2663 54.1215 57.2292 54.1826C57.4052 54.1918 57.5794 54.2029 57.7555 54.214C57.724 54.4545 57.6851 54.6949 57.6313 54.9317C57.8055 54.9446 57.9797 54.9557 58.1539 54.9705C58.1168 55.0519 58.0779 55.1333 58.0408 55.2166C58.0649 55.2739 58.1168 55.3886 58.1427 55.4459C57.9296 55.4922 57.7203 55.5421 57.509 55.5902C57.7184 55.6272 57.9278 55.666 58.1372 55.7067C58.1075 55.9435 58.0538 56.1784 57.9778 56.4078C58.1557 56.4189 58.3336 56.4318 58.5115 56.4448C58.48 56.5299 58.4466 56.615 58.4114 56.7C58.4411 56.7629 58.5004 56.8887 58.53 56.9535C58.3077 56.9812 58.0853 57.0108 57.8648 57.0422C58.0723 57.0885 58.2799 57.1403 58.4911 57.1884C58.4689 57.4251 58.4225 57.6582 58.3651 57.8876C58.5393 57.895 58.7153 57.9024 58.8932 57.9116C58.8209 58.0984 58.7616 58.2871 58.7246 58.485C54.194 61.1616 49.5949 63.7272 45.094 66.45L44.8846 66.413C45.1441 62.6118 45.3016 58.8032 45.548 55.002C45.6629 53.6443 45.6055 52.2736 45.8278 50.927C46.052 50.6884 46.2892 50.4516 46.43 50.152C47.0897 48.7998 47.9458 47.555 48.5906 46.1972Z" fill="#C0C6D4"/>
<path id="Vector_30" d="M28.9768 52.7235C31.1837 51.4268 33.4481 50.2301 35.6531 48.9297C35.7495 48.9944 35.944 49.1239 36.0404 49.1887C35.9514 49.344 35.8958 49.5142 35.8106 49.6714C36.0163 49.9045 35.9811 50.1672 35.8069 50.4076C35.9774 50.6407 35.9903 50.8978 35.8143 51.1327C35.8699 51.2474 35.9236 51.3621 35.9792 51.4786C35.9273 51.6137 35.8773 51.7487 35.8273 51.8837C35.9941 52.1279 35.9718 52.3942 35.8106 52.6347C35.8718 52.766 35.9329 52.8992 35.9941 53.0306C35.9459 53.1101 35.8514 53.2692 35.805 53.3487C35.8643 53.4634 35.9236 53.5781 35.9829 53.6928C35.9255 53.8315 35.8681 53.9702 35.8125 54.1108C35.8532 54.194 35.9366 54.3624 35.9774 54.4456C35.9199 54.5788 35.8588 54.7101 35.805 54.8451C35.8477 54.9265 35.9366 55.0893 35.9811 55.1688C35.8254 55.4352 35.8069 55.7219 35.9422 56.0012C35.9144 56.0808 35.8551 56.2398 35.8254 56.3194C35.9811 56.5635 35.9848 56.8281 35.8143 57.0648C35.9903 57.2997 35.97 57.5624 35.8236 57.8084C35.9922 58.0489 35.9644 58.3115 35.8162 58.5557C35.8643 58.6833 35.9144 58.8128 35.9663 58.9442C35.9329 59.0274 35.8662 59.1957 35.8328 59.279C35.8792 59.3936 35.9273 59.5102 35.9737 59.6267C35.9162 59.7599 35.8625 59.8968 35.8069 60.0318C35.8662 60.165 35.9273 60.2982 35.9885 60.4332C35.9422 60.5109 35.8477 60.6644 35.8013 60.7421C35.8625 60.8864 35.9292 61.0288 35.9922 61.1749C35.9459 61.2545 35.8532 61.4135 35.8069 61.4931C35.8514 61.63 35.9033 61.7631 35.9477 61.9019C35.9088 62.0203 35.8699 62.1386 35.831 62.2589C35.8866 62.405 35.944 62.553 35.9996 62.7028C35.9107 62.7768 35.7328 62.9229 35.6438 62.9969C33.55 62.1201 31.3875 61.4135 29.2955 60.5349C29.3641 60.4628 29.5049 60.3204 29.5753 60.2482C29.4845 58.1451 29.5586 56.0345 29.5364 53.9295C29.5383 53.5263 29.4901 53.1138 29.6087 52.7216C29.3974 52.7198 29.1862 52.7198 28.9768 52.7235Z" fill="#C0C6D4"/>
</g>
<g id="#ccd1deff">
<path id="Vector_31" d="M41.3152 45.6846L41.4023 45.7123C42.4955 45.888 42.6827 47.1144 43.2274 47.8876C43.0903 47.969 42.9532 48.0504 42.8161 48.1318C42.9995 48.4037 43.031 48.7089 42.8068 48.9697C42.8995 49.0067 43.0848 49.0825 43.1756 49.1214C43.0607 49.2989 42.9476 49.4765 42.8346 49.656C42.8735 49.7429 42.9551 49.9168 42.994 50.0019C42.9384 50.148 42.8809 50.2941 42.8253 50.4421C42.9161 50.4772 43.0959 50.5512 43.1867 50.5882C43.0681 50.7658 42.9532 50.9452 42.8365 51.1228C42.8921 51.2671 42.9495 51.4113 43.0069 51.5575C42.9328 51.6796 42.8606 51.8035 42.7864 51.9274C42.8865 51.9681 43.0848 52.0514 43.1848 52.092C43.0644 52.2678 42.9458 52.4435 42.8272 52.6174C42.8921 52.7561 42.9606 52.8911 43.0347 53.0262C42.9495 53.1556 42.8643 53.2833 42.779 53.4128C42.8809 53.4424 43.0829 53.5034 43.1848 53.533C42.9736 53.8327 42.7364 54.1601 42.9903 54.5189C42.931 54.641 42.8717 54.7631 42.8124 54.887C42.9087 54.924 43.1014 54.9998 43.1978 55.0387C43.0774 55.2107 42.9625 55.3864 42.8439 55.5622C42.8995 55.7027 42.9569 55.8452 43.0144 55.9876C42.9384 56.1097 42.8624 56.2355 42.7883 56.3594C42.8884 56.3982 43.0866 56.4759 43.1867 56.5148C43.0718 56.6868 42.9625 56.8625 42.8494 57.0364C42.8958 57.1844 42.9439 57.3342 42.9921 57.484C42.9273 57.6061 42.8624 57.7263 42.7976 57.8484C42.8902 57.8854 43.0774 57.9557 43.1719 57.9927C42.9532 58.2887 42.7642 58.6142 42.9958 58.9675C42.931 59.0877 42.8661 59.208 42.8031 59.3282C42.9013 59.3597 43.0959 59.4244 43.1941 59.4577C43.0718 59.6334 42.9514 59.8147 42.8291 59.9923C42.8958 60.1421 42.9551 60.2919 43.0218 60.4436C42.9439 60.562 42.8661 60.6804 42.7883 60.7988C42.8865 60.8394 43.0811 60.9171 43.1793 60.956C43.0699 61.128 42.9625 61.3019 42.8531 61.4758C42.905 61.6274 42.9588 61.7791 43.0125 61.9326C42.9365 62.0455 42.8587 62.1602 42.7846 62.2748C42.8828 62.3174 43.0811 62.4006 43.1811 62.4432C43.0625 62.6226 42.9476 62.8039 42.8309 62.987C42.8754 63.0702 42.9643 63.2385 43.0088 63.3218C42.9421 63.4661 42.8828 63.614 42.8179 63.762C42.9087 63.8009 43.094 63.8804 43.1848 63.9193C43.0662 64.1005 42.9532 64.2818 42.8346 64.4649C42.8958 64.6037 42.9588 64.7442 43.0218 64.8867C42.9643 64.9662 42.8494 65.1253 42.792 65.2048C42.9217 65.2622 43.0496 65.3195 43.1793 65.3805C43.0699 65.5063 42.9625 65.6358 42.855 65.7653C40.4628 64.8145 38.0372 63.947 35.6432 62.9962C35.7321 62.9222 35.91 62.7761 35.999 62.7021C35.9434 62.5523 35.8859 62.4043 35.8303 62.2582C35.8693 62.138 35.9082 62.0196 35.9471 61.9012C35.9026 61.7625 35.8507 61.6293 35.8063 61.4924C35.8526 61.4129 35.9452 61.2538 35.9916 61.1742C35.9285 61.0281 35.8618 60.8857 35.8007 60.7414C35.847 60.6637 35.9415 60.5102 35.9878 60.4325C35.9267 60.2975 35.8655 60.1643 35.8063 60.0311C35.8618 59.8961 35.9156 59.7592 35.973 59.626C35.9267 59.5095 35.8785 59.393 35.8322 59.2783C35.8655 59.195 35.9323 59.0267 35.9656 58.9435C35.9137 58.8121 35.8637 58.6827 35.8155 58.555C35.9638 58.3109 35.9915 58.0482 35.8229 57.8077C35.9693 57.5617 35.9897 57.2991 35.8137 57.0641C35.9841 56.8274 35.9804 56.5629 35.8248 56.3187C35.8544 56.2392 35.9137 56.0801 35.9415 56.0005C35.8063 55.7212 35.8248 55.4345 35.9804 55.1682C35.936 55.0886 35.847 54.9258 35.8044 54.8445C35.8581 54.7094 35.9193 54.5781 35.9767 54.4449C35.936 54.3617 35.8526 54.1933 35.8118 54.1101C35.8674 53.9695 35.9248 53.8308 35.9823 53.6921C35.923 53.5774 35.8637 53.4627 35.8044 53.348C35.8507 53.2685 35.9452 53.1094 35.9934 53.0299C35.9323 52.8985 35.8711 52.7654 35.81 52.634C35.9712 52.3936 35.9934 52.1272 35.8266 51.883C35.8767 51.748 35.9267 51.613 35.9786 51.4779C35.923 51.3614 35.8693 51.2467 35.8137 51.132C35.9897 50.8971 35.9767 50.64 35.8063 50.4069C35.9804 50.1665 36.0156 49.9038 35.81 49.6707C35.8952 49.5135 35.9508 49.3433 36.0397 49.188C35.9434 49.1232 35.7488 48.9937 35.6525 48.929C37.5221 47.8173 39.4789 46.8481 41.3152 45.6846Z" fill="#CCD1DE"/>
</g>
<g id="#d4d8e4ff">
<path id="Vector_32" d="M42.8162 48.1319C42.9534 48.0505 43.0905 47.9691 43.2276 47.8877C43.765 48.7885 44.2338 49.7337 44.8304 50.5976C45.0454 50.9342 45.4734 50.925 45.8273 50.9268C45.605 52.2734 45.6624 53.6441 45.5475 55.0018C45.3011 58.803 45.1436 62.6116 44.8842 66.4128C44.1837 66.2833 43.5 66.065 42.8551 65.7654C42.9626 65.6359 43.0701 65.5064 43.1794 65.3806C43.0497 65.3196 42.9219 65.2623 42.7921 65.2049C42.8496 65.1254 42.9645 64.9663 43.0219 64.8868C42.9589 64.7443 42.8959 64.6037 42.8348 64.465C42.9534 64.2819 43.0664 64.1006 43.185 63.9193C43.0942 63.8805 42.9089 63.801 42.8181 63.7621C42.8829 63.6141 42.9422 63.4662 43.0089 63.3219C42.9645 63.2386 42.8755 63.0703 42.8311 62.9871C42.9478 62.8039 43.0627 62.6227 43.1813 62.4433C43.0812 62.4007 42.8829 62.3175 42.7847 62.2749C42.8589 62.1602 42.9367 62.0456 43.0127 61.9327C42.9589 61.7792 42.9052 61.6275 42.8533 61.4758C42.9626 61.302 43.0701 61.1281 43.1794 60.9561C43.0812 60.9172 42.8866 60.8395 42.7884 60.7988C42.8663 60.6805 42.9441 60.5621 43.0219 60.4437C42.9552 60.292 42.8959 60.1422 42.8292 59.9924C42.9515 59.8148 43.0719 59.6335 43.1942 59.4578C43.096 59.4245 42.9015 59.3597 42.8033 59.3283C42.8663 59.2081 42.9311 59.0878 42.996 58.9676C42.7644 58.6143 42.9534 58.2887 43.172 57.9928C43.0775 57.9558 42.8904 57.8855 42.7977 57.8485C42.8626 57.7264 42.9274 57.6062 42.9923 57.4841C42.9441 57.3343 42.8959 57.1845 42.8496 57.0365C42.9626 56.8626 43.0719 56.6869 43.1868 56.5149C43.0868 56.476 42.8885 56.3983 42.7884 56.3595C42.8626 56.2355 42.9385 56.1098 43.0145 55.9877C42.9571 55.8452 42.8996 55.7028 42.844 55.5622C42.9626 55.3865 43.0775 55.2108 43.198 55.0388C43.1016 54.9999 42.9089 54.9241 42.8125 54.8871C42.8718 54.7632 42.9311 54.6411 42.9904 54.519C42.7366 54.1601 42.9737 53.8327 43.185 53.5331C43.0831 53.5035 42.8811 53.4424 42.7792 53.4129C42.8644 53.2834 42.9497 53.1557 43.0349 53.0263C42.9608 52.8912 42.8922 52.7562 42.8274 52.6175C42.9459 52.4436 43.0645 52.2679 43.185 52.0921C43.0849 52.0514 42.8866 51.9682 42.7866 51.9275C42.8607 51.8036 42.933 51.6797 43.0071 51.5576C42.9497 51.4114 42.8922 51.2672 42.8366 51.1229C42.9534 50.9453 43.0682 50.7659 43.1868 50.5883C43.096 50.5513 42.9163 50.4773 42.8255 50.4422C42.8811 50.2942 42.9385 50.1481 42.9941 50.0019C42.9552 49.9169 42.8737 49.743 42.8348 49.656C42.9478 49.4766 43.0608 49.299 43.1757 49.1215C43.0849 49.0826 42.8996 49.0068 42.807 48.9698C43.0312 48.709 42.9997 48.4038 42.8162 48.1319Z" fill="#D4D8E4"/>
</g>
<g id="#b6bcccff">
<path id="Vector_33" d="M21.0069 57.2176C23.6585 55.7101 26.325 54.2303 28.9766 52.7228C29.186 52.7191 29.3972 52.7191 29.6084 52.7209C29.4898 53.1131 29.538 53.5256 29.5362 53.9288C29.5584 56.0338 29.4843 58.1444 29.5751 60.2475C29.5047 60.3197 29.3638 60.4621 29.2953 60.5342C27.4219 59.811 25.5486 59.0896 23.6641 58.3978C22.7598 58.0611 21.8593 57.7134 20.9606 57.3638L21.0069 57.2176Z" fill="#B6BCCC"/>
</g>
<g id="#e9ecf2ff">
<path id="Vector_34" d="M70.6647 55.039C71.1965 54.5858 71.8543 54.2787 72.5362 54.1289C73.0791 54.6894 73.7277 55.1907 74.0983 55.8862C74.1576 56.0452 74.2002 56.2117 74.2558 56.3745C73.5035 56.5428 72.8864 56.9923 72.2898 57.4566C71.1131 57.9597 70.1403 58.8087 69.0526 59.4635C68.1798 59.7336 67.5924 60.4975 66.7252 60.7787C65.0576 61.846 63.4473 63.0428 61.6388 63.8789C59.1595 65.7045 56.3652 67.0456 53.873 68.8491C53.1114 69.3559 52.1589 69.5557 51.5085 70.2253C50.7933 70.5157 50.2596 71.0984 49.5462 71.3943C49.915 71.9307 50.3949 72.3747 50.8155 72.8686C49.5666 73.5067 48.0991 73.1479 46.7501 73.3162C47.1281 73.3902 47.5098 73.4475 47.8915 73.5104C47.0151 73.8138 46.0478 73.4235 45.1899 73.8119C45.1083 73.7786 45.0268 73.7472 44.9453 73.7194C44.9305 74.0468 44.9082 74.3742 44.8841 74.7035C41.004 74.8015 37.1201 74.7146 33.2381 74.7386C29.169 74.7423 25.098 74.7627 21.0288 74.7239L20.888 74.6998C20.8269 73.4105 20.888 72.1213 20.8769 70.832C20.9473 70.0958 21.0826 69.3652 21.0381 68.6216C21.9127 68.8694 22.7391 69.256 23.5841 69.5834C25.1628 70.3363 26.8546 70.8135 28.4445 71.5386C29.0356 71.7883 29.6452 72.0251 30.2882 72.0991C30.3067 71.805 29.9491 71.7957 29.7675 71.6773C29.2802 71.4739 29.0337 70.9411 28.5557 70.7136C27.6032 70.216 26.7823 69.5187 25.867 68.9656C25.5594 68.7122 25.2425 68.4625 24.846 68.3682C24.8812 68.3164 24.9479 68.2109 24.9812 68.1591C24.6514 67.9982 24.3068 67.8706 23.9769 67.7078C23.4989 67.4599 23.1635 66.9531 22.5928 66.8995C22.6465 66.8144 22.7021 66.7293 22.7595 66.6461C22.3333 66.4703 21.9034 66.3057 21.4735 66.1429C21.5421 66.0615 21.6107 65.9802 21.6792 65.9006C21.229 65.7508 20.7861 65.5806 20.3562 65.3827C20.4062 65.3401 20.5044 65.2551 20.5526 65.2125C20.1264 64.9979 19.6854 64.813 19.2407 64.6391C19.3019 64.5892 19.4223 64.4893 19.4834 64.4393C19.0498 64.3801 18.7145 64.1175 18.4032 63.8345C17.3229 63.2074 16.3445 62.4231 15.2605 61.8016C15.5181 61.3244 16.0406 61.0895 16.4483 60.7584C17.2061 60.27 17.8621 59.6467 18.6163 59.1565C18.7256 59.1768 18.9424 59.2157 19.0498 59.2342C18.9961 59.3378 18.9442 59.4432 18.8923 59.5486C19.3 59.8871 19.8003 60.074 20.2821 60.2811C20.8028 60.4679 20.9566 61.1061 21.4921 61.2744C22.0943 61.5075 22.4908 62.0828 23.1375 62.2289C23.0801 62.3066 23.0226 62.3861 22.9652 62.4657C23.4433 62.6414 23.9806 62.7598 24.3346 63.1538C24.5903 63.4756 24.9979 63.57 25.3685 63.6957C25.3055 63.7734 25.2425 63.853 25.1795 63.9344C25.6113 64.099 26.0449 64.2636 26.4766 64.4338C26.4173 64.5133 26.358 64.5947 26.2987 64.6761C26.7175 64.8426 27.14 65.0035 27.5587 65.17C27.5143 65.2532 27.4698 65.3364 27.4272 65.4215C27.8534 65.5973 28.2833 65.7563 28.7169 65.9117C28.665 65.9654 28.5594 66.0708 28.5056 66.1244C28.9262 66.3205 29.3598 66.4907 29.7971 66.6498C29.7453 66.7274 29.6952 66.807 29.6452 66.8865C30.064 67.0586 30.4846 67.2269 30.9052 67.3989C30.8552 67.4747 30.8052 67.5506 30.757 67.6264C31.1869 67.8021 31.6168 67.9797 32.0411 68.1684C31.9874 68.222 31.8799 68.3293 31.8262 68.3811C32.2727 68.5291 32.7156 68.69 33.151 68.8676C33.0862 68.9527 33.0232 69.0396 32.9583 69.1266C33.5884 69.1894 33.9367 69.7629 34.4815 70.0052C34.7668 70.1384 35.0652 70.2382 35.3617 70.3474C35.3079 70.4454 35.2542 70.5434 35.2004 70.6433C35.6859 71.0299 36.2641 71.2704 36.8496 71.4628C36.7903 71.5423 36.731 71.6218 36.6717 71.7032C37.1961 71.7846 37.6519 72.4764 38.1893 72.088C38.5377 71.8938 38.8323 71.6107 39.1918 71.4369C41.0966 71.2611 43.0349 71.5608 44.9286 71.2944C43.1497 71.078 41.3524 71.3259 39.5698 71.1779C39.7032 70.9763 39.8366 70.7155 40.1109 70.697C41.6877 70.5786 43.2795 70.7765 44.8545 70.6156C44.9008 70.2734 44.9471 69.933 44.9898 69.5908C45.7884 69.4946 46.663 69.687 47.382 69.2412C47.76 69.1765 48.1232 69.0396 48.4196 68.7881C49.1404 68.1591 50.0521 67.8095 50.9267 67.4488C50.8656 67.3656 50.8063 67.2824 50.747 67.201C52.3572 66.7866 53.4116 65.3142 55.0088 64.8629C54.9532 64.7815 54.8977 64.702 54.8439 64.6243C56.3096 64.1304 57.54 63.1815 58.8 62.3195C59.1058 62.1586 59.4634 62.092 59.7284 61.8589C60.3269 61.1875 61.3164 61.1006 61.9445 60.4587C63.1675 59.802 64.1978 58.8217 65.4856 58.2742C66.7605 57.7063 67.7907 56.7204 69.0304 56.0878C69.4491 55.5495 70.2051 55.5218 70.6647 55.039Z" fill="#E9ECF2"/>
</g>
<g id="#dfe3ecff">
<path id="Vector_35" d="M74.0982 55.8857C74.8245 56.1114 75.1803 56.868 75.5565 57.4691C75.8826 57.9685 75.9067 58.5882 75.827 59.1635C75.5064 59.7165 74.9339 60.0254 74.3854 60.2992C73.9444 60.8578 73.1328 60.8967 72.7344 61.4941C72.3137 61.6921 71.8968 61.9048 71.4614 62.0713C71.5299 62.1212 71.6652 62.2229 71.7338 62.2747C70.974 62.4042 70.357 62.9092 69.6492 63.1866C69.3212 63.5029 68.9932 63.8174 68.5262 63.9062C68.0926 64.463 67.4274 64.7071 66.79 64.955C66.5695 65.4341 66.008 65.5358 65.5948 65.7948C65.3484 65.9612 65.063 66.0371 64.774 66.0852C64.8666 66.1684 64.9611 66.2535 65.0556 66.3404C64.2996 66.6087 63.2008 66.8325 63.1693 67.8313C62.9043 67.8461 62.6412 67.8591 62.3799 67.8702C62.4688 67.7592 62.5596 67.6482 62.6504 67.5391C62.1928 67.3393 62.1297 67.8369 62.0538 68.1569C61.3348 68.3899 60.7252 68.8857 59.984 69.0485C60.0655 69.1391 60.1508 69.2316 60.2341 69.3241C59.5078 69.4239 58.85 69.8568 58.3256 70.3562C57.866 70.469 57.5455 70.7928 57.2156 71.1035C56.8006 71.2829 56.3966 71.4846 55.976 71.651C55.7573 72.1911 55.0588 72.267 54.6103 72.5592C53.9562 72.7091 53.6653 73.4656 52.9556 73.4545C52.9834 73.5248 53.0409 73.6635 53.0705 73.732C52.2293 73.8097 51.4195 73.4342 50.8154 72.8682C50.3948 72.3743 49.9149 71.9303 49.5461 71.3939C50.2595 71.098 50.7932 70.5153 51.5085 70.2249C52.1588 69.5553 53.1113 69.3555 53.8729 68.8487C56.3651 67.0452 59.1594 65.7041 61.6387 63.8784C63.4472 63.0424 65.0575 61.8456 66.7251 60.7783C67.5923 60.4971 68.1797 59.7332 69.0525 59.4631C70.1402 58.8083 71.113 57.9593 72.2897 57.4562C72.8863 56.9919 73.5034 56.5424 74.2557 56.3741C74.2001 56.2113 74.1575 56.0448 74.0982 55.8857Z" fill="#DFE3EC"/>
</g>
<g id="#e1e5edff">
<path id="Vector_36" d="M18.6165 59.1567C19.3354 58.5037 20.0729 57.8026 20.9605 57.3643C21.8592 57.7139 22.7597 58.0616 23.664 58.3983C23.5398 58.5166 23.4138 58.635 23.2897 58.7534C23.7177 58.8108 24.042 59.0882 24.3626 59.3527C25.4225 60.0149 26.4583 60.716 27.4997 61.4059C28.3483 62.1181 29.3897 62.5639 30.1902 63.3352C31.554 64.199 32.8733 65.135 34.2241 66.0173C34.5762 66.4428 35.171 66.5093 35.5286 66.9237C35.7714 67.19 36.1346 67.2696 36.457 67.3991C36.4069 67.4805 36.3569 67.5618 36.3069 67.6432C36.7497 67.8023 37.1871 67.9762 37.6132 68.176C37.5539 68.2185 37.4391 68.2999 37.3798 68.3406C37.7504 68.4886 38.1599 68.594 38.4304 68.9085C38.7862 69.308 39.3272 69.4264 39.809 69.6095C39.7516 69.6946 39.6923 69.7797 39.6367 69.8666C39.898 69.9628 40.1555 70.083 40.4279 70.1496C41.9622 68.9787 43.4557 67.745 44.9714 66.5482C45.7441 67.4749 46.6651 68.2684 47.3822 69.2414C46.6632 69.6872 45.7886 69.4948 44.99 69.591C44.9473 69.9332 44.901 70.2736 44.8547 70.6158C43.2797 70.7767 41.6879 70.5788 40.1111 70.6971C39.8368 70.7156 39.7034 70.9765 39.57 71.1781C41.3526 71.3261 43.15 71.0782 44.9288 71.2946C43.0351 71.561 41.0968 71.2613 39.192 71.437C38.8325 71.6109 38.5379 71.8939 38.1895 72.0881C37.6521 72.4766 37.1963 71.7848 36.6719 71.7034C36.7312 71.622 36.7905 71.5425 36.8498 71.4629C36.2643 71.2706 35.6861 71.0301 35.2007 70.6435C35.2544 70.5436 35.3081 70.4456 35.3619 70.3475C35.0654 70.2384 34.7671 70.1385 34.4817 70.0053C33.9369 69.763 33.5886 69.1896 32.9585 69.1267C33.0234 69.0398 33.0864 68.9528 33.1513 68.8678C32.7158 68.6902 32.2729 68.5293 31.8264 68.3813C31.8801 68.3295 31.9876 68.2222 32.0413 68.1686C31.617 67.9799 31.1871 67.8023 30.7572 67.6266C30.8054 67.5507 30.8554 67.4749 30.9054 67.3991C30.4848 67.227 30.0642 67.0587 29.6454 66.8867C29.6954 66.8072 29.7455 66.7276 29.7974 66.6499C29.36 66.4909 28.9265 66.3207 28.5058 66.1246C28.5596 66.071 28.6652 65.9655 28.7171 65.9119C28.2835 65.7565 27.8536 65.5974 27.4274 65.4217C27.47 65.3366 27.5145 65.2534 27.5589 65.1701C27.1402 65.0037 26.7177 64.8427 26.2989 64.6763C26.3582 64.5949 26.4175 64.5135 26.4768 64.4339C26.0451 64.2638 25.6115 64.0991 25.1797 63.9345C25.2427 63.8531 25.3057 63.7736 25.3687 63.6959C24.9981 63.5701 24.5905 63.4758 24.3348 63.1539C23.9808 62.7599 23.4435 62.6416 22.9654 62.4658C23.0228 62.3863 23.0803 62.3068 23.1377 62.2291C22.491 62.0829 22.0945 61.5077 21.4923 61.2746C20.9568 61.1063 20.803 60.4681 20.2823 60.2813C19.8005 60.0741 19.3002 59.8873 18.8925 59.5488C18.9444 59.4434 18.9963 59.3379 19.0501 59.2343C18.9426 59.2158 18.7258 59.177 18.6165 59.1567Z" fill="#E1E5ED"/>
</g>
<g id="#d8dce7ff">
<path id="Vector_37" d="M23.6637 58.3984C25.5482 59.0902 27.4216 59.8116 29.2949 60.5349C31.387 61.4135 33.5494 62.1201 35.6433 62.9969C38.0373 63.9476 40.4629 64.8152 42.8551 65.7659C43.4999 66.0656 44.1837 66.2839 44.8841 66.4133L45.0935 66.4503L44.9712 66.5484C43.4554 67.7451 41.9619 68.9789 40.4277 70.1498C40.1553 70.0832 39.8977 69.963 39.6364 69.8668C39.692 69.7799 39.7513 69.6948 39.8088 69.6097C39.327 69.4266 38.7859 69.3082 38.4302 68.9086C38.1596 68.5942 37.7501 68.4887 37.3795 68.3408C37.4388 68.3001 37.5537 68.2187 37.613 68.1761C37.1868 67.9764 36.7495 67.8025 36.3066 67.6434C36.3567 67.562 36.4067 67.4806 36.4567 67.3992C36.1343 67.2698 35.7711 67.1902 35.5284 66.9239C35.1708 66.5095 34.5759 66.4429 34.2239 66.0175C32.8731 65.1352 31.5537 64.1992 30.1899 63.3354C29.3894 62.564 28.3481 62.1183 27.4994 61.4061C26.458 60.7162 25.4222 60.0151 24.3623 59.3529C24.0417 59.0884 23.7175 58.8109 23.2894 58.7536C23.4136 58.6352 23.5396 58.5168 23.6637 58.3984Z" fill="#D8DCE7"/>
</g>
<g id="#f4f5f8ff">
<path id="Vector_38" d="M15.261 61.8018C16.345 62.4233 17.3234 63.2076 18.4037 63.8346C18.715 64.1176 19.0503 64.3803 19.4839 64.4395C19.4228 64.4894 19.3024 64.5893 19.2412 64.6393C19.6859 64.8131 20.1269 64.9981 20.5531 65.2127C20.5049 65.2552 20.4067 65.3403 20.3567 65.3828C20.7866 65.5808 21.2295 65.7509 21.6797 65.9008C21.6112 65.9803 21.5426 66.0617 21.4741 66.1431C21.9039 66.3059 22.3338 66.4705 22.76 66.6462C22.7026 66.7295 22.647 66.8145 22.5933 66.8996C23.164 66.9533 23.4994 67.4601 23.9774 67.708C24.3073 67.8707 24.6519 67.9984 24.9817 68.1593C24.9484 68.2111 24.8817 68.3165 24.8465 68.3683C25.243 68.4627 25.5599 68.7124 25.8675 68.9658C26.7828 69.5189 27.6037 70.2162 28.5562 70.7138C29.0342 70.9413 29.2807 71.474 29.768 71.6775C29.9496 71.7959 30.3072 71.8051 30.2887 72.0992C29.6457 72.0252 29.0361 71.7885 28.445 71.5388C26.8551 70.8137 25.1633 70.3364 23.5846 69.5836C22.7396 69.2562 21.9132 68.8696 21.0386 68.6217C19.8027 68.2111 18.5945 67.7191 17.3864 67.2307C16.6359 66.9237 15.7928 66.7128 15.2388 66.0802C14.0788 64.9611 14.0658 62.8968 15.261 61.8018Z" fill="#F4F5F8"/>
</g>
<g id="#e8ebf1ff">
<path id="Vector_39" d="M58.0371 71.1797C62.1211 68.8323 66.1625 66.4036 70.2446 64.0508C70.2761 66.0466 70.3521 68.0444 70.2594 70.0384L70.1594 70.0162C69.4163 69.6999 68.7177 70.1716 67.9728 70.1161C67.202 70.5119 66.2773 70.068 65.538 70.5378C65.0414 70.806 64.441 70.5655 63.9241 70.7801C63.4979 70.9521 63.0272 70.7302 62.6047 70.9151C61.9543 71.1575 61.2502 71.0187 60.5739 71.0502C60.6387 71.1649 60.7054 71.2777 60.774 71.3942C60.0587 71.4553 59.3194 71.3165 58.6282 71.5552C58.4596 71.6032 58.2836 71.5922 58.1131 71.6069C58.0446 71.5496 57.9074 71.4386 57.8389 71.3813C57.8889 71.3313 57.9871 71.2315 58.0371 71.1797Z" fill="#E8EBF1"/>
</g>
<g id="#f2f3f7ff">
<path id="Vector_40" d="M67.972 70.1162C68.7169 70.1717 69.4155 69.7 70.1586 70.0163C69.9992 70.7544 69.8435 71.5368 69.334 72.125C68.8226 72.704 68.3185 73.3199 67.6385 73.7102C64.5829 75.4027 61.5607 77.1544 58.5181 78.8673C58.4681 78.8728 58.3699 78.8821 58.3198 78.8876C57.8066 78.7804 57.284 78.7415 56.7615 78.76C55.9406 78.7249 55.1939 79.1836 54.3748 79.1559C53.8319 79.1503 53.289 79.1448 52.7479 79.1707C52.8313 79.2853 52.9165 79.4 53.0018 79.5147C52.1235 79.5739 51.2099 79.376 50.3724 79.7126C49.4552 79.9808 48.5009 79.8625 47.5596 79.9216C47.6393 80.0345 47.7208 80.1473 47.8005 80.262C46.924 80.3193 45.9901 80.0789 45.1692 80.4803C45.1062 80.4525 44.9821 80.3952 44.9209 80.3656C44.8987 80.6874 44.8765 81.0111 44.8487 81.3348C41.1056 81.4144 37.357 81.3441 33.6122 81.3737C32.8506 81.3811 32.0816 81.3089 31.3274 81.4606C31.1106 81.4958 30.9068 81.3774 30.7067 81.32C29.0909 80.7133 27.464 80.1418 25.8519 79.5295C24.7308 79.1059 23.5264 78.7637 22.6388 77.911C21.7716 77.0786 21.0489 75.9595 21.0286 74.7239C25.0977 74.7627 29.1687 74.7424 33.2379 74.7387C37.1199 74.7146 41.0037 74.8016 44.8839 74.7035C44.908 74.3743 44.9302 74.0469 44.945 73.7195C45.0265 73.7472 45.1081 73.7787 45.1896 73.812C46.0475 73.4235 47.0148 73.8138 47.8913 73.5105C47.5095 73.4476 47.1278 73.3902 46.7498 73.3162C48.0988 73.1479 49.5664 73.5068 50.8153 72.8686C51.4193 73.4346 52.2291 73.8101 53.0703 73.7324C53.8449 73.725 54.5046 73.2885 55.1642 72.9389C56.0685 72.4413 56.9153 71.8439 57.8381 71.3814C57.9066 71.4388 58.0438 71.5497 58.1123 71.6071C58.2828 71.5923 58.4588 71.6034 58.6274 71.5553C59.3186 71.3167 60.0579 71.4554 60.7732 71.3944C60.7046 71.2778 60.6379 71.165 60.5731 71.0503C61.2494 71.0189 61.9535 71.1576 62.6039 70.9153C63.0264 70.7303 63.4971 70.9523 63.9233 70.7803C64.4402 70.5657 65.0406 70.8062 65.5372 70.5379C66.2766 70.0681 67.2012 70.512 67.972 70.1162Z" fill="#F2F3F7"/>
</g>
<g id="#fcfcfdff">
<path id="Vector_41" d="M54.3756 79.1561C55.1947 79.1839 55.9414 78.7251 56.7623 78.7603C57.2848 78.7418 57.8074 78.7806 58.3207 78.8879C55.0687 80.8375 51.7314 82.6429 48.4405 84.5296C47.2546 85.153 46.1299 85.8966 44.9199 86.4681C41.4752 85.3046 38.0916 83.9636 34.6655 82.7483C33.5611 82.3007 32.4085 81.9696 31.3282 81.4609C32.0824 81.3092 32.8514 81.3814 33.613 81.374C37.3579 81.3444 41.1064 81.4147 44.8495 81.3351C44.8773 81.0114 44.8995 80.6877 44.9217 80.3659C44.9829 80.3955 45.107 80.4528 45.17 80.4805C45.9909 80.0791 46.9248 80.3196 47.8013 80.2623C47.7216 80.1476 47.6401 80.0348 47.5604 79.9219C48.5017 79.8627 49.456 79.9811 50.3732 79.7129C51.2108 79.3762 52.1243 79.5742 53.0026 79.515C52.9173 79.4003 52.8321 79.2856 52.7487 79.1709C53.2898 79.145 53.8327 79.1506 54.3756 79.1561Z" fill="#FCFCFD"/>
</g>
</g>
</svg>
