<svg width="18" height="19" viewBox="0 0 18 19" fill="none" xmlns="http://www.w3.org/2000/svg">
<g id="ue900-&#216;&#168;&#217;&#130;&#216;&#167;&#216;&#185; &#217;&#133;&#216;&#170;&#216;&#168;&#216;&#177;&#218;&#169;&#217;&#135;--&#216;&#168;&#217;&#130;&#216;&#167;&#216;&#185;-&#217;&#133;&#216;&#170;&#216;&#168;&#216;&#177;&#218;&#169;&#217;&#135;">
<path id="Vector" d="M14.3469 16.2748H3.57785C3.20133 16.2748 2.89125 16.548 2.8248 16.9023H15.1C15.0335 16.548 14.721 16.2748 14.3469 16.2748ZM14.3469 14.2224H3.58031C3.15949 14.2224 2.8125 14.5644 2.8125 14.9877C2.8125 15.4135 3.15703 15.7555 3.58031 15.7555H14.3469C14.7677 15.7555 15.1147 15.4135 15.1147 14.9877C15.1136 14.7847 15.0322 14.5903 14.8884 14.447C14.7446 14.3036 14.55 14.2229 14.3469 14.2224ZM10.9828 6.70175C10.1953 6.36707 9.53086 6.08652 9.10512 5.76168C9.10512 5.76168 9 6.43809 9 5.6875L9.10512 5.76168C8.96977 5.76168 9 5.6875 9 5.6875C9 6.21414 9 5.125 9 5.125C9 5.87559 9 5.6875 9 5.6875C8.57426 6.01234 7.72945 6.36707 6.94195 6.70175C5.10117 7.48187 2.8125 8.44902 2.8125 10.4252C2.8125 12.3028 4.16602 13.4693 4.47117 13.708H13.4536C13.7588 13.4693 15.1123 12.3028 15.1123 10.4252C15.1123 8.44902 12.8236 7.48187 10.9828 6.70175ZM10.37 7.56062C10.3282 7.65906 10.2347 7.71812 10.1338 7.71812C10.0993 7.71812 10.0673 7.71074 10.0329 7.69843C9.55055 7.49418 9.17402 7.3096 8.83688 7.12257C8.71383 7.05367 8.66953 6.89617 8.73844 6.77312C8.80734 6.65007 8.96484 6.60578 9.08789 6.67468C9.40781 6.85187 9.76957 7.0266 10.2322 7.22593C10.3651 7.27761 10.4266 7.43019 10.37 7.56062ZM13.2518 12.8615C13.2001 12.9107 13.1361 12.9353 13.0722 12.9353C13.0057 12.9353 12.9393 12.9107 12.8876 12.8566C12.7891 12.7557 12.7891 12.5932 12.8925 12.4948C13.6013 11.8057 14.1156 10.7205 13.6702 9.85422C13.2764 9.08886 12.2896 8.66558 11.4996 8.32597L11.4701 8.31367C11.3397 8.25953 11.2806 8.10695 11.3372 7.97652C11.3938 7.84609 11.5439 7.78703 11.6743 7.84363L11.7039 7.85347C12.5701 8.22754 13.6505 8.69019 14.1279 9.62043C14.6914 10.718 14.0934 12.042 13.2518 12.8615Z" fill="#09D374"/>
<rect id="Rectangle 17665" x="8" y="5.125" width="2" height="1.125" rx="0.4" fill="#09D374"/>
</g>
</svg>
