<svg width="16" height="17" viewBox="0 0 16 17" fill="none" xmlns="http://www.w3.org/2000/svg">
<g id="ue900-&#216;&#168;&#217;&#130;&#216;&#167;&#216;&#185; &#217;&#133;&#216;&#170;&#216;&#168;&#216;&#177;&#218;&#169;&#217;&#135;--&#216;&#168;&#217;&#130;&#216;&#167;&#216;&#185;-&#217;&#133;&#216;&#170;&#216;&#168;&#216;&#177;&#218;&#169;&#217;&#135;">
<path id="Vector" d="M12.6786 14.7519H3.25562C2.92616 14.7519 2.65484 15.0023 2.5967 15.3271H13.3375C13.2793 15.0023 13.0059 14.7519 12.6786 14.7519ZM12.6786 12.8705H3.25777C2.88956 12.8705 2.58594 13.1841 2.58594 13.5721C2.58594 13.9623 2.8874 14.2759 3.25777 14.2759H12.6786C13.0468 14.2759 13.3504 13.9623 13.3504 13.5721C13.3494 13.386 13.2782 13.2078 13.1524 13.0764C13.0265 12.945 12.8562 12.871 12.6786 12.8705ZM9.73496 5.97661C9.0459 5.66981 8.4645 5.41264 8.09198 5.11487C8.09198 5.11487 8 5.73491 8 5.04687L8.09198 5.11487C7.97355 5.11487 8 5.04687 8 5.04687C8 5.52963 8 4.53125 8 4.53125C8 5.21929 8 5.04687 8 5.04687C7.62748 5.34465 6.88827 5.66981 6.19921 5.97661C4.58853 6.69171 2.58594 7.57827 2.58594 9.38972C2.58594 11.1109 3.77026 12.1802 4.03728 12.399H11.8969C12.1639 12.1802 13.3482 11.1109 13.3482 9.38972C13.3482 7.57827 11.3456 6.69171 9.73496 5.97661ZM9.19878 6.7639C9.16218 6.85414 9.08035 6.90828 8.99206 6.90828C8.96192 6.90828 8.93393 6.90151 8.90378 6.89023C8.48173 6.703 8.15227 6.5338 7.85727 6.36236C7.7496 6.2992 7.71084 6.15482 7.77113 6.04203C7.83143 5.92923 7.96924 5.88863 8.0769 5.95179C8.35684 6.11421 8.67337 6.27438 9.0782 6.45711C9.19448 6.50448 9.24831 6.64434 9.19878 6.7639ZM11.7203 11.623C11.6751 11.6681 11.6191 11.6907 11.5631 11.6907C11.505 11.6907 11.4469 11.6681 11.4016 11.6185C11.3155 11.526 11.3155 11.3771 11.4059 11.2869C12.0261 10.6553 12.4761 9.66043 12.0864 8.86636C11.7419 8.16479 10.8784 7.77678 10.1872 7.46548L10.1613 7.4542C10.0472 7.40457 9.99551 7.2647 10.045 7.14514C10.0946 7.02558 10.2259 6.97144 10.34 7.02333L10.3659 7.03235C11.1239 7.37524 12.0692 7.79934 12.4869 8.65206C12.98 9.65817 12.4568 10.8718 11.7203 11.623Z" fill="#DB2929"/>
<rect id="Rectangle 17665" x="7.125" y="4.53125" width="2" height="1.03125" rx="0.4" fill="#DB2929"/>
</g>
</svg>
