<svg width="20" height="20" viewBox="0 0 20 20" fill="none" xmlns="http://www.w3.org/2000/svg">
<path d="M18.3333 6.50844V13.4918C18.3333 16.1668 16.1666 18.3334 13.4916 18.3334H6.50829C3.83329 18.3334 1.66663 16.1668 1.66663 13.4918V6.50844C1.66663 4.43344 2.51663 2.9251 4.02496 2.19177C4.57496 1.9251 5.20829 2.34177 5.20829 2.9501V10.3501C5.20829 11.3418 5.59163 12.1334 6.28329 12.5334C6.98329 12.9251 7.86663 12.8418 8.76663 12.3001L9.84996 11.6501C9.91663 11.6168 10.0833 11.6168 10.1333 11.6418L11.2333 12.3001C11.8333 12.6584 12.35 12.7751 12.7666 12.7751C13.2 12.7751 13.5333 12.6418 13.7333 12.5251C14.4083 12.1334 14.7916 11.3418 14.7916 10.3501V2.9501C14.7916 2.34177 15.4333 1.9251 15.975 2.19177C17.4833 2.9251 18.3333 4.43344 18.3333 6.50844Z" fill="#429FF5"/>
<path d="M12.7084 1.66675C13.1667 1.66675 13.5417 2.04175 13.5417 2.50008V10.3501C13.5417 10.8834 13.3834 11.2834 13.1084 11.4417C12.825 11.6084 12.375 11.5251 11.875 11.2251L10.775 10.5667C10.35 10.3084 9.65004 10.3084 9.22504 10.5667L8.12504 11.2251C7.62504 11.5251 7.17504 11.6001 6.89171 11.4417C6.61671 11.2834 6.45837 10.8834 6.45837 10.3501V2.50008C6.45837 2.04175 6.83337 1.66675 7.29171 1.66675H12.7084Z" fill="#429FF5"/>
</svg>
