<svg width="24" height="24" viewBox="0 0 24 24" fill="none" xmlns="http://www.w3.org/2000/svg">
<path d="M9.07119 2.29917C10.2695 1.57161 11.7394 1.3768 13.1134 1.57013C14.5036 1.77084 15.7757 2.51759 16.7424 3.51523C17.8905 4.73276 18.503 6.4063 18.4986 8.07247C18.5133 10.7141 18.4927 13.3558 18.5089 15.9975C17.4478 15.9886 16.3867 15.9694 15.3271 16.0004C15.0408 16.1067 15.0349 16.5022 15.3212 16.5996C16.6361 16.6557 17.9584 16.5539 19.2719 16.6734C19.6939 16.7147 19.8282 17.1663 19.8282 17.5279C19.8312 18.0916 19.9581 18.7734 19.4431 19.1645C14.7087 19.2398 9.97143 19.1763 5.23708 19.197C4.90946 19.2472 4.663 19.0258 4.43868 18.8266C4.40473 18.2599 4.40473 17.6932 4.40769 17.1265C4.50952 16.9863 4.61134 16.8475 4.71317 16.7073C5.86134 16.5568 7.02132 16.6439 8.17391 16.6055C8.50301 16.6144 8.5222 16.0196 8.17096 16.0299C7.35337 15.9281 6.52397 16.0167 5.70196 15.9872C5.71229 13.3027 5.67539 10.6167 5.71967 7.93375C5.75804 5.64922 7.02722 3.3706 9.07119 2.29917ZM9.89616 3.25106C8.73914 3.83547 7.76511 4.82278 7.33566 6.06097C6.88407 7.12206 7.01098 8.29975 6.9918 9.4243C7.00951 11.2085 6.95343 12.9957 7.02279 14.78C10.2725 14.8419 13.5237 14.7859 16.7734 14.808C17.0021 14.8596 17.2766 14.6885 17.2456 14.4346C17.2559 12.3715 17.2427 10.3068 17.25 8.24367C17.2545 7.41279 17.1261 6.58045 16.8176 5.80713C16.2613 4.70914 15.4201 3.70265 14.2601 3.22007C12.8979 2.56924 11.2524 2.60023 9.89616 3.25106Z" fill="#0B0B0B"/>
<path d="M8.79689 4.84783C9.89488 3.57127 11.7721 3.06507 13.3763 3.5447C15.1635 4.04205 16.5374 5.74806 16.5994 7.61199C16.6511 9.79911 16.6068 11.9907 16.6215 14.1793C13.6213 14.1793 10.6195 14.1793 7.6192 14.1793C7.62068 12.0453 7.61625 9.91127 7.62068 7.77728C7.62658 6.69847 8.05751 5.63295 8.79689 4.84783ZM10.221 6.02699C10.5974 6.84458 11.384 7.36258 11.9772 8.0134C12.1661 8.23625 12.3506 7.9042 12.4937 7.79794C12.9616 7.28436 13.5283 6.85196 13.9135 6.27049C14.1599 5.85137 13.9208 5.41601 13.7496 5.02345C13.4781 4.89063 13.1903 4.79913 12.8952 4.73714C12.6266 4.88472 12.3565 5.02788 12.0909 5.17988C11.8119 4.94818 11.4946 4.77404 11.1272 4.74305C10.556 4.8921 10.0779 5.39978 10.221 6.02699ZM9.15403 9.54233C9.01973 9.74156 9.12009 10.0633 9.38573 10.0441C11.1095 10.0544 12.8347 10.0426 14.5584 10.0485C14.7694 10.0707 14.9568 9.97326 15.1369 9.87733C15.1029 9.73713 15.069 9.59693 15.0365 9.45673C13.5017 9.37408 11.9639 9.44345 10.4276 9.41836C10.0041 9.43607 9.54954 9.34457 9.15403 9.54233ZM9.39016 10.9251C9.10385 10.9237 8.94004 11.4003 9.27357 11.4756C9.8934 11.5848 10.5295 11.4948 11.1552 11.5243C11.5994 11.5022 12.0879 11.6202 12.4805 11.3546C12.4569 11.2498 12.4082 11.0403 12.3831 10.9355C11.3884 10.8705 10.3848 10.8735 9.39016 10.9251ZM13.2435 11.241C13.6788 11.7619 14.4403 11.4461 15.0306 11.4992C15.0646 11.3251 15.1 11.1509 15.1339 10.9768C14.5982 10.8573 14.0478 10.8956 13.5047 10.8971C13.4397 10.9827 13.3084 11.1554 13.2435 11.241ZM9.11713 12.5839C8.96365 12.9293 9.4182 13.0768 9.68531 13.0385C10.159 13.0193 10.7877 13.1875 11.0563 12.6695C10.7508 12.2932 10.2446 12.4231 9.82404 12.4009C9.58053 12.4113 9.29423 12.3773 9.11713 12.5839ZM11.8887 12.4452C11.837 12.6931 11.8783 13.0222 12.2045 13.0178C13.0664 13.0488 13.9326 13.0473 14.7945 13.0208C15.1561 12.9721 15.1384 12.6385 14.9923 12.4009C13.9577 12.4305 12.9217 12.3699 11.8887 12.4452Z" fill="#0B0B0B"/>
<path d="M3.27892 20.8824C3.75856 20.4249 4.21753 19.7564 4.95985 19.7918C9.74585 19.7844 14.5318 19.7859 19.3178 19.7903C19.917 19.78 20.3465 20.2685 20.7405 20.6536C21.0076 20.9208 21.3987 21.3325 21.0327 21.6882C20.652 21.7915 20.252 21.731 19.8654 21.7443C14.4522 21.7428 9.03894 21.7428 3.62574 21.7443C3.39404 21.7708 3.1948 21.6528 3 21.5465C3.05313 21.3119 3.07674 21.0462 3.27892 20.8824Z" fill="#0B0B0B"/>
</svg>
