<svg width="25" height="24" viewBox="0 0 25 24" fill="none" xmlns="http://www.w3.org/2000/svg">
<path d="M4.45571 3.03236C6.31966 2.96466 8.18904 3.0287 10.0566 3.00125C10.5543 3.13483 11.0338 3.37453 11.3379 3.81001C11.5858 4.2766 11.6383 4.81821 11.6401 5.33787C11.6346 7.52261 11.6364 9.70553 11.6364 11.8903C12.1848 11.5646 12.7964 11.6359 13.3683 11.8518C13.3375 9.67991 13.3665 7.50614 13.352 5.33421C13.3321 4.60413 13.5185 3.79354 14.1284 3.33793C14.5319 3.01955 15.0603 3.00308 15.5507 3.00308C17.1306 3.00674 18.7104 3.00308 20.2921 3.00308C20.8332 2.98478 21.3742 3.24278 21.7036 3.67827C21.7163 3.94358 21.5244 4.11558 21.3308 4.25647C20.9236 4.13937 20.5653 3.83014 20.122 3.87222C18.4679 3.87954 16.8139 3.86124 15.1599 3.8832C14.6658 3.85575 14.2496 4.31503 14.2641 4.80358C14.2532 7.24632 14.2641 9.69089 14.2605 12.1336C16.5424 12.6368 18.9475 12.7137 21.2096 12.0732C21.3688 10.5051 21.2114 8.90958 21.2819 7.33232C21.3272 7.12921 21.396 6.93526 21.4864 6.74679C21.6927 6.81815 21.8972 6.89317 22.1017 6.96819C22.1542 8.53264 22.1506 10.1026 22.1035 11.667C22.4039 11.6927 22.8292 11.5627 22.9704 11.9287C23.0102 12.7082 23.0084 13.4913 22.974 14.269C22.9975 14.6331 22.6048 14.7008 22.3478 14.8033C22.2574 14.838 22.0746 14.9057 21.9823 14.9405L21.8375 14.9606C21.4358 15.1033 21.0214 15.2003 20.616 15.3229C20.587 15.623 20.5508 15.9249 20.511 16.2232C20.388 16.3897 20.2649 16.558 20.1455 16.7264C19.827 16.9825 19.4451 17.1198 19.0452 17.182C19.0687 18.3567 19.0506 19.5332 19.0561 20.7079C19.9374 20.7226 20.8223 20.675 21.7036 20.7281C22.0131 20.7098 22.0728 21.0556 22.2139 21.2569C21.9606 21.4307 21.6964 21.6301 21.3706 21.5789C18.7394 21.5661 16.1099 21.5972 13.4805 21.5606C13.4552 21.2678 13.2597 20.8799 13.6253 20.7262C14.5591 20.6768 15.4965 20.7226 16.4321 20.7079C16.4176 19.5424 16.4574 18.375 16.4158 17.2112C16.0158 17.0594 15.5471 16.9752 15.2829 16.5983C14.9463 16.2799 14.9427 15.784 14.8468 15.3613C14.065 15.1875 13.2869 14.999 12.5377 14.7118C11.7486 14.9862 10.9433 15.2076 10.1362 15.4126C10.1236 16.3092 9.48295 17.1582 8.54917 17.1783C8.57269 18.3548 8.5546 19.5314 8.56002 20.7079C9.43952 20.7226 10.3226 20.675 11.2003 20.7281C11.5152 20.7043 11.5767 21.0538 11.7197 21.2587C11.4645 21.427 11.2039 21.632 10.8782 21.5789C8.33925 21.5697 5.80029 21.588 3.26314 21.5716C2.81254 21.61 2.79987 21.0629 2.96636 20.7701C3.94539 20.6274 4.94794 20.7445 5.93601 20.7079C5.92154 19.5405 5.96135 18.3713 5.91973 17.2039C5.48722 17.0575 4.96966 16.9752 4.71087 16.5452C4.37609 16.2085 4.42676 15.7108 4.37971 15.2772C3.57079 15.0777 2.74739 14.9039 2 14.5178C2 13.6578 2 12.7997 2 11.9397C2.07058 11.8573 2.21173 11.6945 2.28231 11.6121C2.47594 11.6579 2.66958 11.7055 2.86321 11.7512C2.85597 9.48047 2.85959 7.20789 2.85959 4.93532C2.83968 4.03324 3.4984 3.03785 4.45571 3.03236ZM3.73728 4.80174C3.6848 7.21521 3.74994 9.62868 3.7047 12.0421C6.0084 12.538 8.43154 12.7667 10.7407 12.1794C10.7153 9.71285 10.7461 7.24449 10.7262 4.77796C10.7298 4.30405 10.3226 3.86124 9.84127 3.8832C8.11485 3.86673 6.38843 3.86673 4.66201 3.8832C4.18064 3.87771 3.70289 4.29673 3.73728 4.80174ZM2.85416 12.6771C2.85959 13.0997 2.85959 13.5206 2.85959 13.9433C5.8202 14.8801 9.10654 15.0576 12.0454 13.9488C12.0418 13.5371 12.04 13.1254 12.0382 12.7137C9.08483 13.7365 5.81477 13.6029 2.85416 12.6771ZM12.9575 12.7082C12.9485 13.118 12.9466 13.5261 12.9466 13.9341C15.4313 14.7667 18.1621 14.9771 20.721 14.3788C21.1806 14.2013 21.662 14.0915 22.1307 13.9451C22.1325 13.5297 22.1325 13.1162 22.1397 12.7009C19.1845 13.7457 15.9326 13.5755 12.9575 12.7082ZM5.19405 15.4364C5.32978 15.7383 5.3533 16.2982 5.80753 16.2671C6.75398 16.2689 7.70224 16.2927 8.64689 16.2543C9.05768 16.2451 9.20426 15.8755 9.29837 15.5315C7.93026 15.6431 6.55673 15.6047 5.19405 15.4364ZM15.6847 15.4913C15.8132 15.7547 15.9471 16.0164 16.0973 16.2689C17.1487 16.2433 18.2073 16.3275 19.2533 16.2305C19.6442 16.1957 19.6894 15.7804 19.8161 15.4876C18.4426 15.6614 17.06 15.5809 15.6847 15.4913ZM6.7956 17.1399C6.7956 18.3292 6.7956 19.5186 6.7956 20.7079C7.09782 20.7079 7.39822 20.7079 7.70044 20.7079C7.70044 19.5186 7.70044 18.3292 7.70044 17.1399C7.39822 17.1399 7.09782 17.1399 6.7956 17.1399ZM17.2916 17.1399C17.2916 18.3292 17.2916 19.5186 17.2916 20.7079C17.5939 20.7079 17.8943 20.7079 18.1965 20.7079C18.1965 19.5186 18.1965 18.3292 18.1965 17.1399C17.8943 17.1399 17.5939 17.1399 17.2916 17.1399Z" fill="#FCFDFF"/>
<path d="M21.3505 5.08003C21.508 5.06356 21.821 5.03063 21.9767 5.01416C22.0563 5.27399 22.1667 5.54662 21.9785 5.79364C21.7269 5.82475 21.4808 5.7973 21.2419 5.70947C21.2691 5.55211 21.3234 5.23739 21.3505 5.08003Z" fill="#FCFDFF"/>
<path d="M5.42365 6.50534C4.93866 6.46326 4.94228 5.62156 5.45804 5.68011C6.75194 5.62705 8.04947 5.66365 9.34338 5.66731C9.40853 5.95275 9.39224 6.24002 9.30719 6.51815C8.01328 6.51998 6.71575 6.55657 5.42365 6.50534Z" fill="#FCFDFF"/>
<path d="M15.9328 6.50529C15.4333 6.48151 15.4351 5.60139 15.969 5.68007C17.2574 5.62883 18.5495 5.6636 19.8398 5.66726C19.9068 5.9527 19.8887 6.23998 19.8018 6.5181C18.5133 6.51993 17.2212 6.55653 15.9328 6.50529Z" fill="#FCFDFF"/>
<path d="M4.96777 8.60944C5.17769 8.50331 5.3659 8.30387 5.61744 8.31484C6.83353 8.30204 8.04963 8.31485 9.26572 8.31302C9.38697 8.5948 9.39602 8.88939 9.30553 9.18033C7.95191 9.18033 6.59647 9.18033 5.24284 9.18033C5.14874 8.99186 5.05645 8.80156 4.96777 8.60944Z" fill="#FCFDFF"/>
<path d="M15.9653 8.32761C17.2339 8.28736 18.5061 8.31846 19.7764 8.31663C19.8561 8.60757 20.0895 9.00646 19.6896 9.16199C18.982 9.21139 18.2708 9.16565 17.5632 9.18029C16.881 9.16382 16.1788 9.2608 15.5183 9.03573C15.5798 8.75761 15.5835 8.33127 15.9653 8.32761Z" fill="#FCFDFF"/>
</svg>
