<svg width="24" height="24" viewBox="0 0 24 24" fill="none" xmlns="http://www.w3.org/2000/svg">
<path d="M8.44293 2.70851C9.51014 2.24555 10.6405 1.94943 11.7122 1.5C14.8958 2.57623 18.0404 3.78324 21.2029 4.92862C20.9173 4.97822 20.6513 5.09096 20.3957 5.22173C20.4048 6.51892 20.3927 7.81461 20.4003 9.1103C20.3973 9.35682 20.5295 9.57627 20.6167 9.80024C20.5175 9.9776 20.3807 10.1129 20.2064 10.2076C20.3477 10.8314 20.4889 11.4552 20.6317 12.079C20.5882 12.1782 20.4995 12.3781 20.4559 12.4773C20.1056 12.7283 19.4788 12.5555 19.5089 12.0609C19.569 11.4431 19.799 10.8524 19.9042 10.2407C19.8216 10.17 19.6562 10.0287 19.575 9.95806C19.5675 9.87088 19.554 9.69802 19.5465 9.61235C19.6712 9.40492 19.7299 9.18245 19.7254 8.94346C19.7269 7.79658 19.7103 6.64819 19.7329 5.49981C17.0799 6.58055 14.4314 7.67332 11.7859 8.7706C8.60376 7.44034 5.37055 6.22882 2.18994 4.89254C3.2797 4.51676 4.36496 4.12595 5.45171 3.74717C5.52537 3.7141 5.67418 3.64646 5.74783 3.61189L5.88762 3.61038C6.67676 3.26917 7.50197 3.02116 8.30614 2.71903L8.44293 2.70851Z" fill="#FCFDFF"/>
<path d="M5.53564 6.99992C7.66707 7.73495 9.72184 8.70597 11.8518 9.45151C13.8885 8.59173 15.9357 7.74246 17.9905 6.92627C17.9845 8.02806 18.0176 9.13135 17.9755 10.2316C17.9364 10.8885 17.3382 11.2853 16.788 11.5108C15.1827 12.1812 13.4165 12.2834 11.6984 12.33C10.1517 12.2804 8.57796 12.1707 7.10641 11.6596C6.47359 11.3725 5.63635 11.0463 5.56571 10.2437C5.52663 9.16291 5.58976 8.08067 5.53564 6.99992Z" fill="#FCFDFF"/>
<path d="M1.51191 16.4485C1.56753 14.8762 3.07215 13.6331 4.61436 13.7218C10.5757 13.7218 16.5386 13.7309 22.5 13.7158C21.9814 14.2569 21.4238 14.7845 21.1352 15.4925C17.3984 15.488 13.6631 15.485 9.92789 15.4955C9.92037 15.718 9.91587 15.9419 9.90985 16.1644C13.603 16.1674 17.2962 16.1659 20.9909 16.1659C20.9999 16.4936 21.0224 16.8213 21.057 17.1474C19.6847 17.1369 18.3138 17.1459 16.9415 17.1429C16.9415 16.9295 16.9415 16.7161 16.94 16.5041C15.1076 16.5011 13.2753 16.5116 11.443 16.4981C11.4761 17.5292 11.434 18.5604 11.4671 19.5915C9.05307 19.5645 6.63906 19.6156 4.22505 19.5645C2.65429 19.5269 1.3616 17.9967 1.51191 16.4485Z" fill="#FCFDFF"/>
<path d="M12.1314 17.1431C13.5098 17.1431 14.8866 17.1431 16.265 17.1431C16.259 18.9874 16.277 20.8317 16.2545 22.6761C15.563 21.911 14.8791 21.1369 14.2163 20.3432C13.5113 21.1429 12.7718 21.917 12.1284 22.7662C12.1359 20.8919 12.1284 19.0175 12.1314 17.1431Z" fill="#FCFDFF"/>
<path d="M16.9414 17.8193C18.3949 17.8193 19.8469 17.8193 21.3005 17.8193C21.5755 18.4461 21.9543 19.0158 22.3511 19.5705C20.5489 19.6035 18.7452 19.575 16.9414 19.5855C16.9414 18.9963 16.9414 18.4086 16.9414 17.8193Z" fill="#FCFDFF"/>
</svg>
