<svg width="24" height="24" viewBox="0 0 24 24" fill="none" xmlns="http://www.w3.org/2000/svg">
<path d="M11.2183 3.11705C12.9779 2.56979 14.9363 4.0197 14.9897 5.84002C15.1451 7.57024 13.5092 9.17198 11.7814 8.98511C10.194 8.92838 8.85549 7.38003 9.01256 5.80498C9.05433 4.55362 10.0252 3.43907 11.2183 3.11705Z" fill="#0B0B0B"/>
<path d="M4.76585 9.1744C5.70838 8.73162 6.71507 9.26841 7.64844 9.47615C8.6811 9.82491 9.63279 10.345 10.5646 10.897C10.8625 11.2002 11.2475 11.3974 11.5423 11.7022C11.7302 11.8932 12.0388 12.1449 12.2664 11.8508C13.6107 10.6559 15.2314 9.77639 16.9683 9.29722C17.6787 9.13801 18.447 8.80896 19.1574 9.1471C19.8769 9.40488 20.2542 10.204 20.2496 10.9258C20.2496 12.9092 20.2511 14.8926 20.2481 16.8775C20.2542 17.5113 20.0067 18.1618 19.4873 18.553C19.0398 18.9336 18.4287 18.9821 17.8773 19.1095C16.5024 19.3082 15.2437 19.9314 14.0231 20.5622C13.4136 20.8973 12.9324 21.4356 12.2862 21.7085C11.7027 21.9011 11.2429 21.3749 10.7831 21.1111C9.35018 20.0557 7.6683 19.3415 5.90697 19.058C5.43036 18.9397 4.86973 18.9397 4.51075 18.5591C3.89665 18.0344 3.75153 17.1792 3.75 16.415C3.75458 14.5847 3.74847 12.756 3.75305 10.9258C3.74389 10.2176 4.0876 9.4716 4.76585 9.1744Z" fill="#0B0B0B"/>
</svg>
