<svg width="20" height="20" viewBox="0 0 20 20" fill="none" xmlns="http://www.w3.org/2000/svg">
<path d="M16.825 11.7166L15.8833 10.1499C15.675 9.80825 15.4916 9.14992 15.4916 8.74992V7.19159C15.4916 4.16659 13.0333 1.70825 10.0166 1.70825C6.99163 1.71659 4.5333 4.16659 4.5333 7.19159V8.74159C4.5333 9.14159 4.34997 9.79992 4.14997 10.1416L3.2083 11.7083C2.84997 12.3166 2.76663 13.0083 2.99163 13.6083C3.21663 14.2166 3.72497 14.6999 4.39163 14.9166C5.29163 15.2166 6.19997 15.4333 7.12497 15.5916C7.21663 15.6083 7.3083 15.6166 7.39997 15.6333C7.51663 15.6499 7.64163 15.6666 7.76663 15.6833C7.9833 15.7166 8.19997 15.7416 8.42496 15.7583C8.94997 15.8083 9.4833 15.8333 10.0166 15.8333C10.5416 15.8333 11.0666 15.8083 11.5833 15.7583C11.775 15.7416 11.9666 15.7249 12.15 15.6999C12.3 15.6833 12.45 15.6666 12.6 15.6416C12.6916 15.6333 12.7833 15.6166 12.875 15.5999C13.8083 15.4499 14.7333 15.2166 15.6333 14.9166C16.275 14.6999 16.7666 14.2166 17 13.5999C17.2333 12.9749 17.1666 12.2916 16.825 11.7166ZM10.625 8.33325C10.625 8.68325 10.3416 8.96659 9.99163 8.96659C9.64163 8.96659 9.3583 8.68325 9.3583 8.33325V5.74992C9.3583 5.39992 9.64163 5.11659 9.99163 5.11659C10.3416 5.11659 10.625 5.39992 10.625 5.74992V8.33325Z" fill="#429FF5"/>
<path d="M12.3584 16.6751C12.0084 17.6417 11.0834 18.3334 10 18.3334C9.34169 18.3334 8.69169 18.0667 8.23336 17.5917C7.96669 17.3417 7.76669 17.0084 7.65002 16.6667C7.75836 16.6834 7.86669 16.6917 7.98336 16.7084C8.17502 16.7334 8.37502 16.7584 8.57502 16.7751C9.05002 16.8167 9.53336 16.8417 10.0167 16.8417C10.4917 16.8417 10.9667 16.8167 11.4334 16.7751C11.6084 16.7584 11.7834 16.7501 11.95 16.7251C12.0834 16.7084 12.2167 16.6917 12.3584 16.6751Z" fill="#429FF5"/>
</svg>
