<svg width="24" height="24" viewBox="0 0 24 24" fill="none" xmlns="http://www.w3.org/2000/svg">
<path d="M3.75 7.04178C6.6377 5.98213 9.49204 4.80041 12.376 3.75C15.26 4.81521 18.1107 5.97288 20.9891 7.04918C20.9891 7.42274 20.9891 7.79446 20.9891 8.16802C20.8501 8.16802 20.5721 8.16802 20.4331 8.16802C20.4331 8.53788 20.4331 8.90774 20.4331 9.27761C20.0624 9.27761 19.6917 9.27761 19.321 9.27761C19.321 12.4214 19.321 15.5653 19.321 18.7091C19.6917 18.7091 20.0624 18.7091 20.4331 18.7091C20.4331 19.079 20.4331 19.4489 20.4331 19.8187C20.5721 19.8187 20.8501 19.8187 20.9891 19.8187C20.9891 20.1886 20.9891 20.5584 20.9891 20.9283C15.2434 20.9283 9.4976 20.9283 3.75185 20.9283C3.75185 20.5584 3.75185 20.1886 3.75185 19.8187C3.89086 19.8187 4.16888 19.8187 4.30789 19.8187C4.30789 19.4489 4.30789 19.079 4.30789 18.7091C4.67859 18.7091 5.04928 18.7091 5.41997 18.7091C5.41997 15.5653 5.41997 12.4214 5.41997 9.27761C5.04928 9.27761 4.67859 9.27761 4.30789 9.27761C4.30789 8.90774 4.30789 8.53788 4.30789 8.16802C4.16888 8.16802 3.89086 8.16802 3.75185 8.16802C3.75185 7.79261 3.75185 7.4172 3.75 7.04178ZM6.53206 9.27761C6.53206 12.4214 6.53206 15.5653 6.53206 18.7091C7.0881 18.7091 7.64414 18.7091 8.20018 18.7091C8.20018 15.5653 8.20018 12.4214 8.20018 9.27761C7.64414 9.27761 7.0881 9.27761 6.53206 9.27761ZM9.31226 9.27761C9.31226 12.4214 9.31226 15.5653 9.31226 18.7091C11.3511 18.7091 13.3899 18.7091 15.4287 18.7091C15.4287 15.5653 15.4287 12.4214 15.4287 9.27761C13.3899 9.27761 11.3511 9.27761 9.31226 9.27761ZM16.5408 9.27761C16.5408 12.4214 16.5408 15.5653 16.5408 18.7091C17.0968 18.7091 17.6529 18.7091 18.2089 18.7091C18.2089 15.5653 18.2089 12.4214 18.2089 9.27761C17.6529 9.27761 17.0968 9.27761 16.5408 9.27761Z" fill="#0B0B0B"/>
</svg>
