<svg width="20" height="20" viewBox="0 0 20 20" fill="none" xmlns="http://www.w3.org/2000/svg">
<path d="M6.66665 1.66675H13.3333C16.6666 1.66675 18.3333 3.33341 18.3333 6.66675V17.5001C18.3333 17.9584 17.9583 18.3334 17.5 18.3334H6.66665C3.33331 18.3334 1.66665 16.6667 1.66665 13.3334V6.66675C1.66665 3.33341 3.33331 1.66675 6.66665 1.66675ZM8.33331 12.7084H14.1666C14.5083 12.7084 14.7916 12.4251 14.7916 12.0834C14.7916 11.7417 14.5083 11.4584 14.1666 11.4584H8.33331C7.99165 11.4584 7.70831 11.7417 7.70831 12.0834C7.70831 12.4251 7.99165 12.7084 8.33331 12.7084ZM5.83331 8.54175H14.1666C14.5083 8.54175 14.7916 8.25842 14.7916 7.91675C14.7916 7.57508 14.5083 7.29175 14.1666 7.29175H5.83331C5.49165 7.29175 5.20831 7.57508 5.20831 7.91675C5.20831 8.25842 5.49165 8.54175 5.83331 8.54175Z" fill="#429FF5"/>
</svg>
