<svg width="42" height="46" viewBox="0 0 42 46" fill="none" xmlns="http://www.w3.org/2000/svg">
<path d="M15.4561 2.59579C15.4561 1.32904 16.4944 0.308594 17.7615 0.308594H23.6572C27.3354 0.308594 30.3272 3.28195 30.3272 6.95906V14.1198H16.2832L15.4561 2.59579Z" fill="#0B0B0B"/>
<path d="M13.2562 14.9461H11.2852V5.3399C11.2852 3.19346 13.485 1.75076 15.4561 2.59527C15.8961 4.98803 13.2562 14.9461 13.2562 14.9461Z" fill="#0B0B0B"/>
<path d="M25.2763 22.549C24.6427 25.2761 22.9708 27.2114 20.9997 27.2114C19.0286 27.2114 17.3391 25.2585 16.7231 22.549L17.1983 20.7017L17.3391 20.1387H24.6427L25.1883 22.2499L25.2411 22.4435L25.2763 22.549Z" fill="#D2D4DA"/>
<path d="M30.1865 12.2046C33.8295 8.12286 31.4009 18.0986 29.377 16.9198C25.8572 14.8789 30.1865 12.2046 30.1865 12.2046Z" fill="#F4F4F4"/>
<path d="M41.1507 37.4168C39.25 39.3697 37.0853 41.0587 34.6919 42.3959C31.0137 44.4719 26.8251 45.7387 22.355 45.9498C21.9091 45.9733 21.4574 45.985 20.9998 45.985C18.7472 45.985 16.5473 45.7211 14.453 45.2109C11.514 44.5071 8.76855 43.3459 6.28709 41.8153C4.28081 40.5661 2.46811 39.1058 0.848999 37.4168L1.32417 35.5167C2.06333 32.6665 4.29841 30.4496 7.16704 29.7635L7.48382 29.6931L11.0036 28.8486L11.9716 28.6199C12.3705 28.526 12.7577 28.3912 13.1331 28.2152C13.4382 28.0627 13.7256 27.8868 13.9954 27.6874C14.3005 27.4763 14.5762 27.2417 14.8226 26.9837C15.4914 26.2623 15.9841 25.4002 16.2481 24.415L16.6177 22.9723L16.7233 22.5676V22.55L17.1985 20.7027L17.3393 20.1396H24.6428L25.1884 22.2509L25.2412 22.4444L25.2764 22.55V22.5676L25.382 22.9723L25.7516 24.415C26.1036 25.7521 26.8955 26.9133 28.0043 27.6874C28.6026 28.1273 29.289 28.4439 30.0281 28.6199L30.9081 28.831L34.8151 29.7635C37.6837 30.4496 39.9364 32.6665 40.6579 35.5167L41.1507 37.4168Z" fill="#F4F4F4"/>
<path d="M25.2763 22.55C24.6427 25.2771 22.9708 27.2124 20.9997 27.2124C19.0286 27.2124 17.3391 25.2595 16.7231 22.55L17.1983 20.7027L17.3391 20.1396H24.6427L25.1883 22.2509L25.2411 22.4444L25.2763 22.55Z" fill="#D2D4DA"/>
<path d="M11.8132 12.2046C8.17019 8.12286 10.5989 18.0986 12.6051 16.9198C16.1425 14.8789 11.8132 12.2046 11.8132 12.2046Z" fill="#F4F4F4"/>
<path d="M29.4649 9.26635C29.4649 9.57131 29.4473 9.87627 29.4121 10.1812C29.3769 10.4451 29.2537 11.6239 29.0425 13.1194H29.0249C28.9193 13.9463 28.7609 14.8612 28.5673 15.7937C28.5673 15.8054 28.5673 15.8171 28.5673 15.8288C28.1274 18.0984 27.4938 20.3505 26.6667 21.1598C25.7339 22.0923 24.9948 22.9368 24.1324 23.5525C23.2877 24.1683 22.3373 24.5378 20.9998 24.5378C19.6623 24.5378 18.7119 24.1683 17.8496 23.5525C17.0048 22.9368 16.2481 22.0923 15.3329 21.1598C14.5058 20.3505 13.8722 18.0809 13.4146 15.8288C13.4146 15.8288 13.4146 15.823 13.4146 15.8113C13.3677 15.518 13.3149 15.2307 13.2562 14.9492C13.2328 14.8201 13.2093 14.697 13.1858 14.5797C13.0978 14.0695 13.0274 13.5768 12.957 13.1194C12.7107 11.3952 12.5875 10.1108 12.5875 10.1108C12.5523 9.82935 12.5347 9.54785 12.5347 9.26635C12.5347 9.18424 12.5347 9.108 12.5347 9.03763C12.5581 8.36906 12.652 7.72395 12.8162 7.1023C12.828 7.07885 12.8339 7.04952 12.8339 7.01434C13.7842 3.58354 16.8288 1.01484 20.507 0.821306C20.6654 0.803712 20.8238 0.803711 20.9998 0.803711C23.3404 0.803711 25.4523 1.75378 26.9834 3.28444C28.3034 4.60398 29.1833 6.36337 29.4121 8.31628C29.4473 8.63297 29.4649 8.94966 29.4649 9.26635Z" fill="#F4F4F4"/>
<path d="M22.3198 16.8674C22.3198 17.448 21.739 17.923 20.9999 17.923C20.2607 17.923 19.6624 17.448 19.6624 16.8674C19.6624 16.797 19.6741 16.7266 19.6976 16.6562C19.8207 17.1489 20.3487 17.5183 20.9999 17.5183C21.651 17.5183 22.179 17.1489 22.3022 16.6562C22.3257 16.7266 22.3315 16.797 22.3198 16.8674Z" fill="#DEDFE0"/>
<path d="M29.7115 9.33492C29.7115 9.65161 29.6939 9.96244 29.6587 10.2674C29.6235 10.5489 29.0427 13.1176 29.0427 13.1176C16.8818 10.1618 15.8962 4.98925 15.8962 4.98925C15.949 9.93312 12.9572 13.1176 12.9572 13.1176C12.6932 11.3582 12.3237 10.197 12.3237 10.197C12.3002 9.91552 12.2885 9.62816 12.2885 9.33492C12.2885 9.25282 12.2885 9.17658 12.2885 9.10621C12.3119 8.41418 12.4058 7.75148 12.57 7.1181C12.5818 7.08292 12.5876 7.05359 12.5876 7.03013C13.5556 3.47618 16.7058 0.837103 20.4896 0.625977C20.6656 0.625977 20.824 0.625977 21 0.625977C23.411 0.625977 25.5757 1.59364 27.1596 3.17708C28.5323 4.53181 29.4299 6.34397 29.6587 8.36726C29.6939 8.68395 29.7115 9.00651 29.7115 9.33492Z" fill="#0B0B0B"/>
<path d="M41.1508 37.4311C36.0471 42.7093 28.9019 45.9993 21 45.9993C13.0804 45.9993 5.93523 42.7093 0.849121 37.4311L1.3243 35.531C2.06345 32.6808 4.29853 30.464 7.16716 29.7778L11.0213 28.8629L11.9717 28.6342C12.3941 28.5286 12.8164 28.3703 13.2036 28.1768C15.1571 30.2528 17.9201 31.5548 21 31.5548C24.0798 31.5548 26.8428 30.2528 28.7963 28.1768C29.1835 28.3703 29.5883 28.5286 30.0283 28.6342L30.8554 28.8277L34.8152 29.7778C37.6838 30.464 39.9365 32.6808 40.658 35.531L41.1508 37.4311Z" fill="#429FF5"/>
<path d="M30.8554 28.8277C29.9931 29.8658 26.8428 33.1734 21 33.4021C14.2596 33.666 11.1974 29.1268 11.0214 28.8629L11.9717 28.6342C12.3941 28.5286 12.8165 28.3703 13.2036 28.1768C15.1571 30.2528 17.9202 31.5548 21 31.5548C24.0798 31.5548 26.8429 30.2528 28.7963 28.1768C29.1835 28.3703 29.5883 28.5286 30.0283 28.6342L30.8554 28.8277Z" fill="#0B0B0B"/>
</svg>
