<svg width="37" height="36" viewBox="0 0 37 36" fill="none" xmlns="http://www.w3.org/2000/svg">
<g id="vuesax/bulk/gallery">
<g id="gallery">
<path id="Vector" opacity="0.4" d="M33.5 11.715V20.85L31.055 18.75C29.885 17.745 27.995 17.745 26.825 18.75L20.585 24.105C19.415 25.11 17.525 25.11 16.355 24.105L15.845 23.685C14.78 22.755 13.085 22.665 11.885 23.475L4.505 28.425L4.34 28.545C3.785 27.345 3.5 25.92 3.5 24.285V11.715C3.5 6.255 6.755 3 12.215 3H24.785C30.245 3 33.5 6.255 33.5 11.715Z" fill="#429FF5"/>
<path id="Vector_2" d="M13.9997 15.57C15.9713 15.57 17.5697 13.9716 17.5697 12C17.5697 10.0283 15.9713 8.42999 13.9997 8.42999C12.028 8.42999 10.4297 10.0283 10.4297 12C10.4297 13.9716 12.028 15.57 13.9997 15.57Z" fill="#429FF5"/>
<path id="Vector_3" d="M33.4998 20.85V24.285C33.4998 29.745 30.2448 33 24.7848 33H12.2148C8.38984 33 5.62984 31.395 4.33984 28.545L4.50484 28.425L11.8848 23.475C13.0848 22.665 14.7798 22.755 15.8448 23.685L16.3548 24.105C17.5248 25.11 19.4148 25.11 20.5848 24.105L26.8248 18.75C27.9948 17.745 29.8848 17.745 31.0548 18.75L33.4998 20.85Z" fill="#429FF5"/>
</g>
</g>
</svg>
