<svg width="24" height="24" viewBox="0 0 24 24" fill="none" xmlns="http://www.w3.org/2000/svg">
<g id="vuesax/bold/image">
<g id="image">
<path id="Vector" d="M22.0206 16.82L18.8906 9.50001C18.3206 8.16001 17.4706 7.40001 16.5006 7.35001C15.5406 7.30001 14.6106 7.97001 13.9006 9.25001L12.0006 12.66C11.6006 13.38 11.0306 13.81 10.4106 13.86C9.78063 13.92 9.15063 13.59 8.64063 12.94L8.42063 12.66C7.71063 11.77 6.83063 11.34 5.93063 11.43C5.03063 11.52 4.26063 12.14 3.75063 13.15L2.02063 16.6C1.40063 17.85 1.46063 19.3 2.19063 20.48C2.92063 21.66 4.19063 22.37 5.58063 22.37H18.3406C19.6806 22.37 20.9306 21.7 21.6706 20.58C22.4306 19.46 22.5506 18.05 22.0206 16.82Z" fill="#429FF5"/>
<path id="Vector_2" d="M6.96984 8.38C8.83657 8.38 10.3498 6.86672 10.3498 5C10.3498 3.13327 8.83657 1.62 6.96984 1.62C5.10312 1.62 3.58984 3.13327 3.58984 5C3.58984 6.86672 5.10312 8.38 6.96984 8.38Z" fill="#429FF5"/>
</g>
</g>
</svg>
