<svg width="37" height="36" viewBox="0 0 37 36" fill="none" xmlns="http://www.w3.org/2000/svg">
<g id="vuesax/bulk/microphone">
<g id="microphone">
<path id="Vector" opacity="0.4" d="M18.5004 32.895C10.9404 32.895 4.77539 26.745 4.77539 19.17V16.35C4.77539 15.765 5.25539 15.3 5.82539 15.3C6.39539 15.3 6.87539 15.78 6.87539 16.35V19.17C6.87539 25.575 12.0804 30.78 18.4854 30.78C24.8904 30.78 30.0954 25.575 30.0954 19.17V16.35C30.0954 15.765 30.5754 15.3 31.1454 15.3C31.7154 15.3 32.1954 15.78 32.1954 16.35V19.17C32.2254 26.745 26.0604 32.895 18.5004 32.895Z" fill="#429FF5"/>
<path id="Vector_2" d="M18.4996 3C13.4596 3 9.34961 7.11 9.34961 12.15V19.185C9.34961 24.225 13.4596 28.335 18.4996 28.335C23.5396 28.335 27.6496 24.225 27.6496 19.185V12.15C27.6496 7.11 23.5396 3 18.4996 3ZM21.7696 15.885C21.6646 16.29 21.2896 16.56 20.8846 16.56C20.8096 16.56 20.7196 16.545 20.6446 16.53C19.1146 16.11 17.4946 16.11 15.9646 16.53C15.4696 16.665 14.9746 16.38 14.8396 15.885C14.7046 15.405 14.9896 14.895 15.4846 14.76C17.3296 14.25 19.2796 14.25 21.1246 14.76C21.6196 14.895 21.9046 15.39 21.7696 15.885ZM23.0446 11.73C22.9096 12.105 22.5646 12.33 22.1896 12.33C22.0846 12.33 21.9796 12.315 21.8746 12.27C19.5796 11.43 17.0596 11.43 14.7646 12.27C14.2846 12.45 13.7596 12.21 13.5796 11.73C13.4146 11.265 13.6546 10.74 14.1346 10.56C16.8346 9.585 19.8046 9.585 22.4896 10.56C22.9696 10.74 23.2096 11.265 23.0446 11.73Z" fill="#429FF5"/>
</g>
</g>
</svg>
