<svg width="37" height="36" viewBox="0 0 37 36" fill="none" xmlns="http://www.w3.org/2000/svg">
<g id="vuesax/bulk/video">
<g id="video">
<path id="Vector" opacity="0.4" d="M20 4.875H11C5.87 4.875 3.875 6.87 3.875 12V24C3.875 27.45 5.75 31.125 11 31.125H20C25.13 31.125 27.125 29.13 27.125 24V12C27.125 6.87 25.13 4.875 20 4.875Z" fill="#429FF5"/>
<path id="Vector_2" d="M17.7497 17.07C19.3071 17.07 20.5697 15.8074 20.5697 14.25C20.5697 12.6925 19.3071 11.43 17.7497 11.43C16.1922 11.43 14.9297 12.6925 14.9297 14.25C14.9297 15.8074 16.1922 17.07 17.7497 17.07Z" fill="#429FF5"/>
<path id="Vector_3" d="M32.9757 9.25501C32.3607 8.94001 31.0707 8.58001 29.3157 9.81001L27.0957 11.37C27.1107 11.58 27.1257 11.775 27.1257 12V24C27.1257 24.225 27.0957 24.42 27.0957 24.63L29.3157 26.19C30.2457 26.85 31.0557 27.06 31.7007 27.06C32.2557 27.06 32.6907 26.91 32.9757 26.76C33.5907 26.445 34.6257 25.59 34.6257 23.445V12.57C34.6257 10.425 33.5907 9.57001 32.9757 9.25501Z" fill="#429FF5"/>
</g>
</g>
</svg>
