<svg width="32" height="32" viewBox="0 0 32 32" fill="none" xmlns="http://www.w3.org/2000/svg">
<g id="ue906-&#217;&#130;&#216;&#168;&#217;&#136;&#216;&#177;">
<path id="Vector" d="M12.0946 3.06559C13.6924 2.09551 15.6522 1.83577 17.4842 2.09354C19.3378 2.36115 21.034 3.35682 22.3228 4.687C23.8537 6.31037 24.6703 8.54177 24.6644 10.7633C24.6841 14.2856 24.6565 17.8078 24.6782 21.33C23.2634 21.3182 21.8486 21.2926 20.4358 21.3339C20.054 21.4756 20.0462 22.003 20.4279 22.1328C22.1811 22.2076 23.9442 22.0718 25.6955 22.2312C26.2583 22.2863 26.4373 22.8884 26.4373 23.3705C26.4413 24.1222 26.6105 25.0313 25.9238 25.5527C19.6113 25.6531 13.2949 25.5685 6.98245 25.596C6.54561 25.6629 6.217 25.3678 5.91791 25.1021C5.87265 24.3465 5.87265 23.5909 5.87659 22.8353C6.01236 22.6484 6.14813 22.4634 6.28391 22.2765C7.8148 22.0758 9.36143 22.1919 10.8982 22.1407C11.337 22.1525 11.3626 21.3595 10.8943 21.3733C9.80417 21.2375 8.69831 21.3556 7.60228 21.3162C7.61606 17.7369 7.56686 14.1557 7.62589 10.5784C7.67706 7.53233 9.3693 4.49416 12.0946 3.06559ZM13.1946 4.33478C11.6519 5.11399 10.3532 6.4304 9.78055 8.08132C9.17843 9.49611 9.34765 11.0664 9.32207 12.5658C9.34569 14.9447 9.27091 17.3277 9.3634 19.7066C13.6963 19.7893 18.0312 19.7145 22.3641 19.744C22.6691 19.8129 23.0351 19.5846 22.9938 19.2462C23.0076 16.4953 22.9899 13.7425 22.9997 10.9916C23.0056 9.88376 22.8344 8.77396 22.4232 7.74287C21.6813 6.27889 20.5597 4.9369 19.0131 4.29345C17.1969 3.42569 15.0029 3.46701 13.1946 4.33478Z" fill="#FBFBFB"/>
<path id="Vector_2" d="M11.7292 6.46378C13.1932 4.7617 15.6961 4.08677 17.835 4.72628C20.2179 5.3894 22.0499 7.66409 22.1325 10.1493C22.2014 13.0655 22.1424 15.9876 22.1621 18.9057C18.1617 18.9057 14.1593 18.9057 10.1589 18.9057C10.1609 16.0604 10.155 13.215 10.1609 10.3697C10.1688 8.93131 10.7434 7.51061 11.7292 6.46378ZM13.628 8.03599C14.1298 9.12611 15.1786 9.81678 15.9696 10.6845C16.2215 10.9817 16.4675 10.5389 16.6583 10.3973C17.2821 9.71249 18.0377 9.13595 18.5513 8.36067C18.8799 7.80183 18.5611 7.22135 18.3329 6.69794C17.9708 6.52085 17.5871 6.39885 17.1936 6.3162C16.8354 6.51297 16.4753 6.70384 16.1211 6.90652C15.7492 6.59759 15.3262 6.3654 14.8362 6.32407C14.0747 6.52281 13.4372 7.19971 13.628 8.03599ZM12.2054 12.7231C12.0263 12.9888 12.1601 13.4177 12.5143 13.3921C14.8126 13.4059 17.1129 13.3902 19.4112 13.398C19.6926 13.4276 19.9425 13.2977 20.1825 13.1698C20.1373 12.9829 20.092 12.7959 20.0487 12.609C18.0023 12.4988 15.9519 12.5913 13.9035 12.5578C13.3388 12.5814 12.7327 12.4594 12.2054 12.7231ZM12.5202 14.5669C12.1385 14.5649 11.9201 15.2005 12.3648 15.3008C13.1912 15.4464 14.0393 15.3264 14.8736 15.3658C15.4659 15.3362 16.1172 15.4937 16.6406 15.1395C16.6091 14.9998 16.5442 14.7203 16.5108 14.5806C15.1845 14.4941 13.8465 14.498 12.5202 14.5669ZM17.6579 14.988C18.2384 15.6826 19.2538 15.2615 20.0408 15.3323C20.0861 15.1001 20.1333 14.8679 20.1786 14.6357C19.4643 14.4764 18.7303 14.5275 18.0062 14.5295C17.9196 14.6436 17.7445 14.8738 17.6579 14.988ZM12.1562 16.7786C11.9515 17.239 12.5576 17.4358 12.9138 17.3846C13.5454 17.3591 14.3836 17.5834 14.7418 16.8927C14.3344 16.3909 13.6595 16.5641 13.0987 16.5346C12.774 16.5484 12.3923 16.5031 12.1562 16.7786ZM15.8516 16.5936C15.7827 16.9242 15.8378 17.363 16.2727 17.3571C17.4218 17.3984 18.5769 17.3965 19.726 17.361C20.2081 17.2961 20.1845 16.8514 19.9897 16.5346C18.6103 16.5739 17.229 16.4933 15.8516 16.5936Z" fill="#FBFBFB"/>
<path id="Vector_3" d="M4.3719 27.8433C5.01141 27.2333 5.62337 26.3419 6.61314 26.3891C12.9945 26.3793 19.3758 26.3813 25.7571 26.3872C26.556 26.3734 27.1286 27.0247 27.654 27.5383C28.0102 27.8944 28.5316 28.4434 28.0436 28.9177C27.5359 29.0554 27.0027 28.9747 26.4871 28.9924C19.2695 28.9905 12.0519 28.9905 4.83431 28.9924C4.52538 29.0279 4.25974 28.8704 4 28.7288C4.07084 28.4159 4.10232 28.0617 4.3719 27.8433Z" fill="#FBFBFB"/>
</g>
</svg>
