<svg width="32" height="32" viewBox="0 0 32 32" fill="none" xmlns="http://www.w3.org/2000/svg">
<g id="ue904-&#218;&#169;&#216;&#170;&#216;&#167;&#216;&#168;&#216;&#174;&#216;&#167;&#217;&#134;&#217;&#135;">
<path id="Vector" d="M14.9577 4.1561C17.3038 3.42641 19.915 5.35963 19.9863 7.78672C20.1935 10.0937 18.0123 12.2293 15.7086 11.9802C13.5919 11.9045 11.8073 9.84007 12.0167 7.74C12.0724 6.07152 13.3669 4.58545 14.9577 4.1561Z" fill="#FBFBFB"/>
<path id="Vector_2" d="M6.35447 12.2326C7.61118 11.6422 8.95343 12.3579 10.1979 12.6349C11.5748 13.0999 12.8437 13.7934 14.0862 14.5293C14.4833 14.9337 14.9966 15.1965 15.3897 15.6029C15.6402 15.8576 16.0517 16.1933 16.3552 15.801C18.1476 14.2079 20.3086 13.0352 22.6244 12.3963C23.5716 12.184 24.5961 11.7453 25.5432 12.1962C26.5025 12.5399 27.0056 13.6054 26.9995 14.5677C26.9995 17.2123 27.0015 19.8568 26.9975 22.5033C27.0056 23.3484 26.6756 24.2158 25.9831 24.7374C25.3863 25.2449 24.5716 25.3096 23.8363 25.4794C22.0032 25.7442 20.3249 26.5752 18.6975 27.4163C17.8848 27.8631 17.2432 28.5808 16.3816 28.9448C15.6036 29.2015 14.9905 28.5 14.3774 28.1482C12.4669 26.741 10.2244 25.7887 7.87596 25.4106C7.24048 25.2529 6.49298 25.2529 6.01433 24.7455C5.19553 24.0459 5.00204 22.9056 5 21.8867C5.00611 19.4463 4.99796 17.0081 5.00407 14.5677C4.99185 13.6236 5.45013 12.6288 6.35447 12.2326Z" fill="#FBFBFB"/>
</g>
</svg>
