<svg width="32" height="32" viewBox="0 0 32 32" fill="none" xmlns="http://www.w3.org/2000/svg">
<g id="ue902-&#216;&#162;&#217;&#133;&#217;&#136;&#216;&#178;&#216;&#180;&#219;&#140;">
<path id="Vector" d="M11.2572 3.61136C12.6802 2.99408 14.1873 2.59926 15.6163 2.00002C19.8611 3.435 24.0538 5.04434 28.2706 6.57151C27.8898 6.63765 27.535 6.78796 27.1943 6.96232C27.2064 8.69191 27.1903 10.4195 27.2003 12.1471C27.1963 12.4758 27.3727 12.7684 27.4889 13.067C27.3567 13.3035 27.1743 13.4839 26.9418 13.6101C27.1302 14.4419 27.3186 15.2736 27.509 16.1053C27.4509 16.2376 27.3326 16.5041 27.2745 16.6364C26.8075 16.9711 25.9718 16.7406 26.0119 16.0813C26.092 15.2575 26.3987 14.4699 26.539 13.6542C26.4287 13.56 26.2083 13.3716 26.1001 13.2774C26.09 13.1612 26.072 12.9307 26.062 12.8165C26.2283 12.5399 26.3065 12.2433 26.3005 11.9246C26.3025 10.3954 26.2804 8.86427 26.3105 7.33309C22.7732 8.77408 19.2418 10.2311 15.7145 11.6941C11.4717 9.92046 7.16073 8.30511 2.91992 6.52341C4.37294 6.02237 5.81994 5.50129 7.26895 4.99624C7.36716 4.95215 7.56557 4.86196 7.66377 4.81586L7.85016 4.81386C8.90235 4.35891 10.0026 4.02823 11.0749 3.62539L11.2572 3.61136Z" fill="#FBFBFB"/>
<path id="Vector_2" d="M7.38086 9.3333C10.2228 10.3133 12.9625 11.608 15.8023 12.6021C18.518 11.4557 21.2477 10.3234 23.9873 9.23509C23.9793 10.7041 24.0234 12.1752 23.9673 13.6422C23.9152 14.5181 23.1175 15.0472 22.384 15.3478C20.2436 16.2416 17.8887 16.3779 15.5979 16.4401C13.5356 16.3739 11.4373 16.2276 9.47521 15.5462C8.63146 15.1634 7.51514 14.7285 7.42094 13.6583C7.36883 12.2173 7.45301 10.7743 7.38086 9.3333Z" fill="#FBFBFB"/>
<path id="Vector_3" d="M2.01588 21.9314C2.09004 19.8351 4.0962 18.1776 6.15247 18.2959C14.101 18.2959 22.0515 18.3079 30 18.2878C29.3086 19.0093 28.565 19.7128 28.1802 20.6568C23.1979 20.6508 18.2175 20.6467 13.2372 20.6608C13.2272 20.9574 13.2212 21.256 13.2131 21.5526C18.1374 21.5566 23.0616 21.5546 27.9878 21.5546C27.9998 21.9915 28.0299 22.4284 28.076 22.8633C26.2462 22.8493 24.4184 22.8613 22.5886 22.8573C22.5886 22.5727 22.5886 22.2881 22.5866 22.0056C20.1435 22.0016 17.7005 22.0156 15.2574 21.9975C15.3015 23.3724 15.2454 24.7473 15.2894 26.1221C12.0708 26.086 8.85208 26.1542 5.6334 26.086C3.53905 26.0359 1.81547 23.9957 2.01588 21.9314Z" fill="#FBFBFB"/>
<path id="Vector_4" d="M16.1759 22.8573C18.0137 22.8573 19.8495 22.8573 21.6873 22.8573C21.6793 25.3165 21.7034 27.7756 21.6733 30.2347C20.7514 29.2145 19.8395 28.1824 18.9557 27.1242C18.0157 28.1904 17.0297 29.2226 16.1719 30.3549C16.1819 27.8557 16.1719 25.3565 16.1759 22.8573Z" fill="#FBFBFB"/>
<path id="Vector_5" d="M22.5879 23.7592C24.5259 23.7592 26.4619 23.7592 28.4 23.7592C28.7667 24.595 29.2718 25.3546 29.8009 26.0941C27.3979 26.1382 24.9929 26.1001 22.5879 26.1141C22.5879 25.3285 22.5879 24.5449 22.5879 23.7592Z" fill="#FBFBFB"/>
</g>
</svg>
