<svg width="32" height="32" viewBox="0 0 32 32" fill="none" xmlns="http://www.w3.org/2000/svg">
<g id="ue903-&#216;&#178;&#216;&#167;&#216;&#166;&#216;&#177;&#216;&#179;&#216;&#177;&#216;&#167;">
<path id="Vector" d="M5 9.38908C8.85027 7.9762 12.6561 6.40058 16.5014 5.00003C20.3467 6.42031 24.1476 7.96387 27.9855 9.39894C27.9855 9.89702 27.9855 10.3926 27.9855 10.8907C27.8001 10.8907 27.4294 10.8907 27.2441 10.8907C27.2441 11.3839 27.2441 11.877 27.2441 12.3702C26.7498 12.3702 26.2556 12.3702 25.7613 12.3702C25.7613 16.562 25.7613 20.7537 25.7613 24.9455C26.2556 24.9455 26.7498 24.9455 27.2441 24.9455C27.2441 25.4387 27.2441 25.9318 27.2441 26.425C27.4294 26.425 27.8001 26.425 27.9855 26.425C27.9855 26.9181 27.9855 27.4113 27.9855 27.9044C20.3245 27.9044 12.6635 27.9044 5.00247 27.9044C5.00247 27.4113 5.00247 26.9181 5.00247 26.425C5.18782 26.425 5.55851 26.425 5.74386 26.425C5.74386 25.9318 5.74386 25.4387 5.74386 24.9455C6.23812 24.9455 6.73237 24.9455 7.22663 24.9455C7.22663 20.7537 7.22663 16.562 7.22663 12.3702C6.73237 12.3702 6.23812 12.3702 5.74386 12.3702C5.74386 11.877 5.74386 11.3839 5.74386 10.8907C5.55851 10.8907 5.18782 10.8907 5.00247 10.8907C5.00247 10.3902 5.00247 9.88962 5 9.38908ZM8.70941 12.3702C8.70941 16.562 8.70941 20.7537 8.70941 24.9455C9.45079 24.9455 10.1922 24.9455 10.9336 24.9455C10.9336 20.7537 10.9336 16.562 10.9336 12.3702C10.1922 12.3702 9.45079 12.3702 8.70941 12.3702ZM12.4163 12.3702C12.4163 16.562 12.4163 20.7537 12.4163 24.9455C15.1348 24.9455 17.8532 24.9455 20.5716 24.9455C20.5716 20.7537 20.5716 16.562 20.5716 12.3702C17.8532 12.3702 15.1348 12.3702 12.4163 12.3702ZM22.0544 12.3702C22.0544 16.562 22.0544 20.7537 22.0544 24.9455C22.7958 24.9455 23.5371 24.9455 24.2785 24.9455C24.2785 20.7537 24.2785 16.562 24.2785 12.3702C23.5371 12.3702 22.7958 12.3702 22.0544 12.3702Z" fill="#FBFBFB"/>
</g>
</svg>
