<svg width="76" height="72" viewBox="0 0 76 72" fill="none" xmlns="http://www.w3.org/2000/svg">
<g id="No Item">
<g id="#a2a8b9ff">
<path id="Vector" d="M35.4053 0C35.4928 0.00147979 35.6707 0.00147982 35.7581 0.00147982L35.816 0.177575C36.7232 3.06316 37.6245 5.95023 38.5213 8.83877C38.5925 9.13917 38.84 9.46028 38.6547 9.76512C37.3828 9.27235 36.1821 8.61384 34.9236 8.08556C34.8124 9.68225 34.7368 11.2819 34.6508 12.8816C34.6449 13.0621 34.6108 13.2382 34.553 13.4084C34.2091 13.3758 33.8889 13.2056 33.622 12.994C32.9475 10.8646 32.3146 8.72039 31.6416 6.58949C31.4815 6.05973 31.2888 5.53589 31.2324 4.98244C32.5354 5.37015 33.6798 6.15 34.9799 6.54806C35.1696 4.429 35.2304 2.29959 35.3816 0.177575L35.4053 0Z" fill="#429FF5"/>
<path id="Vector_2" d="M32.4062 17.6746C34.3556 16.9525 36.5169 16.8518 38.5285 17.3594C38.4292 17.426 38.3284 17.4911 38.2291 17.5577C38.4099 17.5902 38.5922 17.6258 38.7746 17.6642C38.6189 17.7042 38.4648 17.7441 38.3121 17.7871C38.3373 17.9158 38.3343 18.0475 38.3165 18.1777C38.4633 18.2014 38.61 18.2236 38.7583 18.2458C38.5819 18.413 38.4069 18.5802 38.2305 18.746C38.4158 18.7741 38.5997 18.8066 38.7835 18.8421C38.6427 18.9679 38.4322 18.9324 38.2602 18.9738C38.2913 19.0197 38.3536 19.11 38.3847 19.1559C38.3462 19.2195 38.3091 19.2846 38.2721 19.3512C38.4321 19.3778 38.5923 19.4059 38.7523 19.4341C38.5878 19.5954 38.4218 19.7567 38.2572 19.9179C38.4381 19.9742 38.6204 20.0289 38.8027 20.0837C38.6263 20.1044 38.4499 20.1251 38.275 20.1458C38.3076 20.1976 38.3743 20.3027 38.4069 20.3545C38.2765 20.4507 38.1475 20.5498 38.0186 20.6475C37.2166 20.4048 36.3731 20.3471 35.54 20.3708C34.6239 20.3811 33.7552 20.7067 32.9147 21.0381C32.8095 20.9494 32.7027 20.8621 32.5975 20.7747C32.7739 20.7333 32.9503 20.6934 33.1282 20.6534C32.9725 20.6179 32.8169 20.5779 32.6612 20.5454C32.6835 20.4773 32.7057 20.4092 32.7279 20.3426C32.7101 20.2938 32.6731 20.1947 32.6553 20.1458C32.8243 20.1148 32.9918 20.0837 33.1623 20.0541C32.9859 20.0156 32.8095 19.9786 32.6345 19.9416C32.6627 19.8987 32.719 19.8114 32.7472 19.767C32.7161 19.696 32.6849 19.6264 32.6568 19.5554C32.8272 19.5302 32.9992 19.5066 33.1712 19.4829C33.0051 19.44 32.8391 19.4 32.676 19.3586C32.6879 19.2313 32.6968 19.1055 32.7042 18.9783C32.845 18.9368 32.9844 18.8895 33.1252 18.8495C32.9725 18.8185 32.8198 18.7874 32.6686 18.7563C32.722 18.6394 32.7413 18.5195 32.6657 18.4056C32.8272 18.3538 32.9888 18.302 33.1504 18.2502C32.9755 18.228 32.802 18.2058 32.6271 18.1836C32.6672 18.1318 32.7457 18.0283 32.7857 17.975C32.6731 17.8906 32.5649 17.8004 32.4581 17.7116L32.4062 17.6746Z" fill="#429FF5"/>
<path id="Vector_3" d="M32.9672 33.5956C33.7796 33.9493 34.6423 34.2378 35.5392 34.2408C36.3634 34.2748 37.1906 34.1934 37.9911 33.9937C38.2505 34.0691 38.5054 34.1609 38.7604 34.2526C38.5988 34.3 38.4402 34.3488 38.2801 34.3947C38.4239 34.5012 38.3557 34.6241 38.2697 34.738C38.4343 34.7617 38.6003 34.7868 38.7663 34.812C38.5929 34.9792 38.4195 35.1464 38.246 35.3151C38.4298 35.3551 38.6137 35.395 38.7975 35.435C38.6226 35.4735 38.4476 35.5119 38.2742 35.5504C38.3498 35.6747 38.4313 35.7931 38.5084 35.9174C38.4476 35.9855 38.3246 36.1231 38.2638 36.1912C38.4432 36.2385 38.6226 36.2829 38.8034 36.3303C38.6314 36.3643 38.458 36.4013 38.2861 36.4368C38.3201 36.5064 38.3542 36.5789 38.3869 36.6514C38.3661 36.6928 38.3246 36.7757 38.3038 36.8171C38.3453 36.8526 38.4313 36.9222 38.4728 36.9577C37.957 38.0439 37.2721 39.0398 36.7444 40.1215C36.6317 40.3612 36.442 40.5506 36.2626 40.7415C35.9795 40.74 35.637 40.7474 35.4651 40.4781C34.9877 39.787 34.6127 39.0309 34.1828 38.3102C33.747 37.6917 33.5973 36.7106 32.7227 36.57C32.8294 36.5093 32.9346 36.4501 33.0414 36.388C32.9569 35.4587 33.0755 34.522 32.9672 33.5956Z" fill="#429FF5"/>
</g>
<g id="#d7dce7ff">
<path id="Vector_4" d="M22.9148 2.6414C26.8698 1.05359 31.1302 0.297419 35.3817 0.177556C35.2305 2.29957 35.1697 4.42899 34.9799 6.54804C33.6799 6.14998 32.5355 5.37013 31.2325 4.98243C31.2888 5.53587 31.4815 6.05971 31.6416 6.58948C32.3146 8.72037 32.9476 10.8646 33.6221 12.994C33.8889 13.2056 34.2091 13.3758 34.553 13.4083C34.6108 13.2382 34.6449 13.0621 34.6509 12.8815C34.7368 11.2819 34.8124 9.68223 34.9236 8.08554C36.1822 8.61383 37.3829 9.27233 38.6548 9.7651C38.8401 9.46026 38.5925 9.13915 38.5214 8.83875C37.6245 5.95021 36.7232 3.06314 35.816 0.177556C42.546 0.1524 49.2746 2.03321 54.9818 5.60098C58.1526 7.61349 61.0922 10.0359 63.4714 12.9511C66.2702 16.2525 68.4789 20.0585 69.9079 24.1427C71.119 27.6572 71.8587 31.3478 71.9477 35.068C72.1063 40.5328 70.996 46.0391 68.7028 51.0068C64.5284 60.2969 56.1484 67.5789 46.3765 70.4778C43.7586 71.237 41.0696 71.8185 38.339 71.9251C34.553 72.1663 30.7344 71.8244 27.0551 70.9099C22.3782 69.6861 17.9221 67.576 14.105 64.6046C11.6976 62.7371 9.46363 60.621 7.61954 58.1912C6.90503 57.1745 6.12381 56.2023 5.49824 55.1265C3.45552 51.945 1.99388 48.4098 1.06443 44.7502C0.81835 43.5442 0.455165 42.3574 0.369187 41.1233C0.0786391 38.9746 -0.0429166 36.8008 0.013414 34.6329C0.151276 31.3315 0.767949 28.0553 1.78635 24.9122C5.03129 14.8408 13.011 6.41486 22.9148 2.6414ZM54.7831 7.07485C52.6618 9.40107 50.5746 11.7569 48.443 14.0757C48.2977 14.24 48.1346 14.4057 48.1154 14.638C49.5192 14.6721 50.926 14.6351 52.3298 14.6558C51.7368 16.3857 50.9423 18.0593 50.379 19.7995C50.7184 19.8454 51.0624 19.841 51.4033 19.8203C52.0496 19.2343 52.5462 18.5077 53.1718 17.901C54.4407 16.3886 55.8327 14.9843 57.0853 13.4572C57.0349 13.4231 56.9341 13.3536 56.8822 13.3196C55.5673 13.2174 54.2361 13.3595 52.9242 13.2396C53.701 11.2434 54.4644 9.24273 55.2634 7.25538C55.3376 7.01122 55.4799 6.76409 55.4265 6.50069C55.1285 6.5732 54.9818 6.87212 54.7831 7.07485ZM14.6416 7.97752L14.563 8.11218C15.4376 10.4784 16.4234 12.809 17.2817 15.1826C16.7896 15.1708 16.2974 15.1678 15.8053 15.1767C14.8699 15.1708 13.933 15.1574 12.9991 15.19C12.5692 15.4149 13.2215 15.8145 13.3801 16.0512C14.1924 16.9154 14.9321 17.8566 15.7786 18.6808C16.8177 19.8558 17.8347 21.0588 18.9227 22.1894C19.2666 22.2072 19.612 22.2072 19.9574 22.1805C19.956 22.111 19.9545 21.9704 19.953 21.9008C19.2874 20.1399 18.5432 18.4085 17.9043 16.6372C19.3808 16.6313 20.8647 16.7112 22.3367 16.6136C22.5071 16.3886 22.2121 16.217 22.1039 16.0542C19.7899 13.5312 17.5115 10.9756 15.2138 8.43921C15.0359 8.27051 14.9055 8.01747 14.6416 7.97752ZM32.4065 17.6746L32.4584 17.7116C29.6478 18.6438 27.439 21.0218 26.4622 23.7861C25.7121 25.9288 25.7284 28.3216 26.4948 30.4585C25.9552 30.4363 25.7817 31.1599 25.2095 31.1318C25.257 31.1747 25.3533 31.259 25.4008 31.3019C24.8508 31.3093 24.6447 31.9131 24.1333 32.0122C23.653 32.2564 23.4396 32.9297 22.8096 32.8927C22.8852 32.9593 22.9608 33.0259 23.0378 33.094C22.3159 33.0777 22.1425 33.9774 21.4724 34.0795C21.1211 34.263 20.9121 34.6818 20.46 34.6803C20.5237 34.7439 20.5889 34.8075 20.6527 34.8727C19.9886 34.846 19.8033 35.6525 19.2222 35.8123C18.6455 35.9795 18.4543 36.7623 17.7902 36.752C17.8569 36.8171 17.9251 36.8822 17.9918 36.9488C17.258 36.9148 17.0831 37.8589 16.3879 37.9388C16.0484 38.3679 15.5711 38.689 15.0759 38.911C14.7335 39.2336 14.4563 39.6864 13.9345 39.7175C14.0027 39.7826 14.0724 39.8477 14.142 39.9143C13.9538 39.9498 13.7255 39.9261 13.5965 40.0993C13.389 40.3642 13.0451 40.4884 12.8642 40.7726C12.4744 40.9013 12.0682 41.1588 11.9718 41.585C12.2831 42.0866 12.7901 42.4373 13.1829 42.8753C13.4868 43.1358 13.7047 43.5457 14.1228 43.6374C14.4207 44.0503 14.7661 44.4276 15.1708 44.7384C15.5903 45.0728 15.8661 45.6056 16.4056 45.7743L16.3686 45.8912C15.6585 46.2419 15.0685 46.8027 14.4934 47.3251C13.89 47.7172 13.3653 48.2159 12.759 48.6066C12.4328 48.8715 12.0148 49.0594 11.8088 49.4412C10.8526 50.3172 10.863 51.9686 11.791 52.8639C12.2342 53.37 12.9087 53.5387 13.5091 53.7843C14.4756 54.175 15.4421 54.5686 16.4308 54.8971C16.4664 55.492 16.3582 56.0765 16.3019 56.6655C16.3108 57.6969 16.2619 58.7283 16.3108 59.7597L16.4234 59.779C16.4397 60.7675 17.0179 61.6627 17.7116 62.3286C18.4217 63.0108 19.3852 63.2846 20.2821 63.6235C21.5718 64.1133 22.8733 64.5705 24.1659 65.0559C24.326 65.1018 24.4891 65.1965 24.6625 65.1684C25.5268 65.5753 26.4488 65.8402 27.3323 66.1983C30.0732 67.1705 32.7801 68.2433 35.5358 69.1741C36.5038 68.7169 37.4036 68.122 38.3524 67.6233C40.9851 66.1139 43.6549 64.6697 46.2565 63.11C46.2965 63.1055 46.375 63.0981 46.4151 63.0937C48.8492 61.7234 51.2669 60.322 53.7114 58.968C54.2554 58.6558 54.6586 58.163 55.0678 57.6999C55.4754 57.2293 55.5999 56.6033 55.7274 56.0129L55.8075 56.0307C55.8816 54.4355 55.8208 52.8373 55.7956 51.2406C52.5299 53.1229 49.2968 55.0658 46.0297 56.9437C45.9896 56.9851 45.9111 57.065 45.871 57.105C45.1328 57.4749 44.4554 57.9529 43.732 58.351C43.2042 58.6306 42.6765 58.9799 42.0569 58.9858C42.0331 58.931 41.9872 58.8201 41.9649 58.7638C42.5327 58.7727 42.7654 58.1675 43.2887 58.0476C43.6475 57.8138 44.2063 57.7531 44.3812 57.321C44.7177 57.1879 45.0409 57.0266 45.373 56.883C45.6368 56.6344 45.8933 56.3755 46.2609 56.2852C46.6804 55.8856 47.2067 55.5394 47.7878 55.4595C47.7211 55.3855 47.6529 55.3115 47.5876 55.239C48.1806 55.1088 48.6683 54.7122 49.2435 54.5257C49.3042 54.2697 49.3546 53.8717 49.7208 54.0315C49.6482 54.1188 49.5755 54.2076 49.5044 54.2964C49.7134 54.2875 49.9239 54.2771 50.1359 54.2653C50.1611 53.4662 51.0401 53.2871 51.6449 53.0726C51.5693 53.003 51.4937 52.9349 51.4196 52.8684C51.6509 52.8299 51.8791 52.7692 52.0763 52.636C52.4069 52.4289 52.856 52.3475 53.0324 51.9642C53.5424 51.7659 54.0746 51.5706 54.4214 51.1252C54.795 51.0541 55.0574 50.8026 55.3198 50.5495C55.886 50.3276 56.3797 49.9236 56.9874 49.82C56.9326 49.7786 56.8244 49.6972 56.7695 49.6572C57.1179 49.524 57.4514 49.3539 57.7879 49.1955C58.1067 48.7176 58.7559 48.6865 59.1087 48.2396C59.5475 48.0206 60.0056 47.7734 60.262 47.331C60.3258 46.8708 60.3065 46.375 60.0456 45.9755C59.7447 45.4946 59.4601 44.8893 58.879 44.7088C58.5825 44.1524 58.0637 43.7514 57.6293 43.303C57.0868 42.6519 56.393 42.134 55.9053 41.437C56.6658 40.7741 57.4366 40.1141 58.2416 39.5044C58.5988 39.3594 58.8582 39.0679 59.1621 38.8444C59.7773 38.3576 60.4459 37.8145 60.6712 37.0331C60.6223 36.6721 60.1835 36.752 59.9819 36.5433C59.715 36.2651 59.4037 36.0239 59.0376 35.8937C58.9946 35.9337 58.9101 36.015 58.8686 36.055C58.8212 35.8907 58.7722 35.725 58.7263 35.5622C58.5662 35.5371 58.4061 35.5119 58.2475 35.4868C58.3157 35.4157 58.3853 35.3462 58.4565 35.2766C58.2341 35.2263 57.9866 35.1982 57.8398 35.0029C57.5419 34.6211 57.0141 34.5811 56.7177 34.192C56.1588 33.8768 55.6904 33.4299 55.1137 33.1428C54.8158 32.8764 54.5593 32.5538 54.1398 32.4813C53.8759 32.2135 53.6076 31.9294 53.2088 31.8924C53.2637 31.8495 53.3719 31.7636 53.4268 31.7207C52.8872 31.6541 52.4469 31.3108 51.9355 31.154C51.2477 30.9246 50.5821 30.6375 49.9328 30.3164C49.3117 29.9953 48.6001 29.9242 47.9716 29.6238C47.2882 29.3131 46.547 29.1266 45.9096 28.7212C46.0104 28.2284 46.003 27.7253 46.0119 27.2266C46.1097 24.5733 44.9816 21.9526 43.1479 20.0541C41.8597 18.7992 40.2869 17.8063 38.5288 17.3594C36.5172 16.8518 34.3559 16.9524 32.4065 17.6746Z" fill="#F4F5F7"/>
<path id="Vector_5" d="M67.0051 4.80634C67.7433 4.66724 68.4401 5.52404 68.1376 6.21658C67.9553 7.01567 66.7916 7.22728 66.3113 6.57617C65.6873 5.98278 66.1646 4.8463 67.0051 4.80634Z" fill="#429FF5"/>
<path id="Vector_6" d="M69.6799 8.05151C70.9222 7.79106 72.0488 9.19834 71.5463 10.3541C71.1727 11.5408 69.4176 11.8472 68.6467 10.8868C67.7351 9.96339 68.3873 8.18469 69.6799 8.05151Z" fill="#429FF5"/>
<path id="Vector_7" d="M68.064 60.7453C69.3003 60.4715 70.4655 61.898 69.9496 63.0567C69.5568 64.2894 67.686 64.5557 66.9641 63.4888C66.1651 62.5388 66.8203 60.877 68.064 60.7453Z" fill="#429FF5"/>
<path id="Vector_8" d="M2.97182 63.252C3.70264 63.1248 4.42308 63.9712 4.09695 64.6638C3.91017 65.5664 2.50487 65.6818 2.12686 64.8635C1.73107 64.2169 2.21432 63.292 2.97182 63.252Z" fill="#429FF5"/>
<path id="Vector_9" d="M5.64547 66.5105C6.87141 66.2471 7.98764 67.6529 7.5118 68.7938C7.18419 69.877 5.69439 70.2529 4.83164 69.5678C4.02967 68.9981 3.96593 67.6825 4.67451 67.0166C4.92652 66.7414 5.28229 66.5816 5.64547 66.5105Z" fill="#429FF5"/>
</g>
<g id="#a3a8b9ff">
<path id="Vector_10" d="M54.783 7.07489C54.9816 6.87216 55.1284 6.57324 55.4264 6.50073C55.4797 6.76413 55.3374 7.01126 55.2633 7.25542C54.4643 9.24278 53.7009 11.2435 52.9241 13.2397C54.236 13.3595 55.5672 13.2175 56.8821 13.3196C56.9339 13.3536 57.0348 13.4232 57.0852 13.4572C55.8325 14.9844 54.4406 16.3887 53.1717 17.901C52.5461 18.5077 52.0495 19.2343 51.4032 19.8203C51.0622 19.841 50.7183 19.8455 50.3788 19.7996C50.9421 18.0594 51.7367 16.3857 52.3297 14.6558C50.9258 14.6351 49.5191 14.6721 48.1152 14.6381C48.1345 14.4058 48.2976 14.24 48.4428 14.0758C50.5745 11.7569 52.6617 9.40112 54.783 7.07489Z" fill="#429FF5"/>
</g>
<g id="#a2a8b8ff">
<path id="Vector_11" d="M14.6411 7.97754C14.9049 8.01749 15.0354 8.27054 15.2133 8.43923C17.511 10.9756 19.7894 13.5312 22.1034 16.0542C22.2116 16.217 22.5066 16.3887 22.3361 16.6136C20.8641 16.7112 19.3803 16.6313 17.9038 16.6373C18.5427 18.4086 19.2869 20.1399 19.9525 21.9009C19.9539 21.9704 19.9554 22.111 19.9569 22.1805C19.6115 22.2072 19.2661 22.2072 18.9222 22.1894C17.8341 21.0589 16.8172 19.8558 15.7781 18.6808C15.8329 18.6276 15.9411 18.5181 15.996 18.4633C15.9189 17.9853 15.9856 17.5 15.9648 17.0176C15.9782 16.4848 15.9263 15.9462 15.9989 15.4164C15.95 15.3558 15.8522 15.2359 15.8047 15.1767C16.2969 15.1678 16.789 15.1708 17.2812 15.1826C16.4229 12.809 15.4371 10.4784 14.5625 8.1122L14.6411 7.97754Z" fill="#429FF5"/>
</g>
<g id="#a7aebfff">
<path id="Vector_12" d="M13.3798 16.0512C13.2212 15.8145 12.5689 15.4149 12.9988 15.19C13.9327 15.1574 14.8696 15.1708 15.805 15.1767C15.8524 15.2359 15.9502 15.3557 15.9992 15.4164C15.9265 15.9462 15.9784 16.4848 15.9651 17.0175C15.9858 17.5 15.9191 17.9853 15.9962 18.4633C15.9413 18.518 15.8331 18.6275 15.7783 18.6808C14.9318 17.8566 14.1921 16.9154 13.3798 16.0512Z" fill="#429FF5"/>
</g>
<g id="#a9afc0ff">
<path id="Vector_13" d="M38.5283 17.3594C40.2865 17.8063 41.8593 18.7992 43.1475 20.0541C44.9812 21.9527 46.1093 24.5734 46.0114 27.2266C46.0025 27.7253 46.0099 28.2284 45.9091 28.7212C45.7994 29.2939 45.6364 29.8562 45.4674 30.4156C44.9545 31.8791 44.0917 33.2183 42.977 34.2985C42.3396 34.9363 41.5821 35.4335 40.8112 35.8952C40.0774 36.348 39.1999 36.4931 38.472 36.9577C38.4305 36.9222 38.3445 36.8526 38.303 36.8171C38.3238 36.7757 38.3653 36.6928 38.386 36.6514C38.3534 36.5789 38.3193 36.5064 38.2852 36.4368C38.4572 36.4013 38.6306 36.3643 38.8026 36.3303C38.6217 36.2829 38.4424 36.2385 38.263 36.1912C38.3238 36.1231 38.4468 35.9855 38.5076 35.9174C38.4305 35.7931 38.349 35.6747 38.2734 35.5504C38.4468 35.512 38.6217 35.4735 38.7967 35.435C38.6128 35.3951 38.429 35.3551 38.2452 35.3151C38.4186 35.1465 38.5921 34.9792 38.7655 34.812C38.5995 34.7869 38.4335 34.7617 38.2689 34.738C38.3549 34.6241 38.4231 34.5013 38.2793 34.3947C38.4394 34.3488 38.598 34.3 38.7596 34.2527C38.5046 34.1609 38.2497 34.0692 37.9902 33.9937C38.9093 33.6326 39.8521 33.236 40.5651 32.5302C42.052 31.2591 42.9547 29.3353 42.9518 27.379C42.9918 25.3754 42.0831 23.3925 40.5666 22.0873C39.8566 21.3977 38.939 20.979 38.0184 20.6475C38.1474 20.5498 38.2763 20.4507 38.4068 20.3545C38.3742 20.3027 38.3075 20.1976 38.2749 20.1458C38.4498 20.1251 38.6262 20.1044 38.8026 20.0837C38.6203 20.0289 38.4379 19.9742 38.2571 19.918C38.4216 19.7567 38.5876 19.5954 38.7522 19.4341C38.5921 19.406 38.432 19.3778 38.2719 19.3512C38.3089 19.2846 38.346 19.2195 38.3845 19.1559C38.3534 19.11 38.2912 19.0197 38.26 18.9739C38.432 18.9324 38.6425 18.9679 38.7833 18.8422C38.5995 18.8066 38.4157 18.7741 38.2304 18.746C38.4068 18.5802 38.5817 18.413 38.7581 18.2458C38.6099 18.2236 38.4631 18.2014 38.3164 18.1777C38.3341 18.0475 38.3371 17.9158 38.3119 17.7871C38.4646 17.7442 38.6188 17.7042 38.7744 17.6642C38.5921 17.6258 38.4098 17.5903 38.2289 17.5577C38.3282 17.4911 38.429 17.426 38.5283 17.3594Z" fill="#429FF5"/>
</g>
<g id="#9ca2b2ff">
<path id="Vector_14" d="M26.4617 23.7861C27.4386 21.0219 29.6474 18.6438 32.458 17.7116C32.5647 17.8004 32.6729 17.8906 32.7856 17.975C32.7455 18.0283 32.667 18.1318 32.6269 18.1836C32.8019 18.2058 32.9753 18.228 33.1502 18.2502C32.9886 18.302 32.8271 18.3538 32.6655 18.4056C32.7411 18.5195 32.7218 18.6394 32.6685 18.7563C32.8197 18.7874 32.9723 18.8185 33.125 18.8495C32.9842 18.8895 32.8449 18.9368 32.704 18.9783C32.6966 19.1055 32.6877 19.2313 32.6759 19.3586C32.8389 19.4 33.005 19.44 33.171 19.4829C32.999 19.5066 32.8271 19.5302 32.6566 19.5554C32.6848 19.6264 32.7159 19.696 32.747 19.767C32.7189 19.8114 32.6625 19.8987 32.6344 19.9416C32.8093 19.9786 32.9857 20.0156 33.1621 20.0541C32.9916 20.0837 32.8241 20.1148 32.6551 20.1458C32.6729 20.1947 32.71 20.2938 32.7277 20.3426C32.7055 20.4092 32.6833 20.4773 32.661 20.5454C32.8167 20.5779 32.9723 20.6179 33.128 20.6534C32.9501 20.6934 32.7737 20.7333 32.5973 20.7747C32.7025 20.862 32.8093 20.9494 32.9145 21.0381C31.9406 21.4969 31.1712 22.2649 30.4686 23.061C28.5415 25.4464 28.537 29.1711 30.4656 31.5624C31.1268 32.4207 31.9999 33.1088 32.9664 33.5956C33.0746 34.522 32.956 35.4587 33.0405 36.388C32.9338 36.4501 32.8286 36.5093 32.7218 36.57L32.6521 36.5478C30.8066 35.8878 29.1167 34.7203 27.9471 33.1384C27.3556 32.3067 26.7997 31.4396 26.4943 30.4585C25.7279 28.3217 25.7116 25.9288 26.4617 23.7861Z" fill="#429FF5"/>
</g>
<g id="#b9beceff">
<path id="Vector_15" d="M32.9147 21.0381C33.7552 20.7067 34.6239 20.3811 35.54 20.3708C35.9017 20.6238 35.629 20.976 35.709 21.3089C35.7135 21.9408 35.6986 22.5742 35.7105 23.206C35.119 23.3511 34.6906 23.9474 34.7529 24.5526C34.8552 25.6566 35.0316 26.7531 35.1561 27.854C35.1635 28.1722 35.3814 28.4016 35.6053 28.6013C35.7061 28.8514 35.8039 29.1326 35.6557 29.3871C35.7016 29.4419 35.7505 29.4951 35.8009 29.5484C34.9248 29.7748 34.8848 31.0667 35.6927 31.41C35.7238 32.0211 35.6779 32.6323 35.7179 33.2434C35.6393 33.5912 35.8736 33.9641 35.5385 34.2408C34.6417 34.2378 33.779 33.9493 32.9666 33.5956C32.0001 33.1088 31.127 32.4207 30.4658 31.5624C30.5177 31.5062 30.6244 31.3922 30.6763 31.336C30.6318 31.1776 30.5622 31.0163 30.6185 30.8521C30.6081 28.6043 30.6141 26.3017 30.6141 24.0436C30.5874 23.7092 30.6911 23.3614 30.4688 23.061C31.1714 22.2649 31.9408 21.4969 32.9147 21.0381Z" fill="white"/>
</g>
<g id="#c9cedbff">
<path id="Vector_16" d="M35.5396 20.3707C36.3727 20.3471 37.2161 20.4048 38.0181 20.6474C38.9387 20.9789 39.8563 21.3977 40.5663 22.0873C40.5293 22.3566 40.5056 22.6259 40.5056 22.8982C40.5263 25.5307 40.51 28.1633 40.513 30.7958C40.5263 31.3744 40.4611 31.9575 40.5649 32.5301C39.8518 33.236 38.909 33.6326 37.99 33.9937C37.1895 34.1934 36.3623 34.2748 35.5381 34.2408C35.8731 33.9641 35.6389 33.5912 35.7175 33.2434C35.6774 32.6322 35.7234 32.0211 35.6923 31.4099C36.0154 31.3567 36.3816 31.3774 36.6543 31.1673C36.9434 30.821 36.9997 30.2705 36.7077 29.9109C36.4972 29.6253 36.1133 29.6238 35.8005 29.5484C35.7501 29.4951 35.7011 29.4418 35.6552 29.3871C35.8034 29.1326 35.7056 28.8514 35.6048 28.6013L35.8257 28.5983C36.0465 28.5717 36.2956 28.6117 36.4942 28.4903C36.893 28.0316 36.8189 27.3849 36.9256 26.827C37.016 25.9244 37.2621 25.0247 37.1806 24.1146C37.0738 23.4886 36.3934 23.2326 35.8301 23.2164L35.71 23.206C35.6982 22.5741 35.713 21.9408 35.7086 21.3089C35.6285 20.976 35.9013 20.6238 35.5396 20.3707Z" fill="white"/>
<path id="Vector_17" d="M44.1389 37.1397C46.1075 37.847 48.0702 38.5677 50.0299 39.2972C51.9051 40.0179 53.804 40.6719 55.6822 41.3837C55.5695 41.6782 55.236 41.7625 54.9944 41.9194C52.1808 43.5279 49.4058 45.2016 46.5789 46.7879C46.6085 46.6296 46.656 46.4786 46.7138 46.3292C46.5715 46.3218 46.4306 46.3158 46.2913 46.3099C46.3372 46.1264 46.3743 45.94 46.3921 45.7506C46.2231 45.7121 46.0571 45.6707 45.891 45.6337C46.0675 45.6085 46.2453 45.5848 46.4232 45.5626C46.3995 45.5108 46.3521 45.4102 46.3283 45.3599C46.3565 45.2918 46.3832 45.2238 46.4084 45.1557C46.2661 45.1453 46.1238 45.135 45.9815 45.1261C46.0422 44.9426 46.0852 44.7547 46.109 44.5653C45.9414 44.5327 45.7739 44.5016 45.6064 44.472C45.7754 44.4336 45.9429 44.3936 46.1134 44.3566C46.0927 44.3107 46.0511 44.219 46.0319 44.1731C46.0615 44.1065 46.0927 44.0414 46.1223 43.9763C45.983 43.9645 45.8436 43.9556 45.7043 43.9452C45.7473 43.7558 45.7784 43.5634 45.8036 43.3711C45.6628 43.3622 45.5234 43.3533 45.3826 43.3459C45.4122 43.2971 45.4686 43.1994 45.4967 43.1506C45.4582 43.0751 45.4226 43.0011 45.3885 42.9271C45.5634 42.9005 45.7398 42.8768 45.9162 42.8517C45.7473 42.8117 45.5783 42.7747 45.4122 42.7362C45.4478 42.5513 45.47 42.3618 45.5249 42.1813C45.3796 42.1739 45.2358 42.1665 45.092 42.1606C45.1306 42.0866 45.1706 42.0141 45.2106 41.9431C45.175 41.8928 45.1054 41.7936 45.0713 41.7448C45.2477 41.7196 45.4241 41.693 45.602 41.6663C45.3263 41.5776 45.0298 41.5805 44.7452 41.548C44.9156 41.4444 45.1172 41.3941 45.3099 41.3364C45.1128 41.2934 44.9186 41.2505 44.7229 41.2047C44.9156 41.1514 45.1083 41.1011 45.3011 41.0493C45.141 41.0226 44.9809 40.9975 44.8208 40.9738C44.8534 40.7918 44.8845 40.6098 44.9171 40.4278C44.7496 40.3908 44.5836 40.3508 44.4176 40.3138C44.5895 40.2827 44.763 40.2517 44.9364 40.2221C44.8519 40.0993 44.8133 39.9705 44.9482 39.861C44.8133 39.8314 44.6785 39.8077 44.5465 39.7796C44.5628 39.6568 44.5658 39.534 44.5347 39.4141C44.6962 39.3682 44.8549 39.315 45.0135 39.2632C44.7496 39.2351 44.4857 39.2188 44.2219 39.2069C44.2575 39.0723 44.2782 38.9347 44.253 38.7956C44.4101 38.7556 44.5702 38.7216 44.7274 38.6831C44.5643 38.655 44.4012 38.6269 44.2382 38.6002C44.2663 38.4256 44.2901 38.251 44.3108 38.0764C44.1804 38.0438 44.0529 38.0098 43.9239 37.9787C44.0366 37.8618 44.0084 37.7434 43.9002 37.6384C44.0707 37.5984 44.2397 37.5585 44.4101 37.5185C44.2308 37.4771 44.0529 37.4327 43.875 37.3927C43.9625 37.3084 44.0514 37.224 44.1389 37.1397Z" fill="#C9CEDB"/>
</g>
<g id="#d3d7e3ff">
<path id="Vector_18" d="M40.5056 22.8983C40.5056 22.626 40.5293 22.3567 40.5664 22.0873C42.0829 23.3925 42.9916 25.3754 42.9516 27.3791C42.9545 29.3353 42.0517 31.2591 40.5649 32.5302C40.4611 31.9575 40.5264 31.3745 40.513 30.7959C40.5101 28.1634 40.5264 25.5308 40.5056 22.8983Z" fill="white"/>
</g>
<g id="#aeb4c6ff">
<path id="Vector_19" d="M30.4659 31.5624C28.5373 29.1711 28.5417 25.4465 30.4689 23.061C30.6912 23.3614 30.5874 23.7092 30.6141 24.0436C30.6141 26.3018 30.6082 28.6043 30.6186 30.8521C30.5622 31.0164 30.6319 31.1777 30.6764 31.336C30.6245 31.3922 30.5178 31.5062 30.4659 31.5624Z" fill="white"/>
</g>
<g id="#dee2ecff">
<path id="Vector_20" d="M34.7521 24.5526C34.6898 23.9474 35.1183 23.351 35.7097 23.206L35.8298 23.2164C35.8431 25.0099 35.8372 26.8048 35.8254 28.5983L35.6045 28.6013C35.3806 28.4015 35.1627 28.1722 35.1553 27.854C35.0308 26.753 34.8544 25.6565 34.7521 24.5526Z" fill="#429FF5"/>
</g>
<g id="#e8ebf2ff">
<path id="Vector_21" d="M35.8306 23.2164C36.3939 23.2327 37.0743 23.4887 37.1811 24.1146C37.2626 25.0247 37.0165 25.9244 36.9261 26.8271C36.8194 27.385 36.8935 28.0316 36.4947 28.4904C36.2961 28.6117 36.047 28.5718 35.8262 28.5984C35.838 26.8049 35.844 25.0099 35.8306 23.2164Z" fill="#429FF5"/>
</g>
<g id="#e0e4ecff">
<path id="Vector_22" d="M45.9095 28.7212C46.547 29.1267 47.2881 29.3131 47.9715 29.6239C48.6001 29.9243 49.3116 29.9953 49.9327 30.3164C50.582 30.6375 51.2476 30.9246 51.9354 31.154C52.4468 31.3108 52.8871 31.6541 53.4267 31.7207C53.3719 31.7637 53.2636 31.8495 53.2088 31.8924C53.6076 31.9294 53.8759 32.2135 54.1397 32.4813C54.5592 32.5539 54.8157 32.8765 55.1137 33.1428C55.6903 33.4299 56.1587 33.8768 56.7176 34.192C57.0141 34.5812 57.5418 34.6211 57.8398 35.0029C57.9865 35.1982 58.2341 35.2264 58.4564 35.2767C58.3853 35.3462 58.3156 35.4158 58.2474 35.4868C58.406 35.512 58.5661 35.5371 58.7262 35.5623C58.7722 35.725 58.8211 35.8908 58.8685 36.055C58.9101 36.0151 58.9945 35.9337 59.0375 35.8937C59.4037 36.024 59.715 36.2652 59.9818 36.5434C60.1834 36.752 60.6222 36.6721 60.6711 37.0332C60.4458 37.8145 59.7772 38.3576 59.1621 38.8444C58.8582 39.0679 58.5988 39.3594 58.2415 39.5044C58.1763 39.46 58.0458 39.3727 57.9806 39.3298C58.0162 39.2825 58.0873 39.1877 58.1229 39.1404C57.7701 39.0028 57.4188 38.8652 57.0645 38.7305C57.1282 38.6639 57.192 38.5973 57.2557 38.5307C56.7858 38.5204 56.5397 38.0735 56.1424 37.8959C55.8148 37.7405 55.5776 37.4653 55.293 37.2522C54.1723 36.4901 53.0457 35.7324 51.9087 35.0014C51.5055 34.4924 50.8903 34.2704 50.3967 33.8723C49.9357 33.6504 49.6051 33.2079 49.0848 33.1073C49.1337 33.0407 49.1841 32.9756 49.2345 32.909C48.8773 32.7817 48.5215 32.6515 48.1702 32.5139C48.222 32.471 48.3258 32.3822 48.3777 32.3393C47.8011 32.2416 47.472 31.6882 46.9205 31.5224C46.4669 31.114 45.8917 30.8654 45.4678 30.4156C45.6368 29.8562 45.7998 29.2939 45.9095 28.7212Z" fill="#E0E4EC"/>
</g>
<g id="#e5e8f0ff">
<path id="Vector_23" d="M35.6929 31.41C34.885 31.0667 34.925 29.7748 35.8011 29.5484C36.1139 29.6239 36.4978 29.6254 36.7083 29.911C37.0003 30.2706 36.944 30.821 36.6549 31.1673C36.3822 31.3774 36.016 31.3567 35.6929 31.41Z" fill="#429FF5"/>
</g>
<g id="#e1e4edff">
<path id="Vector_24" d="M25.2094 31.1318C25.7816 31.1599 25.955 30.4363 26.4946 30.4585C26.8 31.4396 27.3559 32.3067 27.9474 33.1384C27.5101 33.1398 27.1157 33.3352 26.7259 33.5068C26.7659 33.5734 26.8059 33.64 26.8474 33.7081C26.6977 33.7451 26.545 33.7643 26.3968 33.8028C26.4413 33.8487 26.5317 33.9404 26.5776 33.9863C26.0351 34.0558 25.7653 34.6152 25.2287 34.6877C25.2791 34.7528 25.3309 34.8194 25.3843 34.886C24.8329 34.9304 24.5838 35.5223 24.0353 35.5756C24.0946 35.6377 24.1524 35.7013 24.2117 35.7665C23.6603 35.8079 23.4083 36.3969 22.8657 36.4649C22.9191 36.533 22.9725 36.6025 23.0258 36.6736C22.8672 36.6928 22.7086 36.7135 22.5515 36.7342C22.6078 36.8038 22.6641 36.8748 22.7219 36.9459C22.3721 37.0805 22.0223 37.2107 21.6724 37.3439C21.7258 37.4135 21.7806 37.4815 21.834 37.5511C21.5642 37.6132 21.2618 37.668 21.1299 37.9447C20.9342 38.2925 20.5577 38.4375 20.1885 38.5263C20.2345 38.5929 20.2805 38.6609 20.3279 38.729C19.9929 38.8637 19.6564 38.988 19.3169 39.1108C19.3436 39.1626 19.3955 39.2676 19.4222 39.3194C19.2621 39.5651 18.9774 39.642 18.7165 39.7367C18.7566 39.7826 18.8351 39.8729 18.8752 39.9187C18.512 40.0386 18.1547 40.1703 17.8078 40.3301C17.8538 40.379 17.9472 40.4766 17.9931 40.5255C17.8983 40.5388 17.7085 40.5684 17.6136 40.5817C17.2519 40.9635 16.8695 41.3719 16.3388 41.4992C16.3862 41.5569 16.4351 41.6161 16.4841 41.6753C15.9593 41.7596 15.6806 42.2805 15.1647 42.3841C15.2077 42.4536 15.2522 42.5247 15.2952 42.5957C15.1395 42.6149 14.9869 42.6534 14.8327 42.6682C14.8757 42.717 14.9646 42.8132 15.0076 42.8606C14.6681 42.9952 14.3257 43.124 13.9848 43.2542C14.0307 43.3814 14.0707 43.5117 14.1226 43.6375C13.7046 43.5457 13.4867 43.1358 13.1828 42.8754C12.79 42.4373 12.283 42.0866 11.9717 41.585C12.068 41.1588 12.4742 40.9013 12.8641 40.7726C13.0449 40.4885 13.3888 40.3642 13.5964 40.0993C13.7253 39.9261 13.9536 39.9498 14.1419 39.9143C14.0722 39.8477 14.0025 39.7826 13.9344 39.7175C14.4562 39.6864 14.7334 39.2336 15.0758 38.911C15.5709 38.689 16.0482 38.3679 16.3877 37.9388C17.0829 37.8589 17.2579 36.9148 17.9917 36.9488C17.9249 36.8822 17.8568 36.8171 17.79 36.752C18.4542 36.7624 18.6454 35.9795 19.222 35.8123C19.8031 35.6525 19.9884 34.846 20.6525 34.8727C20.5888 34.8076 20.5236 34.7439 20.4598 34.6803C20.912 34.6818 21.121 34.263 21.4723 34.0795C22.1423 33.9774 22.3158 33.0777 23.0377 33.094C22.9606 33.0259 22.885 32.9593 22.8094 32.8927C23.4394 32.9297 23.6529 32.2564 24.1332 32.0122C24.6446 31.9131 24.8507 31.3093 25.4006 31.3019C25.3532 31.259 25.2568 31.1747 25.2094 31.1318Z" fill="#E1E4ED"/>
</g>
<g id="#f0f2f6ff">
<path id="Vector_25" d="M45.4676 30.4155C45.8916 30.8654 46.4668 31.114 46.9204 31.5224C47.4718 31.6881 47.8009 32.2416 48.3776 32.3393C48.3257 32.3822 48.2219 32.471 48.17 32.5139C48.5213 32.6515 48.8771 32.7817 49.2344 32.909C49.184 32.9756 49.1336 33.0407 49.0847 33.1073C49.605 33.2079 49.9355 33.6503 50.3966 33.8723C50.8902 34.2704 51.5054 34.4923 51.9086 35.0014C53.0456 35.7324 54.1722 36.4901 55.2929 37.2521C55.5775 37.4652 55.8147 37.7405 56.1423 37.8959C56.5396 38.0734 56.7857 38.5203 57.2556 38.5307C57.1918 38.5973 57.1281 38.6639 57.0643 38.7305C57.4186 38.8651 57.77 39.0027 58.1228 39.1404C58.0872 39.1877 58.016 39.2824 57.9805 39.3298C58.0457 39.3727 58.1761 39.46 58.2414 39.5044C57.4364 40.1141 56.6656 40.774 55.9051 41.437C56.3928 42.134 57.0866 42.6519 57.6291 43.303C57.0836 43.4229 56.5574 43.6685 56.1319 44.0311C55.7643 44.4173 55.1595 44.4395 54.8245 44.8701C53.8327 45.3762 53.0085 46.1649 51.9886 46.6192C50.9584 47.0572 50.1342 47.8415 49.1558 48.3668C48.6533 48.8803 47.8617 48.9499 47.3829 49.487C47.1709 49.6735 46.8848 49.7268 46.6402 49.8555C45.6322 50.5451 44.6479 51.3042 43.4753 51.6993C43.5183 51.7615 43.5628 51.8251 43.6072 51.8902C42.3294 52.2513 41.4859 53.4292 40.1977 53.7607C40.2452 53.8258 40.2926 53.8924 40.3415 53.959C39.6419 54.2475 38.9125 54.5272 38.3359 55.0303C38.0987 55.2316 37.8081 55.3411 37.5057 55.3929C36.9321 54.6145 36.1953 53.9797 35.5771 53.2383L35.675 53.1599C39.2757 50.9816 42.955 48.9292 46.5794 46.7879C49.4063 45.2016 52.1814 43.5279 54.9949 41.9194C55.2366 41.7625 55.5701 41.6782 55.6828 41.3837C53.8046 40.6719 51.9056 40.0179 50.0304 39.2972C50.1431 39.2661 50.3699 39.201 50.484 39.17C50.1312 38.9894 49.7621 38.8429 49.3871 38.7171C49.4449 38.652 49.5027 38.5884 49.562 38.5248C49.3426 38.4523 49.1158 38.4019 48.9127 38.2939C48.2871 37.6635 47.4318 37.3306 46.7884 36.7224C45.9168 36.0994 45.0214 35.5164 44.132 34.9215C43.7955 34.6314 43.3893 34.4494 42.9772 34.2985C44.092 33.2182 44.9547 31.879 45.4676 30.4155Z" fill="#F0F2F6"/>
</g>
<g id="#edeff4ff">
<path id="Vector_26" d="M26.7255 33.5068C27.1154 33.3352 27.5097 33.1398 27.947 33.1384C29.1166 34.7203 30.8065 35.8878 32.6521 36.5478C31.183 37.4786 29.6176 38.254 28.1219 39.1433C26.3579 40.1836 24.5464 41.1411 22.7809 42.1784C20.6596 43.3844 18.5264 44.5682 16.4051 45.7743C15.8655 45.6056 15.5898 45.0729 15.1703 44.7384C14.7656 44.4277 14.4202 44.0503 14.1222 43.6375C14.0704 43.5117 14.0303 43.3815 13.9844 43.2542C14.3253 43.124 14.6678 42.9952 15.0072 42.8606C14.9642 42.8132 14.8753 42.717 14.8323 42.6682C14.9865 42.6534 15.1392 42.6149 15.2948 42.5957C15.2518 42.5247 15.2073 42.4536 15.1644 42.3841C15.6802 42.2805 15.9589 41.7596 16.4837 41.6753C16.4348 41.6161 16.3858 41.5569 16.3384 41.4992C16.8691 41.3719 17.2516 40.9635 17.6133 40.5817C17.7081 40.5684 17.8979 40.5388 17.9927 40.5255C17.9468 40.4766 17.8534 40.379 17.8074 40.3301C18.1543 40.1703 18.5116 40.0386 18.8748 39.9188C18.8347 39.8729 18.7562 39.7826 18.7162 39.7367C18.9771 39.642 19.2617 39.5651 19.4218 39.3194C19.3951 39.2676 19.3432 39.1626 19.3165 39.1108C19.656 38.988 19.9925 38.8637 20.3275 38.729C20.2801 38.6609 20.2341 38.5929 20.1882 38.5263C20.5573 38.4375 20.9338 38.2925 21.1295 37.9447C21.2614 37.668 21.5638 37.6132 21.8336 37.5511C21.7802 37.4815 21.7254 37.4135 21.672 37.3439C22.0219 37.2107 22.3717 37.0805 22.7216 36.9459C22.6637 36.8748 22.6074 36.8038 22.5511 36.7342C22.7082 36.7135 22.8668 36.6928 23.0254 36.6736C22.9721 36.6025 22.9187 36.533 22.8654 36.4649C23.4079 36.3969 23.6599 35.8079 24.2114 35.7665C24.1521 35.7014 24.0942 35.6377 24.035 35.5756C24.5834 35.5223 24.8325 34.9304 25.3839 34.886C25.3306 34.8194 25.2787 34.7528 25.2283 34.6877C25.7649 34.6152 26.0347 34.0558 26.5772 33.9863C26.5313 33.9404 26.4409 33.8487 26.3964 33.8028C26.5446 33.7643 26.6973 33.7451 26.847 33.7081C26.8055 33.64 26.7655 33.5734 26.7255 33.5068Z" fill="#EDEFF4"/>
</g>
<g id="#e9ebf2ff">
<path id="Vector_27" d="M75.8365 35.5163C75.8468 34.9407 75.7979 34.3473 75.9995 33.7968V37.6472C75.7698 36.9606 75.8424 36.2281 75.8365 35.5163Z" fill="#E9EBF2"/>
</g>
<g id="#f9f9fbff">
<path id="Vector_28" d="M40.8115 35.8952C41.5824 35.4335 42.3399 34.9363 42.9773 34.2985C43.3894 34.4495 43.7956 34.6315 44.1321 34.9215C45.0215 35.5164 45.9169 36.0994 46.7885 36.7224C47.4319 37.3306 48.2872 37.6636 48.9128 38.294C49.1159 38.402 49.3427 38.4523 49.562 38.5248C49.5028 38.5884 49.4449 38.6521 49.3871 38.7172C49.7622 38.843 50.1313 38.9895 50.4841 39.17C50.37 39.2011 50.1431 39.2662 50.0305 39.2972C48.0708 38.5677 46.1081 37.8471 44.1395 37.1397C43.0292 36.7313 41.9026 36.3539 40.8115 35.8952Z" fill="#F9F9FB"/>
</g>
<g id="#c0c6d4ff">
<path id="Vector_29" d="M38.4726 36.9577C39.2004 36.493 40.078 36.348 40.8118 35.8952C41.9028 36.3539 43.0294 36.7313 44.1398 37.1397C44.0523 37.224 43.9633 37.3084 43.8759 37.3927C44.0538 37.4327 44.2317 37.4771 44.411 37.5185C44.2406 37.5585 44.0716 37.5984 43.9011 37.6384C44.0093 37.7434 44.0375 37.8618 43.9248 37.9787C44.0538 38.0098 44.1813 38.0438 44.3117 38.0764C44.291 38.251 44.2672 38.4256 44.2391 38.6002C44.4021 38.6269 44.5652 38.655 44.7283 38.6831C44.5711 38.7216 44.411 38.7556 44.2539 38.7956C44.2791 38.9347 44.2583 39.0723 44.2228 39.207C44.4866 39.2188 44.7505 39.2351 45.0144 39.2632C44.8557 39.315 44.6971 39.3682 44.5355 39.4141C44.5667 39.534 44.5637 39.6568 44.5474 39.7796C44.6793 39.8077 44.8142 39.8314 44.9491 39.861C44.8142 39.9705 44.8528 40.0993 44.9373 40.2221C44.7638 40.2517 44.5904 40.2828 44.4184 40.3138C44.5845 40.3508 44.7505 40.3908 44.918 40.4278C44.8854 40.6098 44.8543 40.7918 44.8216 40.9738C44.9817 40.9975 45.1418 41.0226 45.3019 41.0493C45.1092 41.1011 44.9165 41.1514 44.7238 41.2047C44.9195 41.2505 45.1137 41.2935 45.3108 41.3364C45.1181 41.3941 44.9165 41.4444 44.746 41.548C45.0307 41.5805 45.3271 41.5776 45.6029 41.6664C45.425 41.693 45.2486 41.7196 45.0722 41.7448C45.1063 41.7936 45.1759 41.8928 45.2115 41.9431C45.1715 42.0141 45.1315 42.0866 45.0929 42.1606C45.2367 42.1665 45.3805 42.1739 45.5258 42.1813C45.4709 42.3619 45.4487 42.5513 45.4131 42.7362C45.5791 42.7747 45.7481 42.8117 45.9171 42.8517C45.7407 42.8768 45.5643 42.9005 45.3894 42.9271C45.4235 43.0011 45.4591 43.0751 45.4976 43.1506C45.4695 43.1994 45.4131 43.2971 45.3835 43.3459C45.5243 43.3533 45.6636 43.3622 45.8045 43.3711C45.7793 43.5634 45.7481 43.7558 45.7051 43.9452C45.8445 43.9556 45.9838 43.9645 46.1232 43.9763C46.0935 44.0414 46.0624 44.1065 46.0328 44.1731C46.052 44.219 46.0935 44.3107 46.1143 44.3566C45.9438 44.3936 45.7763 44.4336 45.6073 44.472C45.7748 44.5016 45.9423 44.5327 46.1098 44.5653C46.0861 44.7547 46.0431 44.9426 45.9824 45.1261C46.1247 45.135 46.267 45.1453 46.4093 45.1557C46.3841 45.2238 46.3574 45.2918 46.3292 45.3599C46.353 45.4102 46.4004 45.5108 46.4241 45.5626C46.2462 45.5848 46.0683 45.6085 45.8919 45.6337C46.058 45.6707 46.224 45.7121 46.393 45.7506C46.3752 45.94 46.3381 46.1264 46.2922 46.3099C46.4315 46.3159 46.5723 46.3218 46.7147 46.3292C46.6568 46.4786 46.6094 46.6296 46.5798 46.7879C42.9553 48.9292 39.276 50.9816 35.6753 53.1599L35.5078 53.1303C35.7153 50.0893 35.8414 47.0424 36.0385 44.0015C36.1304 42.9153 36.0845 41.8188 36.2623 40.7415C36.4417 40.5506 36.6315 40.3612 36.7441 40.1215C37.2719 39.0397 37.9567 38.0438 38.4726 36.9577Z" fill="#C0C6D4"/>
<path id="Vector_30" d="M22.7812 42.1784C24.5468 41.141 26.3582 40.1836 28.1223 39.1433C28.1994 39.1951 28.355 39.2987 28.4321 39.3505C28.361 39.4748 28.3165 39.6109 28.2483 39.7367C28.4128 39.9232 28.3847 40.1333 28.2453 40.3257C28.3817 40.5121 28.3921 40.7178 28.2513 40.9058C28.2957 40.9975 28.3387 41.0892 28.3832 41.1825C28.3417 41.2905 28.3017 41.3985 28.2616 41.5065C28.395 41.7019 28.3773 41.915 28.2483 42.1073C28.2972 42.2124 28.3461 42.319 28.395 42.424C28.3565 42.4876 28.2809 42.6149 28.2438 42.6785C28.2913 42.7703 28.3387 42.862 28.3862 42.9538C28.3402 43.0648 28.2942 43.1757 28.2498 43.2882C28.2824 43.3548 28.3491 43.4895 28.3817 43.5561C28.3358 43.6626 28.2868 43.7677 28.2438 43.8757C28.2779 43.9408 28.3491 44.071 28.3847 44.1347C28.2601 44.3477 28.2453 44.5771 28.3535 44.8006C28.3313 44.8642 28.2839 44.9914 28.2601 45.0551C28.3847 45.2504 28.3876 45.462 28.2513 45.6514C28.3921 45.8394 28.3758 46.0495 28.2587 46.2463C28.3936 46.4387 28.3713 46.6488 28.2527 46.8441C28.2913 46.9462 28.3313 47.0498 28.3728 47.1549C28.3461 47.2215 28.2928 47.3561 28.2661 47.4227C28.3031 47.5145 28.3417 47.6077 28.3787 47.7009C28.3328 47.8075 28.2898 47.917 28.2453 48.025C28.2928 48.1316 28.3417 48.2381 28.3906 48.3461C28.3535 48.4083 28.2779 48.5311 28.2409 48.5933C28.2898 48.7087 28.3432 48.8226 28.3936 48.9395C28.3565 49.0032 28.2824 49.1304 28.2453 49.194C28.2809 49.3035 28.3224 49.4101 28.358 49.5211C28.3269 49.6158 28.2957 49.7105 28.2646 49.8067C28.3091 49.9236 28.355 50.042 28.3995 50.1618C28.3283 50.221 28.186 50.3379 28.1149 50.3971C26.4398 49.6957 24.7098 49.1304 23.0362 48.4275C23.0911 48.3698 23.2037 48.2559 23.2601 48.1981C23.1874 46.5156 23.2467 44.8272 23.2289 43.1432C23.2304 42.8206 23.1919 42.4906 23.2867 42.1769C23.1177 42.1754 22.9488 42.1754 22.7812 42.1784Z" fill="#C0C6D4"/>
</g>
<g id="#ccd1deff">
<path id="Vector_31" d="M32.6518 36.5478L32.7215 36.57C33.5961 36.7105 33.7458 37.6916 34.1817 38.3102C34.072 38.3753 33.9623 38.4404 33.8526 38.5055C33.9993 38.723 34.0245 38.9672 33.8452 39.1759C33.9193 39.2055 34.0675 39.2661 34.1402 39.2972C34.0482 39.4393 33.9578 39.5813 33.8674 39.7249C33.8985 39.7944 33.9638 39.9335 33.9949 40.0016C33.9504 40.1185 33.9045 40.2354 33.86 40.3538C33.9326 40.3819 34.0764 40.4411 34.1491 40.4707C34.0542 40.6127 33.9623 40.7563 33.8689 40.8983C33.9134 41.0138 33.9593 41.1292 34.0053 41.2461C33.946 41.3438 33.8882 41.4429 33.8289 41.542C33.9089 41.5746 34.0675 41.6412 34.1476 41.6737C34.0512 41.8143 33.9563 41.9549 33.8615 42.094C33.9134 42.205 33.9682 42.313 34.0275 42.421C33.9593 42.5246 33.8911 42.6267 33.8229 42.7303C33.9045 42.754 34.066 42.8028 34.1476 42.8265C33.9786 43.0662 33.7888 43.3281 33.9919 43.6152C33.9445 43.7129 33.897 43.8106 33.8496 43.9097C33.9267 43.9393 34.0809 44 34.1579 44.031C34.0616 44.1687 33.9697 44.3092 33.8748 44.4498C33.9193 44.5623 33.9652 44.6762 34.0112 44.7902C33.9504 44.8878 33.8896 44.9885 33.8303 45.0876C33.9104 45.1187 34.069 45.1808 34.1491 45.2119C34.0571 45.3495 33.9697 45.4901 33.8793 45.6292C33.9163 45.7476 33.9549 45.8675 33.9934 45.9873C33.9415 46.085 33.8896 46.1812 33.8378 46.2788C33.9119 46.3084 34.0616 46.3647 34.1372 46.3943C33.9623 46.631 33.8111 46.8915 33.9964 47.1741C33.9445 47.2703 33.8926 47.3665 33.8422 47.4627C33.9208 47.4878 34.0764 47.5396 34.155 47.5663C34.0571 47.7068 33.9608 47.8519 33.863 47.9939C33.9163 48.1138 33.9638 48.2336 34.0171 48.355C33.9549 48.4497 33.8926 48.5444 33.8303 48.6391C33.9089 48.6717 34.0646 48.7338 34.1431 48.7649C34.0557 48.9025 33.9697 49.0416 33.8822 49.1807C33.9237 49.302 33.9667 49.4234 34.0097 49.5462C33.9489 49.6365 33.8867 49.7282 33.8274 49.82C33.9059 49.854 34.0646 49.9206 34.1446 49.9546C34.0497 50.0982 33.9578 50.2432 33.8644 50.3897C33.9 50.4563 33.9712 50.5909 34.0067 50.6575C33.9534 50.773 33.9059 50.8913 33.8541 51.0097C33.9267 51.0408 34.0749 51.1044 34.1476 51.1355C34.0527 51.2805 33.9623 51.4255 33.8674 51.572C33.9163 51.683 33.9667 51.7955 34.0171 51.9094C33.9712 51.9731 33.8793 52.1003 33.8333 52.164C33.9371 52.2098 34.0394 52.2557 34.1431 52.3045C34.0557 52.4052 33.9697 52.5087 33.8837 52.6123C31.9699 51.8517 30.0295 51.1577 28.1143 50.3971C28.1854 50.3379 28.3277 50.221 28.3989 50.1618C28.3544 50.0419 28.3084 49.9236 28.264 49.8067C28.2951 49.7105 28.3262 49.6158 28.3574 49.5211C28.3218 49.4101 28.2803 49.3035 28.2447 49.194C28.2818 49.1304 28.3559 49.0031 28.3929 48.9395C28.3425 48.8226 28.2892 48.7087 28.2403 48.5932C28.2773 48.5311 28.3529 48.4083 28.39 48.3461C28.3411 48.2381 28.2921 48.1315 28.2447 48.025C28.2892 47.917 28.3322 47.8075 28.3781 47.7009C28.3411 47.6077 28.3025 47.5145 28.2655 47.4227C28.2921 47.3561 28.3455 47.2215 28.3722 47.1549C28.3307 47.0498 28.2907 46.9462 28.2521 46.8441C28.3707 46.6488 28.3929 46.4387 28.258 46.2463C28.3752 46.0495 28.3915 45.8393 28.2506 45.6514C28.387 45.462 28.3841 45.2504 28.2595 45.0551C28.2832 44.9914 28.3307 44.8642 28.3529 44.8005C28.2447 44.5771 28.2595 44.3477 28.3841 44.1346C28.3485 44.071 28.2773 43.9408 28.2432 43.8757C28.2862 43.7676 28.3351 43.6626 28.3811 43.556C28.3485 43.4894 28.2818 43.3548 28.2492 43.2882C28.2936 43.1757 28.3396 43.0647 28.3855 42.9538C28.3381 42.862 28.2907 42.7703 28.2432 42.6785C28.2803 42.6149 28.3559 42.4876 28.3944 42.424C28.3455 42.3189 28.2966 42.2124 28.2477 42.1073C28.3766 41.9149 28.3944 41.7019 28.261 41.5065C28.301 41.3985 28.3411 41.2905 28.3826 41.1825C28.3381 41.0892 28.2951 40.9975 28.2506 40.9057C28.3915 40.7178 28.3811 40.5121 28.2447 40.3257C28.3841 40.1333 28.4122 39.9232 28.2477 39.7367C28.3159 39.6109 28.3603 39.4748 28.4315 39.3505C28.3544 39.2987 28.1988 39.1951 28.1217 39.1433C29.6174 38.254 31.1828 37.4785 32.6518 36.5478Z" fill="#CCD1DE"/>
</g>
<g id="#d4d8e4ff">
<path id="Vector_32" d="M33.8529 38.5055C33.9626 38.4404 34.0723 38.3753 34.182 38.3102C34.6119 39.0308 34.9869 39.787 35.4642 40.4781C35.6362 40.7474 35.9786 40.74 36.2618 40.7415C36.0839 41.8188 36.1298 42.9153 36.0379 44.0014C35.8408 47.0424 35.7148 50.0893 35.5072 53.1303C34.9469 53.0267 34.3999 52.8521 33.884 52.6123C33.97 52.5087 34.056 52.4052 34.1434 52.3045C34.0397 52.2557 33.9374 52.2098 33.8336 52.164C33.8796 52.1003 33.9715 51.9731 34.0174 51.9094C33.967 51.7955 33.9166 51.683 33.8677 51.572C33.9626 51.4255 34.053 51.2805 34.1479 51.1355C34.0752 51.1044 33.927 51.0408 33.8544 51.0097C33.9063 50.8913 33.9537 50.7729 34.0071 50.6575C33.9715 50.5909 33.9003 50.4563 33.8647 50.3897C33.9581 50.2432 34.05 50.0982 34.1449 49.9546C34.0649 49.9206 33.9063 49.854 33.8277 49.82C33.887 49.7282 33.9492 49.6365 34.01 49.5462C33.967 49.4234 33.924 49.302 33.8825 49.1807C33.97 49.0416 34.056 48.9025 34.1434 48.7649C34.0649 48.7338 33.9092 48.6717 33.8307 48.6391C33.8929 48.5444 33.9552 48.4497 34.0174 48.355C33.9641 48.2336 33.9166 48.1138 33.8633 47.9939C33.9611 47.8518 34.0575 47.7068 34.1553 47.5662C34.0767 47.5396 33.9211 47.4878 33.8425 47.4627C33.8929 47.3665 33.9448 47.2703 33.9967 47.1741C33.8114 46.8915 33.9626 46.631 34.1375 46.3943C34.0619 46.3647 33.9122 46.3084 33.8381 46.2788C33.89 46.1812 33.9418 46.085 33.9937 45.9873C33.9552 45.8675 33.9166 45.7476 33.8796 45.6292C33.97 45.4901 34.0575 45.3495 34.1494 45.2119C34.0693 45.1808 33.9107 45.1187 33.8307 45.0876C33.89 44.9885 33.9507 44.8878 34.0115 44.7902C33.9656 44.6762 33.9196 44.5623 33.8751 44.4498C33.97 44.3092 34.0619 44.1687 34.1583 44.031C34.0812 44 33.927 43.9393 33.8499 43.9097C33.8974 43.8106 33.9448 43.7129 33.9922 43.6152C33.7891 43.3281 33.9789 43.0662 34.1479 42.8265C34.0664 42.8028 33.9048 42.754 33.8232 42.7303C33.8914 42.6267 33.9596 42.5246 34.0278 42.421C33.9685 42.313 33.9137 42.205 33.8618 42.094C33.9567 41.9549 34.0515 41.8143 34.1479 41.6737C34.0678 41.6412 33.9092 41.5746 33.8292 41.542C33.8885 41.4429 33.9463 41.3437 34.0056 41.2461C33.9596 41.1292 33.9137 41.0138 33.8692 40.8983C33.9626 40.7563 34.0545 40.6127 34.1494 40.4707C34.0767 40.4411 33.9329 40.3819 33.8603 40.3538C33.9048 40.2354 33.9507 40.1185 33.9952 40.0016C33.9641 39.9335 33.8988 39.7944 33.8677 39.7249C33.9581 39.5813 34.0486 39.4393 34.1405 39.2972C34.0678 39.2661 33.9196 39.2054 33.8455 39.1759C34.0248 38.9672 33.9996 38.723 33.8529 38.5055Z" fill="#D4D8E4"/>
</g>
<g id="#b6bcccff">
<path id="Vector_33" d="M16.4052 45.7743C18.5265 44.5682 20.6597 43.3844 22.781 42.1784C22.9485 42.1754 23.1175 42.1754 23.2865 42.1769C23.1916 42.4906 23.2301 42.8206 23.2286 43.1432C23.2464 44.8272 23.1871 46.5156 23.2598 48.1982C23.2034 48.2559 23.0908 48.3698 23.0359 48.4275C21.5372 47.8489 20.0386 47.2718 18.531 46.7184C17.8076 46.4491 17.0871 46.1709 16.3682 45.8912L16.4052 45.7743Z" fill="#B6BCCC"/>
</g>
<g id="#e9ecf2ff">
<path id="Vector_34" d="M56.1319 44.0311C56.5574 43.6685 57.0836 43.4229 57.6292 43.303C58.0635 43.7514 58.5823 44.1524 58.8788 44.7088C58.9262 44.8361 58.9603 44.9692 59.0048 45.0995C58.403 45.2341 57.9093 45.5937 57.432 45.9651C56.4907 46.3676 55.7124 47.0469 54.8423 47.5707C54.1441 47.7868 53.6741 48.3979 52.9804 48.6228C51.6462 49.4767 50.3581 50.4341 48.9112 51.103C46.9278 52.5635 44.6924 53.6364 42.6986 55.0792C42.0893 55.4846 41.3274 55.6444 40.807 56.1801C40.2348 56.4124 39.8079 56.8786 39.2372 57.1153C39.5322 57.5445 39.9161 57.8996 40.2526 58.2947C39.2535 58.8053 38.0794 58.5182 37.0003 58.6528C37.3027 58.712 37.608 58.7579 37.9134 58.8082C37.2122 59.0509 36.4384 58.7387 35.7521 59.0494C35.6869 59.0228 35.6216 58.9976 35.5564 58.9754C35.5446 59.2374 35.5268 59.4993 35.5075 59.7627C32.4034 59.8411 29.2963 59.7716 26.1907 59.7908C22.9354 59.7938 19.6786 59.81 16.4233 59.779L16.3106 59.7597C16.2617 58.7283 16.3106 57.6969 16.3017 56.6655C16.358 56.0765 16.4663 55.492 16.4307 54.8971C17.1304 55.0954 17.7915 55.4047 18.4675 55.6666C19.7305 56.2689 21.0839 56.6507 22.3558 57.2308C22.8287 57.4305 23.3164 57.62 23.8307 57.6791C23.8456 57.4439 23.5595 57.4365 23.4142 57.3418C23.0243 57.179 22.8272 56.7528 22.4447 56.5708C21.6828 56.1727 21.0261 55.6148 20.2938 55.1724C20.0477 54.9697 19.7942 54.7699 19.477 54.6944C19.5051 54.653 19.5585 54.5686 19.5852 54.5272C19.3213 54.3985 19.0456 54.2964 18.7817 54.1661C18.3993 53.9678 18.131 53.5624 17.6744 53.5195C17.7174 53.4514 17.7619 53.3833 17.8078 53.3167C17.4669 53.1761 17.1229 53.0444 16.779 52.9142C16.8339 52.8491 16.8887 52.784 16.9436 52.7204C16.5834 52.6005 16.2291 52.4644 15.8852 52.306C15.9252 52.272 16.0037 52.2039 16.0423 52.1699C15.7013 51.9982 15.3485 51.8503 14.9928 51.7112C15.0417 51.6712 15.138 51.5913 15.187 51.5513C14.8401 51.504 14.5718 51.2939 14.3227 51.0675C13.4585 50.5658 12.6758 49.9384 11.8086 49.4412C12.0146 49.0594 12.4327 48.8714 12.7588 48.6066C13.3651 48.2159 13.8899 47.7172 14.4932 47.3251C14.5807 47.3413 14.7541 47.3724 14.8401 47.3872C14.7971 47.4701 14.7556 47.5544 14.7141 47.6388C15.0402 47.9096 15.4404 48.059 15.8259 48.2248C16.2424 48.3742 16.3654 48.8848 16.7939 49.0194C17.2756 49.2059 17.5929 49.6661 18.1102 49.783C18.0643 49.8452 18.0183 49.9088 17.9724 49.9724C18.3548 50.113 18.7847 50.2077 19.0678 50.5229C19.2724 50.7804 19.5985 50.8558 19.895 50.9565C19.8446 51.0186 19.7942 51.0823 19.7438 51.1474C20.0892 51.2791 20.4361 51.4108 20.7815 51.5469C20.734 51.6105 20.6866 51.6756 20.6392 51.7408C20.9742 51.8739 21.3122 52.0027 21.6472 52.1359C21.6116 52.2025 21.576 52.269 21.5419 52.3371C21.8829 52.4777 22.2268 52.605 22.5737 52.7293C22.5322 52.7722 22.4477 52.8565 22.4047 52.8994C22.7412 53.0563 23.0881 53.1924 23.4379 53.3197C23.3964 53.3818 23.3564 53.4455 23.3164 53.5091C23.6514 53.6467 23.9879 53.7814 24.3244 53.919C24.2844 53.9797 24.2443 54.0403 24.2058 54.101C24.5497 54.2416 24.8936 54.3837 25.2331 54.5346C25.1901 54.5775 25.1041 54.6633 25.0611 54.7048C25.4184 54.8232 25.7727 54.9519 26.121 55.094C26.0691 55.162 26.0187 55.2316 25.9669 55.3011C26.4709 55.3514 26.7496 55.8102 27.1854 56.004C27.4137 56.1106 27.6523 56.1905 27.8895 56.2778C27.8465 56.3562 27.8035 56.4346 27.7606 56.5146C28.1489 56.8238 28.6114 57.0162 29.0799 57.1701C29.0324 57.2337 28.985 57.2974 28.9376 57.3625C29.3571 57.4276 29.7218 57.981 30.1516 57.6703C30.4303 57.5149 30.666 57.2885 30.9536 57.1494C32.4775 57.0088 34.0281 57.2485 35.5431 57.0354C34.12 56.8623 32.6821 57.0606 31.256 56.9422C31.3628 56.7809 31.4695 56.5723 31.6889 56.5575C32.9504 56.4628 34.2238 56.6211 35.4838 56.4924C35.5208 56.2186 35.5579 55.9463 35.592 55.6726C36.2309 55.5956 36.9306 55.7495 37.5058 55.3929C37.8082 55.3411 38.0987 55.2316 38.3359 55.0303C38.9125 54.5272 39.6419 54.2475 40.3416 53.959C40.2926 53.8924 40.2452 53.8258 40.1978 53.7607C41.486 53.4292 42.3294 52.2513 43.6073 51.8902C43.5628 51.8251 43.5183 51.7615 43.4753 51.6993C44.6479 51.3042 45.6322 50.5451 46.6402 49.8555C46.8848 49.7268 47.1709 49.6735 47.3829 49.487C47.8617 48.9499 48.6533 48.8803 49.1558 48.3668C50.1342 47.8415 50.9584 47.0572 51.9887 46.6192C53.0086 46.1649 53.8328 45.3762 54.8245 44.8701C55.1595 44.4395 55.7643 44.4173 56.1319 44.0311Z" fill="#E9ECF2"/>
</g>
<g id="#dfe3ecff">
<path id="Vector_35" d="M58.8789 44.7088C59.46 44.8893 59.7446 45.4946 60.0456 45.9755C60.3065 46.375 60.3257 46.8708 60.262 47.331C60.0055 47.7734 59.5475 48.0206 59.1087 48.2396C58.7559 48.6865 58.1066 48.7175 57.7879 49.1955C57.4514 49.3539 57.1178 49.524 56.7695 49.6572C56.8243 49.6972 56.9325 49.7786 56.9874 49.82C56.3796 49.9236 55.886 50.3276 55.3197 50.5495C55.0573 50.8026 54.7949 51.0541 54.4214 51.1252C54.0745 51.5706 53.5423 51.7659 53.0324 51.9642C52.856 52.3475 52.4068 52.4289 52.0763 52.636C51.8791 52.7692 51.6508 52.8299 51.4196 52.8683C51.4937 52.9349 51.5693 53.003 51.6449 53.0726C51.0401 53.2871 50.161 53.4662 50.1358 54.2653C49.9238 54.2771 49.7133 54.2875 49.5043 54.2963C49.5755 54.2076 49.6481 54.1188 49.7207 54.0315C49.3546 53.8716 49.3042 54.2697 49.2434 54.5257C48.6682 54.7122 48.1805 55.1088 47.5876 55.239C47.6528 55.3115 47.721 55.3855 47.7877 55.4595C47.2066 55.5394 46.6804 55.8856 46.2609 56.2852C45.8932 56.3754 45.6368 56.6344 45.3729 56.883C45.0408 57.0266 44.7177 57.1878 44.3812 57.321C44.2063 57.7531 43.6474 57.8138 43.2887 58.0476C42.7654 58.1675 42.5326 58.7727 41.9649 58.7638C41.9871 58.8201 42.0331 58.931 42.0568 58.9858C41.3838 59.0479 40.736 58.7475 40.2527 58.2947C39.9162 57.8996 39.5323 57.5445 39.2373 57.1153C39.808 56.8786 40.235 56.4124 40.8072 56.1801C41.3275 55.6444 42.0894 55.4846 42.6987 55.0792C44.6925 53.6364 46.9279 52.5635 48.9114 51.103C50.3582 50.4341 51.6464 49.4767 52.9805 48.6228C53.6743 48.3979 54.1442 47.7868 54.8424 47.5707C55.7125 47.0469 56.4908 46.3676 57.4321 45.9651C57.9094 45.5937 58.4031 45.2341 59.0049 45.0995C58.9605 44.9692 58.9264 44.8361 58.8789 44.7088Z" fill="#DFE3EC"/>
</g>
<g id="#e1e5edff">
<path id="Vector_36" d="M14.4932 47.3251C15.0683 46.8027 15.6583 46.2419 16.3684 45.8912C17.0873 46.1709 17.8078 46.4491 18.5312 46.7184C18.4319 46.8131 18.3311 46.9078 18.2317 47.0025C18.5742 47.0484 18.8336 47.2704 19.09 47.482C19.938 48.0117 20.7666 48.5726 21.5997 49.1245C22.2787 49.6942 23.1118 50.0509 23.7521 50.6679C24.8432 51.359 25.8986 52.1078 26.9793 52.8136C27.261 53.154 27.7368 53.2073 28.0229 53.5387C28.2171 53.7518 28.5076 53.8155 28.7656 53.919C28.7256 53.9841 28.6855 54.0493 28.6455 54.1144C28.9998 54.2416 29.3496 54.3807 29.6906 54.5406C29.6432 54.5746 29.5512 54.6397 29.5038 54.6722C29.8003 54.7906 30.1279 54.875 30.3443 55.1265C30.6289 55.4462 31.0618 55.5409 31.4472 55.6874C31.4013 55.7555 31.3538 55.8235 31.3094 55.8931C31.5184 55.97 31.7244 56.0662 31.9423 56.1195C33.1697 55.1828 34.3646 54.1958 35.5771 53.2383C36.1953 53.9797 36.932 54.6145 37.5057 55.3929C36.9306 55.7495 36.2309 55.5956 35.592 55.6726C35.5579 55.9463 35.5208 56.2186 35.4838 56.4924C34.2237 56.6211 32.9504 56.4628 31.6888 56.5575C31.4695 56.5723 31.3627 56.7809 31.256 56.9422C32.682 57.0606 34.12 56.8623 35.543 57.0355C34.0281 57.2486 32.4775 57.0088 30.9536 57.1494C30.666 57.2885 30.4303 57.5149 30.1516 57.6703C29.7217 57.9811 29.3571 57.4276 28.9375 57.3625C28.985 57.2974 29.0324 57.2338 29.0798 57.1701C28.6114 57.0162 28.1489 56.8239 27.7605 56.5146C27.8035 56.4347 27.8465 56.3562 27.8895 56.2778C27.6523 56.1905 27.4136 56.1106 27.1854 56.0041C26.7495 55.8102 26.4708 55.3515 25.9668 55.3012C26.0187 55.2316 26.0691 55.1621 26.121 55.094C25.7726 54.9519 25.4184 54.8232 25.0611 54.7048C25.1041 54.6634 25.1901 54.5775 25.2331 54.5346C24.8936 54.3837 24.5497 54.2416 24.2058 54.1011C24.2443 54.0404 24.2843 53.9797 24.3243 53.919C23.9878 53.7814 23.6513 53.6468 23.3163 53.5091C23.3564 53.4455 23.3964 53.3819 23.4379 53.3197C23.088 53.1925 22.7412 53.0563 22.4047 52.8995C22.4476 52.8566 22.5321 52.7722 22.5737 52.7293C22.2268 52.605 21.8829 52.4777 21.5419 52.3371C21.576 52.2691 21.6116 52.2025 21.6472 52.1359C21.3121 52.0027 20.9742 51.874 20.6391 51.7408C20.6866 51.6757 20.734 51.6106 20.7814 51.5469C20.4361 51.4108 20.0892 51.2791 19.7438 51.1474C19.7942 51.0823 19.8446 51.0187 19.895 50.9565C19.5985 50.8559 19.2724 50.7804 19.0678 50.5229C18.7847 50.2077 18.3548 50.113 17.9723 49.9724C18.0183 49.9088 18.0642 49.8452 18.1102 49.783C17.5928 49.6661 17.2756 49.2059 16.7938 49.0195C16.3654 48.8848 16.2424 48.3743 15.8258 48.2248C15.4404 48.0591 15.0402 47.9096 14.714 47.6388C14.7555 47.5545 14.7971 47.4701 14.84 47.3873C14.7541 47.3725 14.5806 47.3414 14.4932 47.3251Z" fill="#E1E5ED"/>
</g>
<g id="#d8dce7ff">
<path id="Vector_37" d="M18.5309 46.7184C20.0385 47.2718 21.5372 47.849 23.0359 48.4276C24.7095 49.1305 26.4394 49.6957 28.1145 50.3972C30.0298 51.1578 31.9702 51.8518 33.884 52.6124C34.3998 52.8521 34.9468 53.0267 35.5072 53.1303L35.6747 53.1599L35.5768 53.2383C34.3643 54.1958 33.1695 55.1828 31.942 56.1195C31.7241 56.0662 31.5181 55.97 31.3091 55.8931C31.3535 55.8235 31.401 55.7555 31.4469 55.6874C31.0615 55.5409 30.6286 55.4462 30.344 55.1266C30.1276 54.875 29.8 54.7906 29.5035 54.6723C29.5509 54.6397 29.6429 54.5746 29.6903 54.5406C29.3493 54.3807 28.9995 54.2416 28.6452 54.1144C28.6852 54.0493 28.7253 53.9842 28.7653 53.919C28.5073 53.8155 28.2168 53.7518 28.0226 53.5387C27.7365 53.2073 27.2607 53.154 26.979 52.8136C25.8983 52.1078 24.8429 51.359 23.7519 50.668C23.1115 50.0509 22.2784 49.6943 21.5994 49.1245C20.7663 48.5726 19.9377 48.0117 19.0897 47.482C18.8333 47.2704 18.5739 47.0484 18.2314 47.0025C18.3308 46.9078 18.4316 46.8131 18.5309 46.7184Z" fill="#D8DCE7"/>
</g>
<g id="#f4f5f8ff">
<path id="Vector_38" d="M11.8092 49.4412C12.6764 49.9384 13.4591 50.5659 14.3233 51.0675C14.5724 51.2939 14.8407 51.504 15.1875 51.5514C15.1386 51.5914 15.0423 51.6713 14.9934 51.7112C15.3491 51.8503 15.7019 51.9983 16.0429 52.17C16.0043 52.204 15.9258 52.2721 15.8858 52.3061C16.2297 52.4644 16.584 52.6006 16.9442 52.7204C16.8893 52.7841 16.8345 52.8492 16.7796 52.9143C17.1235 53.0445 17.4675 53.1762 17.8084 53.3168C17.7625 53.3834 17.718 53.4515 17.675 53.5195C18.1316 53.5624 18.3999 53.9679 18.7823 54.1662C19.0462 54.2964 19.3219 54.3985 19.5858 54.5273C19.5591 54.5687 19.5057 54.653 19.4776 54.6945C19.7948 54.7699 20.0483 54.9697 20.2944 55.1724C21.0267 55.6149 21.6834 56.1728 22.4453 56.5708C22.8278 56.7529 23.0249 57.179 23.4148 57.3418C23.5601 57.4365 23.8462 57.4439 23.8313 57.6792C23.317 57.62 22.8293 57.4306 22.3564 57.2308C21.0845 56.6508 19.7311 56.269 18.4681 55.6667C17.7921 55.4048 17.131 55.0955 16.4313 54.8972C15.4425 54.5687 14.476 54.1751 13.5095 53.7844C12.9091 53.5388 12.2346 53.3701 11.7914 52.864C10.8634 51.9687 10.8531 50.3173 11.8092 49.4412Z" fill="#F4F5F8"/>
</g>
<g id="#e8ebf1ff">
<path id="Vector_39" d="M46.0297 56.9437C49.2969 55.0659 52.53 53.1229 55.7957 51.2406C55.8209 52.8373 55.8816 54.4355 55.8075 56.0307L55.7275 56.013C55.133 55.7599 54.5742 56.1373 53.9783 56.0929C53.3616 56.4095 52.6219 56.0544 52.0304 56.4303C51.6331 56.6448 51.1528 56.4525 50.7393 56.6241C50.3983 56.7617 50.0218 56.5842 49.6838 56.7321C49.1635 56.926 48.6002 56.815 48.0591 56.8402C48.111 56.9319 48.1643 57.0222 48.2192 57.1154C47.647 57.1642 47.0555 57.0533 46.5026 57.2441C46.3677 57.2826 46.2269 57.2737 46.0905 57.2856C46.0356 57.2397 45.9259 57.1509 45.8711 57.105C45.9111 57.0651 45.9897 56.9852 46.0297 56.9437Z" fill="#E8EBF1"/>
</g>
<g id="#f2f3f7ff">
<path id="Vector_40" d="M53.9776 56.0929C54.5735 56.1373 55.1324 55.7599 55.7268 56.013C55.5994 56.6034 55.4748 57.2294 55.0672 57.6999C54.658 58.1631 54.2548 58.6559 53.7108 58.9681C51.2663 60.3221 48.8486 61.7235 46.4145 63.0937C46.3745 63.0982 46.2959 63.1056 46.2559 63.11C45.8453 63.0242 45.4272 62.9931 45.0092 63.0079C44.3525 62.9798 43.7551 63.3468 43.0999 63.3246C42.6655 63.3202 42.2312 63.3157 41.7983 63.3364C41.865 63.4282 41.9332 63.5199 42.0014 63.6117C41.2988 63.659 40.568 63.5007 39.8979 63.77C39.1641 63.9846 38.4007 63.8899 37.6477 63.9372C37.7114 64.0275 37.7766 64.1178 37.8404 64.2095C37.1392 64.2554 36.3921 64.063 35.7354 64.3841C35.685 64.3619 35.5857 64.3161 35.5367 64.2924C35.519 64.5499 35.5012 64.8088 35.4789 65.0678C32.4845 65.1314 29.4856 65.0752 26.4897 65.0989C25.8805 65.1048 25.2653 65.0471 24.662 65.1684C24.4885 65.1965 24.3255 65.1018 24.1654 65.0559C22.8727 64.5706 21.5712 64.1133 20.2815 63.6235C19.3847 63.2846 18.4211 63.0109 17.711 62.3287C17.0173 61.6628 16.4392 60.7675 16.4229 59.779C19.6782 59.8101 22.935 59.7938 26.1903 59.7909C29.2959 59.7716 32.403 59.8412 35.5071 59.7627C35.5264 59.4993 35.5442 59.2374 35.556 58.9755C35.6212 58.9977 35.6865 59.0229 35.7517 59.0495C36.438 58.7387 37.2118 59.051 37.913 58.8083C37.6076 58.758 37.3023 58.7121 36.9999 58.6529C38.079 58.5182 39.2531 58.8053 40.2522 58.2948C40.7355 58.7476 41.3833 59.048 42.0563 58.9859C42.6759 58.9799 43.2036 58.6307 43.7314 58.351C44.4548 57.953 45.1322 57.475 45.8705 57.105C45.9253 57.1509 46.035 57.2397 46.0898 57.2856C46.2262 57.2737 46.3671 57.2826 46.502 57.2441C47.0549 57.0533 47.6464 57.1642 48.2186 57.1154C48.1637 57.0222 48.1103 56.9319 48.0585 56.8402C48.5995 56.815 49.1628 56.926 49.6832 56.7321C50.0211 56.5842 50.3977 56.7617 50.7386 56.6241C51.1522 56.4525 51.6325 56.6448 52.0298 56.4303C52.6212 56.0544 53.361 56.4095 53.9776 56.0929Z" fill="#F2F3F7"/>
</g>
<g id="#fcfcfdff">
<path id="Vector_41" d="M43.101 63.3245C43.7562 63.3467 44.3536 62.9797 45.0103 63.0079C45.4284 62.9931 45.8464 63.0241 46.257 63.11C43.6554 64.6697 40.9856 66.1139 38.3529 67.6233C37.4042 68.122 36.5044 68.7169 35.5364 69.1741C32.7806 68.2433 30.0738 67.1705 27.3329 66.1983C26.4494 65.8402 25.5273 65.5753 24.6631 65.1684C25.2664 65.047 25.8816 65.1047 26.4909 65.0988C29.4868 65.0751 32.4856 65.1314 35.4801 65.0677C35.5023 64.8088 35.5201 64.5498 35.5379 64.2923C35.5868 64.316 35.6861 64.3619 35.7365 64.3841C36.3932 64.0629 37.1403 64.2553 37.8415 64.2094C37.7778 64.1177 37.7125 64.0274 37.6488 63.9372C38.4018 63.8898 39.1653 63.9845 39.8991 63.77C40.5691 63.5006 41.2999 63.659 42.0026 63.6116C41.9344 63.5199 41.8662 63.4281 41.7995 63.3364C42.2323 63.3157 42.6667 63.3201 43.101 63.3245Z" fill="#FCFCFD"/>
</g>
</g>
</svg>
