<svg width="36" height="36" viewBox="0 0 36 36" fill="none" xmlns="http://www.w3.org/2000/svg">
<g id="#000000ff">
<path id="Vector" d="M2.24795 8.72608C5.25976 2.37926 13.334 -1.01604 19.9785 1.36067L20.2442 1.38748C24.5813 2.7724 27.9782 6.36725 29.5543 10.5816C30.8199 14.3849 30.5781 18.6826 28.6826 22.2417C28.1991 23.2752 27.5215 24.2104 26.7723 25.0682C29.4945 27.7934 32.2377 30.5007 34.948 33.2377C35.4436 33.6875 35.548 34.4112 35.1779 34.9711C35.0077 35.0784 34.6645 35.2928 34.4943 35.4C33.9779 35.269 33.4526 35.1141 33.0795 34.709C30.405 32.0613 27.7484 29.3897 25.0768 26.736C22.474 28.9549 19.092 30.3071 15.6504 30.2773C11.4416 30.3845 7.25669 28.5558 4.45681 25.4256C0.394295 21.0117 -0.653421 14.0245 2.24795 8.72608ZM6.52538 6.73954C5.31946 7.78791 4.54636 9.20559 3.83295 10.6114L3.83892 10.8884C1.46291 16.3655 3.90161 23.3259 9.11034 26.2089C11.964 27.9542 15.5578 28.3712 18.7756 27.5342C22.2322 26.6437 25.1395 24.0972 26.7365 20.9462C28.3662 17.6819 28.3812 13.7416 26.9573 10.4059C25.832 8.05 24.1127 5.89667 21.7725 4.66066C17.0413 1.7687 10.2625 2.58477 6.52538 6.73954Z" fill="#0B0B0B"/>
<path id="Vector_2" d="M8.50446 8.66951C10.4387 6.76338 13.164 5.70012 15.8833 5.74479C16.722 6.13495 16.8683 7.31437 16.1579 7.90706C15.2087 8.19596 14.1908 8.12448 13.2446 8.42827C10.5312 9.23242 8.4179 11.7759 8.18209 14.6023C8.09851 15.2933 8.15821 16.2047 7.42689 16.58C6.95527 16.9463 6.39112 16.5412 5.92547 16.3774C5.39713 13.5957 6.61797 10.7067 8.50446 8.66951Z" fill="#0B0B0B"/>
</g>
</svg>
