<svg width="24" height="24" viewBox="0 0 24 24" fill="none" xmlns="http://www.w3.org/2000/svg">
<path opacity="0.4" d="M12 3.6665C9.81666 3.6665 8.04166 5.4415 8.04166 7.62484C8.04166 9.7665 9.71666 11.4998 11.9 11.5748C11.9667 11.5665 12.0333 11.5665 12.0833 11.5748C12.1 11.5748 12.1083 11.5748 12.125 11.5748C12.1333 11.5748 12.1333 11.5748 12.1417 11.5748C14.275 11.4998 15.95 9.7665 15.9583 7.62484C15.9583 5.4415 14.1833 3.6665 12 3.6665Z" fill="#429FF5"/>
<path d="M16.2333 13.7919C13.9083 12.2419 10.1167 12.2419 7.775 13.7919C6.71666 14.5002 6.13333 15.4586 6.13333 16.4836C6.13333 17.5086 6.71666 18.4586 7.76666 19.1586C8.93333 19.9419 10.4667 20.3336 12 20.3336C13.5333 20.3336 15.0667 19.9419 16.2333 19.1586C17.2833 18.4502 17.8667 17.5002 17.8667 16.4669C17.8583 15.4419 17.2833 14.4919 16.2333 13.7919Z" fill="#429FF5"/>
</svg>
