<svg width="24" height="24" viewBox="0 0 24 24" fill="none" xmlns="http://www.w3.org/2000/svg">
<path d="M15.9583 5.4665V4.1665C15.9583 3.82484 15.675 3.5415 15.3333 3.5415C14.9917 3.5415 14.7083 3.82484 14.7083 4.1665V5.4165H9.29165V4.1665C9.29165 3.82484 9.00832 3.5415 8.66665 3.5415C8.32499 3.5415 8.04165 3.82484 8.04165 4.1665V5.4665C5.79165 5.67484 4.69999 7.0165 4.53332 9.00817C4.51665 9.24984 4.71665 9.44983 4.94999 9.44983H19.05C19.2917 9.44983 19.4917 9.2415 19.4667 9.00817C19.3 7.0165 18.2083 5.67484 15.9583 5.4665Z" fill="#429FF5"/>
<path opacity="0.4" d="M18.6667 10.7002C19.125 10.7002 19.5 11.0752 19.5 11.5335V16.6669C19.5 19.1669 18.25 20.8335 15.3333 20.8335H8.66667C5.75 20.8335 4.5 19.1669 4.5 16.6669V11.5335C4.5 11.0752 4.875 10.7002 5.33333 10.7002H18.6667Z" fill="#429FF5"/>
<path d="M9.08333 15.0002C8.86667 15.0002 8.65 14.9085 8.49167 14.7585C8.34167 14.6002 8.25 14.3836 8.25 14.1669C8.25 13.9502 8.34167 13.7336 8.49167 13.5752C8.725 13.3419 9.09167 13.2669 9.4 13.4002C9.50833 13.4419 9.6 13.5002 9.675 13.5752C9.825 13.7336 9.91667 13.9502 9.91667 14.1669C9.91667 14.3836 9.825 14.6002 9.675 14.7585C9.51667 14.9085 9.3 15.0002 9.08333 15.0002Z" fill="#429FF5"/>
<path d="M12 15.0002C11.7833 15.0002 11.5667 14.9085 11.4083 14.7585C11.2583 14.6002 11.1667 14.3836 11.1667 14.1669C11.1667 13.9502 11.2583 13.7336 11.4083 13.5752C11.4833 13.5002 11.575 13.4419 11.6833 13.4002C11.9917 13.2669 12.3583 13.3419 12.5917 13.5752C12.7417 13.7336 12.8333 13.9502 12.8333 14.1669C12.8333 14.3836 12.7417 14.6002 12.5917 14.7585C12.55 14.7919 12.5083 14.8252 12.4667 14.8585C12.4167 14.8919 12.3667 14.9169 12.3167 14.9336C12.2667 14.9586 12.2167 14.9752 12.1667 14.9836C12.1083 14.9919 12.0583 15.0002 12 15.0002Z" fill="#429FF5"/>
<path d="M14.9167 15.0002C14.7 15.0002 14.4833 14.9085 14.325 14.7585C14.175 14.6002 14.0833 14.3835 14.0833 14.1668C14.0833 13.9502 14.175 13.7335 14.325 13.5752C14.4083 13.5002 14.4917 13.4418 14.6 13.4002C14.75 13.3335 14.9167 13.3168 15.0833 13.3502C15.1333 13.3585 15.1833 13.3752 15.2333 13.4002C15.2833 13.4168 15.3333 13.4419 15.3833 13.4752C15.425 13.5085 15.4667 13.5418 15.5083 13.5752C15.6583 13.7335 15.75 13.9502 15.75 14.1668C15.75 14.3835 15.6583 14.6002 15.5083 14.7585C15.4667 14.7918 15.425 14.8252 15.3833 14.8585C15.3333 14.8918 15.2833 14.9169 15.2333 14.9335C15.1833 14.9585 15.1333 14.9752 15.0833 14.9835C15.025 14.9918 14.9667 15.0002 14.9167 15.0002Z" fill="#429FF5"/>
<path d="M9.08333 17.9167C8.975 17.9167 8.86667 17.8917 8.76667 17.85C8.65833 17.8084 8.575 17.75 8.49167 17.675C8.34167 17.5167 8.25 17.3 8.25 17.0833C8.25 16.8667 8.34167 16.65 8.49167 16.4917C8.575 16.4167 8.65833 16.3583 8.76667 16.3167C8.91667 16.25 9.08333 16.2333 9.25 16.2667C9.3 16.275 9.35 16.2917 9.4 16.3167C9.45 16.3333 9.5 16.3584 9.55 16.3917C9.59167 16.425 9.63333 16.4584 9.675 16.4917C9.825 16.65 9.91667 16.8667 9.91667 17.0833C9.91667 17.3 9.825 17.5167 9.675 17.675C9.63333 17.7083 9.59167 17.75 9.55 17.775C9.5 17.8083 9.45 17.8334 9.4 17.85C9.35 17.875 9.3 17.8917 9.25 17.9C9.19167 17.9084 9.14167 17.9167 9.08333 17.9167Z" fill="#429FF5"/>
<path d="M12 17.9165C11.7833 17.9165 11.5667 17.8248 11.4083 17.6748C11.2583 17.5165 11.1667 17.2998 11.1667 17.0832C11.1667 16.8665 11.2583 16.6498 11.4083 16.4915C11.7167 16.1832 12.2833 16.1832 12.5917 16.4915C12.7417 16.6498 12.8333 16.8665 12.8333 17.0832C12.8333 17.2998 12.7417 17.5165 12.5917 17.6748C12.4333 17.8248 12.2167 17.9165 12 17.9165Z" fill="#429FF5"/>
<path d="M14.9167 17.9165C14.7 17.9165 14.4833 17.8248 14.325 17.6748C14.175 17.5165 14.0833 17.2998 14.0833 17.0832C14.0833 16.8665 14.175 16.6498 14.325 16.4915C14.6333 16.1832 15.2 16.1832 15.5083 16.4915C15.6583 16.6498 15.75 16.8665 15.75 17.0832C15.75 17.2998 15.6583 17.5165 15.5083 17.6748C15.35 17.8248 15.1333 17.9165 14.9167 17.9165Z" fill="#429FF5"/>
</svg>
