<svg width="24" height="26" viewBox="0 0 24 26" fill="none" xmlns="http://www.w3.org/2000/svg">
<path d="M7.49565 1.20808C10.2374 -0.0769621 13.4907 -0.403106 16.3792 0.551891C16.3869 0.680787 16.4043 0.936624 16.4139 1.06357C15.8424 1.03232 15.2728 0.977636 14.711 0.879988C11.8013 0.411278 8.71204 1.03037 6.24837 2.67866C3.3271 4.56717 1.27276 7.78174 0.807439 11.258C0.558369 13.0137 0.695454 14.8222 1.18973 16.5251C1.48128 17.5915 2.10685 18.5308 2.35592 19.6128C2.2227 19.605 1.95625 19.5913 1.8211 19.5835C0.985071 18.3805 0.550646 16.945 0.253306 15.5194C-0.293104 12.8946 0.0640899 10.1077 1.13567 7.66457C2.40226 4.84059 4.68251 2.46384 7.49565 1.20808Z" fill="#DB2929"/>
<path d="M10.3824 1.99806C11.2725 1.76566 12.1915 1.6895 13.1086 1.76371C13.099 1.94924 13.0893 2.13672 13.0797 2.32421C12.1626 2.4824 11.2358 2.582 10.3032 2.58786C10.3303 2.39256 10.3554 2.19531 10.3824 1.99806Z" fill="#DB2929"/>
<path d="M1.65829 13.1066C1.64092 8.85496 4.12776 4.66391 7.96808 2.86328C8.05689 3.04295 8.14378 3.22263 8.23259 3.4023C7.38884 4.01748 6.46014 4.5233 5.7052 5.25566C3.96943 6.91958 2.72988 9.1772 2.49818 11.6067C2.44605 12.2219 2.34565 12.8312 2.1796 13.4249C2.00583 13.3175 1.83206 13.212 1.65829 13.1066Z" fill="#DB2929"/>
<path d="M20.1138 5.21286C20.22 5.13865 20.4304 4.99023 20.5366 4.91602C22.7338 6.80062 23.844 9.74178 23.9966 12.6048C24.0699 15.4249 23.1277 18.2977 21.2626 20.4166C21.0714 20.6627 20.7567 20.7272 20.4806 20.8248C20.4517 20.1354 21.0039 19.6609 21.3533 19.1336C23.9773 15.6299 23.9637 10.3823 21.363 6.86897C20.9401 6.32215 20.4999 5.78899 20.1138 5.21286Z" fill="#DB2929"/>
<path d="M22.6451 20.2516C22.954 19.8297 23.2185 19.3571 23.6259 19.0193C24.1279 18.8826 23.9097 19.5934 23.7688 19.8278C22.3825 22.1557 20.2162 24.0052 17.7216 25.0168C14.0512 26.5635 9.58916 26.3097 6.23926 24.0852C6.3049 23.9134 6.37248 23.7435 6.43813 23.5736C7.39966 23.931 8.28974 24.4661 9.27637 24.759C12.2633 25.6847 15.6093 25.3976 18.3916 23.9544C20.052 23.058 21.5716 21.8315 22.6451 20.2516Z" fill="#DB2929"/>
<path d="M17.395 22.9921C17.6209 22.1953 18.4531 21.916 19.1289 21.6191C19.1926 21.791 19.2582 21.9629 19.3219 22.1347C18.7871 22.6171 18.15 23.0546 17.395 22.9921Z" fill="#DB2929"/>
<path d="M12.5081 23.7003C13.292 23.5753 14.0798 23.4093 14.8772 23.4522C15.1359 23.4249 15.2054 23.7296 15.3271 23.8936C14.4389 24.3037 13.4465 24.3311 12.4927 24.2178C12.4985 24.044 12.5043 23.8721 12.5081 23.7003Z" fill="#DB2929"/>
<ellipse cx="11.9999" cy="13.3258" rx="8.75676" ry="8.775" fill="#DB2929"/>
<path d="M12.7376 13.3762L14.2295 11.8812C14.4176 11.6927 14.4176 11.3807 14.2295 11.1922C14.0414 11.0037 13.73 11.0037 13.5419 11.1922L12.05 12.6872L10.5581 11.1922C10.37 11.0037 10.0587 11.0037 9.87057 11.1922C9.68247 11.3807 9.68247 11.6927 9.87057 11.8812L11.3625 13.3762L9.87057 14.8712C9.68247 15.0597 9.68247 15.3717 9.87057 15.5602C9.96787 15.6577 10.0911 15.7032 10.2144 15.7032C10.3376 15.7032 10.4608 15.6577 10.5581 15.5602L12.05 14.0652L13.5419 15.5602C13.6392 15.6577 13.7625 15.7032 13.8857 15.7032C14.009 15.7032 14.1322 15.6577 14.2295 15.5602C14.4176 15.3717 14.4176 15.0597 14.2295 14.8712L12.7376 13.3762Z" fill="#FDF2F2"/>
</svg>
