<svg width="24" height="24" viewBox="0 0 24 24" fill="none" xmlns="http://www.w3.org/2000/svg">
<path opacity="0.4" d="M19.0833 10.4915H16.675C14.7 10.4915 13.0917 8.88317 13.0917 6.90817V4.49984C13.0917 4.0415 12.7167 3.6665 12.2583 3.6665H8.72501C6.15834 3.6665 4.08334 5.33317 4.08334 8.30817V15.6915C4.08334 18.6665 6.15834 20.3332 8.72501 20.3332H15.275C17.8417 20.3332 19.9167 18.6665 19.9167 15.6915V11.3248C19.9167 10.8665 19.5417 10.4915 19.0833 10.4915Z" fill="#429FF5"/>
<path d="M15.1667 3.84158C14.825 3.49991 14.2333 3.73325 14.2333 4.20825V7.11658C14.2333 8.33325 15.2667 9.34158 16.525 9.34158C17.3167 9.34991 18.4167 9.34991 19.3583 9.34991C19.8333 9.34991 20.0833 8.79158 19.75 8.45825C18.55 7.24991 16.4 5.07491 15.1667 3.84158Z" fill="#429FF5"/>
<path d="M12.2333 14.2667C11.9917 14.025 11.5917 14.025 11.35 14.2667L10.75 14.8667V11.375C10.75 11.0333 10.4667 10.75 10.125 10.75C9.78334 10.75 9.5 11.0333 9.5 11.375V14.8667L8.9 14.2667C8.65834 14.025 8.25834 14.025 8.01667 14.2667C7.775 14.5083 7.775 14.9083 8.01667 15.15L9.68334 16.8167C9.69167 16.825 9.7 16.825 9.7 16.8333C9.75 16.8833 9.81667 16.925 9.88334 16.9583C9.96667 16.9833 10.0417 17 10.125 17C10.2083 17 10.2833 16.9833 10.3583 16.95C10.4333 16.9167 10.5 16.875 10.5667 16.8167L12.2333 15.15C12.475 14.9083 12.475 14.5083 12.2333 14.2667Z" fill="#429FF5"/>
</svg>
