<svg width="25" height="24" viewBox="0 0 25 24" fill="none" xmlns="http://www.w3.org/2000/svg">
<path opacity="0.4" d="M12.5 22C18.0228 22 22.5 17.5228 22.5 12C22.5 6.47715 18.0228 2 12.5 2C6.97715 2 2.5 6.47715 2.5 12C2.5 17.5228 6.97715 22 12.5 22Z" fill="#429FF5"/>
<path d="M12.5 13.75C12.91 13.75 13.25 13.41 13.25 13V8C13.25 7.59 12.91 7.25 12.5 7.25C12.09 7.25 11.75 7.59 11.75 8V13C11.75 13.41 12.09 13.75 12.5 13.75Z" fill="#429FF5"/>
<path d="M13.42 15.6199C13.37 15.4999 13.3 15.3899 13.21 15.2899C13.11 15.1999 13 15.1299 12.88 15.0799C12.64 14.9799 12.36 14.9799 12.12 15.0799C12 15.1299 11.89 15.1999 11.79 15.2899C11.7 15.3899 11.63 15.4999 11.58 15.6199C11.53 15.7399 11.5 15.8699 11.5 15.9999C11.5 16.1299 11.53 16.2599 11.58 16.3799C11.63 16.5099 11.7 16.6099 11.79 16.7099C11.89 16.7999 12 16.8699 12.12 16.9199C12.24 16.9699 12.37 16.9999 12.5 16.9999C12.63 16.9999 12.76 16.9699 12.88 16.9199C13 16.8699 13.11 16.7999 13.21 16.7099C13.3 16.6099 13.37 16.5099 13.42 16.3799C13.47 16.2599 13.5 16.1299 13.5 15.9999C13.5 15.8699 13.47 15.7399 13.42 15.6199Z" fill="#429FF5"/>
</svg>
