<svg width="24" height="24" viewBox="0 0 24 24" fill="none" xmlns="http://www.w3.org/2000/svg">
<circle opacity="0.1" cx="12" cy="12" r="12" fill="#429FF5"/>
<path opacity="0.4" d="M17.7466 9.63317C17.0466 6.55317 14.3599 5.1665 11.9999 5.1665C11.9999 5.1665 11.9999 5.1665 11.9933 5.1665C9.63994 5.1665 6.94661 6.5465 6.24661 9.6265C5.46661 13.0665 7.57328 15.9798 9.47994 17.8132C10.1866 18.4932 11.0933 18.8332 11.9999 18.8332C12.9066 18.8332 13.8133 18.4932 14.5133 17.8132C16.4199 15.9798 18.5266 13.0732 17.7466 9.63317Z" fill="#429FF5"/>
<path d="M12 12.9734C13.1598 12.9734 14.1 12.0332 14.1 10.8734C14.1 9.71364 13.1598 8.77344 12 8.77344C10.8402 8.77344 9.90002 9.71364 9.90002 10.8734C9.90002 12.0332 10.8402 12.9734 12 12.9734Z" fill="#429FF5"/>
</svg>
