<svg width="16" height="16" viewBox="0 0 16 16" fill="none" xmlns="http://www.w3.org/2000/svg">
<g id="vuesax/bulk/location">
<g id="location">
<path id="Vector" opacity="0.4" d="M13.7466 5.63317C13.0466 2.55317 10.3599 1.1665 7.99994 1.1665C7.99994 1.1665 7.99994 1.1665 7.99327 1.1665C5.63994 1.1665 2.94661 2.5465 2.24661 5.6265C1.46661 9.0665 3.57328 11.9798 5.47994 13.8132C6.18661 14.4932 7.09328 14.8332 7.99994 14.8332C8.90661 14.8332 9.81328 14.4932 10.5133 13.8132C12.4199 11.9798 14.5266 9.07317 13.7466 5.63317Z" fill="#429FF5"/>
<path id="Vector_2" d="M8.00002 8.97344C9.15982 8.97344 10.1 8.03324 10.1 6.87344C10.1 5.71364 9.15982 4.77344 8.00002 4.77344C6.84023 4.77344 5.90002 5.71364 5.90002 6.87344C5.90002 8.03324 6.84023 8.97344 8.00002 8.97344Z" fill="#429FF5"/>
</g>
</g>
</svg>
