<svg width="24" height="24" viewBox="0 0 24 24" fill="none" xmlns="http://www.w3.org/2000/svg">
<path d="M3.1192 1.0143C7.68763 0.986177 12.2576 1.00961 16.8261 1.0018C18.0619 0.967428 19.1587 2.05954 19.1196 3.29539C19.1306 7.46854 19.129 11.6417 19.1196 15.8148C19.14 17.0366 18.0369 18.1006 16.8214 18.0709C12.2811 18.0662 7.73919 18.0803 3.19888 18.0631C1.95365 18.0694 0.950598 16.8866 1.00997 15.6727C0.99747 11.5401 0.995907 7.40761 1.00997 3.27664C1.00528 2.13297 1.96459 1.05961 3.1192 1.0143ZM3.44417 2.7673C3.04576 3.06728 2.66767 3.48132 2.6911 4.01409C2.67235 6.99982 2.68173 9.98711 2.68641 12.9728C3.83165 11.3323 4.86595 9.61839 5.98775 7.96225C6.25648 7.55291 6.7955 7.47791 7.23141 7.62634C7.49546 7.93569 7.74544 8.25755 7.95324 8.60752C9.0766 10.4433 10.3499 12.1807 11.4671 14.0196C12.0967 12.9244 12.8607 11.912 13.5357 10.8449C13.7653 10.5293 13.9622 10.0777 14.409 10.0559C14.7637 9.95743 15.1137 10.1355 15.3059 10.4355C16.0511 11.4761 16.662 12.6119 17.4291 13.64C17.4713 10.5621 17.4307 7.48416 17.4495 4.40625C17.4495 3.97347 17.4416 3.47507 17.1323 3.13759C16.7917 2.84855 16.3573 2.62825 15.9011 2.64231C12.0936 2.64075 8.28603 2.64387 4.47848 2.63919C4.1285 2.63294 3.78634 2.71262 3.44417 2.7673Z" fill="#7E7E7E"/>
<path d="M19.7899 5.32019C21.0555 5.42175 22.2241 6.63416 21.9632 7.94345C21.1976 11.865 20.3336 15.7679 19.5368 19.6833C19.4212 20.2567 19.304 20.8582 18.9384 21.3331C18.3978 22.0222 17.426 22.3065 16.587 22.0971C12.1748 21.1832 7.76575 20.2613 3.35512 19.338C2.8036 19.2395 2.39581 18.8271 1.98178 18.4818C2.44269 18.599 2.90047 18.7489 3.38325 18.7349C7.91262 18.7318 12.442 18.7411 16.9714 18.7302C18.0885 18.7083 19.0743 17.9709 19.5493 16.9819C19.8743 16.1054 19.779 15.1617 19.7899 14.2477C19.7899 11.2713 19.7899 8.29655 19.7899 5.32019Z" fill="#7E7E7E"/>
<path d="M10.8953 5.91558C11.5624 5.47498 12.567 5.97807 12.6139 6.77489C12.7654 7.61546 11.7874 8.35291 11.0203 7.97637C10.1641 7.6717 10.0859 6.32336 10.8953 5.91558Z" fill="#7E7E7E"/>
</svg>
