<svg width="16" height="16" viewBox="0 0 16 16" fill="none" xmlns="http://www.w3.org/2000/svg">
<path d="M14 14.6667H2C1.72667 14.6667 1.5 14.4401 1.5 14.1667C1.5 13.8934 1.72667 13.6667 2 13.6667H14C14.2733 13.6667 14.5 13.8934 14.5 14.1667C14.5 14.4401 14.2733 14.6667 14 14.6667Z" fill="#429FF5"/>
<path d="M12.68 2.31994C11.3867 1.02661 10.12 0.993275 8.79334 2.31994L7.98668 3.12661C7.92001 3.19328 7.89334 3.29994 7.92001 3.39328C8.42668 5.15994 9.84001 6.57328 11.6067 7.07994C11.6333 7.08661 11.66 7.09328 11.6867 7.09328C11.76 7.09328 11.8267 7.06661 11.88 7.01328L12.68 6.20661C13.34 5.55328 13.66 4.91994 13.66 4.27994C13.6667 3.61994 13.3467 2.97994 12.68 2.31994Z" fill="#429FF5"/>
<path d="M10.4067 7.68678C10.2133 7.59345 10.0267 7.50011 9.84668 7.39345C9.70001 7.30678 9.56001 7.21345 9.42001 7.11345C9.30668 7.04011 9.17334 6.93345 9.04667 6.82678C9.03334 6.82011 8.98667 6.78011 8.93334 6.72678C8.71334 6.54011 8.46668 6.30011 8.24668 6.03345C8.22668 6.02011 8.19334 5.97345 8.14668 5.91345C8.08001 5.83345 7.96668 5.70011 7.86668 5.54678C7.78668 5.44678 7.69334 5.30011 7.60668 5.15345C7.50001 4.97345 7.40668 4.79345 7.31334 4.60678C7.19097 4.34455 6.8468 4.26666 6.64218 4.47127L2.89334 8.22011C2.80668 8.30678 2.72668 8.47345 2.70668 8.58678L2.34668 11.1401C2.28001 11.5934 2.40668 12.0201 2.68668 12.3068C2.92668 12.5401 3.26001 12.6668 3.62001 12.6668C3.70001 12.6668 3.78001 12.6601 3.86001 12.6468L6.42001 12.2868C6.54001 12.2668 6.70668 12.1868 6.78668 12.1001L10.5417 8.34509C10.7422 8.14456 10.6669 7.79954 10.4067 7.68678Z" fill="#429FF5"/>
</svg>
