<svg width="24" height="24" viewBox="0 0 24 24" fill="none" xmlns="http://www.w3.org/2000/svg">
<g clip-path="url(#clip0_3447_12274)">
<path d="M15 3C15.7652 2.99996 16.5015 3.29233 17.0583 3.81728C17.615 4.34224 17.9501 5.06011 17.995 5.824L18 6V20C18 20.1673 17.9581 20.3319 17.8781 20.4788C17.7981 20.6256 17.6825 20.7501 17.5419 20.8407C17.4013 20.9314 17.2402 20.9853 17.0734 20.9976C16.9066 21.0098 16.7393 20.9801 16.587 20.911L16.486 20.857L11.999 18.166L7.514 20.857C7.37059 20.9431 7.20788 20.9918 7.04077 20.9987C6.87366 21.0056 6.70749 20.9705 6.55746 20.8966C6.40743 20.8227 6.27833 20.7123 6.18199 20.5756C6.08565 20.4389 6.02514 20.2802 6.006 20.114L6 20V6C5.99996 5.23479 6.29233 4.49849 6.81728 3.94174C7.34224 3.38499 8.06011 3.04989 8.824 3.005L9 3H15Z" stroke="#0B0B0B" stroke-width="1.3" stroke-linecap="round" stroke-linejoin="round"/>
</g>
<defs>
<clipPath id="clip0_3447_12274">
<rect width="24" height="24" fill="white"/>
</clipPath>
</defs>
</svg>
