<svg width="20" height="20" viewBox="0 0 20 20" fill="none" xmlns="http://www.w3.org/2000/svg">
<g id="Save Icon">
<path id="Vector" d="M12.5 2.5C13.1377 2.49996 13.7513 2.7436 14.2152 3.18107C14.6792 3.61854 14.9584 4.21676 14.9958 4.85333L15 5V16.6667C15 16.8061 14.9651 16.9432 14.8984 17.0656C14.8317 17.188 14.7354 17.2917 14.6182 17.3673C14.5011 17.4428 14.3668 17.4877 14.2278 17.498C14.0888 17.5082 13.9494 17.4834 13.8225 17.4258L13.7383 17.3808L9.99917 15.1383L6.26167 17.3808C6.14216 17.4526 6.00657 17.4932 5.86731 17.4989C5.72805 17.5047 5.58957 17.4754 5.46455 17.4138C5.33952 17.3522 5.23194 17.2602 5.15166 17.1463C5.07138 17.0324 5.02095 16.9001 5.005 16.7617L5 16.6667V5C4.99996 4.36232 5.2436 3.74874 5.68107 3.28478C6.11854 2.82083 6.71676 2.54158 7.35333 2.50417L7.5 2.5H12.5Z" fill="#09D374"/>
</g>
</svg>
