<svg width="25" height="24" viewBox="0 0 25 24" fill="none" xmlns="http://www.w3.org/2000/svg">
<path d="M4.8106 7.57919L4.80947 7.59108L4.8089 7.60301L4.80066 7.77636L4.8001 7.78822V7.8001V17.4001C4.8001 18.5959 5.71231 19.5781 6.87918 19.6896L6.89107 19.6907L6.90301 19.6913L7.07636 19.6995L7.08822 19.7001H7.1001H16.7001C17.8959 19.7001 18.8781 18.7878 18.9896 17.621L18.9907 17.6091L18.9913 17.5972L18.9995 17.4238L19.0001 17.412V17.4001V16.2001C19.0001 16.1449 19.0449 16.1001 19.1001 16.1001C19.1441 16.1001 19.1823 16.129 19.1953 16.169L19.2001 16.2225V17.4001C19.2001 18.7228 18.1726 19.8059 16.8727 19.8943L16.692 19.9001H7.1001C5.77744 19.9001 4.69434 18.8726 4.60594 17.5727L4.6001 17.392V7.8001C4.6001 6.47744 5.62754 5.39434 6.9275 5.30594L7.10818 5.3001H10.7001C10.7553 5.3001 10.8001 5.34487 10.8001 5.4001C10.8001 5.44416 10.7712 5.48233 10.7312 5.49531L10.6777 5.5001H7.1001C5.90427 5.5001 4.92211 6.41232 4.8106 7.57919ZM10.2975 9.56401C11.3844 8.34393 12.8816 7.60689 14.817 7.39464L15.1239 7.36574L15.3868 7.34806L15.8532 7.31668V6.84918V4.29348C15.8532 4.13906 15.9953 4.07308 16.0886 4.11139L16.1236 4.13353L16.1572 4.1624L21.5417 9.45605L21.5417 9.45607C21.5994 9.51276 21.6165 9.60423 21.5836 9.68058L21.5586 9.72034L21.5283 9.75498L16.1453 15.0488C16.0933 15.0999 16.0392 15.1078 15.9866 15.0927C15.9308 15.0766 15.8857 15.0359 15.8657 14.982L15.8562 14.937L15.8532 14.8899V12.3914V11.8444L15.3084 11.8934L14.9991 11.9213L14.9991 11.9212L14.9908 11.9221C14.6759 11.9558 14.3628 12.0048 14.0517 12.0693L14.0516 12.0694C12.108 12.4727 10.2557 13.4749 8.48622 15.0548L8.48617 15.0549C8.4494 15.0877 8.41769 15.0973 8.39268 15.0996C8.36442 15.1021 8.33097 15.096 8.29793 15.078C8.23396 15.0431 8.19036 14.9769 8.20209 14.8807C8.48572 12.5546 9.20323 10.7924 10.2975 9.56401ZM16.9037 5.1768L16.0532 4.34063V5.53335V7.50367L15.1381 7.56523L15.1381 7.56519L15.1317 7.5657C13.1408 7.72517 11.6236 8.42612 10.5293 9.60637C9.65294 10.5515 9.0085 11.8471 8.63616 13.5179L8.34206 14.8377L9.42404 14.0268C11.0651 12.797 12.781 12.0381 14.5772 11.7731L14.9803 11.7221L16.0532 11.6257V13.6659V14.8589L16.9038 14.0224L21.0392 9.95545L21.4018 9.5989L21.0392 9.24241L16.9037 5.1768Z" fill="#FCFDFF" stroke="#FBFFFD"/>
</svg>
