<svg width="36" height="36" viewBox="0 0 36 36" fill="none" xmlns="http://www.w3.org/2000/svg">
<path d="M25.5 4.5H10.5C6 4.5 3 6.75 3 12V22.5C3 27.75 6 30 10.5 30H15.855C16.74 30 17.46 29.22 17.34 28.335C17.19 27.27 17.22 26.16 17.445 25.02C18.24 21.12 21.45 18.015 25.38 17.37C27.345 17.055 29.22 17.325 30.87 18.045C31.875 18.48 33 17.79 33 16.695V12C33 6.75 30 4.5 25.5 4.5ZM26.205 12.885L21.51 16.635C20.52 17.43 19.26 17.82 18 17.82C16.74 17.82 15.465 17.43 14.49 16.635L9.795 12.885C9.315 12.495 9.24 11.79 9.615 11.295C10.005 10.815 10.71 10.725 11.19 11.115L15.885 14.865C17.025 15.78 18.96 15.78 20.1 14.865L24.795 11.115C25.275 10.725 25.995 10.8 26.37 11.295C26.76 11.79 26.685 12.495 26.205 12.885Z" fill="#429FF5"/>
<circle cx="26.25" cy="26.25" r="6.75" fill="#A6D1F8"/>
<path d="M30.2602 29.7373H22.1834C21.901 29.7373 21.6684 29.9422 21.6186 30.208H30.825C30.7751 29.9422 30.5407 29.7373 30.2602 29.7373ZM30.2602 28.198H22.1852C21.8696 28.198 21.6094 28.4546 21.6094 28.772C21.6094 29.0914 21.8678 29.3479 22.1852 29.3479H30.2602C30.5758 29.3479 30.836 29.0914 30.836 28.772C30.8352 28.6198 30.7742 28.474 30.6663 28.3665C30.5584 28.259 30.4125 28.1984 30.2602 28.198ZM27.7371 22.5576C27.1465 22.3065 26.6481 22.0961 26.3288 21.8525C26.3288 21.8525 26.25 22.3598 26.25 21.7969L26.3288 21.8525C26.2273 21.8525 26.25 21.7969 26.25 21.7969C26.25 22.1919 26.25 21.375 26.25 21.375C26.25 21.9379 26.25 21.7969 26.25 21.7969C25.9307 22.0405 25.2971 22.3065 24.7065 22.5576C23.3259 23.1427 21.6094 23.868 21.6094 25.3501C21.6094 26.7584 22.6245 27.6332 22.8534 27.8123H29.5902C29.8191 27.6332 30.8342 26.7584 30.8342 25.3501C30.8342 23.868 29.1177 23.1427 27.7371 22.5576ZM27.2775 23.2017C27.2462 23.2755 27.176 23.3198 27.1003 23.3198C27.0745 23.3198 27.0505 23.3143 27.0247 23.3051C26.6629 23.1519 26.3805 23.0135 26.1277 22.8732C26.0354 22.8215 26.0021 22.7034 26.0538 22.6111C26.1055 22.5188 26.2236 22.4856 26.3159 22.5373C26.5559 22.6702 26.8272 22.8012 27.1742 22.9507C27.2738 22.9895 27.32 23.1039 27.2775 23.2017ZM29.4388 27.1774C29.4001 27.2143 29.3521 27.2327 29.3041 27.2327C29.2543 27.2327 29.2044 27.2143 29.1657 27.1737C29.0919 27.098 29.0919 26.9762 29.1694 26.9024C29.7009 26.3856 30.0867 25.5716 29.7526 24.9219C29.4573 24.3479 28.7172 24.0304 28.1247 23.7757L28.1026 23.7665C28.0047 23.7259 27.9604 23.6115 28.0029 23.5136C28.0453 23.4158 28.1579 23.3715 28.2558 23.414L28.2779 23.4214C28.9276 23.7019 29.7379 24.0489 30.0959 24.7466C30.5186 25.5698 30.0701 26.5627 29.4388 27.1774Z" fill="#429FF5"/>
</svg>
