<svg width="22" height="18" viewBox="0 0 22 18" fill="none" xmlns="http://www.w3.org/2000/svg">
<g id="elements">
<path id="Vector" d="M5 14V17M17 14V17" stroke="#0B0B0B" stroke-linecap="round" stroke-linejoin="round"/>
<path id="Vector 6007" d="M11 1L11 11" stroke="#0B0B0B" stroke-linecap="round" stroke-linejoin="round"/>
<path id="Vector 6006" d="M19 6C19 4.13077 19 3.19615 18.5981 2.5C18.3348 2.04394 17.9561 1.66523 17.5 1.40192C16.8038 1 15.8692 1 14 1H8C6.13077 1 5.19615 1 4.5 1.40192C4.04394 1.66523 3.66523 2.04394 3.40192 2.5C3 3.19615 3 4.13077 3 6" stroke="#0B0B0B" stroke-linecap="round" stroke-linejoin="round"/>
<path id="Vector_2" d="M19 6C17.8954 6 17 6.89543 17 8V10C17 10.8273 16.8273 11 16 11H6C5.17267 11 5 10.8273 5 10V8C5 6.89543 4.10457 6 3 6C1.89543 6 1 6.89543 1 8C1 8.74028 1.4022 9.38663 2 9.73244V10C2 11.8856 2 12.8284 2.58579 13.4142C3.17157 14 4.11438 14 6 14H16C17.8856 14 18.8284 14 19.4142 13.4142C20 12.8284 20 11.8856 20 10V9.73244C20.5978 9.38663 21 8.74028 21 8C21 6.89543 20.1046 6 19 6Z" stroke="#0B0B0B" stroke-linejoin="round"/>
</g>
</svg>
