<svg width="17" height="13" viewBox="0 0 17 13" fill="none" xmlns="http://www.w3.org/2000/svg">
<path d="M9.40917 0.113712C10.4761 -0.323323 11.4364 0.57829 11.8588 1.47623C11.9267 1.58641 12.0626 1.80676 12.1305 1.91694C11.9506 2.12444 11.767 2.3301 11.5815 2.53393C11.4493 1.82512 11.038 1.13652 10.4136 0.763755C9.94353 0.468114 9.34674 0.776608 9.08599 1.20813C8.09256 2.70837 7.82079 4.56852 7.90342 6.33319C7.8263 8.07949 8.02829 9.90659 8.90236 11.4509C9.18515 11.8384 9.56893 12.3635 10.1198 12.246C10.9865 12.0661 11.3611 11.124 11.6072 10.373C11.778 10.5328 11.9487 10.6944 12.1195 10.8541C11.8074 11.4821 11.5135 12.1781 10.9039 12.5802C10.4687 12.9603 9.80765 12.9897 9.31552 12.7069C7.86486 11.6511 6.33892 10.7035 4.85887 9.69174C3.81036 9.66787 2.76001 9.72296 1.71333 9.66787C0.692357 9.45486 0.205743 8.34024 0.0716945 7.4019C-0.0935706 6.12753 -0.0311374 4.65299 0.888838 3.65957C1.12205 3.37678 1.49665 3.27211 1.84921 3.26844C2.80959 3.24824 3.76996 3.2666 4.7285 3.26477C6.29484 2.22543 7.89608 1.22466 9.40917 0.113712ZM5.23898 3.72567C4.92314 3.92766 4.521 4.04335 4.33737 4.39959C3.81954 5.31405 3.76262 6.43602 3.95175 7.45148C4.13722 8.03909 4.27494 8.84522 4.97089 9.02885C5.99553 9.59809 6.89347 10.3895 7.94566 10.9202C7.40212 9.65869 7.23502 8.27964 7.17259 6.9208C7.13035 5.25346 7.31765 3.55857 7.91812 1.9959C6.98712 2.51189 6.14611 3.17112 5.23898 3.72567ZM1.32404 4.137C0.655631 4.89722 0.613397 5.9898 0.659304 6.95018C0.747445 7.67918 0.892511 8.55325 1.59213 8.95356C2.36704 9.06925 3.15848 8.95907 3.94073 9.00681C2.95098 7.52677 2.96567 5.39852 3.90585 3.89461C3.28151 3.91481 2.65534 3.89277 2.031 3.90379C1.77943 3.90563 1.48747 3.91481 1.32404 4.137Z" fill="#FCFDFF"/>
<path d="M14.1768 1.39897C14.3512 1.20616 14.5514 1.04089 14.7478 0.870117C15.251 1.53852 15.8588 2.14817 16.1581 2.94511C17.7171 5.86296 17.034 9.68242 14.757 12.042C14.5734 11.8584 14.3898 11.6748 14.2043 11.493C14.825 10.6593 15.5117 9.82932 15.7982 8.81019C16.4501 6.90964 16.3068 4.68223 15.2602 2.95062C15.0068 2.36118 14.4889 1.94801 14.1768 1.39897Z" fill="#FCFDFF"/>
<path d="M12.5547 3.01487C12.7383 2.83124 12.9219 2.64945 13.1074 2.46582C15.1953 4.56285 15.2559 8.27581 13.1607 10.3912C12.9734 10.2076 12.7861 10.0221 12.6006 9.83665C13.7868 8.54941 14.2312 6.63968 13.6638 4.97601C13.4949 4.2213 12.977 3.63553 12.5547 3.01487Z" fill="#FCFDFF"/>
<path d="M10.9082 4.65705C11.0918 4.4771 11.2755 4.29714 11.4591 4.11719C12.0687 4.86088 12.4929 5.82676 12.3625 6.8055C12.3276 7.5143 11.9439 8.13497 11.5436 8.69687C11.3563 8.50589 11.1708 8.31309 10.989 8.11844C11.3985 7.54552 11.6684 6.83672 11.5564 6.1224C11.4958 5.57703 11.1763 5.11796 10.9082 4.65705Z" fill="#FCFDFF"/>
</svg>
