<svg width="25" height="26" viewBox="0 0 25 26" fill="none" xmlns="http://www.w3.org/2000/svg">
<path d="M7.99564 1.20804C10.7373 -0.0769591 13.9907 -0.40309 16.8791 0.551869C16.8868 0.680759 16.9042 0.936587 16.9139 1.06352C16.3424 1.03228 15.7728 0.977597 15.2109 0.879953C12.3013 0.411261 9.21202 1.03033 6.74836 2.67856C3.8271 4.56699 1.77275 7.78144 1.30744 11.2576C1.05837 13.0132 1.19545 14.8216 1.68973 16.5245C1.98128 17.5908 2.60685 18.5301 2.85592 19.612C2.72269 19.6042 2.45625 19.5905 2.32109 19.5827C1.48507 18.3797 1.05064 16.9444 0.753306 15.5188C0.206897 12.8941 0.56409 10.1073 1.63567 7.66426C2.90226 4.8404 5.1825 2.46374 7.99564 1.20804Z" fill="#22B945"/>
<path d="M10.8824 1.99805C11.7725 1.76566 12.6915 1.6895 13.6086 1.76371C13.599 1.94923 13.5893 2.13671 13.5797 2.32418C12.6626 2.48237 11.7358 2.58196 10.8032 2.58782C10.8303 2.39254 10.8554 2.19529 10.8824 1.99805Z" fill="#22B945"/>
<path d="M2.15878 13.1071C2.1414 8.8557 4.62824 4.66481 8.46855 2.86426C8.55736 3.04392 8.64425 3.22359 8.73306 3.40325C7.88932 4.01841 6.96062 4.52421 6.20568 5.25654C4.46992 6.92039 3.23036 9.17792 2.99867 11.6073C2.94654 12.2225 2.84614 12.8318 2.68009 13.4254C2.50632 13.318 2.33255 13.2126 2.15878 13.1071Z" fill="#22B945"/>
<path d="M20.6133 5.21285C20.7195 5.13864 20.9299 4.99023 21.0361 4.91602C23.2333 6.80055 24.3435 9.74158 24.4961 12.6045C24.5694 15.4245 23.6272 18.2972 21.7621 20.416C21.5709 20.6621 21.2562 20.7265 20.9801 20.8242C20.9512 20.1348 21.5034 19.6603 21.8528 19.133C24.4768 15.6295 24.4632 10.3821 21.8625 6.8689C21.4397 6.32209 20.9994 5.78895 20.6133 5.21285Z" fill="#22B945"/>
<path d="M23.1446 20.2515C23.4535 19.8297 23.718 19.3571 24.1254 19.0193C24.6274 18.8826 24.4092 19.5934 24.2683 19.8278C22.882 22.1556 20.7156 24.005 18.2211 25.0166C14.5507 26.5632 10.0887 26.3094 6.73877 24.085C6.80442 23.9132 6.87199 23.7433 6.93764 23.5734C7.89916 23.9308 8.78925 24.4658 9.77588 24.7588C12.7628 25.6844 16.1088 25.3974 18.8911 23.9542C20.5515 23.0578 22.071 21.8314 23.1446 20.2515Z" fill="#22B945"/>
<path d="M17.8945 22.9891C18.1204 22.1923 18.9526 21.913 19.6284 21.6162C19.6921 21.7881 19.7577 21.9599 19.8214 22.1318C19.2866 22.6141 18.6495 23.0516 17.8945 22.9891Z" fill="#22B945"/>
<path d="M13.0081 23.6973C13.792 23.5723 14.5798 23.4063 15.3772 23.4493C15.6359 23.422 15.7054 23.7266 15.8271 23.8907C14.9389 24.3008 13.9465 24.3281 12.9927 24.2148C12.9985 24.041 13.0043 23.8692 13.0081 23.6973Z" fill="#22B945"/>
<path d="M11.8074 3.50929C14.6224 3.01519 17.6576 3.90183 19.7467 5.88409C21.4535 7.39763 22.4923 9.58494 22.8108 11.8406C23.1758 14.9263 21.9787 18.1799 19.6444 20.2149C17.4394 22.244 14.2324 23.0662 11.3305 22.4061C7.0789 21.5644 3.70777 17.4026 3.84679 13.0026C3.69619 8.43074 7.34342 4.1401 11.8074 3.50929ZM12.3866 4.10885C9.59663 4.39398 6.99395 6.13406 5.64627 8.62213C4.594 10.536 4.20784 12.8444 4.73108 14.9829C5.25625 17.3304 6.74295 19.4415 8.79729 20.668C10.6759 21.8436 13.0083 22.203 15.163 21.7616C17.5804 21.2324 19.7583 19.6583 21.0017 17.4905C22.2895 15.2466 22.5425 12.4343 21.6736 9.99115C20.3974 6.18484 16.3331 3.60694 12.3866 4.10885Z" fill="#22B945"/>
<path d="M15.8601 9.94252C16.1999 9.60856 16.6228 9.2746 17.1306 9.34296C18.1404 9.30195 18.8374 10.6964 18.1365 11.4639C17.1325 12.6532 15.9509 13.6824 14.8832 14.8151C14.078 15.5651 13.4158 16.4947 12.4755 17.0825C11.8036 17.4477 11.1143 16.9068 10.6548 16.442C9.9983 15.7467 9.25302 15.1257 8.68538 14.3523C8.08104 13.4637 8.89776 12.1181 9.95969 12.2919C10.8285 12.4735 11.317 13.3465 12.0623 13.7762C13.3656 12.536 14.5858 11.2119 15.8601 9.94252ZM16.6807 10.1671C15.0782 11.6318 13.6455 13.2801 12.0584 14.7644C11.2939 14.3328 10.8401 13.5281 10.118 13.0438C9.70289 12.7665 9.21827 13.1805 9.11208 13.5985C9.24337 14.0867 9.65848 14.4148 9.98479 14.7722C10.5486 15.3092 11.0486 15.9205 11.6684 16.3931C12.0874 16.6158 12.4987 16.3131 12.7767 16.0084C14.19 14.5749 15.5975 13.1317 17.0282 11.7138C17.314 11.3779 17.7755 11.0381 17.6731 10.5362C17.6229 10.0968 16.9896 9.78628 16.6807 10.1671Z" fill="#22B945"/>
<path d="M12.386 4.10926C16.3325 3.60735 20.3968 6.18526 21.673 9.99157C22.5419 12.4347 22.2889 15.247 21.0011 17.4909C19.7577 19.6587 17.5798 21.2328 15.1624 21.762C13.0077 22.2034 10.6753 21.8441 8.79669 20.6684C6.74235 19.4419 5.25565 17.3308 4.73048 14.9833C4.20724 12.8448 4.5934 10.5364 5.64567 8.62254C6.99335 6.13448 9.59603 4.39439 12.386 4.10926ZM15.8595 9.94274C14.5851 11.2122 13.3649 12.5363 12.0616 13.7764C11.3164 13.3467 10.8279 12.4738 9.95902 12.2922C8.89709 12.1183 8.08037 13.4639 8.68471 14.3525C9.25235 15.1259 9.99763 15.7469 10.6541 16.4422C11.1136 16.907 11.8029 17.448 12.4748 17.0828C13.4151 16.4949 14.0774 15.5653 14.8825 14.8154C15.9502 13.6827 17.1318 12.6534 18.1358 11.4641C18.8367 10.6966 18.1397 9.30217 17.1299 9.34319C16.6221 9.27483 16.1993 9.60879 15.8595 9.94274Z" fill="#22B945"/>
</svg>
