<svg width="33" height="32" viewBox="0 0 33 32" fill="none" xmlns="http://www.w3.org/2000/svg">
<g id="vuesax/bold/trash">
<g id="trash">
<path id="Vector" d="M28.5932 6.97317C26.4466 6.75984 24.2999 6.59984 22.1399 6.47984V6.4665L21.8465 4.73317C21.6465 3.5065 21.3532 1.6665 18.2332 1.6665H14.7399C11.6332 1.6665 11.3399 3.4265 11.1266 4.71984L10.8466 6.4265C9.60655 6.5065 8.36655 6.5865 7.12655 6.7065L4.40655 6.97317C3.84655 7.0265 3.44655 7.51984 3.49988 8.0665C3.55322 8.61317 4.03322 9.01317 4.59322 8.95984L7.31322 8.69317C14.2999 7.99984 21.3399 8.2665 28.4066 8.97317C28.4466 8.97317 28.4732 8.97317 28.5132 8.97317C29.0199 8.97317 29.4599 8.5865 29.5132 8.0665C29.5532 7.51984 29.1532 7.0265 28.5932 6.97317Z" fill="#DB2929"/>
<path id="Vector_2" d="M26.1401 10.8535C25.8201 10.5202 25.3801 10.3335 24.9267 10.3335H8.07341C7.62007 10.3335 7.16674 10.5202 6.86007 10.8535C6.55341 11.1868 6.38007 11.6402 6.40674 12.1068L7.23341 25.7868C7.38007 27.8135 7.56674 30.3468 12.2201 30.3468H20.7801C25.4334 30.3468 25.6201 27.8268 25.7667 25.7868L26.5934 12.1202C26.6201 11.6402 26.4467 11.1868 26.1401 10.8535ZM18.7134 23.6668H14.2734C13.7267 23.6668 13.2734 23.2135 13.2734 22.6668C13.2734 22.1202 13.7267 21.6668 14.2734 21.6668H18.7134C19.2601 21.6668 19.7134 22.1202 19.7134 22.6668C19.7134 23.2135 19.2601 23.6668 18.7134 23.6668ZM19.8334 18.3335H13.1667C12.6201 18.3335 12.1667 17.8802 12.1667 17.3335C12.1667 16.7868 12.6201 16.3335 13.1667 16.3335H19.8334C20.3801 16.3335 20.8334 16.7868 20.8334 17.3335C20.8334 17.8802 20.3801 18.3335 19.8334 18.3335Z" fill="#DB2929"/>
</g>
</g>
</svg>
