<svg width="14" height="12" viewBox="0 0 14 12" fill="none" xmlns="http://www.w3.org/2000/svg">
<path d="M12.3469 11.2748H1.57785C1.20133 11.2748 0.89125 11.548 0.824805 11.9023H13.1C13.0335 11.548 12.721 11.2748 12.3469 11.2748ZM12.3469 9.22238H1.58031C1.15949 9.22238 0.8125 9.56445 0.8125 9.98773C0.8125 10.4135 1.15703 10.7555 1.58031 10.7555H12.3469C12.7677 10.7555 13.1147 10.4135 13.1147 9.98773C13.1136 9.78468 13.0322 9.59031 12.8884 9.44696C12.7446 9.30361 12.55 9.22289 12.3469 9.22238ZM8.98281 1.70175C8.19531 1.36707 7.53086 1.08652 7.10512 0.761675C7.10512 0.761675 7 1.43809 7 0.6875L7.10512 0.761675C6.96977 0.761675 7 0.6875 7 0.6875C7 1.21414 7 0.125 7 0.125C7 0.875586 7 0.6875 7 0.6875C6.57426 1.01234 5.72945 1.36707 4.94195 1.70175C3.10117 2.48187 0.8125 3.44902 0.8125 5.42515C0.8125 7.30285 2.16602 8.46933 2.47117 8.70804H11.4536C11.7588 8.46933 13.1123 7.30285 13.1123 5.42515C13.1123 3.44902 10.8236 2.48187 8.98281 1.70175ZM8.37004 2.56062C8.3282 2.65906 8.23469 2.71812 8.13379 2.71812C8.09934 2.71812 8.06734 2.71074 8.03289 2.69843C7.55055 2.49418 7.17402 2.3096 6.83688 2.12257C6.71383 2.05367 6.66953 1.89617 6.73844 1.77312C6.80734 1.65007 6.96484 1.60578 7.08789 1.67468C7.40781 1.85187 7.76957 2.0266 8.23223 2.22593C8.36512 2.27761 8.42664 2.43019 8.37004 2.56062ZM11.2518 7.86148C11.2001 7.9107 11.1361 7.93531 11.0722 7.93531C11.0057 7.93531 10.9393 7.9107 10.8876 7.85656C10.7891 7.75566 10.7891 7.59324 10.8925 7.4948C11.6013 6.80574 12.1156 5.72047 11.6702 4.85422C11.2764 4.08886 10.2896 3.66558 9.49961 3.32597L9.47008 3.31367C9.33965 3.25953 9.28059 3.10695 9.33719 2.97652C9.39379 2.84609 9.54391 2.78703 9.67434 2.84363L9.70387 2.85347C10.5701 3.22754 11.6505 3.69019 12.1279 4.62043C12.6914 5.718 12.0934 7.04199 11.2518 7.86148Z" fill="#429FF5"/>
</svg>
