<svg width="33" height="32" viewBox="0 0 33 32" fill="none" xmlns="http://www.w3.org/2000/svg">
<g id="ue901-&#216;&#179;&#216;&#167;&#217;&#132;&#217;&#134; &#217;&#133;&#216;&#177;&#216;&#167;&#216;&#179;&#217;&#133;--&#216;&#179;&#216;&#167;&#217;&#132;&#217;&#134;-&#217;&#133;&#216;&#177;&#216;&#167;&#216;&#179;&#217;&#133;">
<path id="Vector" d="M5.77428 4.04316C8.25955 3.95289 10.7521 4.03828 13.2422 4.00168C13.9057 4.17978 14.5451 4.49938 14.9505 5.08003C15.281 5.70215 15.351 6.4243 15.3534 7.11717C15.3462 10.0302 15.3486 12.9407 15.3486 15.8537C16.0797 15.4194 16.8953 15.5146 17.6577 15.8025C17.6167 12.9066 17.6553 10.0082 17.636 7.11229C17.6095 6.13885 17.858 5.05807 18.6711 4.45059C19.2092 4.02608 19.9138 4.00412 20.5677 4.00412C22.6741 4.009 24.7806 4.00412 26.8894 4.00412C27.6109 3.97973 28.3323 4.32372 28.7715 4.90437C28.7884 5.25813 28.5326 5.48746 28.2744 5.67531C27.7315 5.51917 27.2538 5.10687 26.6626 5.16298C24.4572 5.17274 22.2519 5.14834 20.0465 5.17762C19.3878 5.14102 18.8328 5.75338 18.8521 6.40478C18.8376 9.66177 18.8521 12.9212 18.8473 16.1782C21.8899 16.8491 25.0966 16.9516 28.1127 16.0977C28.3251 14.0069 28.1152 11.8795 28.2093 9.77644C28.2696 9.50563 28.3613 9.24702 28.4819 8.99574C28.757 9.09088 29.0296 9.19091 29.3023 9.29094C29.3723 11.3769 29.3674 13.4701 29.3047 15.5561C29.7052 15.5902 30.2723 15.417 30.4605 15.9049C30.5136 16.9443 30.5112 17.9884 30.4653 19.0253C30.4967 19.5108 29.9731 19.6011 29.6305 19.7377C29.5098 19.7841 29.2661 19.8743 29.143 19.9207L28.95 19.9475C28.4144 20.1378 27.8618 20.2671 27.3213 20.4306C27.2827 20.8307 27.2345 21.2332 27.1814 21.6309C27.0173 21.8529 26.8532 22.0774 26.694 22.3018C26.2693 22.6434 25.7602 22.8264 25.2269 22.9093C25.2583 24.4756 25.2342 26.0443 25.2414 27.6106C26.4165 27.6301 27.5964 27.5667 28.7715 27.6374C29.1841 27.613 29.2637 28.0741 29.4519 28.3425C29.1141 28.5743 28.7618 28.8402 28.3275 28.7719C24.8192 28.7548 21.3132 28.7963 17.8073 28.7475C17.7735 28.3571 17.513 27.8399 18.0004 27.635C19.2454 27.5691 20.4953 27.6301 21.7427 27.6106C21.7234 26.0565 21.7765 24.5 21.721 22.9483C21.1878 22.7458 20.5628 22.6336 20.2106 22.131C19.7618 21.7065 19.7569 21.0454 19.6291 20.4818C18.5867 20.25 17.5491 19.9987 16.5502 19.6157C15.4982 19.9817 14.4245 20.2769 13.3483 20.5501C13.3314 21.7456 12.4773 22.8776 11.2322 22.9044C11.2636 24.4731 11.2395 26.0419 11.2467 27.6106C12.4194 27.6301 13.5968 27.5667 14.7671 27.6374C15.1869 27.6057 15.269 28.0717 15.4596 28.3449C15.1194 28.5694 14.7719 28.8426 14.3376 28.7719C10.9523 28.7597 7.56705 28.7841 4.18419 28.7621C3.58338 28.8134 3.56649 28.0839 3.78848 27.6935C5.09385 27.5032 6.43059 27.6594 7.74802 27.6106C7.72872 26.0541 7.7818 24.4951 7.7263 22.9386C7.14962 22.7434 6.45954 22.6336 6.1145 22.0603C5.66811 21.6114 5.73568 20.9478 5.67294 20.3696C4.59438 20.1037 3.49652 19.8719 2.5 19.3571C2.5 18.2105 2.5 17.0662 2.5 15.9196C2.5941 15.8098 2.78231 15.5927 2.87641 15.4829C3.13459 15.5439 3.39277 15.6073 3.65095 15.6683C3.64129 12.6406 3.64612 9.61054 3.64612 6.58044C3.61958 5.37767 4.49787 4.05048 5.77428 4.04316ZM4.81637 6.40234C4.74639 9.6203 4.83326 12.8383 4.77293 16.0562C7.84453 16.7174 11.0754 17.0223 14.1542 16.2392C14.1204 12.9505 14.1615 9.65933 14.1349 6.37063C14.1397 5.73875 13.5968 5.14834 12.955 5.17762C10.6531 5.15566 8.35124 5.15566 6.04935 5.17762C5.40752 5.1703 4.77052 5.72899 4.81637 6.40234ZM3.63888 16.9028C3.64612 17.4663 3.64612 18.0275 3.64612 18.591C7.5936 19.8402 11.9754 20.0768 15.8939 18.5984C15.8891 18.0494 15.8867 17.5005 15.8843 16.9516C11.9464 18.3154 7.58636 18.1373 3.63888 16.9028ZM17.11 16.9443C17.0979 17.4907 17.0955 18.0348 17.0955 18.5788C20.4084 19.6889 24.0495 19.9695 27.4613 19.1717C28.0741 18.935 28.716 18.7887 29.3409 18.5935C29.3433 18.0397 29.3433 17.4883 29.353 16.9345C25.4127 18.3276 21.0768 18.1007 17.11 16.9443ZM6.75874 20.5818C6.9397 20.9844 6.97107 21.7309 7.5767 21.6895C8.83864 21.6919 10.103 21.7236 11.3625 21.6724C11.9102 21.6602 12.1057 21.1674 12.2312 20.7087C10.407 20.8575 8.57564 20.8063 6.75874 20.5818ZM20.7462 20.655C20.9175 21.0063 21.0961 21.3552 21.2964 21.6919C22.6982 21.6577 24.1098 21.77 25.5044 21.6407C26.0256 21.5943 26.0859 21.0405 26.2548 20.6501C24.4235 20.8819 22.58 20.7746 20.7462 20.655ZM8.89414 22.8532C8.89414 24.439 8.89414 26.0248 8.89414 27.6106C9.29709 27.6106 9.69763 27.6106 10.1006 27.6106C10.1006 26.0248 10.1006 24.439 10.1006 22.8532C9.69763 22.8532 9.29709 22.8532 8.89414 22.8532ZM22.8889 22.8532C22.8889 24.439 22.8889 26.0248 22.8889 27.6106C23.2918 27.6106 23.6923 27.6106 24.0953 27.6106C24.0953 26.0248 24.0953 24.439 24.0953 22.8532C23.6923 22.8532 23.2918 22.8532 22.8889 22.8532Z" fill="white"/>
<path id="Vector_2" d="M28.3006 6.77331C28.5105 6.75136 28.9279 6.70744 29.1354 6.68549C29.2416 7.03192 29.3888 7.39544 29.1378 7.7248C28.8024 7.76627 28.4743 7.72967 28.1558 7.61257C28.192 7.40276 28.2644 6.98313 28.3006 6.77331Z" fill="white"/>
<path id="Vector_3" d="M7.065 8.67381C6.41835 8.6177 6.42317 7.49544 7.11085 7.57351C8.83606 7.50276 10.5661 7.55155 12.2913 7.55643C12.3782 7.93703 12.3565 8.32006 12.243 8.69089C10.5178 8.69333 8.7878 8.74212 7.065 8.67381Z" fill="white"/>
<path id="Vector_4" d="M21.0769 8.67382C20.4109 8.64211 20.4134 7.46862 21.1252 7.57352C22.8431 7.50521 24.5659 7.55157 26.2863 7.55645C26.3756 7.93704 26.3515 8.32007 26.2356 8.6909C24.5177 8.69334 22.7949 8.74214 21.0769 8.67382Z" fill="white"/>
<path id="Vector_5" d="M6.45697 11.4794C6.73686 11.3379 6.9878 11.0719 7.3232 11.0866C8.94465 11.0695 10.5661 11.0866 12.1876 11.0841C12.3492 11.4598 12.3613 11.8526 12.2407 12.2405C10.4358 12.2405 8.62856 12.2405 6.82373 12.2405C6.69826 11.9893 6.5752 11.7355 6.45697 11.4794Z" fill="white"/>
<path id="Vector_6" d="M21.1202 11.1036C22.8117 11.05 24.5079 11.0914 26.2018 11.089C26.3079 11.4769 26.6192 12.0088 26.086 12.2161C25.1425 12.282 24.1943 12.221 23.2508 12.2405C22.3412 12.2186 21.405 12.3479 20.5243 12.0478C20.6063 11.677 20.6111 11.1085 21.1202 11.1036Z" fill="white"/>
</g>
</svg>
