<svg width="24" height="24" viewBox="0 0 24 24" fill="none" xmlns="http://www.w3.org/2000/svg">
<g id="vuesax/bold/clipboard-tick">
<g id="clipboard-tick">
<path id="Vector" d="M14.35 2H9.65001C8.61001 2 7.76001 2.84 7.76001 3.88V4.82C7.76001 5.86 8.60001 6.7 9.64001 6.7H14.35C15.39 6.7 16.23 5.86 16.23 4.82V3.88C16.24 2.84 15.39 2 14.35 2Z" fill="white"/>
<path id="Vector_2" d="M17.24 4.82C17.24 6.41 15.94 7.71 14.35 7.71H9.64998C8.05998 7.71 6.75998 6.41 6.75998 4.82C6.75998 4.26 6.15998 3.91 5.65998 4.17C4.24998 4.92 3.28998 6.40999 3.28998 8.11999V17.53C3.28998 19.99 5.29998 22 7.75998 22H16.24C18.7 22 20.71 19.99 20.71 17.53V8.11999C20.71 6.40999 19.75 4.92 18.34 4.17C17.84 3.91 17.24 4.26 17.24 4.82ZM15.34 12.73L11.34 16.73C11.19 16.88 11 16.95 10.81 16.95C10.62 16.95 10.43 16.88 10.28 16.73L8.77998 15.23C8.48998 14.94 8.48998 14.46 8.77998 14.17C9.06998 13.88 9.54998 13.88 9.83998 14.17L10.81 15.14L14.28 11.67C14.57 11.38 15.05 11.38 15.34 11.67C15.63 11.96 15.63 12.44 15.34 12.73Z" fill="white"/>
</g>
</g>
</svg>
