<svg width="25" height="24" viewBox="0 0 25 24" fill="none" xmlns="http://www.w3.org/2000/svg">
<g id="vuesax/linear/forward-item">
<g id="forward-item">
<path id="Vector" d="M17.88 10.38V13.61C17.88 16.3 16.8 17.38 14.11 17.38H10.88C8.18999 17.38 7.10999 16.3 7.10999 13.61V10.38C7.10999 7.69 8.18999 6.60999 10.88 6.60999H14.11C16.81 6.61999 17.88 7.69 17.88 10.38Z" stroke="white" stroke-width="1.5" stroke-linecap="round" stroke-linejoin="round"/>
<path id="Vector_2" d="M22.5 5.76999V9C22.5 11.69 21.42 12.77 18.73 12.77H17.88V10.39C17.88 7.70001 16.8 6.62 14.11 6.62H11.73V5.76999C11.73 3.07999 12.81 2 15.5 2H18.73C21.42 2 22.5 3.07999 22.5 5.76999Z" stroke="white" stroke-width="1.5" stroke-linecap="round" stroke-linejoin="round"/>
<path id="Vector_3" d="M2.5 18.23V15C2.5 12.31 3.58 11.23 6.27 11.23H7.12V13.61C7.12 16.3 8.2 17.38 10.89 17.38H13.27V18.23C13.27 20.92 12.19 22 9.5 22H6.27C3.58 22 2.5 20.92 2.5 18.23Z" stroke="white" stroke-width="1.5" stroke-linecap="round" stroke-linejoin="round"/>
</g>
</g>
</svg>
