<svg width="33" height="32" viewBox="0 0 33 32" fill="none" xmlns="http://www.w3.org/2000/svg">
<g id="ue906-&#217;&#130;&#216;&#168;&#217;&#136;&#216;&#177;">
<path id="Vector" d="M12.5949 3.06556C14.1927 2.09548 16.1525 1.83574 17.9845 2.09351C19.8381 2.36112 21.5343 3.35679 22.8231 4.68697C24.354 6.31034 25.1706 8.54174 25.1647 10.7633C25.1844 14.2855 25.1568 17.8078 25.1785 21.33C23.7637 21.3182 22.3489 21.2926 20.9361 21.3339C20.5543 21.4756 20.5465 22.0029 20.9282 22.1328C22.6815 22.2076 24.4445 22.0718 26.1958 22.2312C26.7586 22.2863 26.9376 22.8884 26.9376 23.3705C26.9416 24.1222 27.1108 25.0313 26.4241 25.5527C20.1116 25.6531 13.7952 25.5685 7.48275 25.596C7.04592 25.6629 6.71731 25.3677 6.41822 25.1021C6.37296 24.3465 6.37296 23.5909 6.37689 22.8353C6.51267 22.6483 6.64844 22.4634 6.78421 22.2765C8.3151 22.0757 9.86173 22.1918 11.3985 22.1407C11.8373 22.1525 11.8629 21.3595 11.3946 21.3733C10.3045 21.2375 9.19861 21.3556 8.10259 21.3162C8.11636 17.7369 8.06717 14.1557 8.1262 10.5783C8.17736 7.5323 9.8696 4.49413 12.5949 3.06556ZM13.6949 4.33475C12.1522 5.11396 10.8535 6.43037 10.2809 8.08129C9.67873 9.49608 9.84796 11.0663 9.82238 12.5657C9.84599 14.9447 9.77122 17.3276 9.8637 19.7066C14.1966 19.7892 18.5315 19.7145 22.8645 19.744C23.1694 19.8129 23.5354 19.5846 23.4941 19.2462C23.5079 16.4953 23.4902 13.7424 23.5 10.9916C23.5059 9.88373 23.3347 8.77393 22.9235 7.74284C22.1817 6.27886 21.06 4.93687 19.5134 4.29342C17.6972 3.42566 15.5032 3.46698 13.6949 4.33475Z" fill="white"/>
<path id="Vector_2" d="M12.229 6.46375C13.693 4.76167 16.196 4.08674 18.3349 4.72625C20.7178 5.38937 22.5497 7.66406 22.6324 10.1493C22.7013 13.0655 22.6422 15.9875 22.6619 18.9057C18.6615 18.9057 14.6592 18.9057 10.6588 18.9057C10.6608 16.0603 10.6549 13.215 10.6608 10.3697C10.6686 8.93128 11.2432 7.51058 12.229 6.46375ZM14.1279 8.03596C14.6297 9.12608 15.6784 9.81675 16.4695 10.6845C16.7213 10.9816 16.9673 10.5389 17.1582 10.3972C17.7819 9.71246 18.5376 9.13592 19.0511 8.36064C19.3797 7.8018 19.061 7.22132 18.8327 6.69791C18.4706 6.52081 18.0869 6.39881 17.6934 6.31617C17.3353 6.51294 16.9752 6.70381 16.621 6.90649C16.2491 6.59755 15.826 6.36536 15.3361 6.32404C14.5746 6.52278 13.937 7.19968 14.1279 8.03596ZM12.7052 12.7231C12.5262 12.9887 12.66 13.4177 13.0142 13.3921C15.3125 13.4059 17.6127 13.3901 19.911 13.398C20.1924 13.4275 20.4423 13.2977 20.6824 13.1698C20.6371 12.9828 20.5919 12.7959 20.5486 12.609C18.5021 12.4988 16.4518 12.5912 14.4034 12.5578C13.8386 12.5814 13.2326 12.4594 12.7052 12.7231ZM13.0201 14.5668C12.6383 14.5649 12.4199 15.2004 12.8646 15.3008C13.691 15.4464 14.5391 15.3264 15.3735 15.3657C15.9657 15.3362 16.6171 15.4936 17.1405 15.1394C17.109 14.9997 17.044 14.7203 17.0106 14.5806C15.6844 14.494 14.3463 14.498 13.0201 14.5668ZM18.1578 14.9879C18.7383 15.6825 19.7536 15.2614 20.5407 15.3323C20.586 15.1001 20.6332 14.8679 20.6784 14.6357C19.9642 14.4763 19.2302 14.5275 18.5061 14.5294C18.4195 14.6436 18.2444 14.8738 18.1578 14.9879ZM12.656 16.7786C12.4514 17.239 13.0574 17.4358 13.4136 17.3846C14.0452 17.359 14.8835 17.5834 15.2416 16.8927C14.8343 16.3909 14.1594 16.5641 13.5986 16.5346C13.2739 16.5483 12.8922 16.5031 12.656 16.7786ZM16.3514 16.5936C16.2825 16.9242 16.3376 17.363 16.7725 17.3571C17.9217 17.3984 19.0767 17.3964 20.2259 17.361C20.7079 17.2961 20.6843 16.8514 20.4895 16.5346C19.1102 16.5739 17.7288 16.4932 16.3514 16.5936Z" fill="white"/>
<path id="Vector_3" d="M4.8719 27.8432C5.51141 27.2333 6.12337 26.3419 7.11314 26.3891C13.4945 26.3793 19.8758 26.3812 26.2571 26.3871C27.056 26.3734 27.6286 27.0247 28.154 27.5382C28.5102 27.8944 29.0316 28.4434 28.5436 28.9176C28.0359 29.0554 27.5027 28.9747 26.9871 28.9924C19.7695 28.9904 12.5519 28.9904 5.33431 28.9924C5.02538 29.0278 4.75974 28.8704 4.5 28.7287C4.57084 28.4159 4.60232 28.0617 4.8719 27.8432Z" fill="white"/>
</g>
</svg>
