<svg width="33" height="32" viewBox="0 0 33 32" fill="none" xmlns="http://www.w3.org/2000/svg">
<g id="ue900-&#216;&#168;&#217;&#130;&#216;&#167;&#216;&#185; &#217;&#133;&#216;&#170;&#216;&#168;&#216;&#177;&#218;&#169;&#217;&#135;--&#216;&#168;&#217;&#130;&#216;&#167;&#216;&#185;-&#217;&#133;&#216;&#170;&#216;&#168;&#216;&#177;&#218;&#169;&#217;&#135;">
<path id="Vector" d="M26.0056 27.8219H6.86062C6.19125 27.8219 5.64 28.3075 5.52187 28.9375H27.3444C27.2262 28.3075 26.6706 27.8219 26.0056 27.8219ZM26.0056 24.1731H6.865C6.11687 24.1731 5.5 24.7812 5.5 25.5337C5.5 26.2906 6.1125 26.8987 6.865 26.8987H26.0056C26.7538 26.8987 27.3706 26.2906 27.3706 25.5337C27.3685 25.1728 27.2239 24.8272 26.9683 24.5724C26.7126 24.3175 26.3666 24.174 26.0056 24.1731ZM20.025 10.8031C18.625 10.2081 17.4438 9.70938 16.6869 9.13188C16.6869 9.13188 16.5 10.3344 16.5 9.00001L16.6869 9.13188C16.4462 9.13188 16.5 9.00001 16.5 9.00001C16.5 9.93626 16.5 8.00001 16.5 8.00001C16.5 9.33438 16.5 9.00001 16.5 9.00001C15.7431 9.57751 14.2413 10.2081 12.8413 10.8031C9.56875 12.19 5.5 13.9094 5.5 17.4225C5.5 20.7606 7.90625 22.8344 8.44875 23.2587H24.4175C24.96 22.8344 27.3663 20.7606 27.3663 17.4225C27.3663 13.9094 23.2975 12.19 20.025 10.8031ZM18.9356 12.33C18.8612 12.505 18.695 12.61 18.5156 12.61C18.4544 12.61 18.3975 12.5969 18.3362 12.575C17.4787 12.2119 16.8094 11.8837 16.21 11.5512C15.9913 11.4288 15.9125 11.1488 16.035 10.93C16.1575 10.7113 16.4375 10.6325 16.6562 10.755C17.225 11.07 17.8681 11.3806 18.6906 11.735C18.9269 11.8269 19.0363 12.0981 18.9356 12.33ZM24.0588 21.7537C23.9669 21.8412 23.8531 21.885 23.7394 21.885C23.6213 21.885 23.5031 21.8412 23.4113 21.745C23.2363 21.5656 23.2362 21.2769 23.42 21.1019C24.68 19.8769 25.5944 17.9475 24.8025 16.4075C24.1025 15.0469 22.3481 14.2944 20.9438 13.6906L20.8913 13.6688C20.6594 13.5725 20.5544 13.3013 20.655 13.0694C20.7556 12.8375 21.0225 12.7325 21.2544 12.8331L21.3069 12.8506C22.8469 13.5156 24.7675 14.3381 25.6163 15.9919C26.6181 17.9431 25.555 20.2969 24.0588 21.7537Z" fill="white"/>
<rect id="Rectangle 17665" x="15.5" y="8" width="2" height="2" rx="0.4" fill="#FBFFFD"/>
</g>
</svg>
