<svg width="29" height="28" viewBox="0 0 29 28" fill="none" xmlns="http://www.w3.org/2000/svg">
<g id="vuesax/outline/note-text">
<g id="note-text">
<path id="Vector" d="M9.83331 6.70833C9.35498 6.70833 8.95831 6.31166 8.95831 5.83333V2.33333C8.95831 1.85499 9.35498 1.45833 9.83331 1.45833C10.3116 1.45833 10.7083 1.85499 10.7083 2.33333V5.83333C10.7083 6.31166 10.3116 6.70833 9.83331 6.70833Z" fill="white"/>
<path id="Vector_2" d="M19.1667 6.70833C18.6884 6.70833 18.2917 6.31166 18.2917 5.83333V2.33333C18.2917 1.85499 18.6884 1.45833 19.1667 1.45833C19.645 1.45833 20.0417 1.85499 20.0417 2.33333V5.83333C20.0417 6.31166 19.645 6.70833 19.1667 6.70833Z" fill="white"/>
<path id="Vector_3" d="M19.1667 26.5417H9.83333C5.575 26.5417 3.125 24.0917 3.125 19.8333V9.91666C3.125 5.65833 5.575 3.20833 9.83333 3.20833H19.1667C23.425 3.20833 25.875 5.65833 25.875 9.91666V19.8333C25.875 24.0917 23.425 26.5417 19.1667 26.5417ZM9.83333 4.95833C6.49667 4.95833 4.875 6.57999 4.875 9.91666V19.8333C4.875 23.17 6.49667 24.7917 9.83333 24.7917H19.1667C22.5033 24.7917 24.125 23.17 24.125 19.8333V9.91666C24.125 6.57999 22.5033 4.95833 19.1667 4.95833H9.83333Z" fill="white"/>
<path id="Vector_4" d="M19.1666 13.7083H9.83331C9.35498 13.7083 8.95831 13.3117 8.95831 12.8333C8.95831 12.355 9.35498 11.9583 9.83331 11.9583H19.1666C19.645 11.9583 20.0416 12.355 20.0416 12.8333C20.0416 13.3117 19.645 13.7083 19.1666 13.7083Z" fill="white"/>
<path id="Vector_5" d="M14.5 19.5417H9.83331C9.35498 19.5417 8.95831 19.145 8.95831 18.6667C8.95831 18.1883 9.35498 17.7917 9.83331 17.7917H14.5C14.9783 17.7917 15.375 18.1883 15.375 18.6667C15.375 19.145 14.9783 19.5417 14.5 19.5417Z" fill="white"/>
</g>
</g>
</svg>
