<svg width="33" height="32" viewBox="0 0 33 32" fill="none" xmlns="http://www.w3.org/2000/svg">
<g id="ue902-&#216;&#162;&#217;&#133;&#217;&#136;&#216;&#178;&#216;&#180;&#219;&#140;">
<path id="Vector" d="M11.7573 3.61134C13.1802 2.99406 14.6874 2.59924 16.1163 1.99999C20.3611 3.43497 24.5538 5.04431 28.7706 6.57149C28.3898 6.63762 28.0351 6.78794 27.6944 6.9623C27.7064 8.69189 27.6904 10.4195 27.7004 12.1471C27.6964 12.4757 27.8727 12.7684 27.989 13.067C27.8567 13.3035 27.6743 13.4838 27.4418 13.6101C27.6302 14.4418 27.8186 15.2736 28.009 16.1053C27.9509 16.2376 27.8327 16.5041 27.7745 16.6364C27.3076 16.9711 26.4718 16.7406 26.5119 16.0812C26.5921 15.2575 26.8987 14.4699 27.039 13.6542C26.9288 13.56 26.7083 13.3716 26.6001 13.2774C26.5901 13.1612 26.572 12.9307 26.562 12.8165C26.7284 12.5399 26.8065 12.2433 26.8005 11.9246C26.8025 10.3954 26.7805 8.86425 26.8105 7.33307C23.2732 8.77406 19.7418 10.2311 16.2145 11.6941C11.9717 9.92044 7.66076 8.30509 3.41995 6.52339C4.87297 6.02235 6.31997 5.50126 7.76898 4.99621C7.86719 4.95212 8.0656 4.86194 8.1638 4.81584L8.35019 4.81384C9.40238 4.35889 10.5027 4.0282 11.5749 3.62537L11.7573 3.61134Z" fill="white"/>
<path id="Vector_2" d="M7.88101 9.33327C10.7229 10.3133 13.4626 11.608 16.3025 12.6021C19.0181 11.4557 21.7478 10.3233 24.4875 9.23506C24.4795 10.7041 24.5236 12.1752 24.4675 13.6422C24.4153 14.518 23.6177 15.0471 22.8842 15.3478C20.7437 16.2416 18.3888 16.3779 16.0981 16.44C14.0358 16.3739 11.9374 16.2276 9.97536 15.5462C9.13161 15.1634 8.01529 14.7285 7.92109 13.6582C7.86899 12.2173 7.95316 10.7743 7.88101 9.33327Z" fill="white"/>
<path id="Vector_3" d="M2.51588 21.9314C2.59004 19.835 4.5962 18.1776 6.65247 18.2958C14.601 18.2958 22.5515 18.3079 30.5 18.2878C29.8086 19.0093 29.065 19.7128 28.6802 20.6567C23.6979 20.6507 18.7175 20.6467 13.7372 20.6607C13.7272 20.9574 13.7212 21.256 13.7131 21.5526C18.6374 21.5566 23.5616 21.5546 28.4878 21.5546C28.4998 21.9915 28.5299 22.4284 28.576 22.8633C26.7462 22.8493 24.9184 22.8613 23.0886 22.8573C23.0886 22.5727 23.0886 22.2881 23.0866 22.0055C20.6435 22.0015 18.2005 22.0156 15.7574 21.9975C15.8015 23.3724 15.7454 24.7472 15.7894 26.1221C12.5708 26.086 9.35208 26.1542 6.1334 26.086C4.03905 26.0359 2.31547 23.9957 2.51588 21.9314Z" fill="white"/>
<path id="Vector_4" d="M16.6752 22.8573C18.513 22.8573 20.3488 22.8573 22.1866 22.8573C22.1786 25.3164 22.2026 27.7755 22.1726 30.2346C21.2507 29.2145 20.3388 28.1824 19.4549 27.1242C18.515 28.1904 17.5289 29.2225 16.6711 30.3549C16.6812 27.8557 16.6711 25.3565 16.6752 22.8573Z" fill="white"/>
<path id="Vector_5" d="M23.0886 23.7592C25.0266 23.7592 26.9626 23.7592 28.9006 23.7592C29.2674 24.595 29.7724 25.3545 30.3015 26.0941C27.8986 26.1382 25.4936 26.1001 23.0886 26.1141C23.0886 25.3285 23.0886 24.5448 23.0886 23.7592Z" fill="white"/>
</g>
</svg>
