<svg width="25" height="24" viewBox="0 0 25 24" fill="none" xmlns="http://www.w3.org/2000/svg">
<g id="vuesax/bold/sms-notification">
<g id="sms-notification">
<path id="Vector" d="M20 8C21.3807 8 22.5 6.88071 22.5 5.5C22.5 4.11929 21.3807 3 20 3C18.6193 3 17.5 4.11929 17.5 5.5C17.5 6.88071 18.6193 8 20 8Z" fill="#FBFBFB"/>
<path id="Vector_2" d="M20 8C21.3807 8 22.5 6.88071 22.5 5.5C22.5 4.11929 21.3807 3 20 3C18.6193 3 17.5 4.11929 17.5 5.5C17.5 6.88071 18.6193 8 20 8Z" fill="#FBFBFB"/>
<path id="Vector_3" d="M21.22 9.31C20.52 9.53 19.75 9.57 18.95 9.37C17.61 9.02 16.52 7.95 16.15 6.61C15.97 5.96 15.96 5.32 16.07 4.74C16.2 4.1 15.75 3.5 15.11 3.5H7.5C4.5 3.5 2.5 5 2.5 8.5V15.5C2.5 19 4.5 20.5 7.5 20.5H17.5C20.5 20.5 22.5 19 22.5 15.5V10.26C22.5 9.6 21.86 9.1 21.22 9.31ZM16.02 11.15L14.84 12.09C14.18 12.62 13.34 12.88 12.5 12.88C11.66 12.88 10.81 12.62 10.16 12.09L7.03 9.59C6.71 9.33 6.66 8.85 6.91 8.53C7.17 8.21 7.64 8.15 7.96 8.41L11.09 10.91C11.85 11.52 13.14 11.52 13.9 10.91L15.08 9.97C15.4 9.71 15.88 9.76 16.13 10.09C16.39 10.41 16.34 10.89 16.02 11.15Z" fill="#FBFBFB"/>
</g>
</g>
</svg>
