<svg width="22" height="23" viewBox="0 0 22 23" fill="none" xmlns="http://www.w3.org/2000/svg">
<path id="Vector" d="M0.0625 20.0938C0.0625 21.4219 1.07812 22.4375 2.40625 22.4375H19.5938C20.9219 22.4375 21.9375 21.4219 21.9375 20.0938V8.375H0.0625V20.0938ZM19.5938 2.125H18.8125V1.34375C18.8125 0.875 18.5 0.5625 18.0312 0.5625C17.5625 0.5625 17.25 0.875 17.25 1.34375V2.125H14.125V1.34375C14.125 0.875 13.8125 0.5625 13.3438 0.5625C12.875 0.5625 12.5625 0.875 12.5625 1.34375V2.125H9.4375V1.34375C9.4375 0.875 9.125 0.5625 8.65625 0.5625C8.1875 0.5625 7.875 0.875 7.875 1.34375V2.125H4.75V1.34375C4.75 0.875 4.4375 0.5625 3.96875 0.5625C3.5 0.5625 3.1875 0.875 3.1875 1.34375V2.125H2.40625C1.07812 2.125 0.0625 3.14062 0.0625 4.46875V6.8125H21.9375V4.46875C21.9375 3.14062 20.9219 2.125 19.5938 2.125ZM15.6875 5.25H6.3125C5.84375 5.25 5.53125 4.9375 5.53125 4.46875C5.53125 4 5.84375 3.6875 6.3125 3.6875H15.6875C16.1562 3.6875 16.4688 4 16.4688 4.46875C16.4688 4.9375 16.1562 5.25 15.6875 5.25Z" fill="white"/>
</svg>
