<svg width="33" height="32" viewBox="0 0 33 32" fill="none" xmlns="http://www.w3.org/2000/svg">
<g id="vuesax/bold/trash">
<g id="trash">
<path id="Vector" d="M28.5932 6.97366C26.4466 6.76033 24.2999 6.60033 22.1399 6.48033V6.46699L21.8465 4.73366C21.6465 3.50699 21.3532 1.66699 18.2332 1.66699H14.7399C11.6332 1.66699 11.3399 3.42699 11.1266 4.72033L10.8466 6.42699C9.60655 6.50699 8.36655 6.58699 7.12655 6.70699L4.40655 6.97366C3.84655 7.02699 3.44655 7.52033 3.49988 8.06699C3.55322 8.61366 4.03322 9.01366 4.59322 8.96033L7.31322 8.69366C14.2999 8.00033 21.3399 8.26699 28.4066 8.97366C28.4466 8.97366 28.4732 8.97366 28.5132 8.97366C29.0199 8.97366 29.4599 8.58699 29.5132 8.06699C29.5532 7.52033 29.1532 7.02699 28.5932 6.97366Z" fill="#DB2929"/>
<path id="Vector_2" d="M26.1401 10.853C25.8201 10.5197 25.3801 10.333 24.9267 10.333H8.07341C7.62007 10.333 7.16674 10.5197 6.86007 10.853C6.55341 11.1863 6.38007 11.6397 6.40674 12.1063L7.23341 25.7863C7.38007 27.813 7.56674 30.3463 12.2201 30.3463H20.7801C25.4334 30.3463 25.6201 27.8263 25.7667 25.7863L26.5934 12.1197C26.6201 11.6397 26.4467 11.1863 26.1401 10.853ZM18.7134 23.6663H14.2734C13.7267 23.6663 13.2734 23.213 13.2734 22.6663C13.2734 22.1197 13.7267 21.6663 14.2734 21.6663H18.7134C19.2601 21.6663 19.7134 22.1197 19.7134 22.6663C19.7134 23.213 19.2601 23.6663 18.7134 23.6663ZM19.8334 18.333H13.1667C12.6201 18.333 12.1667 17.8797 12.1667 17.333C12.1667 16.7863 12.6201 16.333 13.1667 16.333H19.8334C20.3801 16.333 20.8334 16.7863 20.8334 17.333C20.8334 17.8797 20.3801 18.333 19.8334 18.333Z" fill="#DB2929"/>
</g>
</g>
</svg>
