<svg width="16" height="16" viewBox="0 0 16 16" fill="none" xmlns="http://www.w3.org/2000/svg">
<g id="vuesax/linear/copy">
<g id="copy">
<path id="Vector" d="M10.6666 8.59967V11.3997C10.6666 13.733 9.73331 14.6663 7.39998 14.6663H4.59998C2.26665 14.6663 1.33331 13.733 1.33331 11.3997V8.59967C1.33331 6.26634 2.26665 5.33301 4.59998 5.33301H7.39998C9.73331 5.33301 10.6666 6.26634 10.6666 8.59967Z" stroke="#0B0B0B" stroke-linecap="round" stroke-linejoin="round"/>
<path id="Vector_2" d="M14.6666 4.59967V7.39967C14.6666 9.73301 13.7333 10.6663 11.4 10.6663H10.6666V8.59967C10.6666 6.26634 9.73331 5.33301 7.39998 5.33301H5.33331V4.59967C5.33331 2.26634 6.26665 1.33301 8.59998 1.33301H11.4C13.7333 1.33301 14.6666 2.26634 14.6666 4.59967Z" stroke="#0B0B0B" stroke-linecap="round" stroke-linejoin="round"/>
</g>
</g>
</svg>
