<svg width="32" height="32" viewBox="0 0 32 32" fill="none" xmlns="http://www.w3.org/2000/svg">
<g id="Ghari">
<g id="#000000ff">
<path id="Vector" d="M14.429 8.37565C14.5033 8.33609 14.6503 8.25862 14.7246 8.2207C14.9757 8.72842 15.5026 9.17019 15.4299 9.78176C14.908 9.48504 14.6866 8.88172 14.429 8.37565Z" fill="#429FF5"/>
<path id="Vector_2" d="M16.7101 9.91711C16.317 9.3072 16.8356 8.56046 17.1131 8C17.3774 8.64123 16.9529 9.32863 16.7101 9.91711Z" fill="#429FF5"/>
<path id="Vector_3" d="M17.4567 10.6C17.8646 10.2406 18.3833 10.051 18.859 9.79883L19.0076 10.1335C18.4973 10.328 18.043 10.778 17.498 10.7945L17.4567 10.6Z" fill="#429FF5"/>
<path id="Vector_4" d="M13.1225 10.3849C12.8962 10.4113 12.5229 10.0239 12.9391 9.95801C13.4859 10.0734 14.0541 10.197 14.5198 10.5234C14.0838 10.8465 13.58 10.4558 13.1225 10.3849Z" fill="#429FF5"/>
<path id="Vector_5" d="M15.4845 10.4348C15.9205 10.1232 16.6225 10.359 16.7695 10.8766C17.0586 11.5458 16.2608 12.2909 15.6084 11.9678C14.9741 11.7354 14.8965 10.7678 15.4845 10.4348Z" fill="#429FF5"/>
<path id="Vector_6" d="M8.8148 14.8154C10.4897 13.3384 12.7674 12.7582 14.9559 12.6576C17.4054 12.5307 19.992 12.8093 22.1211 14.1181C23.7167 15.1632 24.8663 16.8331 25.2908 18.6876C25.5072 19.6568 25.7136 20.6657 25.5732 21.6613C19.1728 21.6432 12.7723 21.6745 6.3719 21.6448C6.324 21.5954 6.2282 21.4981 6.1803 21.4503C6.21168 19.0321 6.93018 16.4506 8.8148 14.8154Z" fill="#429FF5"/>
<path id="Vector_7" d="M4.58967 22.5293C4.93653 22.4073 5.30817 22.4057 5.67155 22.3975C12.6154 22.4024 19.5593 22.3958 26.5015 22.4008C27.0631 22.3892 27.7469 22.6975 27.7865 23.3255C27.8774 23.9519 27.2844 24.4975 26.6749 24.453C19.5626 24.4679 12.4486 24.453 5.33625 24.4613C4.97782 24.4844 4.65243 24.3179 4.332 24.1843C4.22298 23.9618 4.11232 23.7409 4 23.52C4.07928 23.1343 4.20977 22.7189 4.58967 22.5293Z" fill="#429FF5"/>
</g>
</g>
</svg>
