<svg width="32" height="33" viewBox="0 0 32 33" fill="none" xmlns="http://www.w3.org/2000/svg">
<g id="Ghari">
<g id="#000000ff">
<path id="Vector" d="M7.37976 9.54496C8.48185 9.40474 9.53574 9.82761 10.6028 10.0248C11.7312 10.3359 12.9428 10.3688 14.0099 10.8837C14.9016 11.3088 15.1185 12.3911 15.8591 12.9849C16.5098 12.4985 16.6786 11.6352 17.3074 11.1313C17.8332 10.7084 18.5125 10.5682 19.1566 10.4323C20.6663 10.1453 22.1518 9.72901 23.6746 9.5121C24.3165 9.41788 24.8796 9.88896 25.1973 10.4017C25.8853 9.95688 26.9787 9.72025 27.5352 10.4915C28.1421 11.1028 27.9274 12.2399 27.2131 12.6716C26.0475 13.399 24.8358 14.0476 23.6548 14.7509C22.0707 15.6733 20.4581 16.5519 18.9025 17.5226C20.4471 18.4077 22.0247 19.2469 23.5168 20.2175C23.6242 20.3972 23.7359 20.5725 23.8542 20.7456C24.3034 21.9309 22.9449 23.1535 21.81 22.5839C19.8293 21.5037 17.9077 20.3052 15.9314 19.2119C14.7 19.8998 13.4862 20.6185 12.2614 21.324C11.5077 21.7272 10.7912 22.1939 10.0441 22.6036C9.08877 23.0637 7.75442 22.2443 7.95162 21.1334C7.95381 20.3249 8.74259 19.9415 9.33417 19.5778C10.5831 18.9226 11.7597 18.1404 13.0086 17.4809C11.1286 16.4818 9.31664 15.36 7.45863 14.3193C6.36311 13.6225 5.13393 13.1164 4.15235 12.2509C3.93324 11.6067 3.88723 10.8202 4.44814 10.3294C5.04191 9.72025 5.93367 10.0467 6.59536 10.3469C6.80351 10.0314 7.07958 9.77502 7.37976 9.54496ZM5.12736 10.9779C4.825 11.2847 4.90607 11.7492 5.29607 11.931C10.1383 14.7246 14.9827 17.5182 19.8249 20.3118C20.7583 20.8047 21.6106 21.4511 22.6031 21.828C22.7083 21.6855 22.9208 21.4007 23.026 21.2583C22.5396 20.5637 21.7026 20.3118 21.0234 19.867C16.0694 17.0033 11.1089 14.1527 6.15934 11.2868C5.84383 11.105 5.50422 10.9319 5.12736 10.9779ZM16.913 16.3438C17.2986 16.4928 17.682 17.0712 18.129 16.8149C19.2158 16.1488 20.3354 15.5375 21.4309 14.8867C22.7543 14.1462 24.0514 13.364 25.3748 12.6234C25.9532 12.2531 26.6785 12.0077 27.0049 11.357C26.8275 11.1992 26.65 11.0414 26.4747 10.8859C23.2429 12.6212 20.1185 14.5581 16.913 16.3438ZM8.88939 21.0962C8.91787 21.2276 8.97484 21.4927 9.00113 21.6264C9.62339 21.9463 10.1273 21.3613 10.651 21.1115C12.0642 20.2526 13.5585 19.523 14.9191 18.583C14.5642 18.4121 14.2246 18.1755 13.8258 18.1251C12.2066 19.1571 10.4341 19.9546 8.88939 21.0962Z" fill="#0B0B0B"/>
</g>
</g>
</svg>
