<svg width="24" height="24" viewBox="0 0 24 24" fill="none" xmlns="http://www.w3.org/2000/svg">
<g id="ue900-&#216;&#168;&#217;&#130;&#216;&#167;&#216;&#185; &#217;&#133;&#216;&#170;&#216;&#168;&#216;&#177;&#218;&#169;&#217;&#135;--&#216;&#168;&#217;&#130;&#216;&#167;&#216;&#185;-&#217;&#133;&#216;&#170;&#216;&#168;&#216;&#177;&#218;&#169;&#217;&#135;">
<path id="Vector" d="M19.1292 20.8664H4.77047C4.26844 20.8664 3.855 21.2306 3.76641 21.7031H20.1333C20.0447 21.2306 19.628 20.8664 19.1292 20.8664ZM19.1292 18.1298H4.77375C4.21266 18.1298 3.75 18.5859 3.75 19.1503C3.75 19.718 4.20938 20.1741 4.77375 20.1741H19.1292C19.6903 20.1741 20.153 19.718 20.153 19.1503C20.1514 18.8796 20.0429 18.6204 19.8512 18.4293C19.6595 18.2382 19.4 18.1305 19.1292 18.1298ZM14.6438 8.10234C13.5938 7.65609 12.7078 7.28203 12.1402 6.8489C12.1402 6.8489 12 7.75078 12 6.75L12.1402 6.8489C11.9597 6.8489 12 6.75 12 6.75C12 7.45219 12 6 12 6C12 7.00078 12 6.75 12 6.75C11.4323 7.18312 10.3059 7.65609 9.25594 8.10234C6.80156 9.14249 3.75 10.432 3.75 13.0669C3.75 15.5705 5.55469 17.1258 5.96156 17.4441H17.9381C18.345 17.1258 20.1497 15.5705 20.1497 13.0669C20.1497 10.432 17.0981 9.14249 14.6438 8.10234ZM13.8267 9.24749C13.7709 9.37874 13.6462 9.4575 13.5117 9.4575C13.4658 9.4575 13.4231 9.44765 13.3772 9.43125C12.7341 9.1589 12.232 8.91281 11.7825 8.66343C11.6184 8.57156 11.5594 8.36156 11.6513 8.19749C11.7431 8.03343 11.9531 7.97437 12.1172 8.06624C12.5437 8.30249 13.0261 8.53546 13.643 8.80124C13.8202 8.87015 13.9022 9.07359 13.8267 9.24749ZM17.6691 16.3153C17.6002 16.3809 17.5148 16.4137 17.4295 16.4137C17.3409 16.4137 17.2523 16.3809 17.1834 16.3087C17.0522 16.1742 17.0522 15.9576 17.19 15.8264C18.135 14.9076 18.8208 13.4606 18.2269 12.3056C17.7019 11.2852 16.3861 10.7208 15.3328 10.268L15.2934 10.2516C15.1195 10.1794 15.0408 9.97593 15.1163 9.80203C15.1917 9.62812 15.3919 9.54937 15.5658 9.62484L15.6052 9.63796C16.7602 10.1367 18.2006 10.7536 18.8372 11.9939C19.5886 13.4573 18.7913 15.2226 17.6691 16.3153Z" fill="#09D374"/>
</g>
</svg>
