<svg width="20" height="20" viewBox="0 0 20 20" fill="none" xmlns="http://www.w3.org/2000/svg">
<g id="Location" clip-path="url(#clip0_3689_22127)">
<path id="Vector" d="M15.3034 3.8637C16.6803 5.24048 17.4678 7.0988 17.4994 9.04572C17.531 10.9926 16.8041 12.8755 15.4725 14.2962L15.3034 14.4712L11.7675 18.0062C11.3189 18.4546 10.7166 18.7156 10.0827 18.7365C9.44874 18.7574 8.83057 18.5366 8.35338 18.1187L8.23338 18.0062L4.69671 14.4704C3.29018 13.0638 2.5 11.1562 2.5 9.16704C2.5 7.1779 3.29018 5.27024 4.69671 3.8637C6.10324 2.45717 8.01091 1.66699 10 1.66699C11.9892 1.66699 13.8968 2.45717 15.3034 3.8637ZM10 6.66704C9.67174 6.66704 9.34665 6.7317 9.04334 6.85734C8.74002 6.98298 8.46443 7.16712 8.23228 7.39927C8.00013 7.63142 7.81598 7.90702 7.69035 8.21033C7.56471 8.51364 7.50005 8.83873 7.50005 9.16704C7.50005 9.49534 7.56471 9.82043 7.69035 10.1237C7.81598 10.4271 8.00013 10.7027 8.23228 10.9348C8.46443 11.167 8.74002 11.3511 9.04334 11.4767C9.34665 11.6024 9.67174 11.667 10 11.667C10.6631 11.667 11.299 11.4036 11.7678 10.9348C12.2367 10.466 12.5 9.83008 12.5 9.16704C12.5 8.504 12.2367 7.86811 11.7678 7.39927C11.299 6.93043 10.6631 6.66704 10 6.66704Z" fill="#FBFFFD"/>
</g>
<defs>
<clipPath id="clip0_3689_22127">
<rect width="20" height="20" fill="white"/>
</clipPath>
</defs>
</svg>
