<svg width="16" height="16" viewBox="0 0 16 16" fill="none" xmlns="http://www.w3.org/2000/svg">
<g id="vuesax/bulk/profile-2user">
<g id="profile-2user">
<path id="Vector" opacity="0.4" d="M6.00004 1.33301C4.25337 1.33301 2.83337 2.75301 2.83337 4.49967C2.83337 6.21301 4.17337 7.59967 5.92004 7.65967C5.97337 7.65301 6.02671 7.65301 6.06671 7.65967C6.08004 7.65967 6.08671 7.65967 6.10004 7.65967C6.10671 7.65967 6.10671 7.65967 6.11337 7.65967C7.82004 7.59967 9.16004 6.21301 9.16671 4.49967C9.16671 2.75301 7.74671 1.33301 6.00004 1.33301Z" fill="#09D374"/>
<path id="Vector_2" d="M9.38664 9.43293C7.52664 8.19293 4.49331 8.19293 2.61997 9.43293C1.77331 9.9996 1.30664 10.7663 1.30664 11.5863C1.30664 12.4063 1.77331 13.1663 2.61331 13.7263C3.54664 14.3529 4.77331 14.6663 5.99997 14.6663C7.22664 14.6663 8.45331 14.3529 9.38664 13.7263C10.2266 13.1596 10.6933 12.3996 10.6933 11.5729C10.6866 10.7529 10.2266 9.99293 9.38664 9.43293Z" fill="#09D374"/>
<path id="Vector_3" opacity="0.4" d="M13.3266 4.89307C13.4333 6.18641 12.5133 7.31974 11.24 7.47307C11.2333 7.47307 11.2333 7.47307 11.2266 7.47307H11.2066C11.1666 7.47307 11.1266 7.47307 11.0933 7.48641C10.4466 7.51974 9.85328 7.31307 9.40662 6.93307C10.0933 6.31974 10.4866 5.39974 10.4066 4.39974C10.3599 3.85974 10.1733 3.36641 9.89328 2.94641C10.1466 2.81974 10.44 2.73974 10.74 2.71307C12.0466 2.59974 13.2133 3.57307 13.3266 4.89307Z" fill="#09D374"/>
<path id="Vector_4" d="M14.66 11.0599C14.6067 11.7066 14.1933 12.2666 13.5 12.6466C12.8333 13.0133 11.9933 13.1866 11.16 13.1666C11.64 12.7333 11.92 12.1933 11.9733 11.6199C12.04 10.7933 11.6467 9.99994 10.86 9.36661C10.4133 9.01327 9.89333 8.73327 9.32666 8.52661C10.8 8.09994 12.6533 8.38661 13.7933 9.30661C14.4067 9.79994 14.72 10.4199 14.66 11.0599Z" fill="#09D374"/>
</g>
</g>
</svg>
