<svg width="130" height="101" viewBox="0 0 130 101" fill="none" xmlns="http://www.w3.org/2000/svg">
<g id="Group 48096580">
<g id="Group 48096579">
<path id="Vector" d="M97.9831 46.2299C97.5544 46.4932 96.7906 46.823 96.0101 46.484L95.5055 46.2649L96.5166 45.1045C95.7098 44.1936 95.2634 43.0077 95.2647 41.778C95.2659 40.5484 95.7146 39.3633 96.5232 38.4542C97.3319 37.5451 98.4424 36.9771 99.638 36.8611C100.834 36.7452 102.029 37.0896 102.99 37.8271C103.951 38.5646 104.609 39.6423 104.835 40.8498C105.062 42.0573 104.841 43.308 104.216 44.3578C103.59 45.4075 102.605 46.1809 101.453 46.5271C100.3 46.8733 99.0633 46.7673 97.9831 46.2299Z" fill="white"/>
<path id="Vector_2" d="M97.9859 46.2925C97.574 46.5401 96.7893 46.8824 95.9892 46.5349L95.4155 46.2857L96.4445 45.1047C95.8042 44.3673 95.3914 43.4524 95.258 42.4753C95.1245 41.4982 95.2765 40.5025 95.6947 39.6136C96.1129 38.7247 96.7786 37.9824 97.608 37.4802C98.4375 36.9779 99.3935 36.7382 100.356 36.7912C101.318 36.8441 102.243 37.1875 103.015 37.7779C103.787 38.3683 104.372 39.1794 104.694 40.1091C105.017 41.0387 105.064 42.0454 104.829 43.0022C104.594 43.9591 104.088 44.8233 103.374 45.4862C102.657 46.1559 101.761 46.5905 100.8 46.7343C99.8402 46.878 98.86 46.7241 97.9859 46.2925ZM103.63 38.4988C103.209 38.0231 102.701 37.6369 102.134 37.3625C101.567 37.088 100.952 36.9306 100.326 36.8992C99.6997 36.8679 99.0734 36.9631 98.483 37.1796C97.8925 37.3961 97.3495 37.7296 96.885 38.1609C96.4205 38.5923 96.0435 39.1131 95.7756 39.6937C95.5076 40.2743 95.3541 40.9032 95.3236 41.5446C95.2931 42.1859 95.3863 42.8271 95.5979 43.4316C95.8095 44.0361 96.1353 44.5919 96.5567 45.0674L96.5893 45.1042L95.596 46.2442L96.0313 46.4333C96.804 46.7689 97.5686 46.4203 97.9556 46.1827L97.9806 46.1673L98.0068 46.1803C99.0044 46.6766 100.14 46.8019 101.218 46.5345C102.296 46.2672 103.249 45.624 103.914 44.7153C104.579 43.8067 104.915 42.6892 104.863 41.5549C104.811 40.4205 104.376 39.34 103.63 38.4988Z" fill="#6AADB1"/>
<path id="Vector_3" opacity="0.1" d="M104.17 41.7522C104.17 40.6152 103.754 39.5194 103.004 38.6806C102.255 37.8419 101.225 37.3209 100.119 37.2204C100.249 37.2088 100.38 37.2025 100.512 37.2025C101.69 37.2032 102.82 37.6829 103.652 38.536C104.485 39.3892 104.953 40.546 104.953 41.7522C104.953 42.9584 104.485 44.1152 103.652 44.9683C102.82 45.8215 101.69 46.3012 100.512 46.3019C100.38 46.3019 100.249 46.2955 100.12 46.2839C101.226 46.1832 102.255 45.6622 103.005 44.8235C103.754 43.9848 104.17 42.8891 104.17 41.7522Z" fill="black"/>
<path id="Vector_4" d="M100.721 40.845H97.5459V41.1469H100.721V40.845Z" fill="#6AADB1"/>
<path id="Vector_5" d="M103.08 41.8893H97.5459V42.1912H103.08V41.8893Z" fill="#6AADB1"/>
<path id="Vector_6" d="M103.075 42.9338H97.5459V43.2357H103.075V42.9338Z" fill="#6AADB1"/>
</g>
<rect id="Rectangle 2740" x="0.5" y="15.463" width="129" height="85.037" rx="11.5" stroke="#D0DBDC" stroke-dasharray="6 6"/>
<g id="Group 48096578">
<g id="Group">
<path id="Vector_7" d="M105.691 75.2684C105.658 74.8846 104.758 74.8359 104.747 74.4972C104.737 74.1596 105.628 74.0906 106.468 73.3463C106.62 73.2121 107.575 72.3662 107.395 71.8721C107.055 70.9355 102.936 72.0863 102.316 70.7432C102.181 70.4484 102.199 70.0022 101.806 69.0704C101.65 68.6997 101.538 68.5121 101.362 68.475C101.112 68.4223 100.951 68.7186 100.429 69.2007C99.6472 69.9237 99.4606 69.7651 98.9138 70.3799C98.5079 70.8363 98.3975 71.1634 98.1866 71.134C97.888 71.0924 97.9162 70.4107 97.5649 70.3004C97.2065 70.1879 96.6948 70.7464 96.3992 71.2075C95.8443 72.0729 95.8894 72.8459 95.7717 73.5776C95.6437 74.3728 95.2635 75.4909 94.095 76.7642L83.3223 87.682C85.604 85.4767 92.0147 79.5078 94.539 77.3596C95.2677 76.7394 96.0387 76.1261 96.9926 76.2031C97.9109 76.2773 98.8881 76.9825 100.401 77.3148C100.577 77.3537 101.07 77.4553 101.25 77.2185C101.398 77.0228 101.197 76.774 101.333 76.5891C101.516 76.3412 102.025 76.5875 102.799 76.578C103.344 76.5713 103.743 76.4408 104.087 76.3286C104.19 76.2948 105.735 75.7793 105.691 75.2684Z" fill="#429FF5"/>
<path id="Vector_8" d="M84.4311 73.3576C84.2372 73.2633 83.954 73.7008 83.7883 73.6082C83.6231 73.5159 83.8469 73.0495 83.7318 72.4133C83.7111 72.2986 83.5803 71.5756 83.2911 71.5231C82.7427 71.4237 82.1072 73.8208 81.2832 73.7438C81.1024 73.7269 80.8932 73.5891 80.3322 73.5171C80.109 73.4885 79.9866 73.4903 79.918 73.5679C79.8206 73.678 79.9164 73.8443 79.9976 74.2449C80.1193 74.8456 79.9893 74.8934 80.1269 75.345C80.229 75.6801 80.3543 75.8298 80.2794 75.9271C80.1732 76.0648 79.8538 75.854 79.6995 75.9983C79.542 76.1455 79.6627 76.5632 79.799 76.8445C80.0546 77.3723 80.4391 77.5728 80.7567 77.8429C81.1018 78.1365 81.5294 78.6498 81.8039 79.603L83.9414 88.1542C83.5402 86.3739 82.522 81.4376 82.2181 79.5522C82.1304 79.0079 82.0582 78.4443 82.3704 77.9883C82.6711 77.5493 83.2918 77.2629 83.8879 76.6004C83.9576 76.523 84.1487 76.3052 84.0867 76.1468C84.0355 76.0159 83.858 76.0449 83.8084 75.9234C83.7418 75.7605 84.0072 75.576 84.2258 75.1855C84.3799 74.9101 84.4324 74.6723 84.4776 74.4679C84.4912 74.4062 84.6891 73.4832 84.4311 73.3576Z" fill="#429FF5"/>
<path id="Vector_9" d="M87.874 76.1391L88.258 75.0188L88.3492 74.9644C88.7711 74.7128 89.0681 74.4106 89.2322 74.0659C89.2583 74.0111 89.2817 73.9549 89.3055 73.8977C89.3999 73.6711 89.5171 73.3893 89.8091 73.1371C89.9723 72.9967 90.3892 72.6908 90.6982 72.9058C90.7818 72.9627 90.8298 73.0381 90.8581 73.1127C90.8715 73.1041 90.8851 73.0956 90.8996 73.0863C91.0795 72.9756 91.1943 72.9467 91.3049 72.9188C91.3898 72.8974 91.4775 72.8754 91.635 72.7985C91.7041 72.7648 91.7605 72.7331 91.8079 72.7065C91.9519 72.6262 92.1333 72.5352 92.3306 72.6352C92.5378 72.7497 92.5645 72.9834 92.5823 73.1381C92.6141 73.4142 92.6019 73.5959 92.5937 73.7164C92.5907 73.7604 92.5874 73.81 92.5897 73.8269C92.6097 73.9631 93.2104 74.14 93.4361 74.2079C93.9439 74.3588 94.3833 74.4894 94.4083 74.8746C94.4264 75.1502 94.2023 75.3928 93.7236 75.6145C93.5745 75.6835 93.4324 75.7218 93.3106 75.7466C93.3634 75.8282 93.3971 75.9301 93.3728 76.0521C93.3148 76.3409 92.9764 76.4925 92.3668 76.504C92.2152 76.5073 92.0115 76.5109 91.7625 76.4385C91.6453 76.4043 91.5456 76.361 91.461 76.3226C91.4361 76.371 91.3996 76.4188 91.3444 76.4593C91.1821 76.5787 90.9664 76.5675 90.7048 76.4162C90.4148 76.2542 90.1971 76.0758 90.005 75.9188C89.8371 75.782 89.6922 75.6646 89.5604 75.6107C89.3146 75.5139 89.0411 75.6178 88.7088 75.7636L87.874 76.1391Z" fill="#429FF5"/>
<path id="Vector_10" d="M91.3957 70.0756L90.2375 69.9804L90.1628 69.904C89.8176 69.5509 89.4561 69.3342 89.088 69.2594C89.0295 69.2475 88.9704 69.2387 88.9102 69.2296C88.6716 69.1939 88.375 69.1496 88.0622 68.925C87.8878 68.7993 87.4924 68.465 87.6177 68.1052C87.6503 68.0081 87.7096 67.9415 87.773 67.8946C87.7615 67.8836 87.75 67.8723 87.7375 67.8603C87.587 67.7106 87.5305 67.6045 87.4761 67.5024C87.4342 67.4238 87.3911 67.3428 87.2784 67.2067C87.229 67.147 87.1847 67.0993 87.1474 67.0591C87.0349 66.9373 86.9027 66.7811 86.9474 66.5608C87.0032 66.327 87.2177 66.2413 87.3598 66.1845C87.6131 66.083 87.7882 66.049 87.9044 66.0265C87.9468 66.0184 87.9946 66.009 88.0101 66.0025C88.134 65.9482 88.1492 65.3098 88.1562 65.0695C88.1703 64.5295 88.1825 64.0622 88.5409 63.9398C88.7973 63.852 89.0838 64.0119 89.4153 64.4287C89.5184 64.5585 89.5907 64.6892 89.6451 64.8033C89.7089 64.7303 89.7969 64.6712 89.9186 64.6643C90.2068 64.6484 90.4362 64.9443 90.6017 65.5437C90.6432 65.6926 90.6983 65.893 90.6929 66.1574C90.6902 66.2819 90.6745 66.3913 90.6596 66.4847C90.7118 66.4971 90.7663 66.521 90.8187 66.5653C90.9729 66.6954 91.017 66.9113 90.9401 67.2082C90.8602 67.5358 90.7465 67.7961 90.6466 68.0258C90.5596 68.2264 90.4853 68.3994 90.4676 68.5433C90.4383 68.8107 90.6061 69.0546 90.8284 69.3459L91.3957 70.0756Z" fill="#429FF5"/>
<path id="Vector_11" d="M92.3291 66.678L92.713 65.5577L92.8042 65.5033C93.2262 65.2517 93.5231 64.9495 93.6873 64.6048C93.7134 64.55 93.7367 64.4938 93.7606 64.4367C93.8549 64.21 93.9721 63.9282 94.2641 63.676C94.4274 63.5356 94.8442 63.2297 95.1532 63.4447C95.2369 63.5016 95.2849 63.577 95.3132 63.6516C95.3265 63.643 95.3401 63.6345 95.3547 63.6252C95.5346 63.5145 95.6494 63.4856 95.7599 63.4577C95.8449 63.4363 95.9326 63.4143 96.0901 63.3374C96.1591 63.3037 96.2155 63.272 96.263 63.2454C96.4069 63.1651 96.5884 63.0741 96.7857 63.1741C96.9929 63.2886 97.0196 63.5223 97.0374 63.677C97.0692 63.9531 97.057 64.1348 97.0488 64.2553C97.0457 64.2993 97.0425 64.3489 97.0447 64.3658C97.0647 64.502 97.6654 64.6789 97.8912 64.7469C98.3989 64.8977 98.8383 65.0283 98.8633 65.4135C98.8814 65.6891 98.6574 65.9317 98.1787 66.1534C98.0296 66.2224 97.8875 66.2607 97.7656 66.2855C97.8185 66.3671 97.8522 66.469 97.8279 66.591C97.7698 66.8798 97.4315 67.0315 96.8219 67.0429C96.6703 67.0462 96.4666 67.0498 96.2176 66.9774C96.1004 66.9432 96.0007 66.8999 95.9161 66.8615C95.8911 66.9099 95.8547 66.9577 95.7994 66.9982C95.6371 67.1176 95.4215 67.1064 95.1599 66.9551C94.8699 66.7931 94.6522 66.6147 94.4601 66.4577C94.2922 66.3209 94.1473 66.2036 94.0155 66.1496C93.7697 66.0528 93.4961 66.1567 93.1639 66.3026L92.3291 66.678Z" fill="#429FF5"/>
<path id="Vector_12" d="M83.6784 87.8359L83.5261 87.5891L83.2578 87.494C83.2651 87.4679 83.2774 87.4057 83.2974 87.3087C83.4074 86.7775 83.7415 85.1605 84.5246 82.7403C85.0713 81.0508 85.7267 79.3598 86.4728 77.7133C87.2201 76.0643 87.8797 74.862 88.4096 73.8955C88.8093 73.1666 89.202 72.4785 89.585 71.8083C90.6075 70.0177 91.5731 68.3261 92.3878 66.3284C92.5699 65.8825 92.9485 64.9543 92.8843 63.737C92.847 63.031 92.6669 62.332 92.3485 61.6599L92.863 61.4057C93.214 62.1483 93.413 62.9223 93.4544 63.7062C93.5256 65.0558 93.1131 66.0673 92.9149 66.5533C92.0858 68.5862 91.1107 70.294 90.0782 72.1019C89.6969 72.7697 89.3057 73.4548 88.9076 74.1807C88.3826 75.1381 87.7289 76.3301 86.9912 77.9579C86.2538 79.5846 85.6066 81.255 85.0665 82.9231C84.2934 85.3129 83.9645 86.9058 83.8564 87.4291C83.7985 87.7084 83.7864 87.767 83.6784 87.8359Z" fill="#429FF5"/>
<path id="Vector_13" d="M91.0118 62.0314C90.9907 62.021 90.9696 62.01 90.9487 61.9978C90.5219 61.7584 90.2423 61.2912 90.1173 60.6091C90.0591 60.2885 90.0996 59.9753 90.1802 59.3506C90.1925 59.2543 90.2605 58.7682 90.4544 58.1486C90.581 57.7437 90.6622 57.5883 90.8018 57.4844C90.9569 57.3684 91.1403 57.3245 91.3236 57.3242C91.3408 57.2707 91.3705 57.2215 91.4167 57.1791C91.6076 57.003 91.8272 57.1463 91.9468 57.2221C92.0068 57.2617 92.0813 57.3116 92.1695 57.3492C92.3078 57.4089 92.3997 57.4035 92.5387 57.396C92.6718 57.3887 92.8373 57.3796 93.0506 57.4344C93.4719 57.5409 93.7405 57.8094 93.8292 57.8978C94.2965 58.3607 94.3628 58.9374 94.4394 59.6052C94.4544 59.739 94.4958 60.2194 94.398 60.8022C94.3275 61.2226 94.2356 61.3797 94.147 61.4866C93.9655 61.7065 93.7483 61.7767 93.2193 61.9074C92.6665 62.0448 92.3892 62.1133 92.1707 62.1305C91.6626 62.1697 91.3435 62.1943 91.0118 62.0314Z" fill="#429FF5"/>
</g>
<g id="Group_2">
<path id="Vector_14" d="M80.021 90.4025H52.2572C48.093 90.4025 44.7051 86.9418 44.7051 82.6879V7.71457C44.7051 3.46078 48.093 3.05176e-05 52.2572 3.05176e-05H80.021C84.1851 3.05176e-05 87.573 3.46078 87.573 7.71457C88.0898 37.8216 88.9711 71.5366 87.573 82.6879C87.573 86.9418 84.1851 90.4025 80.021 90.4025Z" fill="#656478"/>
<path id="Vector_15" d="M87.9601 27.5777C87.7839 27.5777 87.6406 27.7241 87.6406 27.9041V38.3477C87.6406 38.5277 87.7839 38.6741 87.9601 38.6741C88.1363 38.6741 88.2796 38.5277 88.2796 38.3477V27.9041C88.2796 27.7241 88.1363 27.5777 87.9601 27.5777Z" fill="#656478"/>
<path id="Vector_16" d="M84.9629 8.65594L86.854 82.6867C86.854 86.3893 84.0329 89.418 80.4658 89.6529H80.4642C80.4115 89.6562 80.3588 89.6595 80.3045 89.6611C80.2102 89.666 80.116 89.6676 80.0201 89.6676C80.0201 89.6676 79.6687 89.6415 79.0265 89.5926C78.3779 89.5436 77.4338 89.4702 76.2565 89.3739C75.9035 89.3462 75.5313 89.3152 75.1383 89.2825C74.3555 89.2172 73.4961 89.1454 72.5744 89.0639C72.207 89.0329 71.8268 88.9986 71.4386 88.9643C69.4546 88.7897 67.2325 88.5857 64.889 88.354C64.4929 88.3165 64.0935 88.2773 63.691 88.2365C63.5855 88.2251 45.4238 83.5614 45.4238 82.6867V7.7147C45.4238 3.85874 48.483 0.73381 52.2577 0.73381H56.3376C56.9894 0.73381 57.5133 1.25273 57.5693 1.91688C57.574 1.96094 57.5788 2.00499 57.5868 2.04905C57.705 2.71647 58.3041 3.18153 58.9686 3.18153H73.3092C73.9738 3.18153 74.5728 2.71647 74.691 2.04905C74.699 2.00499 74.7038 1.96094 74.7086 1.91688C74.7645 1.25273 75.2885 0.73381 75.9402 0.73381H80.0201C83.7949 0.73381 84.9629 4.79997 84.9629 8.65594Z" fill="white"/>
<path id="Vector_17" d="M44.5451 19.745C44.3689 19.745 44.2256 19.8913 44.2256 20.0713V22.6822C44.2256 22.8622 44.3689 23.0086 44.5451 23.0086C44.7213 23.0086 44.8646 22.8622 44.8646 22.6822V20.0713C44.8646 19.8913 44.7213 19.745 44.5451 19.745Z" fill="#656478"/>
<path id="Vector_18" d="M44.5451 27.5777C44.3689 27.5777 44.2256 27.7241 44.2256 27.9041V32.9627C44.2256 33.1427 44.3689 33.2891 44.5451 33.2891C44.7213 33.2891 44.8646 33.1427 44.8646 32.9627V27.9041C44.8646 27.7241 44.7213 27.5777 44.5451 27.5777Z" fill="#656478"/>
<path id="Vector_19" d="M44.5451 34.7576C44.3689 34.7576 44.2256 34.904 44.2256 35.0839V40.1426C44.2256 40.3226 44.3689 40.4689 44.5451 40.4689C44.7213 40.4689 44.8646 40.3226 44.8646 40.1426V35.0839C44.8646 34.904 44.7213 34.7576 44.5451 34.7576Z" fill="#656478"/>
<path id="Vector_20" d="M56.233 1.8767H50.1104C50.0807 1.8767 50.0566 1.90127 50.0566 1.93158V2.63773C50.0566 2.66804 50.0807 2.69261 50.1104 2.69261H56.233C56.2627 2.69261 56.2867 2.66804 56.2867 2.63773V1.93158C56.2867 1.90127 56.2627 1.8767 56.233 1.8767Z" fill="#E6E6E6"/>
<path id="Vector_21" d="M76.9495 2.69257C77.3024 2.69257 77.5885 2.40033 77.5885 2.03984C77.5885 1.67935 77.3024 1.38712 76.9495 1.38712C76.5966 1.38712 76.3105 1.67935 76.3105 2.03984C76.3105 2.40033 76.5966 2.69257 76.9495 2.69257Z" fill="#E6E6E6"/>
<path id="Vector_22" d="M78.7064 2.69257C79.0593 2.69257 79.3453 2.40033 79.3453 2.03984C79.3453 1.67935 79.0593 1.38712 78.7064 1.38712C78.3535 1.38712 78.0674 1.67935 78.0674 2.03984C78.0674 2.40033 78.3535 2.69257 78.7064 2.69257Z" fill="#E6E6E6"/>
<path id="Vector_23" d="M80.4642 2.69257C80.8171 2.69257 81.1032 2.40033 81.1032 2.03984C81.1032 1.67935 80.8171 1.38712 80.4642 1.38712C80.1113 1.38712 79.8252 1.67935 79.8252 2.03984C79.8252 2.40033 80.1113 2.69257 80.4642 2.69257Z" fill="#E6E6E6"/>
</g>
<path id="Vector_24" d="M65.468 39.379C70.4894 39.379 74.5601 35.2208 74.5601 30.0914C74.5601 24.962 70.4894 20.8038 65.468 20.8038C60.4466 20.8038 56.376 24.962 56.376 30.0914C56.376 35.2208 60.4466 39.379 65.468 39.379Z" fill="#429FF5"/>
</g>
<g id="Group 48096575">
<path id="Vector_25" d="M99.0827 26.2872C98.2009 26.8286 96.6299 27.5071 95.0245 26.8099L93.9867 26.3591L96.0663 23.9723C94.4068 22.0988 93.4887 19.6594 93.4912 17.1302C93.4937 14.601 94.4167 12.1635 96.08 10.2936C97.7432 8.42358 100.027 7.25533 102.487 7.01682C104.946 6.77831 107.404 7.48667 109.38 9.00363C111.357 10.5206 112.71 12.7373 113.177 15.221C113.643 17.7047 113.189 20.2773 111.902 22.4364C110.616 24.5956 108.59 26.1864 106.219 26.8984C103.849 27.6105 101.305 27.3925 99.0827 26.2872Z" fill="white"/>
<path id="Vector_26" d="M99.0876 26.4159C98.2403 26.9252 96.6263 27.6291 94.9807 26.9143L93.8006 26.4018L95.9171 23.9726C94.6002 22.4559 93.7511 20.5742 93.4766 18.5644C93.2022 16.5546 93.5147 14.5065 94.3749 12.6782C95.2351 10.8499 96.6044 9.32311 98.3104 8.29005C100.016 7.25699 101.983 6.7639 103.962 6.87286C105.941 6.98183 107.845 7.68798 109.433 8.9024C111.021 10.1168 112.222 11.7852 112.886 13.6974C113.55 15.6096 113.646 17.6801 113.163 19.6482C112.679 21.6163 111.638 23.3939 110.17 24.7573C108.695 26.1348 106.852 27.0289 104.877 27.3244C102.902 27.62 100.885 27.3036 99.0876 26.4159ZM110.698 10.3852C109.831 9.4067 108.785 8.6125 107.619 8.04798C106.453 7.48346 105.189 7.15969 103.901 7.09516C102.613 7.03062 101.324 7.22659 100.11 7.67187C98.8956 8.11714 97.7787 8.80301 96.8232 9.69028C95.8677 10.5776 95.0923 11.6489 94.5412 12.843C93.9902 14.0372 93.6743 15.3308 93.6116 16.65C93.5489 17.9691 93.7406 19.288 94.1758 20.5313C94.611 21.7746 95.2811 22.918 96.148 23.8961L96.2149 23.9717L94.1719 26.3166L95.0673 26.7054C96.6566 27.3957 98.2292 26.6787 99.0252 26.1899L99.0767 26.1582L99.1307 26.1851C101.183 27.2059 103.518 27.4635 105.735 26.9137C107.952 26.3638 109.913 25.0408 111.281 23.1718C112.65 21.3028 113.34 19.0044 113.233 16.6711C113.127 14.3379 112.23 12.1154 110.698 10.3852Z" fill="#429FF5"/>
<path id="Vector_27" opacity="0.1" d="M111.808 17.077C111.808 14.7383 110.952 12.4844 109.41 10.7592C107.868 9.03402 105.751 7.9625 103.476 7.7557C103.742 7.73182 104.011 7.7189 104.283 7.7189C106.707 7.7204 109.03 8.707 110.743 10.4618C112.456 12.2166 113.418 14.5961 113.418 17.077C113.418 19.558 112.456 21.9374 110.743 23.6922C109.03 25.447 106.707 26.4336 104.283 26.4351C104.012 26.4351 103.743 26.422 103.477 26.3982C105.752 26.1911 107.869 25.1195 109.41 23.3943C110.952 21.6691 111.808 19.4155 111.808 17.077Z" fill="black"/>
<path id="Vector_28" d="M104.713 15.211H98.1816V15.832H104.713V15.211Z" fill="#429FF5"/>
<path id="Vector_29" d="M109.565 17.3591H98.1816V17.98H109.565V17.3591Z" fill="#429FF5"/>
<path id="Vector_30" d="M109.553 19.5074H98.1816V20.1284H109.553V19.5074Z" fill="#429FF5"/>
</g>
<g id="Group_3">
<path id="Vector_31" d="M64.7926 70.969H24.3164C22.6869 70.969 21.3613 69.6148 21.3613 67.9504V36.6853C21.3613 35.0209 22.6869 33.6667 24.3164 33.6667H64.7926C66.4221 33.6667 67.7477 35.0209 67.7477 36.6853V67.9504C67.7477 69.6148 66.4221 70.969 64.7926 70.969Z" fill="white"/>
<path id="Vector_32" d="M64.7926 70.969H24.3164C22.6869 70.969 21.3613 69.6148 21.3613 67.9504V36.6853C21.3613 35.0209 22.6869 33.6667 24.3164 33.6667H64.7926C66.4221 33.6667 67.7477 35.0209 67.7477 36.6853V67.9504C67.7477 69.6148 66.4221 70.969 64.7926 70.969ZM24.3164 34.1708C22.9591 34.1708 21.8548 35.2988 21.8548 36.6853V67.9504C21.8548 69.3369 22.9591 70.4649 24.3164 70.4649H64.7926C66.1499 70.4649 67.2542 69.3369 67.2542 67.9504V36.6853C67.2542 35.2988 66.1499 34.1708 64.7926 34.1708H24.3164Z" fill="#656478"/>
<path id="Vector_33" d="M60.3457 37.4473C60.7545 37.4473 61.0859 37.1088 61.0859 36.6912C61.0859 36.2736 60.7545 35.9351 60.3457 35.9351C59.9369 35.9351 59.6055 36.2736 59.6055 36.6912C59.6055 37.1088 59.9369 37.4473 60.3457 37.4473Z" fill="#656478"/>
<path id="Vector_34" d="M62.3193 37.4473C62.7281 37.4473 63.0595 37.1088 63.0595 36.6912C63.0595 36.2736 62.7281 35.9351 62.3193 35.9351C61.9105 35.9351 61.5791 36.2736 61.5791 36.6912C61.5791 37.1088 61.9105 37.4473 62.3193 37.4473Z" fill="#656478"/>
<path id="Vector_35" d="M64.2929 37.4473C64.7018 37.4473 65.0332 37.1088 65.0332 36.6912C65.0332 36.2736 64.7018 35.9351 64.2929 35.9351C63.8841 35.9351 63.5527 36.2736 63.5527 36.6912C63.5527 37.1088 63.8841 37.4473 64.2929 37.4473Z" fill="#656478"/>
<path id="Vector_36" d="M25.5556 48.9152C25.3516 48.9152 25.1855 49.0848 25.1855 49.2933C25.1855 49.3949 25.224 49.489 25.2937 49.5584C25.3641 49.632 25.4563 49.6713 25.5556 49.6713H63.7997C64.0038 49.6713 64.1698 49.5018 64.1698 49.2933C64.1698 49.1916 64.1314 49.0976 64.0616 49.0282C63.9912 48.9546 63.8991 48.9152 63.7997 48.9152H25.5556Z" fill="#B1CEC0"/>
<path id="Vector_37" d="M56.8914 48.7893V49.7974H25.556C25.4203 49.7974 25.2969 49.742 25.2081 49.6487C25.1168 49.558 25.0625 49.432 25.0625 49.2933C25.0625 49.0161 25.2846 48.7893 25.556 48.7893L56.8914 48.7893Z" fill="#429FF5"/>
<path id="Vector_38" d="M63.1834 46.8988H58.2487C57.7045 46.8988 57.2617 46.4467 57.2617 45.8906C57.2617 45.3346 57.7045 44.8825 58.2487 44.8825H63.1834C63.7276 44.8825 64.1703 45.3346 64.1703 45.8906C64.1703 46.4467 63.7276 46.8988 63.1834 46.8988Z" fill="#B1CEC0"/>
<path id="Vector_39" d="M30.8611 41.6061H25.9264C25.3822 41.6061 24.9395 41.154 24.9395 40.5979C24.9395 40.0419 25.3822 39.5898 25.9264 39.5898H30.8611C31.4053 39.5898 31.8481 40.0419 31.8481 40.5979C31.8481 41.154 31.4053 41.6061 30.8611 41.6061Z" fill="#B1CEC0"/>
<path id="Vector_40" d="M25.5556 60.2571C25.3516 60.2571 25.1855 60.4267 25.1855 60.6352C25.1855 60.7369 25.224 60.8309 25.2937 60.9003C25.3641 60.9739 25.4563 61.0133 25.5556 61.0133H63.7997C64.0038 61.0133 64.1698 60.8437 64.1698 60.6352C64.1698 60.5335 64.1314 60.4395 64.0616 60.3701C63.9912 60.2965 63.8991 60.2571 63.7997 60.2571H25.5556Z" fill="#B1CEC0"/>
<path id="Vector_41" d="M37.8928 60.1312V61.1393H25.556C25.4203 61.1393 25.2969 61.0839 25.2081 60.9906C25.1168 60.8999 25.0625 60.7739 25.0625 60.6353C25.0625 60.358 25.2846 60.1312 25.556 60.1312L37.8928 60.1312Z" fill="#429FF5"/>
<path id="Vector_42" d="M63.1834 58.2409H58.2487C57.7045 58.2409 57.2617 57.7888 57.2617 57.2328C57.2617 56.6767 57.7045 56.2246 58.2487 56.2246H63.1834C63.7276 56.2246 64.1703 56.6767 64.1703 57.2328C64.1703 57.7888 63.7276 58.2409 63.1834 58.2409Z" fill="#B1CEC0"/>
</g>
</g>
</svg>
