<svg width="123" height="122" viewBox="0 0 123 122" fill="none" xmlns="http://www.w3.org/2000/svg">
<g id="Group 48096602">
<g id="&#60;Group&#62;">
<g id="Mask group">
<mask id="mask0_5357_48805" style="mask-type:alpha" maskUnits="userSpaceOnUse" x="2" y="0" width="121" height="120">
<path id="&#60;Path&#62;" d="M122.5 60C122.5 76.1785 116.089 90.8485 105.68 101.634C94.7816 112.948 79.4705 120 62.5 120C45.5295 120 30.2184 112.948 19.3196 101.634C8.91105 90.8485 2.5 76.1785 2.5 60C2.5 26.8888 29.351 0 62.5 0C95.6112 0 122.5 26.8888 122.5 60Z" fill="#D0E7FD"/>
</mask>
<g mask="url(#mask0_5357_48805)">
<path id="&#60;Path&#62;_2" d="M122.5 60C122.5 76.1785 116.089 90.8485 105.68 101.634C94.7816 112.948 79.4705 120 62.5 120C45.5295 120 30.2184 112.948 19.3196 101.634C8.91105 90.8485 2.5 76.1785 2.5 60C2.5 26.8888 29.351 0 62.5 0C95.6112 0 122.5 26.8888 122.5 60Z" fill="#E4F1FE"/>
<g id="Group 48096601">
<path id="Vector" fill-rule="evenodd" clip-rule="evenodd" d="M135.222 113.619V117H-10.5V113.619H14.9903V85.8976H23.6423V113.619H24.3876V85.3273H39.8634V113.619H41.2374V79.4816H83.3913V113.619H84.09V85.3273H99.5658V113.619H100.556V85.8976H109.208V113.619H135.222ZM99.5658 84.8486H84.09V82.0684H99.5658V84.8486ZM24.3876 82.0684H39.8634V84.8486H24.3876V82.0684ZM45.2199 76.2023C53.0801 73.7886 71.2459 73.3915 79.4204 76.1717V79.1048H45.2199V76.2023ZM79.4204 75.6523C71.0013 72.8721 53.3246 73.2591 45.2199 75.6931V74.9089C52.4862 72.0166 71.9329 71.5889 79.4204 74.9089V75.6523ZM44.3233 72.2508C44.1253 67.4439 45.4761 63.411 49.61 59.9484C54.5823 55.7831 60.4629 53.624 60.917 51.4548H61.5807L61.604 50.8743C61.441 50.7928 61.3246 50.6401 61.3246 50.4669C61.3246 50.2734 61.4527 50.1207 61.639 50.0392L61.6506 49.6013C61.1383 49.5198 60.754 49.1226 60.754 48.6542C60.754 48.1551 61.1732 47.758 61.7205 47.6968L61.7438 47.2284C61.441 47.1775 61.2081 46.9534 61.2081 46.6784C61.2081 46.3933 61.4643 46.159 61.7787 46.1183L61.8602 44L61.9417 46.1183C62.2561 46.159 62.5007 46.3933 62.5007 46.6784C62.5007 46.9534 62.2794 47.1775 61.9767 47.2284L62 47.6968C62.5356 47.758 62.9665 48.1551 62.9665 48.6542C62.9665 49.1226 62.5822 49.5198 62.0698 49.6013L62.0815 50.0392C62.2678 50.1207 62.3959 50.2734 62.3959 50.4669C62.3959 50.6401 62.2794 50.7928 62.1164 50.8743L62.1397 51.4548H62.8034C63.2576 53.624 69.1265 55.7831 74.1105 59.9484C78.1395 63.3295 79.5253 67.2504 79.4088 71.9148C79.401 72.0845 79.3933 72.2576 79.3855 72.4342C79.37 72.8755 79.3389 73.327 79.2924 73.7886C76.3928 72.2814 66.9955 71.4361 61.8602 71.4056C56.5735 71.4463 47.3276 72.2814 44.4281 73.7886C44.3893 73.4492 44.3621 73.1097 44.3466 72.7702C44.3311 72.5937 44.3233 72.4206 44.3233 72.2508ZM14.6875 77.6179C14.6526 77.2513 14.7341 76.9457 15.0368 76.6911C15.3745 76.4162 15.7588 76.2736 15.7938 76.131H15.8403V76.0903C15.8248 76.0835 15.817 76.0733 15.817 76.0597C15.817 76.0461 15.8248 76.0359 15.8403 76.0292V76.0088C15.8054 75.9986 15.7821 75.9681 15.7821 75.9375C15.7821 75.9069 15.8054 75.8866 15.8403 75.8764V75.8458C15.8287 75.8458 15.8054 75.8255 15.8054 75.8051C15.8054 75.7949 15.8287 75.7746 15.852 75.7746V75.632L15.8636 75.7746C15.8753 75.7746 15.8986 75.7949 15.8986 75.8051C15.8986 75.8255 15.8869 75.8458 15.8636 75.8458V75.8764C15.8986 75.8866 15.9218 75.9069 15.9218 75.9375C15.9218 75.9681 15.8986 75.9986 15.8636 76.0088V76.0292C15.8791 76.0359 15.8869 76.0461 15.8869 76.0597C15.8869 76.0733 15.883 76.0835 15.8753 76.0903V76.131H15.9218C15.9451 76.2736 16.3411 76.4162 16.6671 76.6911C16.9699 76.9457 17.0514 77.2513 17.0164 77.6179C16.8185 77.516 14.8855 77.516 14.6875 77.6179ZM-9.02112 54.1638C-9.1725 52.6158 -8.84645 51.3428 -7.55389 50.2633C-6.15652 49.0819 -4.49133 48.4708 -4.36324 47.8598H-4.17692V47.6968C-4.2235 47.6765 -4.24679 47.6256 -4.24679 47.5848C-4.24679 47.5237 -4.21186 47.483 -4.16528 47.4626L-4.15363 47.3404C-4.30501 47.3098 -4.40982 47.1978 -4.40982 47.0654C-4.40982 46.933 -4.29337 46.8108 -4.14199 46.8006L-4.13034 46.6682C-4.21186 46.6581 -4.28172 46.5868 -4.28172 46.5155C-4.28172 46.434 -4.21186 46.3627 -4.1187 46.3525L-4.09541 45.7517L-4.07212 46.3525C-3.99061 46.3627 -3.92074 46.434 -3.92074 46.5155C-3.92074 46.5868 -3.97896 46.6581 -4.06048 46.6682V46.8006C-3.90909 46.8108 -3.79265 46.933 -3.79265 47.0654C-3.79265 47.1978 -3.89745 47.3098 -4.03719 47.3404V47.4626C-3.97896 47.483 -3.94403 47.5237 -3.94403 47.5848C-3.94403 47.6256 -3.97896 47.6765 -4.02554 47.6968V47.8598H-3.83923C-3.69949 48.4708 -2.04594 49.0819 -0.63693 50.2633C0.643987 51.3428 0.981684 52.6158 0.818658 54.1638C0.00352859 53.7462 -2.65147 53.5018 -4.09541 53.4916C-5.58593 53.5018 -8.20599 53.7462 -9.02112 54.1638ZM-8.74165 55.3961L-9.30059 54.5711C-8.26422 54.0314 -5.35304 53.8379 -4.10705 53.8277C-2.896 53.8379 0.0733967 54.0314 1.10978 54.5711L0.539184 55.3961C0.376158 55.3146 0.0850401 55.2331 -0.275946 55.1516V58.5633H0.131618V61.0992H-1.05614L-0.171143 75.6014H0.888525V76.1208H-9.05606V75.6014H-8.20599L-7.79843 61.0992H-8.57862V58.5633H-7.98474V55.172C-8.32244 55.2433 -8.57862 55.3146 -8.74165 55.3961ZM-1.9062 54.9887H-4.1187V58.5633H-1.9062V54.9887ZM-4.666 54.9887H-6.36613V58.5633H-4.666V54.9887ZM-1.34726 54.9887V58.5735H-0.834891V55.06C-0.997917 55.0396 -1.16871 55.0159 -1.34726 54.9887ZM-6.91343 54.9989C-7.09198 55.026 -7.26665 55.0532 -7.43744 55.0804V58.5735H-6.91343V54.9989ZM14.9903 84.2783H23.6539V85.6124H14.9903V84.2783ZM87.5485 98.9944H96.5731C96.6779 96.1327 97.0156 93.0774 96.0258 91.784C94.4188 89.6861 92.2413 89.7268 92.0666 89.0038C91.8803 89.7268 89.7027 89.6861 88.0958 91.784C87.0943 93.0774 87.4436 96.1327 87.5485 98.9944ZM87.5485 113.374H96.5731C96.6779 110.513 97.0156 107.468 96.0258 106.164C94.4188 104.066 92.2413 104.107 92.0666 103.384C91.8803 104.107 89.7027 104.066 88.0958 106.164C87.0943 107.468 87.4436 110.513 87.5485 113.374ZM27.846 98.9944H36.8707C36.9755 96.1327 37.3132 93.0774 36.3234 91.784C34.7048 89.6861 32.5388 89.7268 32.3525 89.0038C32.1779 89.7268 30.0003 89.6861 28.3933 91.784C27.3919 93.0774 27.7412 96.1327 27.846 98.9944ZM27.846 113.374H36.8707C36.9755 110.513 37.3132 107.468 36.3234 106.164C34.7048 104.066 32.5388 104.107 32.3525 103.384C32.1779 104.107 30.0003 104.066 28.3933 106.164C27.3919 107.468 27.7412 110.513 27.846 113.374ZM17.1329 99.9619H21.4997C21.5462 97.2529 21.7209 94.3606 21.2318 93.1283C20.4516 91.1424 19.4036 91.173 19.3221 90.4907C19.2289 91.173 18.1809 91.1424 17.4007 93.1283C16.9233 94.3606 17.0863 97.2529 17.1329 99.9619ZM17.1329 113.11H21.4997C21.5462 110.401 21.7209 107.508 21.2318 106.276C20.4516 104.29 19.4036 104.331 19.3221 103.649C19.2289 104.331 18.1809 104.29 17.4007 106.276C16.9233 107.508 17.0863 110.401 17.1329 113.11ZM77.2778 113.619V83.8811H47.2345V113.619H47.7934V84.37H76.7189V113.619H77.2778ZM73.6796 113.619C73.9707 106.714 74.6461 99.5749 72.2473 96.4484C68.1949 91.173 62.7219 91.2748 62.2561 89.4417C61.7904 91.2748 56.329 91.173 52.2766 96.4484C49.8662 99.5749 50.5532 106.714 50.8443 113.619H52.0903L52.067 112.926C52.0437 112 51.9972 111.042 51.9506 110.116C51.7177 104.881 51.4848 99.9314 53.3829 97.3649C55.4673 94.5338 58.0058 93.4135 59.6943 92.6701C60.2183 92.4358 60.9519 92.1099 61.08 91.947C61.08 91.947 61.0684 91.9674 61.0567 91.9979H63.4672C63.4556 91.9674 63.4439 91.947 63.4439 91.947C63.572 92.1099 64.294 92.4358 64.8296 92.6701C66.5181 93.4135 69.0567 94.5338 71.1411 97.3649C73.0391 99.9314 72.8063 104.881 72.5617 110.116C72.5268 111.042 72.4802 112 72.4453 112.926L72.422 113.619H73.6796ZM55.083 111.022C55.083 111.022 55.1179 111.877 55.1412 112.285H69.3827C69.406 111.877 69.4176 111.46 69.4409 111.022C69.6389 106.368 69.8601 101.082 68.5443 99.1472C66.9257 96.7946 65.0043 95.8781 63.4672 95.155C63.1644 95.0022 62.885 94.8698 62.6288 94.7374H61.8952C61.639 94.8698 61.3595 95.0022 61.0567 95.155C59.5196 95.8781 57.5983 96.7946 55.9796 99.1472C54.6638 101.082 54.885 106.358 55.083 111.022ZM102.71 99.9619H107.077C107.123 97.2529 107.286 94.3606 106.809 93.1283C106.029 91.1424 104.981 91.173 104.887 90.4907C104.806 91.173 103.758 91.1424 102.978 93.1283C102.5 94.3606 102.663 97.2529 102.71 99.9619ZM102.71 113.11H107.077C107.123 110.401 107.286 107.508 106.809 106.276C106.029 104.29 104.981 104.331 104.887 103.649C104.806 104.331 103.758 104.29 102.978 106.276C102.5 107.508 102.663 110.401 102.71 113.11ZM40.4223 76.5893H24.1197V75.6218H24.1779C23.9218 73.1165 24.4691 71.0593 26.5418 69.3178C28.8125 67.4134 31.4908 66.4255 31.7004 65.4376H32.0032L32.0148 65.1728C31.945 65.1321 31.8867 65.0608 31.8867 64.9794C31.8867 64.8979 31.945 64.8266 32.0381 64.7859V64.5924C31.8052 64.5516 31.6306 64.3683 31.6306 64.1544C31.6306 63.9304 31.8285 63.7471 32.0731 63.7165L32.0847 63.5027C31.945 63.4823 31.8402 63.3804 31.8402 63.2582C31.8402 63.1258 31.9566 63.0138 32.0963 63.0036L32.1313 62.0361L32.1662 63.0036C32.3176 63.0138 32.434 63.1258 32.434 63.2582C32.434 63.3804 32.3292 63.4823 32.1895 63.5027L32.2011 63.7165C32.4457 63.7471 32.6436 63.9304 32.6436 64.1544C32.6436 64.3683 32.4573 64.5516 32.2244 64.5924L32.2361 64.7859C32.3176 64.8266 32.3758 64.8979 32.3758 64.9794C32.3758 65.0608 32.3292 65.1321 32.2477 65.1728L32.2594 65.4376H32.5621C32.7717 66.4255 35.45 67.4134 37.7207 69.3178C39.8051 71.0593 40.3408 73.1165 40.0963 75.6218H40.4223V76.5893ZM40.073 75.6218C38.6989 74.9395 25.5753 74.9395 24.1896 75.6218H40.073ZM-8.71836 94.5439H-9.88283V93.1793H-7.98474V94.5439H-7.4258V93.1793H-4.35159V94.5439H-3.80429V93.1793H-0.555418V94.5439H0.00352859V93.1793H1.72695V94.5439H1.00497L1.72695 106.368H-9.05606L-8.71836 94.5439ZM14.082 112.977H-9.87119V106.928H14.082V112.977ZM13.6977 106.368H2.98457V105.105H3.32227V99.2898H4.97582V105.105H11.3455V98.0371H12.999V105.105H13.6977V106.368ZM1.73859 92.7006H-9.87119V91.7229H-8.63685L-8.25257 78.0252H-9.04441V76.5995H-7.9731V77.9641H-7.41415V76.5995H-4.33995V77.9641H-3.79265V76.5995H-0.543773V77.9641H0.015172V76.5995H0.911816V78.0252H0.00352859L0.841947 91.7229H1.73859V92.7006ZM39.8867 81.7119H24.3992V76.8439H39.8867V81.7119ZM28.4748 78.5243C27.9275 77.8012 27.1823 77.8114 27.1241 77.567C27.0542 77.8114 26.3089 77.8012 25.7616 78.5243C25.4239 78.9622 25.5404 80.0112 25.5753 80.9888H28.6728C28.7077 80.0112 28.8242 78.9622 28.4748 78.5243ZM33.5054 78.5243C32.9464 77.8012 32.2011 77.8114 32.1429 77.567C32.0847 77.8114 31.3394 77.8012 30.7805 78.5243C30.4428 78.9622 30.5592 80.0112 30.5942 80.9888H33.6917C33.7266 80.0112 33.8431 78.9622 33.5054 78.5243ZM38.664 78.5243C38.105 77.8012 37.3598 77.8114 37.3015 77.567C37.2433 77.8114 36.498 77.8012 35.9391 78.5243C35.6014 78.9622 35.7178 80.0112 35.7528 80.9888H38.8503C38.8852 80.0112 39.0017 78.9622 38.664 78.5243ZM99.7172 76.5995H83.4146V75.632H83.4728C83.2166 73.1267 83.7523 71.0593 85.8367 69.3178C88.1074 67.4134 90.7857 66.4357 90.9953 65.4376H91.298L91.3097 65.1728C91.2282 65.1423 91.1816 65.071 91.1816 64.9895C91.1816 64.8979 91.2398 64.8266 91.3213 64.796L91.333 64.5924C91.1001 64.5516 90.9254 64.3785 90.9254 64.1646C90.9254 63.9406 91.1117 63.7573 91.3563 63.7267L91.3679 63.5128C91.2282 63.4925 91.135 63.3804 91.135 63.2582C91.135 63.1258 91.2398 63.024 91.3912 63.0036L91.4261 62.0361L91.4611 63.0036C91.6008 63.024 91.7173 63.1258 91.7173 63.2582C91.7173 63.3804 91.6125 63.4925 91.4844 63.5128V63.7267C91.7406 63.7573 91.9269 63.9406 91.9269 64.1646C91.9269 64.3785 91.7522 64.5516 91.5193 64.5924L91.5309 64.796C91.6125 64.8266 91.6707 64.8979 91.6707 64.9895C91.6707 65.071 91.6125 65.1423 91.5426 65.1728L91.5542 65.4376H91.857C92.0666 66.4357 94.7449 67.4134 97.0156 69.3178C99.0884 71.0593 99.6357 73.1267 99.3795 75.632H99.7172V76.5995ZM99.3678 75.632C97.9821 74.9496 84.8702 74.9496 83.4845 75.632H99.3678ZM99.1582 81.7119H83.6824V76.8439H99.1582V81.7119ZM87.7581 78.5243C87.2108 77.8012 86.4655 77.8216 86.3956 77.567C86.3374 77.8216 85.5921 77.8012 85.0448 78.5243C84.6955 78.9724 84.8236 80.0112 84.8585 80.999H87.9444C87.9793 80.0112 88.0958 78.9724 87.7581 78.5243ZM92.7769 78.5243C92.2296 77.8012 91.4844 77.8216 91.4261 77.567C91.3563 77.8216 90.611 77.8012 90.0637 78.5243C89.726 78.9724 89.8425 80.0112 89.8774 80.999H92.9749C92.9982 80.0112 93.1263 78.9724 92.7769 78.5243ZM97.9355 78.5243C97.3882 77.8012 96.643 77.8216 96.5847 77.567C96.5149 77.8216 95.7696 77.8012 95.2223 78.5243C94.8846 78.9724 95.0011 80.0112 95.036 80.999H98.1335C98.1684 80.0112 98.2849 78.9724 97.9355 78.5243ZM15.0368 77.8216H16.702V83.6775H15.0368V77.8216ZM20.964 75.8764C20.9291 75.4079 21.0106 75.0209 21.3133 74.695C21.6394 74.3284 22.0353 74.1451 22.0702 73.9618H22.1052V73.9109C22.0974 73.9041 22.0935 73.8939 22.0935 73.8803C22.0935 73.8599 22.1052 73.8497 22.1168 73.8396V73.7988C22.0819 73.7988 22.0586 73.7581 22.0586 73.7174C22.0586 73.6766 22.0819 73.6461 22.1168 73.6359V73.5951C22.1052 73.5951 22.0819 73.5748 22.0819 73.5544C22.0819 73.5239 22.1052 73.5035 22.1168 73.5035L22.1285 73.3202V73.5035C22.1518 73.5035 22.1751 73.5239 22.1751 73.5544C22.1751 73.5748 22.1518 73.5951 22.1401 73.5951V73.6359C22.1751 73.6461 22.1983 73.6766 22.1983 73.7174C22.1983 73.7581 22.1751 73.7988 22.1401 73.7988V73.8396C22.1518 73.8497 22.1634 73.8599 22.1634 73.8803C22.1634 73.8939 22.1556 73.9041 22.1401 73.9109V73.9618H22.1867C22.2216 74.1451 22.6059 74.3284 22.9436 74.695C23.2464 75.0209 23.3279 75.4079 23.2929 75.8764C23.095 75.744 21.162 75.744 20.964 75.8764ZM21.3017 76.131H22.9552V83.6876H21.3017V76.131ZM109.231 85.6226H100.567V84.2885H109.231V85.6226ZM107.205 77.6281C107.17 77.2614 107.251 76.9661 107.554 76.7115C107.88 76.4365 108.276 76.2838 108.299 76.1412H108.346V76.1004C108.338 76.1004 108.334 76.0937 108.334 76.0801C108.334 76.0665 108.338 76.0563 108.346 76.0495L108.358 76.019C108.323 76.019 108.288 75.9884 108.288 75.9579C108.288 75.9273 108.323 75.8968 108.358 75.8968V75.8662C108.334 75.856 108.323 75.8458 108.323 75.8255C108.323 75.8051 108.334 75.7949 108.358 75.7847L108.369 75.6523V75.7847C108.392 75.7949 108.404 75.8051 108.404 75.8255C108.404 75.8458 108.392 75.856 108.369 75.8662V75.8968C108.416 75.8968 108.439 75.9273 108.439 75.9579C108.439 75.9884 108.416 76.019 108.381 76.019V76.0495C108.396 76.0563 108.404 76.0665 108.404 76.0801C108.404 76.0937 108.396 76.1004 108.381 76.1004V76.1412H108.427C108.462 76.2838 108.847 76.4365 109.184 76.7115C109.487 76.9661 109.557 77.2614 109.522 77.6281C109.336 77.5262 107.403 77.5262 107.205 77.6281ZM107.531 77.8318H109.196V83.6876H107.531V77.8318ZM100.94 75.8866C100.905 75.4181 100.986 75.0311 101.289 74.7052C101.627 74.3386 102.011 74.1553 102.046 73.972H102.093V73.921C102.077 73.9142 102.069 73.9041 102.069 73.8905C102.069 73.8701 102.081 73.8599 102.093 73.8497V73.809C102.058 73.809 102.034 73.7683 102.034 73.7275C102.034 73.6868 102.058 73.6562 102.093 73.6461V73.6053C102.081 73.6053 102.058 73.585 102.058 73.5646C102.058 73.534 102.081 73.5137 102.104 73.5137V73.3304L102.116 73.5137C102.128 73.5137 102.151 73.534 102.151 73.5646C102.151 73.585 102.139 73.6053 102.116 73.6053V73.6461C102.151 73.6562 102.174 73.6868 102.174 73.7275C102.174 73.7683 102.151 73.809 102.116 73.809V73.8497C102.128 73.8599 102.139 73.8701 102.139 73.8905C102.139 73.9041 102.135 73.9142 102.128 73.921V73.972H102.163C102.197 74.1553 102.593 74.3386 102.919 74.7052C103.222 75.0311 103.304 75.4181 103.269 75.8866C103.071 75.7542 101.138 75.7542 100.94 75.8866ZM101.278 76.1412H102.931V83.6978H101.278V76.1412ZM2.98457 99.1064C2.94964 98.7398 3.03115 98.4343 3.33391 98.1797C3.65997 97.9047 4.05589 97.7621 4.09082 97.6196H4.12575L4.1374 97.5788C4.12187 97.572 4.11411 97.5618 4.11411 97.5483C4.11411 97.5415 4.12187 97.5347 4.1374 97.5279V97.4973C4.10247 97.4872 4.07918 97.4668 4.07918 97.4362C4.07918 97.3955 4.10247 97.3751 4.1374 97.3649V97.3344C4.12576 97.3344 4.10247 97.3242 4.10247 97.3038C4.10247 97.2835 4.12575 97.2631 4.14904 97.2631C4.17233 97.2631 4.19562 97.2835 4.19562 97.3038C4.19562 97.3242 4.17233 97.3344 4.16069 97.3344V97.3649C4.19562 97.3751 4.21891 97.3955 4.21891 97.4362C4.21891 97.4668 4.19562 97.4872 4.16069 97.4973V97.5279C4.17622 97.5347 4.18398 97.5415 4.18398 97.5483C4.18398 97.5618 4.17622 97.572 4.16069 97.5788L4.17233 97.6196H4.20727C4.2422 97.7621 4.63812 97.9047 4.96417 98.1797C5.26693 98.4343 5.34845 98.7398 5.31351 99.1064C5.11555 99.0046 3.18253 99.0046 2.98457 99.1064ZM11.0078 97.8029C10.9728 97.3344 11.0544 96.9474 11.3571 96.6113C11.6832 96.2549 12.0791 96.0716 12.114 95.8883H12.149V95.8373C12.1412 95.8305 12.1373 95.8204 12.1373 95.8068C12.1373 95.7864 12.149 95.7762 12.1606 95.766V95.7253C12.1257 95.7253 12.1024 95.6846 12.1024 95.6438C12.1024 95.6031 12.1257 95.5725 12.1606 95.5624V95.5216C12.1373 95.5216 12.1257 95.5013 12.1257 95.4809C12.1257 95.4503 12.149 95.43 12.1606 95.43L12.1723 95.2467V95.43C12.1955 95.43 12.2188 95.4503 12.2188 95.4809C12.2188 95.5013 12.1955 95.5216 12.1839 95.5216V95.5624C12.2188 95.5725 12.2421 95.6031 12.2421 95.6438C12.2421 95.6846 12.2188 95.7253 12.1839 95.7253V95.766C12.1955 95.7762 12.2072 95.7864 12.2072 95.8068C12.2072 95.8204 12.1994 95.8305 12.1839 95.8373V95.8883H12.2305C12.2654 96.0716 12.6497 96.2549 12.9874 96.6113C13.2901 96.9474 13.3717 97.3344 13.3251 97.8029C13.1388 97.6705 11.2057 97.6705 11.0078 97.8029ZM123.344 54.1943C123.193 52.6362 123.519 51.3631 124.812 50.2836C126.209 49.1023 127.874 48.4912 128.002 47.8802H128.188V47.7172C128.142 47.6968 128.119 47.6561 128.119 47.6052C128.119 47.5441 128.154 47.5033 128.2 47.483L128.212 47.3608C128.06 47.3302 127.956 47.2182 127.956 47.0858C127.956 46.9534 128.072 46.8414 128.223 46.821L128.235 46.6886C128.154 46.6784 128.084 46.6071 128.084 46.5359C128.084 46.4544 128.154 46.3831 128.247 46.3729L128.27 45.772L128.293 46.3729C128.375 46.3831 128.445 46.4544 128.445 46.5359C128.445 46.6071 128.386 46.6784 128.305 46.6886V46.821C128.456 46.8414 128.584 46.9534 128.584 47.0858C128.584 47.2182 128.468 47.3302 128.328 47.3608V47.483C128.386 47.5033 128.421 47.5441 128.421 47.6052C128.421 47.6561 128.386 47.6968 128.34 47.7172V47.8802H128.526C128.666 48.4912 130.319 49.1023 131.728 50.2836C133.009 51.3631 133.347 52.6362 133.184 54.1943C132.369 53.7666 129.761 53.5222 128.27 53.512C126.814 53.5222 124.159 53.7666 123.344 54.1943ZM123.624 55.4164L123.065 54.5915C124.101 54.0518 127.071 53.8583 128.258 53.8481C129.516 53.8583 132.427 54.0518 133.475 54.5915L132.905 55.4164C132.753 55.335 132.485 55.2637 132.159 55.1924V58.5837H132.742V61.1196H131.973L132.369 75.6218H133.231V76.1412H123.274V75.6218H124.334L125.219 61.1196H124.031V58.5837H124.451V55.172C124.09 55.2535 123.798 55.335 123.624 55.4164ZM130.529 55.0091H128.841V58.5837H130.529V55.0091ZM128.282 55.0091H126.069V58.5939H128.282V55.0091ZM131.6 55.0905C131.437 55.06 131.263 55.0396 131.088 55.0091V58.5837H131.6V55.0905ZM125.51 55.0091C125.332 55.0294 125.161 55.0532 124.998 55.0804V58.5837H125.522V55.0091H125.51ZM122.436 106.388L123.17 94.5643H122.436V93.1996H124.171V94.5643H124.718V93.1996H127.967V94.5643H128.526V93.1996H131.6V94.5643H132.148V93.1996H134.046V94.5643H132.893L133.219 106.388H122.436ZM134.046 112.998H110.093V106.948H134.046V112.998ZM121.19 106.398H110.477V105.125H111.176V98.0677H112.829V105.125H119.199V99.3101H120.852V105.125H121.19V106.398ZM134.046 92.7312H122.436V91.7535H123.333L124.183 78.0558H123.263V76.63H124.159V77.9947H124.718V76.63H127.967V77.9947H128.515V76.63H131.589V77.9947H132.148V76.63H133.219V78.0558H132.427L132.811 91.7535H134.046V92.7312ZM118.861 99.1166C118.826 98.75 118.908 98.4445 119.21 98.1899C119.536 97.9149 119.932 97.7723 119.967 97.6297H120.002V97.589C119.995 97.5822 119.991 97.572 119.991 97.5584C119.991 97.5517 119.998 97.5449 120.014 97.5381V97.5075C119.979 97.4973 119.956 97.477 119.956 97.4464C119.956 97.4057 119.979 97.3853 120.014 97.3751V97.3446C120.002 97.3446 119.979 97.3344 119.979 97.314C119.979 97.2937 120.002 97.2733 120.026 97.2733C120.049 97.2733 120.072 97.2937 120.072 97.314C120.072 97.3344 120.049 97.3446 120.037 97.3446V97.3751C120.072 97.3853 120.095 97.4057 120.095 97.4464C120.095 97.477 120.072 97.4973 120.037 97.5075V97.5381C120.053 97.5449 120.06 97.5517 120.06 97.5584C120.06 97.572 120.053 97.5822 120.037 97.589L120.049 97.6297H120.084C120.119 97.7723 120.515 97.9149 120.841 98.1899C121.143 98.4445 121.225 98.75 121.19 99.1166C120.992 99.0148 119.059 99.0148 118.861 99.1166ZM110.838 97.8131C110.803 97.3446 110.884 96.9576 111.187 96.6317C111.513 96.2651 111.909 96.0817 111.944 95.8984H111.979L111.991 95.8475C111.975 95.8407 111.967 95.8305 111.967 95.817C111.967 95.7966 111.979 95.7864 111.991 95.7762V95.7355C111.956 95.7355 111.932 95.6948 111.932 95.654C111.932 95.6133 111.956 95.5827 111.991 95.5725V95.5318C111.979 95.5318 111.956 95.5114 111.956 95.4911C111.956 95.4605 111.979 95.4401 112.002 95.4401C112.026 95.4401 112.049 95.4605 112.049 95.4911C112.049 95.5114 112.026 95.5318 112.014 95.5318V95.5725C112.049 95.5827 112.072 95.6133 112.072 95.654C112.072 95.6948 112.049 95.7355 112.014 95.7355V95.7762C112.026 95.7864 112.037 95.7966 112.037 95.817C112.037 95.8305 112.033 95.8407 112.026 95.8475V95.8984H112.061C112.095 96.0817 112.491 96.2651 112.817 96.6317C113.12 96.9576 113.202 97.3446 113.167 97.8131C112.969 97.6807 111.036 97.6807 110.838 97.8131Z" fill="#429FF5"/>
</g>
</g>
</g>
</g>
<circle id="Ellipse 3979" cx="61.5" cy="61" r="59" stroke="#FBFBFB" stroke-width="4"/>
</g>
</svg>
